<svg width="939" height="939" viewBox="0 0 939 939" fill="none" xmlns="http://www.w3.org/2000/svg">
<g clip-path="url(#clip0_2024_1403)">
<rect width="939" height="939" fill="#F1F5FF"/>
<path d="M308.306 626.344C299.175 610.675 289.391 594.936 275.006 581.976C238.531 549.097 175.902 539.336 122.683 551.128C81.6079 560.235 42.8208 583.354 32.0557 616.023C27.1985 630.757 28.2727 646.286 29.8139 661.465C39.8084 760.803 89.5475 941.031 91.4856 945.211L426.675 943.833C406.966 834.197 366.942 726.873 308.329 626.321L308.306 626.344Z" fill="#455A64"/>
<path d="M426.652 943.856C426.652 943.856 426.442 942.992 426.092 941.311C425.741 939.606 425.251 937.084 424.597 933.815C423.92 930.522 423.173 926.436 422.169 921.625C421.118 916.815 419.903 911.281 418.549 905.046C412.921 880.13 403.604 844.308 388.636 801.154C373.504 758.094 352.394 707.794 323.555 654.739C321.756 651.423 319.935 648.084 318.114 644.745C316.222 641.429 314.331 638.09 312.416 634.727C308.61 628.002 304.733 621.206 300.53 614.528C292.17 601.194 282.362 588.14 269.379 578.099C267.838 576.745 266.133 575.601 264.452 574.433C262.747 573.289 261.112 572.051 259.361 570.954C255.765 568.922 252.332 566.61 248.526 564.882L242.921 562.127L237.107 559.722L234.188 558.507L231.199 557.48L225.221 555.425C209.061 550.428 191.968 547.765 174.594 547.065C157.221 546.528 139.987 548.092 123.454 551.595C106.945 555.261 91.0888 560.912 76.7743 568.875C69.6053 572.798 62.8333 577.352 56.7385 582.559C50.6438 587.744 45.1561 593.581 40.7193 600.05C39.6918 601.708 38.571 603.319 37.6135 605.024C36.7262 606.752 35.8388 608.48 34.9514 610.208C34.2509 612.006 33.5504 613.804 32.8498 615.602C32.196 617.423 31.6822 619.268 31.2152 621.136C29.4171 628.609 28.9501 636.245 29.1369 643.764C29.3471 651.283 30.0243 658.709 30.935 665.995C31.8223 673.281 32.5462 680.52 33.6905 687.572C35.6753 701.723 38.0572 715.407 40.4391 728.624C45.2495 755.035 50.5504 779.507 55.5009 801.785C65.4954 846.363 74.6259 882.184 81.071 906.891C84.2935 919.244 86.9089 928.818 88.6836 935.31C89.5943 938.532 90.2949 940.984 90.7619 942.665C91.2756 944.3 91.5092 945.164 91.5092 945.164C91.5092 945.164 91.2056 944.347 90.6451 942.712C90.1548 941.031 89.4075 938.579 88.4501 935.38C86.6053 928.911 83.9199 919.36 80.6273 907.031C74.0421 882.348 64.7715 846.55 54.6602 801.995C49.663 779.717 44.2921 755.245 39.4583 728.811C37.0531 715.594 34.6479 701.91 32.6396 687.735C31.4954 680.66 30.7715 673.444 29.8608 666.135C28.9501 658.826 28.2729 651.377 28.0394 643.811C27.8525 636.245 28.2962 628.492 30.1177 620.903C30.5847 619.011 31.0984 617.12 31.7756 615.275C32.4762 613.454 33.2001 611.609 33.924 609.764C34.8113 608.013 35.7221 606.238 36.6328 604.487C37.5902 602.759 38.7344 601.124 39.7852 599.443C44.2688 592.857 49.8265 586.949 56.0146 581.695C62.1795 576.418 68.9982 571.841 76.2372 567.871C90.6685 559.838 106.641 554.14 123.244 550.451C139.894 546.901 157.221 545.337 174.688 545.874C192.131 546.574 209.342 549.26 225.618 554.304L231.642 556.359L234.655 557.386L237.597 558.601L243.435 561.029L249.086 563.808C252.916 565.536 256.395 567.895 260.015 569.926C261.766 571.047 263.447 572.285 265.152 573.452C266.857 574.62 268.585 575.787 270.126 577.165C283.25 587.323 293.151 600.517 301.534 613.897C305.737 620.599 309.637 627.395 313.443 634.143C315.358 637.506 317.25 640.845 319.141 644.184C320.963 647.547 322.784 650.886 324.582 654.202C353.398 707.351 374.438 757.744 389.476 800.874C404.375 844.098 413.552 879.989 419.039 904.952C420.371 911.211 421.538 916.745 422.566 921.555C423.546 926.366 424.27 930.476 424.901 933.792C425.508 937.084 425.975 939.606 426.278 941.311C426.582 943.016 426.699 943.88 426.699 943.88L426.652 943.856Z" fill="#263238"/>
<path d="M45.5767 592.694C45.5767 592.694 45.5767 593.021 45.4833 593.628C45.3898 594.305 45.2731 595.216 45.1096 596.36C44.7827 598.766 44.3857 602.315 44.1055 606.915C43.5918 616.092 44.1989 629.45 46.9311 645.702C52.5822 678.161 59.4942 723.183 69.6055 772.408C74.6962 797.021 80.2539 820.326 86.1385 841.296C91.9997 862.266 98.1879 880.877 103.816 896.359C109.607 911.771 114.768 924.077 118.527 932.461C120.419 936.617 121.89 939.863 122.917 942.128C123.384 943.202 123.758 944.043 124.038 944.65C124.272 945.234 124.388 945.514 124.388 945.538C124.388 945.538 114.768 927.51 103.022 896.663C97.2772 881.204 90.9956 862.593 85.0643 841.599C79.1096 820.63 73.5052 797.301 68.4146 772.665C58.28 723.37 51.508 678.348 46.0904 645.842C43.475 629.543 42.9846 616.116 43.6618 606.892C44.3624 597.668 45.6 592.694 45.6 592.694H45.5767Z" fill="#263238"/>
<path d="M88.9872 671.949C89.0339 672.16 86.6754 672.673 83.0326 673.981C79.3897 675.289 74.5326 677.53 69.7221 680.963C60.0078 687.805 55.2908 696.562 54.9639 696.282C54.8471 696.212 55.8279 693.993 58.1163 690.771C60.3815 687.572 64.0944 683.485 68.9982 679.959C73.9021 676.456 78.9694 674.261 82.7523 673.164C86.5353 672.043 88.9639 671.833 88.9872 671.949Z" fill="#263238"/>
<path d="M75.7935 694.321C75.7935 694.694 71.3567 694.531 66.1259 695.768C60.8952 696.936 56.9721 698.991 56.8086 698.664C56.6218 698.407 60.4048 695.792 65.8691 694.578C71.31 693.317 75.8636 694.017 75.7935 694.321Z" fill="#263238"/>
<path d="M66.2429 807.412C66.1028 807.366 66.1729 806.758 66.6633 805.988C67.1537 805.194 68.1578 804.306 69.5122 803.816C70.8666 803.326 72.221 803.396 73.085 803.699C73.9723 803.98 74.3927 804.4 74.3226 804.54C74.1825 804.844 72.1976 804.096 69.9092 804.96C67.5973 805.731 66.5465 807.576 66.2196 807.412H66.2429Z" fill="#263238"/>
<path d="M70.7728 816.963C70.4459 816.963 70.6327 814.558 72.8044 812.853C74.9527 811.125 77.3346 811.452 77.2645 811.779C77.2645 812.129 75.3264 812.363 73.575 813.811C71.7769 815.212 71.123 817.057 70.7961 816.963H70.7728Z" fill="#263238"/>
<path d="M503.479 853.321C503.479 853.321 496.007 670.057 489.095 638.299C480.314 597.901 446.314 573.498 446.314 573.498L433.284 888.676L446.828 896.779L454.814 900.982C458.411 914.386 451.008 917.655 487.647 927.089C490.589 927.836 549.132 937.084 549.132 937.084L554.876 877.607L503.479 853.321Z" fill="#B78876"/>
<path d="M603.401 934.982C603.401 934.982 582.244 936.43 573.604 939.933C564.217 943.716 552.658 941.521 544.812 936.43C536.942 931.339 532.342 926.693 532.342 926.693L503.479 926.833C503.479 926.833 489.328 912.775 497.104 891.221C498.459 887.462 499.953 884.473 503.479 879.826C506.818 876.043 508.36 873.801 517.677 872.003L555.927 877.818C555.927 877.818 608.935 872.914 618.463 877.164C618.463 877.164 630.465 883.959 634.202 886.831C635.603 887.905 640.086 901.333 631.61 908.548C631.61 908.548 639.246 914.363 635.299 919.827L633.408 922.256C633.408 922.256 638.592 928.701 636.07 931.596C633.548 934.492 611.107 948.293 602.91 945.28C594.714 942.268 600.435 935.519 603.985 934.072" fill="#B78876"/>
<path d="M625.655 896.966C625.655 896.966 624.651 897.316 622.876 898.016C621.102 898.74 618.533 899.768 615.287 900.865C613.676 901.426 611.878 901.986 609.94 902.547C608.025 903.107 605.9 903.574 603.728 904.345C601.58 905.115 599.244 906.189 597.586 908.221C595.999 910.206 594.948 913.125 596.092 915.834C596.629 917.165 597.75 918.169 598.964 918.799C600.179 919.407 601.486 919.663 602.771 919.78C605.316 919.967 607.698 919.593 609.963 919.243C614.47 918.449 618.393 917.165 621.615 915.95C624.838 914.736 627.383 913.592 629.135 912.798C630.886 912.004 631.82 911.514 631.797 911.467C631.773 911.397 630.769 911.771 628.971 912.471C627.173 913.148 624.604 914.199 621.382 915.32C618.159 916.441 614.26 917.655 609.823 918.379C607.604 918.706 605.222 919.033 602.841 918.846C601.65 918.753 600.459 918.472 599.385 917.959C598.334 917.422 597.423 916.581 596.956 915.46C595.999 913.218 596.886 910.58 598.31 908.805C599.782 906.983 601.953 905.909 604.032 905.162C606.133 904.415 608.235 903.901 610.173 903.294C612.111 902.71 613.886 902.103 615.521 901.496C618.743 900.305 621.312 899.184 623.04 898.367C624.768 897.549 625.702 897.036 625.679 896.966H625.655Z" fill="#AA6550"/>
<path d="M623.273 880.666C623.273 880.666 622.269 881.017 620.494 881.74C618.72 882.464 616.174 883.515 612.952 884.659C609.753 885.804 605.876 887.065 601.533 888.209C599.384 888.816 596.909 889.306 594.878 891.058C593.897 891.922 593.15 893.183 592.986 894.56C592.799 895.938 593.08 897.339 593.663 898.577C594.854 901.122 597.283 902.734 599.688 903.481C602.117 904.251 604.639 904.251 606.904 903.901C611.457 903.131 615.194 901.402 618.416 900.305C621.499 899.161 624.044 898.203 626.005 897.479C627.78 896.779 628.761 896.382 628.738 896.312C628.738 896.242 627.71 896.545 625.889 897.129C623.927 897.783 621.335 898.647 618.206 899.674C614.96 900.702 611.177 902.337 606.787 903.037C604.592 903.364 602.233 903.341 599.968 902.593C597.726 901.893 595.555 900.398 594.527 898.157C593.43 895.962 593.733 893.206 595.531 891.712C597.259 890.17 599.641 889.61 601.79 889.026C606.156 887.835 610.033 886.504 613.232 885.266C616.431 884.029 618.953 882.885 620.681 882.067C622.409 881.227 623.32 880.713 623.297 880.666H623.273Z" fill="#AA6550"/>
<path d="M612.485 885.57C612.765 885.57 612.858 883.468 613.419 881.016C613.956 878.541 614.727 876.603 614.47 876.486C614.26 876.369 613.045 878.214 612.485 880.83C611.901 883.445 612.228 885.617 612.485 885.593V885.57Z" fill="#AA6550"/>
<path d="M532.716 887.929L552.705 879.732C552.705 879.732 608.118 852.434 609.099 853.835C610.08 855.236 613.115 855.003 612.578 861.845C612.065 868.687 579.722 883.118 578.742 885.5C577.761 887.882 579.722 899.791 567.86 908.618C555.997 917.422 547.31 917.795 547.31 917.795" fill="#B78876"/>
<path d="M547.334 917.795C547.334 917.795 547.497 917.819 547.824 917.795C548.128 917.795 548.618 917.725 549.225 917.632C550.44 917.445 552.214 917.025 554.433 916.254C556.651 915.484 559.29 914.339 562.162 912.681C565.011 911 568.28 908.992 571.316 906.049C574.352 903.131 576.804 898.974 577.948 894.117C578.555 891.712 578.718 889.096 578.975 886.574C578.999 886.247 579.069 885.967 579.162 885.71C579.232 885.523 579.419 885.36 579.676 885.15C580.166 884.753 580.727 884.402 581.287 884.052C582.408 883.352 583.599 882.674 584.79 881.997C589.6 879.312 594.691 876.58 599.852 873.474C602.42 871.933 605.012 870.275 607.511 868.407C608.749 867.449 609.986 866.468 611.084 865.277C611.644 864.694 612.158 864.04 612.578 863.293C612.765 862.896 612.952 862.499 613.022 862.032C613.115 861.588 613.092 861.214 613.115 860.794C613.139 859.183 613.045 857.455 612.158 855.937C611.714 855.19 610.99 854.629 610.337 854.185C610.01 853.975 609.729 853.765 609.543 853.532C609.473 853.485 609.589 853.532 609.356 853.345C609.099 853.181 609.052 853.251 608.959 853.228C608.772 853.228 608.702 853.251 608.562 853.275C608.352 853.321 608.142 853.368 607.955 853.438C604.942 854.442 602.187 855.703 599.431 856.918C593.944 859.369 588.713 861.821 583.739 864.203C573.791 868.944 564.871 873.31 557.398 877C555.53 877.911 553.756 878.845 552.074 879.615C550.346 880.339 548.712 881.016 547.194 881.647C544.158 882.931 541.543 884.029 539.371 884.94C537.293 885.827 535.635 886.551 534.444 887.065C533.93 887.298 533.51 887.485 533.159 887.648C532.879 887.788 532.739 887.859 532.739 887.882C532.739 887.882 532.903 887.859 533.206 887.742C533.556 887.602 533.977 887.461 534.514 887.251C535.728 886.784 537.386 886.13 539.511 885.29C541.706 884.426 544.345 883.352 547.404 882.137C548.945 881.53 550.58 880.853 552.331 880.152C554.082 879.405 555.81 878.494 557.702 877.607C565.245 874.011 574.188 869.738 584.113 864.997C589.11 862.662 594.341 860.21 599.805 857.782C602.537 856.591 605.339 855.306 608.212 854.349C608.398 854.302 608.562 854.255 608.725 854.209C608.772 854.209 608.912 854.185 608.912 854.209C608.912 854.185 608.912 854.279 608.936 854.139C609.006 853.952 608.935 853.999 608.959 853.905C608.959 853.882 609.006 853.858 609.029 853.835C608.398 854.279 608.865 853.975 608.749 854.092L608.795 854.162C609.099 854.559 609.473 854.793 609.776 855.003C610.43 855.446 610.967 855.867 611.317 856.474C612.041 857.688 612.181 859.276 612.135 860.794C612.111 861.611 612.088 862.265 611.714 862.896C611.341 863.526 610.897 864.133 610.36 864.67C609.309 865.768 608.118 866.749 606.904 867.683C604.452 869.527 601.883 871.162 599.315 872.703C594.201 875.809 589.11 878.541 584.299 881.25C583.109 881.927 581.918 882.604 580.773 883.328C580.19 883.702 579.629 884.052 579.092 884.496C578.835 884.706 578.485 884.963 578.321 885.407C578.205 885.78 578.135 886.13 578.111 886.457C577.854 889.096 577.714 891.571 577.131 893.953C576.056 898.67 573.721 902.71 570.802 905.582C567.883 908.478 564.661 910.51 561.859 912.214C559.01 913.896 556.441 915.087 554.269 915.88C552.098 916.698 550.346 917.141 549.155 917.398C548.548 917.538 548.104 917.609 547.777 917.655C547.474 917.702 547.31 917.725 547.31 917.749L547.334 917.795Z" fill="#AA6550"/>
<path d="M609.099 919.149C609.099 919.149 608.305 919.266 606.974 919.827C605.643 920.387 603.775 921.345 601.766 922.979C600.786 923.82 599.735 924.754 598.777 925.991C597.867 927.206 596.956 928.84 597.259 930.732C597.54 932.647 599.221 934.141 601.066 934.678C602.981 935.285 605.036 934.935 606.927 934.375C614.376 931.946 620.845 929.051 625.328 926.529C627.57 925.268 629.321 924.147 630.489 923.329C631.656 922.512 632.264 921.998 632.24 921.952C632.194 921.882 631.516 922.302 630.302 923.026C629.088 923.75 627.29 924.777 625.025 925.945C620.518 928.28 614.026 931.059 606.67 933.464C604.872 934.001 602.981 934.305 601.346 933.791C599.711 933.301 598.357 932.086 598.123 930.568C597.867 929.074 598.591 927.579 599.431 926.435C600.272 925.268 601.299 924.287 602.21 923.446C606.04 920.154 609.216 919.29 609.122 919.103L609.099 919.149Z" fill="#AA6550"/>
<path d="M195.704 381.478C190.543 380.38 188.629 372.464 192.715 369.102C188.932 367.023 190.006 361.045 192.972 357.916C195.938 354.787 200.164 352.849 202.476 349.206C197.666 350.444 192.225 346.52 191.898 341.547C188.722 341.827 185.476 339.725 184.425 336.713C183.374 333.7 184.635 330.034 187.321 328.306C183.281 327.956 183.631 321.277 186.994 319.036C190.38 316.794 194.817 316.957 198.506 315.229C205.115 307.78 214.129 302.479 223.866 300.354C218.355 296.244 212.844 292.134 207.31 288.025C206.002 287.044 204.624 286.016 203.971 284.498C202.523 281.206 205.115 277.586 207.824 275.251C213.592 270.324 220.854 267.148 228.396 266.261C230.825 265.981 233.907 266.354 234.678 268.666C239.815 266.237 245.77 266.494 251.445 266.798C254.62 266.961 258.123 267.265 260.388 269.507C259.174 266.564 256.652 264.439 254.48 262.104C252.309 259.792 250.324 256.873 250.651 253.721C250.978 250.569 254.784 247.836 257.399 249.611C254.457 248.233 254.854 243.516 257.353 241.438C259.851 239.36 263.377 239.196 266.623 239.126C268.888 239.08 271.76 239.453 272.391 241.625C273.418 236.558 282.082 235.857 283.927 240.691C286.986 237.702 292.684 238.145 295.229 241.578C300.203 238.496 307.745 241.298 309.497 246.879C306.554 241.952 303.636 237.048 300.693 232.121C299.035 229.342 298.755 224.111 301.978 224.461C297.354 224.461 294.692 218.156 296.957 214.117C299.222 210.077 304.453 208.536 309.053 209.119L313.07 214.934C316.175 212.762 320.659 212.809 323.718 215.027C326.777 217.246 328.201 221.519 327.081 225.115C328.949 223.13 332.568 224.205 334.039 226.493C335.511 228.781 335.464 231.7 335.37 234.433C339.854 230.65 348.144 235.063 347.513 240.901C351.576 238.799 356.223 237.842 360.8 238.145C358.745 234.83 359.166 230.183 361.804 227.31C364.443 224.438 369.043 223.597 372.523 225.372C372.943 220.165 379.108 216.288 383.989 218.156C385.413 212.786 392.465 208.816 396.762 212.342C401.199 216.008 398.817 223.107 396.085 228.174C393.142 233.662 390.2 239.173 387.258 244.661C396.855 239.523 406.429 234.386 416.027 229.248C416.914 228.758 417.895 228.268 418.899 228.408C420.277 228.571 421.258 229.832 422.519 230.463C424.247 231.327 426.372 230.906 428.217 231.467C433.284 233.008 433.214 240.761 429.734 244.777C426.255 248.794 420.931 250.709 417.008 254.258C421.258 255.052 425.531 255.869 429.781 256.663C431.369 249.634 439.939 245.151 446.641 247.836C448.369 243.119 454.697 242.512 459.718 242.722C464.225 242.909 469.175 243.283 472.351 246.459C476.438 250.522 475.667 257.667 472.234 262.314C468.802 266.961 463.431 269.647 458.27 272.192C459.134 276.022 464.085 277.189 467.961 276.629C471.837 276.069 475.877 274.551 479.544 275.928C484.517 277.797 486.642 284.242 491.64 286.063C493.158 286.623 494.862 286.694 496.217 287.581C498.131 288.842 498.785 291.294 499.299 293.536C499.93 296.314 500.537 299.07 501.167 301.849C501.471 303.227 501.774 304.628 501.517 306.005C500.607 310.512 494.302 311.493 490.052 309.765C485.802 308.037 482.136 304.651 477.582 303.997C483.583 306.986 489.912 310.302 493.274 316.093C496.637 321.908 495.259 330.922 488.931 333.187C482.533 335.475 476.251 329.941 471.604 325.014C466.957 320.063 460.278 314.809 454.09 317.634" fill="#263238"/>
<path d="M204.928 377.531C200.094 373.912 191.851 378.676 192.552 384.677C186.597 386.358 181.763 391.496 180.456 397.544C179.148 403.592 181.413 410.27 186.153 414.264C189.936 417.439 197.432 417.556 198.226 412.699C199.744 416.786 203.434 419.985 207.684 420.919C203.597 426.873 206.259 436.284 212.891 439.203C205.208 444.481 206.656 458.422 215.273 461.994C213.008 467.038 215.553 473.67 220.597 475.935C225.641 478.2 232.273 475.632 234.515 470.588C236.173 474.534 237.994 478.714 241.52 481.096C245.07 483.501 250.837 483.081 252.636 479.181C254.597 487.658 265.806 492.375 273.232 487.868C272.718 492.538 276.267 497.325 280.914 498.119C285.561 498.937 290.535 495.667 291.633 491.091C299.666 491.698 307.699 492.328 315.732 492.935C321.056 493.332 326.427 493.753 331.751 493.169C338.546 492.422 345.131 490.04 350.829 486.257C352.651 485.042 354.495 483.641 356.691 483.361C359.189 483.034 361.618 484.202 363.953 485.136C376.353 490.016 391.251 487.821 401.713 479.578C403.37 478.27 404.958 476.823 406.92 476.099C409.185 475.281 411.707 475.562 414.112 475.725C420.02 476.145 425.998 475.795 431.836 474.721C436.833 473.787 442.181 472.012 444.89 467.692C447.575 463.372 445.474 456.156 440.406 455.806C440.289 452.49 441.317 448.988 443.886 446.886C446.454 444.808 450.704 444.714 452.806 447.283C454.908 449.852 453.273 454.639 449.98 454.779C455.094 459.005 464.015 454.452 464.715 447.867C465.416 441.258 459.321 435.21 452.713 434.603C454.441 430.003 455.001 424.959 454.347 420.078C457.336 424.655 464.272 426.056 468.778 422.997C471.184 427.457 475.06 431.38 479.987 432.618C484.914 433.832 490.799 431.684 492.761 427.014C494.722 422.343 491.149 415.945 486.082 416.108C490.122 410.761 485.522 401.584 478.82 401.607C480.431 395.232 477.045 387.97 471.137 385.121C474.827 387.876 480.945 386.101 482.579 381.805C485.241 386.895 492.807 386.358 497.991 383.883C502.055 381.945 506.048 379.026 505.417 373.118C505.114 370.362 503.736 367.794 501.728 365.902C496.964 361.395 490.332 360.578 484.027 359.878C480.921 352.031 479.1 343.672 478.68 335.242C485.708 336.082 493.321 331.459 494.792 324.547L459.882 302.853C459.882 302.853 379.085 290.383 376.189 290.383C373.294 290.383 204.438 377.345 204.438 377.345C200.538 381.431 192.902 379.586 190.03 374.706C187.158 369.825 188.302 363.404 191.384 358.663C194.467 353.923 199.16 350.514 203.737 347.198C198.343 346.824 192.575 346.334 188.559 342.387C186.06 339.935 184.892 336.269 186.247 333.047C188.185 328.4 193.579 328.703 197.035 326.064C199.067 324.523 200.211 322.118 201.472 319.9" fill="#263238"/>
<path d="M430.598 359.154C428.59 330.314 409.232 295.03 380.486 298.276L290.862 321.581C282.129 322.562 275.613 330.058 275.847 338.838L285.771 532.493L264.171 542.814C263.961 542.861 286.519 555.378 286.308 555.424C286.308 555.424 307.045 616.396 366.288 597.457C378.034 593.698 383.358 580.808 385.623 567.567L386.23 567.637C386.23 566.073 405.822 551.058 405.846 549.563C405.846 551.058 386.534 538.611 386.534 538.611L386.487 533.357C386.581 515.867 386.51 508.698 386.534 508.861C386.534 508.861 423.359 502.486 430.668 454.335C434.311 430.376 432.84 391.169 430.598 359.13V359.154Z" fill="#B78876"/>
<path d="M418.502 393.901C418.642 397.147 416.004 399.949 412.594 400.159C409.208 400.369 406.336 397.894 406.196 394.648C406.056 391.402 408.695 388.576 412.104 388.39C415.513 388.179 418.362 390.655 418.502 393.901Z" fill="#263238"/>
<path d="M422.239 379.61C421.468 380.427 416.774 376.994 410.143 377.064C403.511 377.041 398.654 380.474 397.93 379.68C397.579 379.329 398.35 377.858 400.452 376.317C402.53 374.776 406.079 373.235 410.213 373.235C414.346 373.235 417.825 374.729 419.857 376.27C421.912 377.812 422.612 379.283 422.239 379.633V379.61Z" fill="#263238"/>
<path d="M355.103 394.158C355.243 397.404 352.604 400.206 349.195 400.416C345.809 400.626 342.937 398.151 342.797 394.905C342.656 391.659 345.295 388.834 348.705 388.647C352.114 388.437 354.963 390.912 355.103 394.158Z" fill="#263238"/>
<path d="M356.995 381.291C356.224 382.108 351.53 378.675 344.898 378.745C338.267 378.722 333.409 382.155 332.686 381.361C332.335 381.011 333.083 379.539 335.208 377.998C337.286 376.434 340.835 374.916 344.969 374.916C349.102 374.916 352.581 376.41 354.613 377.951C356.668 379.493 357.368 380.964 356.995 381.314V381.291Z" fill="#263238"/>
<path d="M381.42 430.353C381.397 429.979 385.507 429.232 392.185 428.345C393.89 428.158 395.478 427.807 395.758 426.663C396.155 425.426 395.431 423.604 394.591 421.643C392.979 417.556 391.275 413.259 389.5 408.776C382.424 390.445 377.264 375.36 378.011 375.079C378.758 374.799 385.11 389.441 392.185 407.772C393.89 412.302 395.525 416.599 397.066 420.732C397.72 422.647 398.841 424.842 398 427.387C397.556 428.648 396.319 429.582 395.221 429.886C394.147 430.236 393.189 430.259 392.349 430.306C385.624 430.703 381.444 430.773 381.42 430.399V430.353Z" fill="#263238"/>
<path d="M386.534 508.884C386.534 508.884 354.192 511.196 321.99 492.141C321.99 492.141 337.846 525.09 385.95 520.257L386.511 508.884H386.534Z" fill="#AA6550"/>
<path d="M382.191 445.321C378.852 440.651 373.481 437.802 368.39 438.012C364.864 438.152 361.432 439.787 359.564 442.893C357.672 445.998 357.625 450.622 359.867 453.915C362.389 457.627 367.083 458.818 370.889 457.884C374.695 456.95 377.824 454.312 380.767 451.673C381.584 450.949 382.425 450.178 382.868 449.127C383.335 448.077 383.312 446.629 382.565 445.671" fill="#AA6550"/>
<path d="M361.898 435.094C362.972 435.024 363.042 442.239 369.254 447.307C375.442 452.397 383.125 451.533 383.195 452.537C383.288 452.981 381.49 453.938 378.244 454.055C375.069 454.195 370.422 453.191 366.615 450.085C362.832 446.98 361.174 442.8 360.917 439.857C360.614 436.845 361.408 435.047 361.898 435.094Z" fill="#263238"/>
<path d="M359.89 365.972C359.26 367.77 352.604 366.976 344.828 367.957C337.029 368.798 330.77 371.11 329.72 369.498C329.253 368.728 330.327 367.023 332.872 365.248C335.371 363.497 339.387 361.792 344.058 361.255C348.728 360.718 353.025 361.419 355.85 362.563C358.722 363.707 360.17 365.108 359.89 365.972Z" fill="#263238"/>
<path d="M419.67 360.415C418.502 361.933 413.926 360.415 408.438 360.368C402.95 360.135 398.28 361.442 397.206 359.878C396.739 359.107 397.463 357.589 399.471 356.165C401.456 354.74 404.818 353.549 408.601 353.643C412.384 353.736 415.654 355.091 417.592 356.609C419.553 358.15 420.184 359.691 419.693 360.438L419.67 360.415Z" fill="#263238"/>
<path d="M275.637 388.156C274.282 391.309 275.357 395.606 277.925 397.38C280.494 399.155 284.16 398.151 285.818 395.209C287.92 398.034 292.73 395.162 292.076 391.472C294.668 392.943 298.101 389.441 297.26 386.171C300.273 387.339 302.094 382.459 303.682 379.189C304.546 377.415 305.737 375.873 306.788 374.215C310.057 369.031 311.855 362.54 311.785 356.071C315.732 351.611 316.736 344.699 317.53 338.301C318.02 334.307 318.534 330.314 319.024 326.321C319.771 325.387 320.519 324.476 321.266 323.542C321.102 326.438 323.227 328.937 325.563 329.777C327.898 330.595 330.42 330.151 332.825 329.684C335.207 329.217 337.589 328.773 339.994 328.306C341.488 328.75 342.96 329.193 344.454 329.614C343.123 333.327 344.454 337.553 345.738 341.29C346.626 343.858 347.723 346.66 349.848 347.805C351.973 348.949 355.196 346.894 354.589 344.209C356.153 346.03 358.979 345.306 360.403 343.321C361.828 341.336 362.108 338.557 362.038 335.942C361.874 329.614 359.843 323.379 356.363 318.568C360.497 322.468 364.63 326.368 368.74 330.268C369.651 331.132 370.631 332.019 371.776 332.136C371.425 334.237 373.48 335.989 375.255 335.779C377.053 335.568 378.524 334.097 379.879 332.673C382.914 329.497 386.16 324.103 383.475 320.507C384.899 320.25 385.623 317.845 384.689 316.56C389.383 320.156 394.076 323.752 398.747 327.372C397.346 326.555 395.781 328.726 396.085 330.548C396.388 332.369 397.743 333.654 399.004 334.751C397.789 336.643 397.182 339.071 397.346 341.43C394.824 339.141 390.994 343.345 391.788 347.011C392.582 350.654 396.061 352.615 399.214 352.872C401.829 353.082 405.052 351.845 405.519 348.785C408.624 349.463 411.613 345.213 410.516 341.71C412.758 343.228 414.743 339.211 414.883 336.152C415.14 330.571 414.322 324.897 412.501 319.736C412.407 320.507 413.271 321.184 413.832 320.763C414.392 320.343 414.252 319.129 413.622 318.895C416.26 325.387 418.876 331.856 421.515 338.347C423.593 343.485 425.718 348.809 425.811 354.507C425.835 356.818 426.091 359.994 428.03 360.228C428.543 360.275 429.081 360.064 429.571 359.831C435.175 357.099 439.542 351.448 442.368 345.073C443.325 342.924 444.119 340.659 444.353 338.254C444.82 333.28 442.765 328.493 442.414 323.496C442.274 321.301 442.461 319.059 442.017 316.91C441.293 313.454 439.075 310.792 436.95 308.317C429.384 299.49 421.374 290.36 411.193 286.763C404.982 284.568 398.326 284.615 392.091 282.49C388.238 281.182 384.619 279.057 380.883 277.306C365.517 270.044 348.517 269.063 332.031 270.441C322.807 271.211 313.513 272.706 304.92 276.722C295.486 281.136 287.219 288.468 279.443 296.198C267.837 307.757 256.885 320.647 249.46 336.339C243.762 348.388 240.236 362.446 242.221 376.06C244.205 389.674 252.612 402.448 264.008 405.297C265.502 403.592 266.997 401.864 268.491 400.159" fill="#263238"/>
<path d="M288.784 397.38C288.13 397.077 262 388.787 262.233 415.641C262.467 442.496 289.391 436.705 289.415 435.934C289.461 435.163 288.784 397.38 288.784 397.38Z" fill="#B78876"/>
<path d="M281.124 425.846C281.007 425.752 280.657 426.173 279.863 426.546C279.093 426.897 277.762 427.153 276.36 426.64C273.512 425.612 271.083 421.152 270.92 416.295C270.826 413.843 271.317 411.531 272.181 409.593C272.974 407.631 274.235 406.23 275.66 405.973C277.084 405.623 278.089 406.487 278.439 407.234C278.812 407.982 278.649 408.519 278.789 408.565C278.859 408.636 279.373 408.122 279.139 407.001C279.023 406.464 278.696 405.833 278.065 405.32C277.411 404.806 276.477 404.549 275.473 404.666C273.395 404.829 271.55 406.744 270.616 408.869C269.565 410.994 268.958 413.633 269.051 416.365C269.262 421.783 272.087 426.803 275.987 427.901C277.878 428.368 279.443 427.784 280.26 427.153C281.078 426.476 281.218 425.892 281.124 425.822V425.846Z" fill="#AA6550"/>
<path d="M376.586 389.184C376.399 389.184 376.586 386.335 375.372 381.478C374.134 376.691 370.958 369.662 363.766 364.244C360.217 361.582 355.71 359.34 350.549 358.43C345.412 357.566 339.62 357.729 334.109 359.831C331.331 360.788 328.668 362.259 326.217 364.104C323.741 365.902 321.476 368.144 319.608 370.736C315.778 375.85 313.607 382.412 313.537 389.184C313.607 395.956 315.755 402.541 319.608 407.655C321.476 410.247 323.718 412.489 326.217 414.287C328.668 416.132 331.354 417.579 334.109 418.56C339.62 420.662 345.412 420.825 350.549 419.961C355.71 419.051 360.193 416.809 363.766 414.147C370.958 408.706 374.134 401.677 375.372 396.913C376.609 392.033 376.423 389.184 376.586 389.207C376.633 389.207 376.633 389.908 376.586 391.239C376.586 391.916 376.563 392.733 376.399 393.714C376.282 394.695 376.142 395.816 375.815 397.03C374.718 401.911 371.589 409.173 364.28 414.847C360.66 417.626 356.06 419.985 350.736 420.965C345.435 421.9 339.457 421.783 333.736 419.634C330.863 418.654 328.085 417.159 325.516 415.244C322.924 413.376 320.589 411.064 318.651 408.379C314.657 403.078 312.392 396.236 312.322 389.207C312.392 382.178 314.657 375.336 318.651 370.059C320.589 367.373 322.924 365.062 325.516 363.193C328.061 361.302 330.84 359.807 333.736 358.803C339.457 356.655 345.435 356.515 350.736 357.472C356.06 358.453 360.66 360.812 364.28 363.59C371.589 369.265 374.718 376.527 375.815 381.408C376.166 382.645 376.282 383.766 376.399 384.724C376.563 385.681 376.586 386.522 376.586 387.199C376.609 388.53 376.586 389.231 376.586 389.231V389.184Z" fill="#455A64"/>
<path d="M452.362 389.184C452.175 389.184 452.362 386.335 451.148 381.478C449.91 376.691 446.734 369.662 439.542 364.244C435.969 361.582 431.486 359.34 426.325 358.43C421.188 357.566 415.396 357.729 409.885 359.831C407.107 360.788 404.445 362.259 401.993 364.104C399.517 365.902 397.252 368.144 395.384 370.736C391.554 375.85 389.383 382.412 389.313 389.184C389.383 395.956 391.531 402.541 395.384 407.655C397.252 410.247 399.494 412.489 401.993 414.287C404.445 416.132 407.13 417.579 409.885 418.56C415.396 420.662 421.188 420.825 426.325 419.961C431.486 419.051 435.969 416.809 439.542 414.147C446.734 408.706 449.91 401.677 451.148 396.913C452.385 392.033 452.199 389.184 452.362 389.207C452.409 389.207 452.409 389.908 452.362 391.239C452.362 391.916 452.339 392.733 452.175 393.714C452.059 394.695 451.918 395.816 451.592 397.03C450.494 401.911 447.365 409.173 440.056 414.847C436.436 417.626 431.836 419.985 426.512 420.965C421.211 421.9 415.233 421.783 409.512 419.634C406.64 418.654 403.861 417.159 401.292 415.244C398.7 413.376 396.365 411.064 394.427 408.379C390.434 403.078 388.168 396.236 388.098 389.207C388.168 382.178 390.434 375.336 394.427 370.059C396.365 367.373 398.7 365.062 401.292 363.193C403.837 361.302 406.616 359.807 409.512 358.803C415.233 356.655 421.211 356.515 426.512 357.472C431.836 358.453 436.436 360.812 440.056 363.59C447.365 369.265 450.494 376.527 451.592 381.408C451.942 382.645 452.059 383.766 452.175 384.724C452.339 385.681 452.362 386.522 452.362 387.199C452.385 388.53 452.362 389.231 452.362 389.231V389.184Z" fill="#455A64"/>
<path d="M390.083 381.711C389.943 382.038 386.861 380.777 382.891 380.684C378.921 380.52 375.769 381.571 375.652 381.221C375.489 380.941 378.664 379.306 382.938 379.469C387.211 379.61 390.27 381.454 390.083 381.711Z" fill="#455A64"/>
<path d="M312.719 392.337C312.813 392.64 306.881 394.532 299.315 395.746C291.75 396.984 285.538 397.054 285.515 396.727C285.515 396.376 291.633 395.769 299.129 394.555C306.625 393.364 312.649 392.01 312.719 392.36V392.337Z" fill="#455A64"/>
<path d="M373.247 384.163C373.387 384.163 373.55 386.475 372.92 390.165C372.289 393.831 370.725 398.851 367.642 403.685C364.56 408.496 360.777 412.185 357.507 414.1C354.145 416.062 351.553 415.525 351.646 415.384C351.623 415.174 354.028 415.384 357.064 413.353C360.053 411.368 363.649 407.678 366.615 403.031C369.604 398.338 371.238 393.527 372.079 389.978C372.896 386.428 373.036 384.14 373.247 384.14V384.163Z" fill="#F1F5FF"/>
<path d="M442.531 404.62C442.368 404.526 443.512 402.681 445.1 399.599C445.871 398.058 446.711 396.19 447.225 394.018C447.739 391.846 447.715 389.371 447.342 386.779C446.641 381.548 445.217 376.971 443.559 373.982C441.924 370.97 440.29 369.499 440.453 369.358C440.5 369.312 440.967 369.592 441.691 370.269C442.415 370.946 443.372 372.021 444.306 373.538C446.244 376.551 447.832 381.268 448.556 386.615C448.953 389.277 448.953 391.963 448.322 394.275C447.739 396.587 446.758 398.501 445.871 400.019C444.049 403.055 442.648 404.69 442.531 404.62Z" fill="#F1F5FF"/>
<path d="M269.823 435.023C269.823 435.023 269.122 435.35 268.071 436.144C267.02 436.915 265.666 438.409 265.012 440.651C264.312 442.846 264.498 445.905 266.623 448.124C268.608 450.342 272.228 451.72 275.567 450.739C278.906 449.735 281.218 446.699 281.919 443.78C282.689 440.791 281.732 437.966 280.424 436.051C279.117 434.089 277.505 432.945 276.338 432.315C275.17 431.661 274.446 431.45 274.47 431.357C274.47 431.287 275.264 431.357 276.548 431.894C277.809 432.431 279.607 433.529 281.125 435.56C282.619 437.545 283.81 440.674 283.016 444.037C282.292 447.306 279.794 450.716 275.917 451.907C272.018 453.027 268.025 451.416 265.806 448.871C264.662 447.586 263.985 446.022 263.775 444.527C263.564 443.01 263.798 441.585 264.218 440.394C265.059 437.966 266.647 436.471 267.838 435.771C269.052 435.047 269.846 434.977 269.869 435.047L269.823 435.023Z" fill="#455A64"/>
<path d="M381.21 312.147C381.069 312.053 382.587 311.213 383.008 308.691C383.194 307.5 382.984 305.865 381.793 304.651C380.672 303.437 378.594 302.689 376.656 303.32L375.535 303.694L376.025 302.619C376.843 300.821 376.399 298.183 374.624 296.665C372.896 295.17 369.791 295.17 367.946 296.898L367.058 296.058C367.199 295.871 367.339 295.637 367.432 295.38C367.689 294.563 367.502 293.582 367.012 292.858C366.545 292.111 365.704 291.667 364.84 291.481C363.953 291.294 363.019 291.364 362.155 291.597C361.314 291.808 360.38 292.415 359.142 292.275C357.858 292.041 357.297 291.084 356.62 290.663C355.99 290.126 355.243 289.729 354.542 289.379C353.094 288.725 351.6 288.445 350.222 288.398C347.466 288.281 345.295 289.145 343.964 289.893C342.609 290.663 342.002 291.317 341.932 291.224C341.885 291.2 342.399 290.43 343.73 289.496C345.038 288.585 347.303 287.534 350.245 287.534C351.716 287.534 353.328 287.791 354.939 288.468C355.733 288.842 356.55 289.239 357.274 289.846C358.045 290.406 358.629 291.13 359.282 291.2C359.96 291.294 360.8 290.85 361.804 290.523C362.832 290.22 363.929 290.126 365.05 290.36C366.148 290.593 367.292 291.177 367.993 292.228C368.67 293.232 368.973 294.54 368.576 295.824C368.436 296.221 368.226 296.595 367.993 296.898L367.105 296.058C369.464 293.862 373.177 293.909 375.372 295.824C377.567 297.762 378.01 300.868 376.96 303.086L376.329 302.386C378.758 301.639 381.14 302.666 382.424 304.114C383.778 305.632 383.895 307.523 383.591 308.831C383.288 310.185 382.611 311.073 382.097 311.563C381.56 312.053 381.21 312.194 381.186 312.17L381.21 312.147Z" fill="#455A64"/>
<path d="M411.193 319.947C411.053 319.83 412.617 319.106 413.481 316.584C413.878 315.37 414.019 313.665 413.201 312.03C412.431 310.419 410.703 308.878 408.484 308.598L407.62 308.481L408.204 307.827C409.652 306.216 410.889 303.741 410.259 301.265C409.979 300.074 409.068 299.07 407.854 298.557C406.663 298.043 405.168 298.113 404.304 299.024L400.871 302.666L403.37 298.323C404.234 296.829 404.374 294.82 403.697 293.092C403.067 291.318 401.479 289.963 399.54 289.543C398.186 289.216 396.715 289.356 395.524 289.94L394.123 290.617L394.707 289.169C395.524 287.114 393.422 284.709 391.344 284.429C389.102 284.055 386.884 284.989 384.969 286.017L383.801 286.647L384.175 285.386C384.619 283.845 383.848 282.14 382.727 281.09C381.56 280.039 380.042 279.525 378.617 279.245C375.698 278.754 373.013 278.988 370.911 279.432C366.638 280.366 364.513 281.93 364.443 281.743C364.42 281.697 364.91 281.3 365.961 280.693C367.012 280.109 368.6 279.338 370.771 278.778C372.943 278.241 375.675 277.89 378.781 278.334C380.322 278.568 382.027 279.081 383.428 280.319C384.782 281.533 385.81 283.541 385.249 285.666L384.455 285.036C386.417 283.962 388.822 282.841 391.554 283.261C392.909 283.471 394.193 284.242 395.08 285.363C395.944 286.46 396.481 288.095 395.851 289.613L395.034 288.842C396.505 288.118 398.233 287.955 399.867 288.352C402.133 288.842 404.117 290.547 404.865 292.672C405.659 294.75 405.472 297.109 404.421 298.93L403.487 298.23C404.818 296.852 406.896 296.875 408.321 297.529C409.815 298.16 411.006 299.491 411.333 301.008C412.01 304.044 410.516 306.73 408.928 308.458L408.648 307.687C411.24 308.107 413.108 309.882 413.902 311.727C414.742 313.595 414.509 315.487 413.995 316.771C413.481 318.079 412.711 318.919 412.174 319.386C411.613 319.853 411.24 319.993 411.216 319.97L411.193 319.947Z" fill="#455A64"/>
<path d="M475.854 325.551C475.714 325.621 476.158 323.94 474.29 322.258C473.402 321.464 472.025 320.787 470.297 320.81C468.569 320.81 466.654 321.394 464.552 322.165L463.875 322.422L463.968 321.698C464.249 319.55 462.287 317.261 459.742 316.631C457.126 315.977 454.161 316.887 451.195 318.008L447.435 319.409L450.658 317.028C452.409 315.72 452.082 312.521 450.331 310.886C448.51 309.181 445.591 308.854 442.835 309.111H442.461L440.08 309.368L442.064 308.037C444.493 306.403 443.909 302.153 441.551 300.775C439.146 299.257 435.876 299.911 433.821 301.522L431.346 303.484L433.004 300.798C435.129 297.342 434.685 293.045 432.981 290.22C431.253 287.301 428.264 285.993 425.858 285.666C423.383 285.339 421.422 285.876 420.184 286.39C418.946 286.927 418.339 287.394 418.292 287.324C418.292 287.301 418.409 287.161 418.689 286.927C418.97 286.694 419.413 286.39 420.044 286.063C421.281 285.433 423.313 284.732 425.952 284.989C428.497 285.199 431.813 286.53 433.798 289.706C435.736 292.765 436.32 297.412 433.985 301.359L433.167 300.635C435.503 298.767 439.192 297.903 442.228 299.771C443.722 300.705 444.656 302.409 444.843 304.161C445.03 305.889 444.423 307.944 442.765 309.018L442.368 307.897L442.742 307.85C445.637 307.593 448.907 307.85 451.172 309.975C452.269 311.049 452.876 312.497 452.993 313.945C453.11 315.393 452.573 316.981 451.358 317.892L450.821 316.887C453.81 315.813 456.986 314.809 460.022 315.603C462.941 316.397 465.229 319.036 464.856 321.768L464.272 321.301C466.397 320.577 468.452 319.993 470.32 320.087C472.188 320.11 473.753 320.951 474.64 321.861C475.574 322.795 475.924 323.823 475.971 324.5C476.018 325.177 475.878 325.528 475.854 325.528V325.551Z" fill="#455A64"/>
<path d="M441.971 263.995C441.971 263.995 441.457 264.346 440.383 264.556C439.309 264.789 437.674 264.859 435.689 264.789C433.727 264.789 431.229 264.626 428.94 265.794C427.796 266.377 426.862 267.358 426.582 268.736C426.255 270.044 426.605 271.655 427.819 272.285L427.002 272.869C426.745 271.328 424.83 270.324 423.102 269.296C421.328 268.269 419.46 267.311 417.451 266.868C415.396 266.377 413.318 266.658 411.707 267.755C410.072 268.783 408.998 270.534 409.208 272.215L409.395 273.71L408.274 272.706C405.916 270.627 402.997 269.623 400.381 269.46C397.743 269.226 395.407 269.74 393.609 270.441C389.966 271.888 388.565 273.92 388.425 273.756C388.379 273.733 388.705 273.243 389.453 272.425C390.223 271.655 391.484 270.627 393.352 269.787C395.197 268.969 397.649 268.339 400.451 268.502C403.23 268.619 406.406 269.623 409.045 271.865L408.111 272.355C407.807 270.137 409.185 267.942 411.076 266.751C412.944 265.467 415.49 265.14 417.732 265.677C419.973 266.167 421.935 267.218 423.733 268.269C424.62 268.806 425.508 269.296 426.348 269.95C427.166 270.581 427.983 271.515 428.146 272.682L428.31 273.826L427.306 273.266C425.461 272.239 425.157 270.02 425.578 268.479C425.928 266.821 427.212 265.537 428.52 264.93C431.205 263.669 433.798 263.972 435.759 264.065C437.744 264.229 439.309 264.276 440.359 264.159C441.434 264.066 441.994 263.879 442.017 263.949L441.971 263.995Z" fill="#455A64"/>
<path d="M382.004 240.737C382.004 240.901 380.766 240.527 378.828 241.181C377.894 241.508 376.773 242.092 375.792 243.096C374.812 244.077 373.994 245.501 373.854 247.159L373.808 247.813L373.177 247.603C371.612 247.066 369.581 248.256 368.764 250.078C367.9 251.946 368.156 254.351 368.53 256.756L368.904 259.138L367.433 257.2C367.433 257.2 367.292 256.99 367.199 256.897C366.218 255.682 364.56 255.122 363.042 255.169C361.501 255.192 360.1 255.869 359.073 256.897C357.018 258.952 356.457 261.824 356.644 264.042C356.808 266.307 357.508 268.082 357.998 269.273C358.489 270.464 358.816 271.118 358.746 271.164C358.676 271.211 358.209 270.627 357.578 269.483C356.948 268.316 356.107 266.541 355.803 264.136C355.5 261.777 355.967 258.578 358.302 256.126C360.497 253.627 365.401 252.973 368.156 256.149C368.25 256.289 368.367 256.43 368.46 256.546L367.362 256.967C367.012 254.538 366.685 251.923 367.759 249.611C368.81 247.392 371.332 245.875 373.574 246.645L372.897 247.089C373.13 245.127 374.134 243.539 375.279 242.512C376.4 241.438 377.661 240.901 378.711 240.62C379.786 240.364 380.65 240.387 381.21 240.48C381.77 240.597 382.051 240.714 382.051 240.761L382.004 240.737Z" fill="#455A64"/>
<path d="M329.089 277.493C329.089 277.493 328.482 277.493 327.501 277.142C326.543 276.745 325.142 275.975 323.858 274.55C322.574 273.149 321.359 271.071 321.103 268.479C320.986 267.218 321.032 265.98 320.309 265.186C319.608 264.346 318.137 263.809 317.226 262.384C315.428 259.535 316.362 255.752 318.791 254.211L318.744 255.098C315.965 252.67 314.377 249.914 313.583 247.906C312.766 245.898 312.626 244.614 312.743 244.59C312.883 244.543 313.233 245.734 314.19 247.626C315.148 249.494 316.782 252.016 319.468 254.258L320.052 254.725L319.421 255.145C317.576 256.336 316.829 259.512 318.254 261.73C318.861 262.781 320.192 263.248 321.219 264.416C322.317 265.7 322.13 267.288 322.223 268.386C322.41 270.674 323.414 272.636 324.512 273.99C326.8 276.769 329.206 277.283 329.112 277.493H329.089Z" fill="#455A64"/>
<path d="M313.514 288.118C313.514 288.118 313.163 288.235 312.509 288.258C311.856 288.258 310.875 288.258 309.637 288.001C307.209 287.558 303.636 286.203 300.693 282.911H301.487C299.923 284.895 297.307 286.367 294.365 286.647C292.894 286.787 291.329 286.647 289.835 286.11C288.41 285.526 286.823 284.802 285.982 283.097C285.702 282.444 285.655 281.813 285.492 281.346C285.351 280.902 285.095 280.529 284.744 280.225C284.02 279.595 282.97 279.268 281.942 278.987C280.915 278.731 279.747 278.357 278.813 277.703C277.879 277.096 276.992 275.975 277.085 274.714L277.856 275.251C275.263 276.302 272.555 276.139 270.453 275.415C268.305 274.737 266.693 273.523 265.596 272.379C264.498 271.211 263.891 270.067 263.588 269.273C263.307 268.456 263.237 268.012 263.284 267.989C263.471 267.895 263.845 269.81 266.04 271.912C267.137 272.939 268.702 273.99 270.71 274.551C272.671 275.158 275.123 275.205 277.388 274.247L278.206 273.897L278.159 274.784C278.112 275.531 278.626 276.255 279.42 276.769C280.214 277.306 281.125 277.586 282.222 277.867C283.273 278.17 284.441 278.474 285.492 279.338C286.005 279.758 286.426 280.365 286.636 281.019C286.823 281.673 286.869 282.233 287.079 282.63C287.593 283.751 288.971 284.522 290.232 285.012C291.54 285.479 292.917 285.619 294.248 285.526C296.887 285.292 299.246 284.031 300.67 282.28L301.067 281.813L301.464 282.28C304.149 285.433 307.465 286.857 309.777 287.464C312.112 288.071 313.537 288.001 313.537 288.141L313.514 288.118Z" fill="#455A64"/>
<path d="M217.842 325.364C217.842 325.364 217.772 325.224 217.702 324.944C217.632 324.663 217.538 324.243 217.491 323.683C217.398 322.562 217.445 320.881 218.075 318.872C218.659 316.841 219.803 314.552 221.345 312.077C222.138 310.863 222.886 309.508 224.03 308.247C224.614 307.64 225.268 307.033 226.132 306.613C226.972 306.169 228.163 306.076 229.097 306.613L228.327 307.103C228.046 304.301 229.401 301.172 232.133 299.444C234.842 297.739 238.741 297.879 241.474 300.074L240.493 300.541C240.446 298.79 241.31 297.062 242.735 296.011C244.159 294.89 246.237 294.703 247.919 295.381C248.853 295.754 249.693 296.361 250.301 297.179L249.203 297.576C249.11 296.431 249.717 295.381 250.487 294.727C251.258 294.049 252.215 293.652 253.22 293.582C255.181 293.442 256.886 294.236 258.404 294.913L257.656 295.147C258.871 293.185 260.902 291.995 262.91 291.481C264.919 290.967 266.997 291.014 268.842 291.481C272.555 292.415 275.45 294.423 277.972 296.034L277.342 296.571C277.038 295.894 277.155 295.007 277.575 294.47C277.996 293.909 278.533 293.582 279.07 293.326C280.167 292.859 281.265 292.695 282.292 292.835C284.254 293.139 285.865 293.723 287.126 294.306C288.387 294.89 289.274 295.497 289.858 295.918C290.442 296.361 290.699 296.618 290.676 296.665C290.606 296.758 289.415 295.801 286.916 294.773C285.678 294.283 284.09 293.769 282.199 293.559C281.312 293.466 280.307 293.652 279.373 294.073C278.439 294.493 277.669 295.357 278.112 296.245L278.766 297.576L277.459 296.782C274.89 295.217 272.041 293.326 268.562 292.508C266.834 292.111 264.965 292.065 263.144 292.555C261.346 293.045 259.618 294.096 258.614 295.754L258.357 296.198L257.89 295.988C256.372 295.334 254.831 294.657 253.266 294.773C251.818 294.843 250.254 296.081 250.371 297.482L250.557 299.607L249.273 297.879C248.829 297.272 248.176 296.782 247.428 296.478C246.074 295.941 244.533 296.104 243.412 296.945C242.291 297.762 241.59 299.163 241.637 300.471L241.684 301.779L240.68 300.938C238.391 299.07 234.982 298.907 232.693 300.331C230.358 301.756 229.121 304.511 229.331 306.916L229.424 307.92L228.584 307.407C227.299 306.636 225.711 307.687 224.684 308.784C223.61 309.882 222.839 311.236 222.022 312.427C220.457 314.832 219.266 317.028 218.612 318.966C217.258 322.865 218.005 325.294 217.818 325.271L217.842 325.364Z" fill="#455A64"/>
<path d="M224.59 360.882C224.59 360.882 224.334 360.648 223.983 360.111C223.633 359.574 223.096 358.78 222.559 357.683C222.045 356.562 221.438 355.091 221.601 353.246C221.671 352.335 221.952 351.378 222.512 350.467C223.073 349.58 223.96 348.739 225.174 348.435L224.917 349.089C223.82 347.501 223.54 345.096 224.684 343.088C225.805 341.08 228.42 339.819 230.965 340.426L230.405 341.29C229.214 339.725 229.424 337.46 230.592 335.896C231.806 334.284 233.814 333.56 235.752 333.49C236.757 333.444 237.691 333.63 238.461 333.49C239.209 333.374 239.722 332.86 240.143 332.043C240.563 331.272 240.89 330.244 241.707 329.427C242.454 328.61 243.505 328.049 244.556 327.863C246.845 327.396 248.993 327.699 251.024 327.699C253.033 327.746 255.018 327.442 256.255 326.181C256.862 325.551 257.283 324.687 257.913 323.869C258.544 323.029 259.431 322.375 260.365 321.978C262.233 321.184 264.382 321.324 266.04 322.282L265.339 323.029C264.125 321.091 264.849 318.825 265.993 317.448C267.207 315.977 268.982 315.393 270.523 315.206C273.699 314.902 276.338 315.626 278.463 316.187C280.588 316.817 282.176 317.541 283.203 318.078C284.254 318.639 284.768 318.989 284.744 319.036C284.674 319.176 282.502 317.868 278.299 316.771C276.221 316.304 273.559 315.696 270.64 316.047C269.215 316.257 267.698 316.817 266.74 318.055C265.783 319.246 265.316 321.114 266.203 322.445L267.487 324.336L265.479 323.192C264.148 322.422 262.327 322.328 260.785 323.005C260.015 323.356 259.314 323.869 258.801 324.547C258.263 325.247 257.843 326.158 257.073 326.975C256.279 327.769 255.251 328.306 254.2 328.586C253.126 328.843 252.052 328.89 251.001 328.89C248.899 328.89 246.774 328.61 244.813 329.03C243.902 329.194 243.132 329.637 242.571 330.244C241.964 330.805 241.66 331.716 241.17 332.603C240.75 333.49 239.816 334.518 238.625 334.658C237.527 334.845 236.593 334.611 235.752 334.658C234.048 334.705 232.366 335.358 231.456 336.573C230.522 337.764 230.405 339.562 231.222 340.613L232.18 341.85L230.662 341.453C228.63 340.939 226.412 341.944 225.501 343.578C224.544 345.213 224.707 347.268 225.595 348.622L225.921 349.136L225.338 349.276C223.399 349.766 222.419 351.751 222.232 353.339C222.022 354.974 222.512 356.422 222.956 357.519C223.913 359.714 224.66 360.858 224.567 360.905L224.59 360.882Z" fill="#455A64"/>
<path d="M226.645 434.697C226.645 434.697 226.202 434.65 225.478 434.323C224.754 433.973 223.703 433.319 222.699 432.151C221.718 430.984 220.761 429.232 220.667 427.014C220.551 424.842 221.251 422.25 223.166 420.242L223.119 420.896C221.952 419.215 220.527 417.346 219.967 414.871C219.687 413.633 219.757 412.256 220.247 410.995C220.714 409.734 221.695 408.496 223.119 407.982L223.003 409.057C220.924 407.749 219.85 405.18 219.967 402.728C220.037 401.327 220.457 399.949 221.228 398.782C221.952 397.614 223.236 396.704 224.38 396.283C225.548 395.769 226.062 395.232 226.108 394.065C226.155 392.897 226.412 391.59 226.926 390.515C227.906 388.25 229.845 386.826 231.456 385.682C233.09 384.514 234.585 383.393 236.033 382.412C238.858 380.451 241.497 379.26 243.435 378.933C244.393 378.746 245.163 378.746 245.677 378.746C246.191 378.793 246.448 378.84 246.448 378.863C246.448 378.98 245.373 378.863 243.552 379.377C241.731 379.844 239.255 381.081 236.523 383.09C235.145 384.14 233.651 385.261 232.063 386.452C230.452 387.666 228.794 388.951 227.976 390.936C227.533 391.916 227.346 392.944 227.299 394.135C227.253 394.742 227.136 395.513 226.622 396.143C226.132 396.75 225.478 397.054 224.917 397.334C222.652 398.128 221.345 400.323 221.228 402.775C221.111 404.9 222.045 407.025 223.68 408.052L224.707 408.706L223.563 409.127C221.461 409.897 220.667 412.629 221.111 414.661C221.555 416.833 222.839 418.654 223.983 420.335L224.217 420.686L223.937 420.989C222.232 422.717 221.508 425.052 221.555 427.014C221.578 429.022 222.372 430.68 223.236 431.824C225.034 434.136 226.832 434.603 226.716 434.743L226.645 434.697Z" fill="#455A64"/>
<path d="M264.592 403.148C264.592 403.148 263.985 403.148 262.934 402.798C261.883 402.448 260.365 401.817 258.684 400.579C257.002 399.365 255.181 397.52 253.85 394.928C253.219 393.667 252.542 392.056 253.033 390.258C253.266 389.371 253.99 388.553 254.901 388.18C255.741 387.783 257.049 387.783 257.843 388.67L256.932 389.231C256.419 387.899 255.741 386.358 256.092 384.56C256.278 383.696 256.769 382.856 257.539 382.272C258.333 381.641 259.548 381.641 260.318 381.875C261.136 382.062 261.976 382.342 262.42 382.155C262.864 382.015 262.957 381.454 262.91 380.544C262.864 378.652 263.681 376.784 264.965 375.406C267.044 373.165 270.336 372.067 273.208 373.048L272.438 373.772C271.877 371.553 271.901 368.845 273.699 367.093C274.633 366.229 275.847 365.949 276.991 366.066C278.112 366.159 279.327 366.883 279.7 368.051L278.673 368.261C278.509 364.875 279.42 361.792 280.751 359.41C282.059 357.005 283.763 355.277 285.281 354.086C286.822 352.895 288.224 352.241 289.204 351.891C290.185 351.564 290.722 351.448 290.746 351.494C290.816 351.658 288.574 352.148 285.678 354.577C284.277 355.791 282.689 357.496 281.522 359.831C280.307 362.119 279.537 365.038 279.747 368.191L280.027 372.604L278.696 368.424C278.252 366.976 275.707 366.766 274.493 367.957C273.185 369.218 273.068 371.507 273.605 373.515L273.886 374.589L272.811 374.215C270.5 373.421 267.651 374.332 265.853 376.27C264.732 377.461 264.078 379.002 264.125 380.567C264.125 380.987 264.171 381.454 264.031 381.992C263.891 382.552 263.447 383.089 262.864 383.299C261.649 383.626 260.855 383.159 260.108 383.042C259.338 382.856 258.777 382.856 258.263 383.229C257.773 383.579 257.399 384.187 257.236 384.817C256.956 386.101 257.469 387.526 257.96 388.834L259.081 391.776L257.049 389.371C256.255 388.413 254.247 389.277 254.013 390.515C253.616 391.823 254.107 393.294 254.691 394.508C255.882 396.983 257.563 398.805 259.127 400.066C262.303 402.564 264.732 402.961 264.662 403.148H264.592Z" fill="#455A64"/>
<path d="M325.353 328.376C325.283 328.493 323.881 328.096 321.756 326.928C320.706 326.321 319.491 325.48 318.487 324.103C317.553 322.748 316.853 320.857 317.296 318.825C317.39 318.382 317.6 317.938 317.787 317.564L318.044 318.405C316.362 317.541 315.358 315.93 315.055 314.388C314.728 312.824 315.218 311.399 315.825 310.442C317.156 308.504 318.721 308.317 318.697 308.434C318.791 308.597 317.483 309.088 316.526 310.862C316.082 311.726 315.778 312.917 316.105 314.155C316.409 315.393 317.273 316.654 318.581 317.307L319.118 317.588L318.838 318.148C318.697 318.452 318.534 318.755 318.464 319.105C318.09 320.647 318.627 322.258 319.398 323.449C320.192 324.64 321.266 325.527 322.2 326.181C324.092 327.489 325.423 328.166 325.329 328.353L325.353 328.376Z" fill="#455A64"/>
<path d="M353.585 315.299C353.398 315.229 354.869 313.781 354.449 310.863C354.216 309.485 353.352 307.827 351.6 307.056C349.919 306.286 347.42 306.426 345.809 307.967L345.062 308.691L344.852 307.663C344.618 306.449 344.198 305.188 343.474 304.091C342.773 303.016 341.676 302.082 340.438 301.919C338.5 301.662 336.328 303.46 336.865 305.048L335.721 305.281C335.441 302.759 334.063 300.588 332.405 299.233C330.747 297.856 328.809 297.342 327.198 297.248C323.928 297.108 322.177 298.369 322.107 298.159C322.084 298.113 322.457 297.762 323.298 297.365C324.139 296.968 325.47 296.525 327.198 296.501C328.902 296.501 331.097 296.968 332.989 298.439C334.88 299.887 336.492 302.246 336.842 305.141L335.698 305.375C335.301 304.091 335.908 302.643 336.912 301.849C337.893 301.008 339.2 300.564 340.555 300.705C342.33 300.961 343.614 302.152 344.431 303.413C345.248 304.698 345.692 306.099 345.949 307.43L344.992 307.126C347.093 305.235 350.012 305.211 351.997 306.169C354.075 307.173 354.986 309.205 355.15 310.746C355.313 312.334 354.869 313.571 354.449 314.295C354.005 315.019 353.632 315.299 353.608 315.276L353.585 315.299Z" fill="#455A64"/>
<path d="M472.398 730.936L507.776 716.318C507.776 716.318 501.821 671.225 486.596 629.146C473.869 593.978 452.97 578.169 446.431 573.919L446.314 573.499L435.76 567.124L390.294 537.864C398.28 574.199 333.246 611.492 277.902 533.451L186.457 570.44L210.393 829.433L187.718 943.996L416.518 943.319V945.514L465.229 945.047L454.814 894.21C459.345 845.312 473.893 785.952 472.211 746.721C472.445 741.794 472.492 736.493 472.422 730.959L472.398 730.936Z" fill="#407BFF"/>
<path d="M462.146 832.772C462.146 832.772 462.38 832.142 462.684 830.928C463.01 829.597 463.454 827.822 464.015 825.58C464.598 823.268 465.276 820.419 465.929 817.08C466.607 813.741 467.447 809.981 468.124 805.754C468.872 801.551 469.642 796.928 470.296 791.93C471.043 786.956 471.581 781.609 472.164 775.981C473.192 764.726 473.869 752.279 473.869 739.226C473.799 726.172 473.075 713.749 472.024 702.47C471.394 696.842 470.857 691.495 470.086 686.521C469.432 681.524 468.638 676.923 467.868 672.72C467.19 668.493 466.326 664.734 465.626 661.395C464.972 658.055 464.271 655.23 463.688 652.895C463.127 650.676 462.66 648.878 462.333 647.57C462.006 646.356 461.82 645.726 461.773 645.726C461.726 645.726 461.843 646.379 462.076 647.617C462.357 648.948 462.73 650.746 463.197 652.988C463.711 655.323 464.342 658.172 464.925 661.511C465.532 664.851 466.35 668.61 466.98 672.837C467.681 677.04 468.428 681.664 469.035 686.638C469.759 691.612 470.273 696.936 470.857 702.54C471.861 713.772 472.538 726.172 472.608 739.179C472.608 752.186 471.954 764.585 470.997 775.818C470.436 781.422 469.946 786.77 469.245 791.743C468.662 796.717 467.914 801.341 467.237 805.544C466.63 809.771 465.836 813.554 465.229 816.893C464.645 820.232 464.038 823.081 463.524 825.417C463.057 827.658 462.684 829.456 462.403 830.811C462.17 832.048 462.053 832.702 462.1 832.702L462.146 832.772Z" fill="#263238"/>
<path d="M462.707 830.927C462.707 830.927 462.707 831.348 462.567 832.095C462.404 832.982 462.217 834.08 461.96 835.411C461.4 838.283 460.629 842.463 459.742 847.624C458.06 857.945 456.005 872.33 456.005 888.303C456.005 896.289 456.542 903.878 457.383 910.743C458.317 917.585 459.438 923.727 460.699 928.818C461.236 931.386 461.937 933.651 462.474 935.66C462.987 937.668 463.525 939.396 463.968 940.774C464.342 942.058 464.669 943.132 464.926 944.02C465.136 944.767 465.229 945.164 465.182 945.187C465.136 945.187 464.972 944.837 464.692 944.113C464.365 943.249 463.992 942.222 463.501 940.937C462.987 939.559 462.38 937.855 461.797 935.846C461.213 933.838 460.442 931.596 459.858 929.028C458.481 923.937 457.266 917.796 456.262 910.907C455.375 903.995 454.791 896.359 454.791 888.326C454.791 872.237 456.986 857.805 458.901 847.484C459.905 842.323 460.792 838.167 461.493 835.318C461.82 834.01 462.1 832.912 462.31 832.048C462.52 831.301 462.637 830.904 462.684 830.927H462.707Z" fill="#263238"/>
<path d="M95.3623 751.975L142.276 617.75C142.276 617.75 154.676 578.216 191.851 568.431L218.449 702.68L206.119 776.098L95.3857 751.952L95.3623 751.975Z" fill="#407BFF"/>
<path d="M227.579 667.512C227.579 667.512 227.602 667.909 227.556 668.633C227.462 669.521 227.369 670.571 227.229 671.856C226.925 674.635 226.388 678.674 225.594 683.625C224.053 693.549 221.274 707.117 217.912 722.038C214.549 736.96 211.537 750.457 209.505 760.265C208.524 765.029 207.707 768.952 207.1 771.894C206.82 773.155 206.586 774.183 206.399 775.047C206.236 775.771 206.119 776.144 206.072 776.121C206.026 776.098 206.072 775.724 206.166 775C206.282 774.136 206.446 773.085 206.633 771.801C207.053 769.022 207.754 765.029 208.664 760.102C210.486 750.247 213.358 736.68 216.721 721.758C220.083 706.837 223.002 693.316 224.754 683.462C225.641 678.534 226.318 674.541 226.762 671.762C226.972 670.501 227.159 669.451 227.299 668.587C227.439 667.863 227.532 667.489 227.579 667.489V667.512Z" fill="#263238"/>
<path d="M400.265 545.991C400.265 545.991 400.265 546.598 400.218 547.765C400.172 548.349 400.172 549.073 400.031 549.914C399.891 550.778 399.705 551.759 399.518 552.833C399.261 553.907 398.911 555.098 398.537 556.406C398.023 557.643 397.603 559.091 396.832 560.492C395.501 563.364 393.47 566.423 390.784 569.366C385.437 575.32 377.264 580.621 367.503 584.498C357.742 588.537 345.832 589.985 333.783 588.397C321.733 586.716 310.665 582.513 301.768 576.862C292.847 571.211 285.912 564.695 280.424 558.998C274.937 553.276 270.897 548.279 268.188 544.776C266.834 543.025 265.806 541.647 265.129 540.69C264.452 539.732 264.101 539.242 264.148 539.195C264.172 539.172 264.592 539.639 265.316 540.526C266.133 541.507 267.207 542.838 268.538 544.473C271.364 547.859 275.474 552.763 281.031 558.39C286.566 563.995 293.525 570.393 302.352 575.904C311.132 581.415 322.06 585.525 333.923 587.183C345.809 588.748 357.461 587.37 367.082 583.447C376.773 579.687 384.83 574.55 390.154 568.782C392.839 565.933 394.847 562.967 396.225 560.189C397.019 558.834 397.439 557.433 397.977 556.219C398.374 554.958 398.747 553.79 399.051 552.716C399.284 551.665 399.471 550.708 399.658 549.867C399.821 549.026 399.868 548.326 399.961 547.742C400.125 546.598 400.218 545.991 400.265 545.991Z" fill="#FAFAFA"/>
<g opacity="0.3">
<path d="M204.928 848.138C218.799 831.675 220.13 808.393 220.784 786.863C221.625 759.635 221.041 728.203 221.882 700.999C216.838 725.121 209.225 762.18 205.465 776.144C205.465 776.144 207.287 790.366 207.404 795.947C207.497 801.037 207.053 806.595 207.52 811.662C208.758 824.763 210.813 839.217 203.224 849.959" fill="black"/>
</g>
<path d="M466.35 673.467C466.35 673.467 466.163 673.561 465.766 673.701C465.299 673.841 464.715 674.051 464.014 674.284C462.38 674.798 460.091 675.499 457.196 676.386C454.23 677.297 450.611 678.394 446.361 679.492C442.111 680.613 437.3 681.99 431.883 683.181C426.488 684.466 420.58 685.844 414.182 687.058C407.807 688.412 400.942 689.51 393.726 690.724C379.248 692.919 363.229 694.764 346.369 695.745C329.486 696.655 313.373 696.609 298.731 696.025C291.422 695.628 284.464 695.301 277.995 694.647C271.503 694.157 265.479 693.409 259.991 692.732C254.48 692.148 249.553 691.261 245.209 690.607C240.866 689.977 237.13 689.276 234.094 688.669C231.128 688.085 228.793 687.618 227.112 687.291C226.365 687.128 225.781 687.011 225.29 686.894C224.894 686.801 224.683 686.731 224.683 686.731C224.683 686.731 224.894 686.731 225.314 686.778C225.804 686.848 226.411 686.941 227.159 687.058C228.863 687.338 231.198 687.712 234.187 688.202C237.223 688.739 240.959 689.37 245.326 689.93C249.67 690.514 254.62 691.331 260.108 691.868C265.595 692.499 271.62 693.176 278.089 693.643C284.557 694.25 291.492 694.554 298.802 694.927C313.396 695.441 329.486 695.441 346.322 694.554C363.159 693.573 379.131 691.751 393.586 689.626C400.802 688.459 407.667 687.408 414.019 686.077C420.417 684.909 426.325 683.578 431.719 682.364C437.137 681.22 441.947 679.889 446.221 678.838C450.494 677.811 454.137 676.783 457.102 675.942C460.021 675.148 462.31 674.518 463.968 674.051C464.692 673.864 465.299 673.701 465.766 673.584C466.163 673.49 466.373 673.444 466.396 673.467H466.35Z" fill="#FAFAFA"/>
<path d="M491.733 644.441C491.92 644.721 486.339 648.481 479.264 652.848C472.211 657.214 466.327 660.507 466.163 660.227C465.976 659.947 471.557 656.187 478.633 651.82C485.685 647.454 491.57 644.161 491.733 644.441Z" fill="#FAFAFA"/>
<path d="M225.104 680.332C225.104 680.332 223.703 680.332 221.204 680.122C218.706 679.912 215.086 679.515 210.626 678.908C201.706 677.694 189.469 675.499 176.182 672.019C162.895 668.516 151.149 664.406 142.79 661.091C138.61 659.433 135.27 658.008 132.982 656.957C130.693 655.906 129.456 655.299 129.479 655.229C129.502 655.159 130.833 655.626 133.169 656.514C135.504 657.424 138.89 658.732 143.116 660.273C151.523 663.379 163.269 667.349 176.509 670.828C189.75 674.284 201.916 676.619 210.79 678.044C215.226 678.768 218.799 679.305 221.298 679.655C223.773 680.005 225.151 680.262 225.151 680.332H225.104Z" fill="#FAFAFA"/>
<path d="M291.609 864.016L327.174 864.763C327.174 864.763 380.509 845.498 391.484 847.343C401.362 849.001 437.534 873.03 444.609 877.794C445.403 878.331 445.987 879.078 446.314 879.989C447.762 883.888 445.847 888.255 441.994 889.843L441.247 890.147L441.574 891.221C441.971 892.552 442.204 894.07 442.111 895.541C441.854 900.632 435.012 902.173 432.42 897.783L433.774 900.211C434.335 901.192 434.592 902.313 434.521 903.457L434.405 905.652C434.265 908.104 432.653 910.206 430.318 910.976C428.1 911.7 425.671 911.07 424.107 909.342C419.53 904.298 409.605 894.186 402.903 893.066C396.949 892.061 387.001 891.945 380.999 891.968C377.94 891.968 375.232 893.86 374.111 896.708C378.081 896.989 405.799 911.443 415.607 916.627C418.642 918.239 420.907 921.111 421.304 924.52C421.655 927.579 420.113 930.802 414.042 929.377C401.012 926.342 377.567 915.553 377.567 915.553C377.567 915.553 365.471 912.097 357.624 917.632C346.602 925.408 341.559 928.256 332.078 925.127C322.62 921.998 315.638 917.491 315.638 917.491L281.428 919.476C281.428 919.476 263.634 888.489 291.516 864.063L291.609 864.016Z" fill="#B78876"/>
<path d="M373.994 873.754C374.041 873.964 377.777 872.749 384.012 872.352C390.2 871.932 399.003 872.656 407.76 876.392C416.517 880.129 423.149 885.99 427.119 890.754C431.159 895.541 432.863 899.067 433.05 898.95C433.097 898.927 432.723 898.016 431.859 896.475C431.019 894.934 429.641 892.762 427.656 890.287C423.756 885.336 417.101 879.265 408.157 875.458C399.214 871.629 390.2 871.021 383.942 871.629C380.789 871.909 378.291 872.423 376.586 872.89C374.881 873.333 373.97 873.684 373.994 873.73V873.754Z" fill="#AA6550"/>
<path d="M379.645 860.794C379.715 861.051 383.498 859.183 390.083 858.972C396.598 858.692 405.775 860.654 414.345 865.838C422.915 871.045 429.337 877.654 433.891 882.371C436.062 884.682 437.86 886.574 439.238 888.068C440.499 889.423 441.223 890.147 441.293 890.1C441.34 890.053 440.709 889.236 439.542 887.812C438.351 886.387 436.623 884.356 434.404 881.904C429.968 877.047 423.569 870.298 414.859 864.997C406.126 859.696 396.691 857.805 390.06 858.272C386.72 858.482 384.082 859.089 382.307 859.696C381.419 859.953 380.766 860.28 380.322 860.467C379.878 860.654 379.645 860.77 379.668 860.817L379.645 860.794Z" fill="#AA6550"/>
<path d="M108.976 754.94C108.976 754.707 90.4583 838.142 88.0531 852.807C85.2276 869.971 80.5572 911.677 118.784 919.803C157.011 927.929 315.732 917.421 315.732 917.421L327.197 864.74L181.787 844.097L197.666 774.276L108.953 754.94H108.976Z" fill="#B78876"/>
<path d="M746.78 945.21H421.164L463.174 716.668C464.668 708.565 471.72 702.68 479.964 702.68H772.56C783.278 702.68 791.358 712.441 789.326 722.972L746.78 945.21Z" fill="#455A64"/>
<path d="M421.141 945.21H297.634L298.124 944.836C309.146 936.57 322.434 931.923 336.211 931.503L424.527 928.911L421.141 945.21Z" fill="#455A64"/>
<path d="M499.369 703.007C499.369 703.007 498.458 702.844 496.73 702.82C495.025 702.82 492.433 703.171 489.491 704.618C486.572 706.043 483.326 708.635 480.804 712.511C478.282 716.411 476.578 721.525 475.48 727.293C474.406 733.061 473.472 739.483 472.328 746.348C471.16 753.19 469.899 760.499 468.451 768.182C465.626 783.547 462.263 800.384 458.597 818.038C451.241 853.322 444.446 885.244 439.986 908.432C437.744 920.014 436.016 929.425 434.848 935.917C434.264 939.092 433.821 941.591 433.494 943.389C433.33 944.183 433.214 944.837 433.12 945.327C433.027 945.771 432.98 945.981 432.957 945.981C432.957 945.981 432.957 945.748 433.004 945.304C433.074 944.79 433.167 944.16 433.26 943.343C433.541 941.544 433.914 939.022 434.405 935.823C435.432 929.308 437.02 919.874 439.168 908.245C443.395 885.01 450.074 853.042 457.429 817.757C461.072 800.127 464.482 783.29 467.377 767.948C468.848 760.289 470.133 752.98 471.347 746.138C472.538 739.296 473.519 732.921 474.64 727.083C475.807 721.268 477.582 716.084 480.221 712.114C482.883 708.145 486.245 705.576 489.258 704.151C492.293 702.727 494.955 702.447 496.707 702.54C498.458 702.634 499.346 702.961 499.346 702.961L499.369 703.007Z" fill="#263238"/>
<path d="M636.887 818.808C636.887 827.495 629.835 834.547 621.148 834.547C612.461 834.547 605.409 827.495 605.409 818.808C605.409 810.121 612.461 803.069 621.148 803.069C629.835 803.069 636.887 810.121 636.887 818.808Z" fill="#F5F5F5"/>
<path d="M1019.92 777.102C1019.92 777.102 1019.88 776.915 1019.69 776.588C1019.48 776.191 1019.22 775.724 1018.92 775.164C1018.22 773.926 1017.12 772.105 1015.53 769.886C1012.36 765.519 1007.27 759.214 998.86 754.124C994.657 751.625 989.637 749.477 983.892 748.636C978.171 747.819 971.819 748.239 965.701 750.551C959.63 752.793 953.698 757.043 950.149 763.301C946.576 769.536 945.432 776.868 943.33 783.874C942.279 787.376 940.925 790.739 938.987 793.681C937.049 796.6 934.387 798.912 931.608 800.967C928.829 803.022 925.91 804.867 923.271 807.015C920.632 809.187 918.344 811.662 916.499 814.348C912.786 819.718 910.685 825.65 909.564 831.278C908.42 836.929 908.303 842.323 908.63 847.18C909.307 856.918 911.362 864.577 912.693 869.808C913.393 872.423 913.954 874.455 914.374 875.833C914.771 877.21 915.005 877.911 915.051 877.911C915.098 877.911 914.935 877.164 914.608 875.763C914.257 874.268 913.767 872.236 913.16 869.691C911.969 864.414 910.077 856.754 909.494 847.133C909.237 842.323 909.4 837.022 910.544 831.488C911.689 825.977 913.767 820.186 917.41 815.001C919.208 812.409 921.426 810.028 923.972 807.949C926.54 805.871 929.436 804.026 932.262 801.948C935.087 799.893 937.889 797.464 939.968 794.382C942.023 791.3 943.4 787.797 944.474 784.224C946.599 777.102 947.744 769.886 951.153 763.908C954.539 757.953 960.167 753.844 966.051 751.648C971.959 749.407 978.124 748.94 983.682 749.687C989.263 750.457 994.19 752.512 998.347 754.918C1006.66 759.822 1011.82 765.963 1015.09 770.213C1016.7 772.385 1017.87 774.136 1018.64 775.327C1019.41 776.541 1019.81 777.148 1019.85 777.125L1019.92 777.102Z" fill="#E0E0E0"/>
<path d="M928.362 802.789C930.3 800.991 931.234 802.252 933.826 802.719C936.418 803.186 938.777 804.564 940.832 806.222C949.799 813.367 953.769 826.211 950.383 837.163C942.139 837.606 933.803 833.24 929.483 826.187C925.186 819.135 925.069 809.724 929.249 802.602" fill="#E0E0E0"/>
<path d="M910.895 851.594C916.149 845.523 924.252 842.066 932.261 842.44C940.271 842.837 948 847.064 952.647 853.626C946.786 858.996 938.917 862.079 931 862.172C923.084 862.266 915.145 858.599 909.19 853.345" fill="#E0E0E0"/>
<path d="M917.41 815.142C909.354 815.375 901.297 811.779 896.09 805.614C890.882 799.473 888.664 790.903 890.229 783.01C898.659 781.072 908.023 784.107 913.744 790.576C919.465 797.067 921.286 806.735 918.297 814.861" fill="#E0E0E0"/>
<path d="M945.292 772.292C937.773 775.188 928.969 774.464 922.01 770.4C915.051 766.337 910.124 759.005 908.98 751.019C916.289 746.395 926.12 746.138 933.686 750.341C941.229 754.568 946.156 763.091 946.062 771.731" fill="#E0E0E0"/>
<path d="M879.23 945.14L864.005 849.655L980.599 851.08L969.087 943.903" fill="#263238"/>
<path d="M929.53 832.212C935.788 836.111 943.144 836.742 948.865 833.846C954.609 830.951 958.626 824.599 959.443 817.126C953.021 814.044 945.993 813.694 940.131 816.146C934.27 818.598 929.6 823.805 927.288 830.507" fill="#407BFF"/>
<path d="M799.577 882.441C800.068 872.704 795.351 862.849 787.481 857.128C779.588 851.384 768.777 849.936 759.669 853.392C766.395 868.851 781.783 880.223 798.527 882.068" fill="#407BFF"/>
<path d="M791.895 886.505C786.197 892.763 786.571 902.828 790.634 910.253C794.72 917.679 801.726 922.957 808.755 927.674C811.113 919.688 810.81 910.954 807.844 903.178C804.902 895.402 799.321 888.63 792.269 884.24" fill="#407BFF"/>
<path d="M819.497 857.152C820.407 866.259 825.171 874.922 832.363 880.573C839.556 886.224 849.107 888.77 858.167 887.485C855.949 878.332 852.282 869.084 845.207 862.873C838.131 856.661 826.969 854.349 819.123 859.58" fill="#407BFF"/>
<path d="M819.31 847.811C817.885 839.474 809.642 833.426 801.235 832.632C792.829 831.838 784.469 835.434 777.72 840.548C782.788 846.34 790.097 850.099 797.733 850.87C805.369 851.64 813.285 849.352 819.38 844.682" fill="#407BFF"/>
<path d="M775.899 918.753C767.889 925.595 765.881 937.762 769.22 947.756C772.559 957.751 780.336 965.713 789.092 971.551C792.455 961.65 794.557 951.049 792.782 940.727C791.007 930.429 784.796 920.481 775.221 916.278" fill="#407BFF"/>
<path d="M818.025 824.389C822.252 818.177 829.444 814.091 836.94 813.647C844.436 813.204 852.072 816.426 856.976 822.101C853.73 829.386 846.071 834.5 838.108 834.687C830.145 834.897 822.229 830.18 818.609 823.081" fill="#407BFF"/>
<path d="M827.833 800.337C819.216 802.953 809.502 801.715 801.819 796.998C794.137 792.281 788.626 784.201 787.061 775.328C793.483 774.767 799.975 774.464 806.326 775.608C812.678 776.752 818.889 779.391 823.373 784.014C827.88 788.638 829.141 794.032 827.833 800.337Z" fill="#407BFF"/>
<path d="M846.328 794.125C840.373 789.268 836.754 781.679 836.73 773.996C836.707 766.313 840.256 758.701 846.164 753.797C851.932 760.802 855.902 769.256 857.607 778.176C858.237 781.515 858.564 785.018 857.513 788.264C856.486 791.51 853.824 794.405 850.461 794.872" fill="#407BFF"/>
<g opacity="0.4">
<path d="M799.577 882.441C800.068 872.704 795.351 862.849 787.481 857.128C779.588 851.384 768.777 849.936 759.669 853.392C766.395 868.851 781.783 880.223 798.527 882.068" fill="black"/>
</g>
<g opacity="0.4">
<path d="M791.895 886.505C786.197 892.763 786.571 902.828 790.634 910.253C794.72 917.679 801.726 922.957 808.755 927.674C811.113 919.688 810.81 910.954 807.844 903.178C804.902 895.402 799.321 888.63 792.269 884.24" fill="black"/>
</g>
<g opacity="0.4">
<path d="M819.497 857.152C820.407 866.259 825.171 874.922 832.363 880.573C839.556 886.224 849.107 888.77 858.167 887.485C855.949 878.332 852.282 869.084 845.207 862.873C838.131 856.661 826.969 854.349 819.123 859.58" fill="black"/>
</g>
<g opacity="0.4">
<path d="M819.31 847.811C817.885 839.474 809.642 833.426 801.235 832.632C792.829 831.838 784.469 835.434 777.72 840.548C782.788 846.34 790.097 850.099 797.733 850.87C805.369 851.64 813.285 849.352 819.38 844.682" fill="black"/>
</g>
<g opacity="0.4">
<path d="M775.899 918.753C767.889 925.595 765.881 937.762 769.22 947.756C772.559 957.751 780.336 965.713 789.092 971.551C792.455 961.65 794.557 951.049 792.782 940.727C791.007 930.429 784.796 920.481 775.221 916.278" fill="black"/>
</g>
<g opacity="0.4">
<path d="M818.025 824.389C822.252 818.177 829.444 814.091 836.94 813.647C844.436 813.204 852.072 816.426 856.976 822.101C853.73 829.386 846.071 834.5 838.108 834.687C830.145 834.897 822.229 830.18 818.609 823.081" fill="black"/>
</g>
<g opacity="0.4">
<path d="M827.833 800.337C819.216 802.953 809.502 801.715 801.819 796.998C794.137 792.281 788.626 784.201 787.061 775.328C793.483 774.767 799.975 774.464 806.326 775.608C812.678 776.752 818.889 779.391 823.373 784.014C827.88 788.638 829.141 794.032 827.833 800.337Z" fill="black"/>
</g>
<g opacity="0.4">
<path d="M846.328 794.125C840.373 789.268 836.754 781.679 836.73 773.996C836.707 766.313 840.256 758.701 846.164 753.797C851.932 760.802 855.902 769.256 857.607 778.176C858.237 781.515 858.564 785.018 857.513 788.264C856.486 791.51 853.824 794.405 850.461 794.872" fill="black"/>
</g>
<path d="M878.296 852.738C878.296 852.738 878.296 852.505 878.296 852.084C878.319 851.571 878.366 850.94 878.413 850.17C878.53 848.488 878.67 845.99 878.74 842.79C878.74 836.462 878.74 826.888 874.396 816.31C872.178 811.102 868.815 805.661 863.748 801.318C858.774 796.928 851.839 793.985 844.366 794.196C840.653 794.266 836.847 795.106 833.438 796.928C829.981 798.679 827.109 801.575 824.984 804.984C820.758 811.943 819.707 820.7 820.08 829.34C820.384 838.027 821.622 846.62 820.664 854.98C820.174 859.137 819.17 863.176 817.465 866.866C815.784 870.556 813.378 873.871 810.296 876.253C807.237 878.705 803.664 880.083 800.302 881.367C796.939 882.628 793.693 883.866 790.891 885.641C785.216 889.143 781.106 894.071 778.538 899.115C775.946 904.159 774.988 909.343 774.965 913.85C774.942 918.38 775.806 922.233 776.833 925.245C778.935 931.293 781.433 934.002 781.247 934.119C781.247 934.119 781.083 933.955 780.826 933.628C780.569 933.278 780.149 932.788 779.705 932.064C778.771 930.663 777.487 928.468 776.389 925.432C775.292 922.396 774.311 918.496 774.288 913.873C774.241 909.273 775.152 903.948 777.767 898.741C780.359 893.557 784.539 888.443 790.377 884.777C796.145 880.947 803.758 879.99 809.619 875.366C815.503 870.742 818.563 862.873 819.473 854.863C820.407 846.737 819.17 838.214 818.866 829.41C818.493 820.676 819.543 811.663 823.98 804.354C826.199 800.781 829.258 797.722 832.924 795.877C836.543 793.962 840.536 793.098 844.389 793.051C852.166 792.865 859.405 795.994 864.495 800.547C869.679 805.054 873.065 810.659 875.284 815.983C877.479 821.354 878.46 826.561 878.95 831.091C879.417 835.645 879.394 839.615 879.277 842.814C879.137 846.036 878.903 848.512 878.716 850.193C878.623 850.964 878.53 851.594 878.483 852.108C878.413 852.528 878.366 852.762 878.366 852.762L878.296 852.738Z" fill="#407BFF"/>
<g opacity="0.4">
<path d="M878.296 852.738C878.296 852.738 878.296 852.505 878.296 852.084C878.319 851.571 878.366 850.94 878.413 850.17C878.53 848.488 878.67 845.99 878.74 842.79C878.74 836.462 878.74 826.888 874.396 816.31C872.178 811.102 868.815 805.661 863.748 801.318C858.774 796.928 851.839 793.985 844.366 794.196C840.653 794.266 836.847 795.106 833.438 796.928C829.981 798.679 827.109 801.575 824.984 804.984C820.758 811.943 819.707 820.7 820.08 829.34C820.384 838.027 821.622 846.62 820.664 854.98C820.174 859.137 819.17 863.176 817.465 866.866C815.784 870.556 813.378 873.871 810.296 876.253C807.237 878.705 803.664 880.083 800.302 881.367C796.939 882.628 793.693 883.866 790.891 885.641C785.216 889.143 781.106 894.071 778.538 899.115C775.946 904.159 774.988 909.343 774.965 913.85C774.942 918.38 775.806 922.233 776.833 925.245C778.935 931.293 781.433 934.002 781.247 934.119C781.247 934.119 781.083 933.955 780.826 933.628C780.569 933.278 780.149 932.788 779.705 932.064C778.771 930.663 777.487 928.468 776.389 925.432C775.292 922.396 774.311 918.496 774.288 913.873C774.241 909.273 775.152 903.948 777.767 898.741C780.359 893.557 784.539 888.443 790.377 884.777C796.145 880.947 803.758 879.99 809.619 875.366C815.503 870.742 818.563 862.873 819.473 854.863C820.407 846.737 819.17 838.214 818.866 829.41C818.493 820.676 819.543 811.663 823.98 804.354C826.199 800.781 829.258 797.722 832.924 795.877C836.543 793.962 840.536 793.098 844.389 793.051C852.166 792.865 859.405 795.994 864.495 800.547C869.679 805.054 873.065 810.659 875.284 815.983C877.479 821.354 878.46 826.561 878.95 831.091C879.417 835.645 879.394 839.615 879.277 842.814C879.137 846.036 878.903 848.512 878.716 850.193C878.623 850.964 878.53 851.594 878.483 852.108C878.413 852.528 878.366 852.762 878.366 852.762L878.296 852.738Z" fill="black"/>
</g>
<path d="M1048.04 831.908C1047.83 831.861 1049.65 829.036 1049.79 823.361C1049.79 820.559 1049.32 817.056 1047.53 813.507C1045.75 809.981 1042.53 806.478 1038.02 804.33C1035.78 803.256 1033.23 802.508 1030.53 802.298C1027.82 802.088 1024.99 802.485 1022.14 803.279C1016.42 804.773 1010.77 808.019 1004.02 809.374C1000.68 810.027 997.039 810.214 993.513 809.117C989.963 808.066 986.951 805.451 984.943 802.275C980.88 795.97 979.735 788.03 974.808 782.216C972.403 779.32 969.087 777.335 965.608 776.191C962.105 775 958.392 774.766 954.843 775.093C947.627 775.677 941.369 779.53 936.955 784.411C932.518 789.338 929.74 795.176 928.082 800.85C926.4 806.548 925.863 812.082 926.097 817.126C926.517 827.238 928.198 835.341 929.132 840.945C929.6 843.654 929.973 845.826 930.253 847.39C930.347 848.067 930.44 848.628 930.51 849.071C930.557 849.445 930.58 849.655 930.557 849.655C930.557 849.655 930.487 849.468 930.393 849.095C930.3 848.651 930.16 848.091 930.02 847.437C929.693 845.872 929.249 843.724 928.665 841.038C927.615 835.457 925.77 827.378 925.233 817.173C924.952 812.059 925.42 806.385 927.101 800.57C928.759 794.779 931.561 788.754 936.115 783.64C938.403 781.118 941.135 778.83 944.288 777.102C947.44 775.35 951.013 774.253 954.749 773.879C958.462 773.505 962.338 773.762 966.028 775C969.694 776.191 973.22 778.293 975.812 781.398C981.02 787.633 982.117 795.619 986.017 801.598C987.909 804.61 990.641 806.968 993.91 807.949C997.132 808.977 1000.61 808.836 1003.83 808.206C1010.35 806.968 1016.02 803.769 1021.91 802.251C1024.83 801.457 1027.79 801.06 1030.64 801.317C1033.47 801.551 1036.13 802.368 1038.44 803.512C1043.11 805.801 1046.43 809.49 1048.18 813.18C1049.98 816.893 1050.4 820.512 1050.3 823.361C1050.21 826.234 1049.56 828.405 1049.04 829.83C1048.53 831.254 1048.06 831.908 1048.06 831.908H1048.04Z" fill="#407BFF"/>
<path d="M947.674 776.331C942.093 771.497 938.333 763.044 939.408 756.716C940.482 750.387 945.362 744.666 952.251 741.654C957.085 746.885 959.513 753.493 958.906 759.821C958.299 766.15 954.703 772.151 948.982 776.331" fill="#407BFF"/>
<path d="M797.967 748.87C797.967 748.87 798.014 748.683 798.2 748.356C798.41 747.959 798.667 747.492 798.971 746.932C799.671 745.694 800.769 743.873 802.357 741.654C805.533 737.288 810.623 730.983 819.03 725.892C823.233 723.393 828.254 721.245 833.998 720.404C839.72 719.587 846.071 720.007 852.189 722.319C858.261 724.561 864.192 728.811 867.742 735.069C871.314 741.304 872.459 748.637 874.56 755.642C875.611 759.145 876.965 762.507 878.904 765.45C880.842 768.369 883.504 770.681 886.283 772.735C889.062 774.79 891.981 776.635 894.619 778.784C897.258 780.955 899.547 783.43 901.391 786.116C905.104 791.487 907.206 797.418 908.327 803.046C909.471 808.697 909.588 814.091 909.261 818.948C908.584 828.686 906.529 836.345 905.198 841.576C904.497 844.191 903.937 846.223 903.516 847.601C903.119 848.979 902.886 849.679 902.839 849.679C902.792 849.679 902.956 848.932 903.283 847.554C903.633 846.06 904.123 844.028 904.731 841.483C905.922 836.205 907.813 828.546 908.397 818.925C908.654 814.115 908.49 808.814 907.346 803.279C906.202 797.768 904.123 791.977 900.481 786.793C898.682 784.201 896.464 781.819 893.919 779.741C891.35 777.663 888.454 775.818 885.629 773.74C882.803 771.685 880.001 769.256 877.923 766.174C875.868 763.091 874.49 759.588 873.416 756.016C871.291 748.893 870.147 741.678 866.737 735.7C863.351 729.745 857.724 725.635 851.839 723.44C845.931 721.198 839.766 720.731 834.209 721.479C828.627 722.249 823.7 724.304 819.544 726.709C811.231 731.613 806.07 737.755 802.801 742.005C801.189 744.176 800.022 745.928 799.251 747.119C798.481 748.333 798.084 748.94 798.037 748.917L797.967 748.87Z" fill="#407BFF"/>
<path d="M889.552 774.556C887.614 772.758 886.68 774.019 884.088 774.486C881.496 774.953 879.137 776.331 877.082 777.989C868.115 785.135 864.145 797.978 867.531 808.93C875.774 809.374 884.111 805.007 888.431 797.955C892.728 790.902 892.844 781.492 888.664 774.369" fill="#407BFF"/>
<path d="M810.32 738.501C809.339 736.049 807.961 736.773 805.416 736.096C802.87 735.396 800.162 735.652 797.593 736.236C786.431 738.828 777.324 748.706 775.642 760.055C782.881 764.001 792.292 763.651 799.228 759.144C806.14 754.637 810.296 746.184 809.596 737.941" fill="#407BFF"/>
<path d="M906.995 823.361C901.741 817.29 893.638 813.81 885.628 814.207C877.619 814.604 869.889 818.831 865.242 825.393C871.104 830.764 878.973 833.846 886.889 833.94C894.829 834.01 902.745 830.367 908.7 825.113" fill="#407BFF"/>
<path d="M900.48 786.909C908.537 787.143 916.593 783.547 921.8 777.405C927.008 771.264 929.226 762.694 927.662 754.801C919.232 752.863 909.868 755.898 904.147 762.367C898.425 768.859 896.604 778.526 899.593 786.652" fill="#407BFF"/>
<path d="M872.599 744.059C880.118 746.954 888.921 746.23 895.88 742.167C902.839 738.104 907.766 730.772 908.91 722.785C901.601 718.162 891.77 717.905 884.204 722.108C876.662 726.335 871.735 734.858 871.828 743.498" fill="#407BFF"/>
<path d="M863.258 730.072C855.738 727.176 846.935 727.9 839.976 731.963C833.017 736.026 828.09 743.359 826.946 751.345C834.255 755.969 844.086 756.225 851.652 752.022C859.194 747.796 864.122 739.272 864.028 730.632" fill="#407BFF"/>
<path d="M852.119 722.552C859.755 719.984 866.06 713.795 868.815 706.206C871.548 698.64 870.66 689.837 866.457 682.971C857.887 684.092 850.134 690.187 847.028 698.243C843.923 706.299 845.581 716.014 851.185 722.599" fill="#407BFF"/>
<path d="M823.56 723.907C826.315 716.341 825.405 707.537 821.201 700.672C816.998 693.806 809.572 689.019 801.586 688.015C797.103 695.418 797.032 705.249 801.399 712.721C805.766 720.194 814.383 724.934 823.023 724.677" fill="#407BFF"/>
<path d="M862.534 934.072L871.454 945.14H981.16L988.633 934.072H862.534Z" fill="#263238"/>
<path d="M986.227 933.978C986.227 934.328 959.279 934.609 926.027 934.609C892.774 934.609 865.803 934.328 865.803 933.978C865.803 933.628 892.75 933.348 926.027 933.348C959.303 933.348 986.227 933.628 986.227 933.978Z" fill="#455A64"/>
<path d="M973.898 892.319C973.898 892.319 973.687 892.645 973.22 893.229C972.753 893.79 972.029 894.63 970.979 895.588C968.947 897.526 965.725 900.118 961.194 902.383C956.664 904.602 950.803 906.516 944.078 906.773C940.715 906.937 937.189 906.656 933.593 905.886C930.02 905.115 926.447 903.831 922.921 902.336C915.845 899.324 909.424 895.891 903.165 893.906C896.954 891.852 890.929 891.268 886.095 892.249C881.238 893.159 877.689 895.308 875.634 897.106C873.556 898.927 872.762 900.305 872.645 900.211C872.598 900.188 872.808 899.838 873.205 899.231C873.626 898.6 874.303 897.736 875.307 896.755C877.315 894.794 880.911 892.435 885.932 891.385C890.929 890.24 897.164 890.754 903.539 892.809C909.937 894.794 916.453 898.227 923.435 901.192C926.937 902.663 930.417 903.901 933.896 904.695C937.352 905.442 940.808 905.746 944.054 905.629C950.593 905.419 956.361 903.667 960.844 901.589C969.858 897.269 973.734 892.062 973.944 892.342L973.898 892.319Z" fill="#455A64"/>
<path d="M974.995 883.749C974.995 883.749 974.762 884.076 974.248 884.589C973.734 885.126 972.94 885.897 971.843 886.784C969.671 888.582 966.308 890.988 961.685 893.089C957.061 895.144 951.177 896.919 944.428 897.199C941.065 897.363 937.516 897.129 933.92 896.499C930.324 895.821 926.704 894.724 923.085 893.44C915.846 890.801 909.19 887.788 902.839 886.014C896.51 884.192 890.532 883.632 885.629 884.449C880.701 885.173 877.035 887.041 874.77 888.606C872.505 890.217 871.501 891.431 871.407 891.338C871.384 891.315 871.617 890.988 872.085 890.427C872.575 889.867 873.369 889.096 874.466 888.209C876.708 886.481 880.421 884.426 885.465 883.562C890.486 882.604 896.697 883.095 903.142 884.893C909.611 886.644 916.336 889.657 923.505 892.249C927.101 893.533 930.65 894.63 934.153 895.284C937.656 895.915 941.112 896.172 944.381 896.032C950.943 895.821 956.734 894.163 961.311 892.249C970.488 888.256 974.785 883.445 974.972 883.725L974.995 883.749Z" fill="#455A64"/>
</g>
<defs>
<clipPath id="clip0_2024_1403">
<rect width="939" height="939" fill="white"/>
</clipPath>
</defs>
</svg>
