<svg width="299" height="224" viewBox="0 0 299 224" fill="none" xmlns="http://www.w3.org/2000/svg">
<g clip-path="url(#clip0_1621_1265)">
<path d="M265.464 165.338H157.376C155.444 165.338 153.871 163.757 153.871 161.815V3.5232C153.871 1.58123 155.444 0 157.376 0H265.464C267.396 0 268.968 1.58123 268.968 3.5232V161.815C268.968 163.757 267.396 165.338 265.464 165.338ZM157.376 0.150307C155.528 0.150307 154.021 1.66541 154.021 3.5232V161.815C154.021 163.673 155.528 165.188 157.376 165.188H265.464C267.312 165.188 268.819 163.673 268.819 161.815V3.5232C268.819 1.66541 267.312 0.150307 265.464 0.150307H157.376Z" fill="#929292"/>
<path d="M140.823 165.338H32.7405C30.8089 165.338 29.2362 163.757 29.2362 161.815V3.5232C29.2362 1.58123 30.8089 0 32.7405 0H140.823C142.755 0 144.327 1.58123 144.327 3.5232V161.815C144.327 163.757 142.755 165.338 140.823 165.338ZM32.7405 0.150307C30.8927 0.150307 29.3857 1.66541 29.3857 3.5232V161.815C29.3857 163.673 30.8927 165.188 32.7405 165.188H140.823C142.671 165.188 144.178 163.673 144.178 161.815V3.5232C144.178 1.66541 142.671 0.150307 140.823 0.150307H32.7405Z" fill="#929292"/>
<path d="M299 202.055H0V202.205H299V202.055Z" fill="#929292"/>
<path d="M95.4049 146.622L95.4049 9.49365L39.7132 9.49365L39.7132 146.622H95.4049Z" fill="#929292"/>
<path d="M92.3491 12.5659H42.7629V143.544H92.3491V12.5659Z" fill="#F0F0F0"/>
<path d="M92.3491 12.5659V19.2275L42.7629 69.0694V55.7342L85.7113 12.5659H92.3491Z" fill="#FAFAFA"/>
<path d="M92.3491 53.6602V73.1761L42.7629 123.024V103.508L92.3491 53.6602Z" fill="#FAFAFA"/>
<path d="M70.247 9.49365H66.5574V146.622H70.247V9.49365Z" fill="#929292"/>
<path d="M244.785 40.8419C253.613 40.8419 260.77 33.6467 260.77 24.7711C260.77 15.8954 253.613 8.7002 244.785 8.7002C235.957 8.7002 228.801 15.8954 228.801 24.7711C228.801 33.6467 235.957 40.8419 244.785 40.8419Z" fill="#929292"/>
<path d="M257.335 32.4794C261.575 25.5038 259.388 16.3932 252.45 12.1302C245.511 7.86727 236.45 10.0663 232.21 17.0419C227.97 24.0175 230.157 33.1282 237.095 37.3911C244.033 41.654 253.095 39.455 257.335 32.4794Z" fill="#FAFAFA"/>
<path d="M244.821 11.3154H244.271V14.3997H244.821V11.3154Z" fill="#929292"/>
<path d="M244.821 35.0581H244.271V38.1424H244.821V35.0581Z" fill="#929292"/>
<path d="M234.273 24.4521H231.205V25.0053H234.273V24.4521Z" fill="#929292"/>
<path d="M257.888 24.4521H254.82V25.0053H257.888V24.4521Z" fill="#929292"/>
<path d="M253.773 15.0334L251.604 17.2144L251.993 17.6055L254.162 15.4245L253.773 15.0334Z" fill="#929292"/>
<path d="M237.08 31.8359L234.912 34.0176L235.301 34.4086L237.469 32.2269L237.08 31.8359Z" fill="#929292"/>
<path d="M235.311 15.0575L234.922 15.4487L237.092 17.6293L237.481 17.2381L235.311 15.0575Z" fill="#929292"/>
<path d="M251.999 31.8208L251.609 32.2119L253.779 34.3928L254.168 34.0017L251.999 31.8208Z" fill="#929292"/>
<path d="M244.439 24.3578L244.266 24.7998L249.474 26.8614L249.647 26.4194L244.439 24.3578Z" fill="#929292"/>
<path d="M244.785 24.9692H236.198V24.4942H244.313V17.7905H244.785V24.9692Z" fill="#929292"/>
<path d="M229.584 171.982C229.584 171.982 225.35 173.196 220.674 167.106C217.295 162.705 211.321 153.32 203.075 153.157C203.075 153.157 212.864 148.895 221.499 153.235C230.134 157.576 234.745 168.819 229.584 171.982Z" fill="#ACACAC"/>
<path d="M232.108 189.616H232.096C231.94 189.61 231.821 189.477 231.833 189.321C231.833 189.261 232.108 183.393 230.948 176.713C229.883 170.581 227.36 162.494 221.386 158.767C221.254 158.682 221.212 158.514 221.296 158.382C221.38 158.249 221.547 158.207 221.679 158.292C224.399 159.993 226.66 162.687 228.388 166.312C229.764 169.192 230.81 172.667 231.498 176.629C232.67 183.369 232.395 189.291 232.389 189.351C232.383 189.501 232.257 189.616 232.108 189.616Z" fill="#929292"/>
<path d="M232.789 158.58C232.789 158.58 237.077 157.57 238.219 149.965C239.045 144.47 239.732 133.341 246.86 129.174C246.86 129.174 236.246 130.226 230.798 138.247C225.35 146.261 226.756 158.34 232.789 158.58Z" fill="#ACACAC"/>
<path d="M238.692 190.115C238.578 190.115 238.471 190.043 238.429 189.929C238.399 189.85 235.576 182.016 233.513 172.349C232.299 166.667 231.588 161.472 231.384 156.903C231.133 151.179 231.701 146.43 233.071 142.786C233.124 142.642 233.286 142.57 233.429 142.624C233.573 142.678 233.645 142.84 233.591 142.985C230.547 151.089 232.168 163.36 234.057 172.228C236.114 181.86 238.925 189.658 238.955 189.736C239.009 189.881 238.931 190.043 238.787 190.097C238.758 190.109 238.722 190.115 238.692 190.115Z" fill="#929292"/>
<path d="M240.288 162.302C240.288 162.302 244.654 162.903 248.421 156.212C251.148 151.378 255.741 141.235 263.885 139.9C263.885 139.9 253.594 137.069 245.658 142.594C237.717 148.119 234.733 159.903 240.288 162.302Z" fill="#ACACAC"/>
<path d="M240.958 190.115C240.827 190.115 240.713 190.025 240.683 189.887C240.671 189.814 239.242 182.419 239.2 173.575C239.176 168.375 239.631 163.697 240.545 159.669C241.694 154.612 243.589 150.572 246.167 147.656C246.268 147.542 246.448 147.53 246.561 147.632C246.675 147.734 246.687 147.915 246.585 148.029C240.874 154.486 239.72 165.489 239.762 173.575C239.804 182.365 241.221 189.712 241.239 189.784C241.269 189.935 241.167 190.085 241.018 190.115C241 190.115 240.982 190.115 240.964 190.115H240.958Z" fill="#929292"/>
<path d="M247.787 172.535C247.787 172.535 251.943 173.996 256.961 168.188C260.584 163.992 267.097 154.973 275.343 155.292C275.343 155.292 265.817 150.464 256.943 154.294C248.068 158.124 242.818 169.078 247.787 172.535Z" fill="#ACACAC"/>
<path d="M243.739 190.115C243.589 190.115 243.464 189.995 243.458 189.845C243.458 189.797 243.332 184.704 244.857 178.445C245.754 174.766 247.04 171.405 248.678 168.453C250.729 164.755 253.337 161.695 256.434 159.356C256.56 159.26 256.733 159.29 256.823 159.411C256.919 159.537 256.889 159.711 256.769 159.801C249.892 164.996 246.789 172.878 245.401 178.578C243.888 184.764 244.014 189.779 244.014 189.827C244.014 189.983 243.894 190.109 243.745 190.115C243.745 190.115 243.745 190.115 243.739 190.115Z" fill="#929292"/>
<path d="M225.458 202.127H252.799C254.76 201.183 256.285 199.446 256.907 197.281C257.098 196.608 257.206 195.935 257.218 195.273C257.26 193.055 256.261 190.896 254.054 188.81H224.053C222.079 190.674 221.069 192.598 220.907 194.57C220.859 195.141 220.883 195.712 220.973 196.295C221.386 198.923 223.126 201.063 225.458 202.127Z" fill="#C1C1C1"/>
<path d="M257.008 102.515V60.4233L177.809 60.4233V102.515H257.008Z" fill="#E6E6E6"/>
<path d="M253.133 98.6134V64.3193H181.69V98.6134H253.133Z" fill="white"/>
<path d="M249.719 95.7636V67.1631H185.111V95.7636H249.719Z" fill="#ACACAC"/>
<path d="M231.941 87.0608C233.171 81.1487 229.4 75.3539 223.52 74.1177C217.64 72.8815 211.876 76.6721 210.646 82.5842C209.417 88.4964 213.187 94.2912 219.067 95.5274C224.948 96.7636 230.711 92.973 231.941 87.0608Z" fill="white"/>
<path d="M221.906 86.691C221.906 86.691 233.752 78.364 249.713 78.2197V95.7696H230.152L221.906 86.691Z" fill="#E6E6E6"/>
<path d="M185.105 85.068C185.105 85.068 197.717 78.7731 210.628 81.4666C224.417 84.3465 234.966 95.7698 234.966 95.7698H185.105V85.068Z" fill="#929292"/>
<path d="M210.143 8.89844H168.546V50.72H210.143V8.89844Z" fill="#929292"/>
<path d="M206.579 12.4756H172.098V47.1425H206.579V12.4756Z" fill="white"/>
<path d="M202.866 16.7202H175.794V42.9038H202.866V16.7202Z" fill="#ACACAC"/>
<path d="M189.327 37.4088C193.957 37.4088 197.711 33.6349 197.711 28.9795C197.711 24.3242 193.957 20.5503 189.327 20.5503C184.696 20.5503 180.943 24.3242 180.943 28.9795C180.943 33.6349 184.696 37.4088 189.327 37.4088Z" fill="white"/>
<path d="M187.461 29.328C187.461 29.328 193.89 22.8648 202.866 23.2977V42.8977L187.461 29.328Z" fill="#929292"/>
<path d="M175.794 25.3238C175.794 25.3238 183.777 23.7365 190.941 29.809C198.111 35.8754 202.86 42.8977 202.86 42.8977H175.788V25.3238H175.794Z" fill="#ACACAC"/>
<path d="M277.574 209.3H33.4462C30.9361 209.3 28.9014 211.346 28.9014 213.869V214.013C28.9014 216.537 30.9361 218.583 33.4462 218.583H277.574C280.084 218.583 282.119 216.537 282.119 214.013V213.869C282.119 211.346 280.084 209.3 277.574 209.3Z" fill="#929292"/>
<path d="M269.961 224H43.1457C40.1736 224 37.7637 221.577 37.7637 218.589H275.343C275.343 221.577 272.933 224 269.961 224Z" fill="#BABABA"/>
<path d="M111.228 56.5456C107.186 57.3693 106.546 58.211 105.966 63.8325C105.954 63.9347 105.804 63.9347 105.798 63.8325C105.218 58.217 104.578 57.3753 100.536 56.5456C100.446 56.5275 100.446 56.3953 100.536 56.3772C104.578 55.5535 105.218 54.7118 105.798 49.0903C105.81 48.9881 105.96 48.9881 105.966 49.0903C106.546 54.7058 107.186 55.5475 111.228 56.3772C111.318 56.3953 111.318 56.5275 111.228 56.5456Z" fill="#407BFF"/>
<path opacity="0.4" d="M111.228 56.5456C107.186 57.3693 106.546 58.211 105.966 63.8325C105.954 63.9347 105.804 63.9347 105.798 63.8325C105.218 58.217 104.578 57.3753 100.536 56.5456C100.446 56.5275 100.446 56.3953 100.536 56.3772C104.578 55.5535 105.218 54.7118 105.798 49.0903C105.81 48.9881 105.96 48.9881 105.966 49.0903C106.546 54.7058 107.186 55.5475 111.228 56.3772C111.318 56.3953 111.318 56.5275 111.228 56.5456Z" fill="white"/>
<path d="M226.229 116.212C222.187 117.035 221.547 117.877 220.967 123.498C220.955 123.601 220.806 123.601 220.8 123.498C220.22 117.883 219.58 117.041 215.537 116.212C215.448 116.194 215.448 116.061 215.537 116.043C219.58 115.22 220.22 114.378 220.8 108.756C220.812 108.654 220.961 108.654 220.967 108.756C221.547 114.372 222.187 115.214 226.229 116.043C226.319 116.061 226.319 116.194 226.229 116.212Z" fill="#407BFF"/>
<path opacity="0.4" d="M226.229 116.212C222.187 117.035 221.547 117.877 220.967 123.498C220.955 123.601 220.806 123.601 220.8 123.498C220.22 117.883 219.58 117.041 215.537 116.212C215.448 116.194 215.448 116.061 215.537 116.043C219.58 115.22 220.22 114.378 220.8 108.756C220.812 108.654 220.961 108.654 220.967 108.756C221.547 114.372 222.187 115.214 226.229 116.043C226.319 116.061 226.319 116.194 226.229 116.212Z" fill="white"/>
<path d="M51.9542 190.397C51.9542 190.397 45.2925 191.882 46.2792 187.211C47.2719 182.539 47.1942 180.814 44.4912 178.691C41.7823 176.569 39.0554 175.517 41.1304 172.156C43.2055 168.795 39.2707 166.18 37.2375 164.37C35.2043 162.56 37.5006 161.196 38.0388 157.775C38.577 154.354 34.9172 154.865 34.6302 150.554C34.3431 146.243 38.6966 141.205 34.9531 135.271C34.9531 135.271 39.9823 137.892 41.6328 142.497C43.2832 147.103 41.9497 150.662 44.9218 152.412C47.8938 154.161 49.7536 157.191 48.743 160.3C47.7324 163.408 49.1676 165.055 51.6014 167.322C54.0353 169.589 53.3894 170.491 53.0845 173.262C52.7795 176.034 53.3894 175.379 56.1761 179.166C58.9628 182.954 59.0346 189.159 51.9483 190.403L51.9542 190.397Z" fill="#407BFF"/>
<path opacity="0.4" d="M52.899 190.187C52.899 190.187 52.8751 190.139 52.8631 190.115L39.5337 149.43C39.4739 149.255 39.5696 149.069 39.743 149.009H39.749C39.9224 148.955 40.1078 149.051 40.1616 149.219L53.491 189.904C53.503 189.934 53.509 189.971 53.509 190.007L52.893 190.187H52.899Z" fill="black"/>
<path d="M63.974 190.313C63.974 190.313 70.5999 191.792 69.6192 187.139C68.6325 182.491 68.7042 180.778 71.4012 178.661C74.0922 176.551 76.8071 175.505 74.744 172.156C72.6809 168.813 76.5978 166.21 78.6191 164.406C80.6403 162.602 78.3559 161.25 77.8237 157.841C77.2855 154.438 80.9333 154.949 81.2144 150.662C81.5014 146.375 77.1659 141.361 80.8915 135.463C80.8915 135.463 75.8862 138.072 74.2417 142.654C72.5972 147.235 73.9248 150.776 70.9706 152.52C68.0165 154.263 66.1627 157.275 67.1674 160.366C68.172 163.456 66.7428 165.097 64.3209 167.352C61.899 169.607 62.5448 170.503 62.8438 173.262C63.1428 176.022 62.5388 175.366 59.7641 179.136C56.9894 182.906 56.9176 189.075 63.974 190.313Z" fill="#407BFF"/>
<path opacity="0.4" d="M62.4192 189.922C62.4192 189.886 62.4192 189.856 62.4371 189.826L75.7008 149.357C75.7546 149.183 75.94 149.093 76.1134 149.147C76.1134 149.147 76.1134 149.147 76.1194 149.147C76.2928 149.207 76.3885 149.393 76.3287 149.568L63.065 190.037C63.065 190.037 63.0471 190.085 63.0292 190.109L62.4192 189.928V189.922Z" fill="black"/>
<path d="M56.6187 189.465C56.6187 189.465 48.9942 188.828 51.5955 184.156C54.1968 179.485 54.6931 177.609 52.4925 174.435C50.2918 171.254 47.7204 169.222 51.0513 166.312C54.3822 163.402 51.0334 159.29 49.4546 156.668C47.8759 154.053 50.7822 153.355 52.4925 149.868C54.2028 146.381 50.1065 145.708 51.2247 140.994C52.343 136.281 58.6698 132.337 56.6187 124.731C56.6187 124.731 61.1396 129.222 61.3907 134.705C61.6359 140.189 59.0346 143.555 61.6359 146.423C64.2372 149.291 65.2299 153.157 63.1249 156.151C61.014 159.145 62.0067 161.388 63.8664 164.629C65.7262 167.869 64.7335 168.621 63.4957 171.489C62.2578 174.356 63.1249 173.857 64.8591 178.848C66.5933 183.838 64.6199 190.505 56.6187 189.471V189.465Z" fill="#407BFF"/>
<path opacity="0.4" d="M57.7011 189.562C57.7011 189.562 57.6891 189.501 57.6891 189.471L56.8459 141.445C56.8459 141.241 57.0074 141.066 57.2107 141.066H57.2167C57.42 141.066 57.5875 141.229 57.5875 141.433L58.4306 189.459C58.4306 189.495 58.4307 189.537 58.4187 189.574L57.7011 189.562Z" fill="black"/>
<path d="M38.3258 183.465L38.4873 184L38.8341 185.178L39.8328 188.563L40.1856 189.748L41.2141 193.217L41.561 194.395L45.9742 209.3H70.0676L74.4749 194.395L74.8217 193.217L75.8503 189.748L76.2031 188.563L77.2018 185.178L77.5546 184L77.7101 183.465H38.3258Z" fill="#407BFF"/>
<g opacity="0.2">
<path d="M38.3258 183.465L38.4873 184L38.8341 185.178L39.8328 188.563L40.1856 189.748L41.2141 193.217L41.561 194.395L45.9742 209.3H70.0676L74.4749 194.395L74.8217 193.217L75.8503 189.748L76.2031 188.563L77.2018 185.178L77.5546 184L77.7101 183.465H38.3258Z" fill="black"/>
</g>
<path d="M79.3487 181.686H36.0953V186.495H79.3487V181.686Z" fill="#407BFF"/>
<path opacity="0.2" d="M79.3487 181.686H36.0953V186.495H79.3487V181.686Z" fill="white"/>
<path d="M82.3625 102.058C81.8901 103.219 81.2861 103.922 81.2861 103.922C81.2861 103.922 79.4563 105.906 76.5261 107.722C75.8982 108.113 75.2523 108.215 74.5945 108.113C72.1906 107.758 69.673 104.71 67.7235 103.291C63.9382 100.537 61.3428 100.159 61.4684 97.1644C61.5462 95.3187 63.7289 95.1864 63.7289 95.1864C63.7289 95.1864 62.6106 93.5631 63.7887 92.7454C64.9667 91.9277 66.7009 92.3967 66.7009 92.3967C66.1866 91.4948 64.1833 88.8434 62.7661 87.1179C61.9588 86.1319 60.6133 84.9535 60.2963 83.721C60.0751 82.8672 60.4518 82.278 61.0319 82.2299C62.9933 82.0856 69.6072 89.9497 70.0138 90.4367C69.7627 90.0459 66.5694 85.0677 65.6724 82.3622C64.7335 79.5484 66.8983 79.9272 66.8983 79.9272C68.7939 80.3541 75.2583 91.6091 76.5859 92.0841C76.5859 92.0841 78.4456 90.4247 79.839 91.1702C81.2323 91.9097 82.6137 97.3749 82.6137 97.3749C83.1878 99.2327 82.8469 100.88 82.3625 102.058Z" fill="#7F3E3B"/>
<g opacity="0.2">
<path d="M80.6643 94.3811C80.5387 94.2909 80.3593 94.3149 80.2636 94.4472C78.942 96.2749 77.0942 97.766 75.5514 98.241C75.366 98.2951 75.1866 98.3311 75.0311 98.3552C74.6125 98.4153 74.2776 98.3612 74.0683 98.1989C73.9009 98.0726 73.8052 97.8682 73.7693 97.5977C73.7275 97.2369 73.7873 96.8341 73.9487 96.4012C74.0145 96.2028 74.1102 96.0104 74.182 95.8601C74.9474 94.351 76.4902 93.0463 76.5022 93.0343C76.6218 92.9321 76.6397 92.7517 76.5381 92.6315C76.4364 92.5113 76.257 92.4932 76.1374 92.5954C76.0716 92.6495 74.5647 93.9241 73.7335 95.4873C72.2923 93.6596 70.9229 92.7578 70.893 92.7397C70.7554 92.6616 70.582 92.6976 70.4923 92.8299C70.4146 92.9742 70.4504 93.1425 70.582 93.2327C70.6059 93.2508 72.0172 94.1827 73.4703 96.0465C73.4464 96.1006 73.4225 96.1547 73.4046 96.2088C73.2192 96.7138 73.1474 97.2068 73.2012 97.6578C73.2551 98.0907 73.4285 98.4213 73.7215 98.6438C74.0564 98.9023 74.5408 98.9925 75.1089 98.9083C75.1328 98.9083 75.1687 98.8963 75.1926 98.8903C75.8982 100.411 76.4304 102.239 76.5381 104.38C76.5441 104.53 76.6756 104.65 76.8311 104.656L76.8969 104.638C77.0165 104.602 77.1122 104.482 77.1002 104.355C76.9866 102.179 76.4544 100.321 75.7487 98.764C77.4291 98.235 79.3307 96.7078 80.7301 94.7659C80.8198 94.6396 80.7958 94.4592 80.6643 94.363V94.3811Z" fill="black"/>
<path d="M67.4365 92.487C67.3109 92.3908 67.1315 92.4088 67.0358 92.5351C66.9402 92.6614 66.9581 92.8417 67.0837 92.9379C68.0166 93.6774 70.4564 95.8659 70.5042 97.0924C70.5102 97.2908 70.4564 97.4411 70.3248 97.5674C69.5175 98.3249 67.4784 97.3149 66.7608 96.8579C66.6352 96.7798 66.4737 96.8098 66.384 96.9241C66.2943 97.0383 66.3003 97.2006 66.4079 97.3089C67.1554 98.0544 69.1049 100.381 68.2797 101.247C67.6996 101.854 66.1209 101.289 65.5648 101.018C65.4212 100.952 65.2538 101.012 65.182 101.151C65.1163 101.295 65.1761 101.463 65.3136 101.535C65.5109 101.632 66.988 102.317 68.0524 102.016C68.2916 101.95 68.5129 101.83 68.6923 101.644C69.5833 100.712 68.6504 99.1125 67.8013 98.0243C68.7521 98.4031 69.984 98.6797 70.7195 97.9882C70.9707 97.7538 71.0963 97.4351 71.0843 97.0684C71.0125 95.3609 67.8132 92.7756 67.4485 92.487H67.4365Z" fill="black"/>
<path d="M69.2604 92.1503C69.3262 92.1804 69.392 92.1804 69.4518 92.1623C69.5295 92.1383 69.6013 92.0842 69.6372 92.006C69.6372 91.994 70.2292 90.7314 71.9036 90.028C72.0471 89.9678 72.1189 89.7995 72.0591 89.6552C71.9993 89.5109 71.8258 89.4327 71.6883 89.4989C69.7926 90.2925 69.1468 91.7114 69.1229 91.7715C69.0571 91.9158 69.1229 92.0842 69.2664 92.1503H69.2604Z" fill="black"/>
</g>
<path d="M123.427 134.441C121.926 136.629 120.401 138.812 118.835 140.988C117.531 142.786 116.215 144.572 114.816 146.387C114.11 147.301 113.405 148.209 112.609 149.165L111.999 149.887L111.324 150.644L111.156 150.836L110.947 151.053L110.534 151.492L110.325 151.708L110.217 151.816L110.068 151.967L109.428 152.562L109.099 152.851C108.579 153.295 108.011 153.698 107.311 154.053C105.966 154.763 104.327 155.081 103.077 155.039C102.748 155.033 102.491 155.009 102.198 154.979L101.774 154.925L101.415 154.853C101.182 154.805 100.924 154.744 100.721 154.69C100.53 154.63 100.338 154.57 100.147 154.504C99.9437 154.432 99.7942 154.372 99.6387 154.312L99.1842 154.107C98.9391 153.987 98.664 153.843 98.4547 153.722C97.5936 153.217 97.0554 152.778 96.5949 152.382C96.1404 151.991 95.7936 151.642 95.4766 151.305C94.8487 150.632 94.3703 150.043 93.9338 149.472C93.4973 148.901 93.1145 148.353 92.7498 147.818C91.3086 145.69 90.1843 143.664 89.096 141.644C86.9312 137.609 85.0356 133.617 83.2416 129.583C80.0901 122.489 77.2077 115.382 74.5945 108.113C75.2523 108.215 75.342 105.991 75.9699 105.6C78.9001 103.784 80.0662 101.247 80.0662 101.247C80.0662 101.247 81.8901 103.219 82.3625 102.059C86.6382 109.117 90.872 116.26 95.1717 123.204C96.2839 125.008 97.4261 126.793 98.5563 128.555C99.6806 130.317 100.823 132.054 101.983 133.725C102.102 133.894 102.222 134.068 102.342 134.237C102.976 133.226 103.603 132.192 104.231 131.158C106.432 127.569 108.621 123.907 110.821 120.252C110.911 120.096 111.007 119.945 111.096 119.789C112.723 123.595 116.658 131.14 123.296 134.231C123.337 134.297 123.385 134.369 123.427 134.441Z" fill="#7F3E3B"/>
<path d="M82.3625 102.059C81.8901 103.219 81.2861 103.923 81.2861 103.923C81.2861 103.923 79.4562 105.907 76.526 107.722C75.8981 108.113 75.2523 108.215 74.5945 108.113C74.2417 107.127 73.8948 106.135 73.548 105.143L77.5426 104.957L78.2423 104.5L81.8721 101.247C82.0336 101.518 82.201 101.788 82.3625 102.059Z" fill="#7F3E3B"/>
<path d="M140.099 108.029C138.694 110.512 137.247 112.935 135.776 115.346C134.987 116.639 134.191 117.925 133.396 119.212L129.898 124.713L129.485 125.344L126.806 129.427L126.316 130.172C126.088 130.509 125.867 130.84 125.64 131.176C125.52 131.351 125.407 131.531 125.281 131.705C124.695 132.577 124.103 133.455 123.505 134.327C123.481 134.363 123.451 134.399 123.427 134.441C123.385 134.369 123.337 134.297 123.296 134.231C116.658 131.14 112.723 123.595 111.096 119.789C111.641 118.881 112.185 117.973 112.735 117.065C112.861 116.855 112.986 116.645 113.118 116.434C116.383 110.999 119.696 105.552 123.086 100.195C123.469 99.5817 123.858 98.9744 124.246 98.3672L125.813 99.3231L132.176 103.201L134.341 104.518L140.099 108.029Z" fill="#7F3E3B"/>
<path d="M126.202 171.729C126.202 171.729 117.256 190.313 115.665 209.3H192.945C192.945 209.3 199.349 184.818 187.82 169.132L126.202 171.729Z" fill="black"/>
<path d="M203.326 114.72C201.687 118.165 198.703 116.217 198.404 119.819C198.105 123.414 199.594 123.715 197.065 126.114C194.529 128.513 193.788 129.709 195.127 132.559C196.467 135.409 192.741 142.449 183.945 134.357C175.148 126.264 162.477 131.062 144.656 124.466C126.836 117.871 138.024 89.09 135.543 87.142C133.055 85.1941 138.473 80.5466 135.226 78.9052C134.371 78.4723 133.372 79.0916 132.505 79.2299C127.523 79.9934 123.385 75.2978 124.815 70.4399C124.832 70.3798 124.85 70.3196 124.868 70.2595C126.704 64.2833 122.201 65.3054 121.771 61.5657C121.298 57.4233 125.963 56.0525 123.613 53.6175C121.358 51.2847 119.104 48.3988 121.561 44.4968C124.019 40.5889 119.72 38.0457 121.232 34.9433C122.895 31.5584 125.155 32.8871 126.178 30.0132C127.201 27.1394 125.67 24.6683 127.894 22.4317C130.268 20.0328 134.275 22.8105 135.459 20.7603C136.649 18.7041 135.614 15.8302 139.705 14.6037C143.795 13.3772 146.085 18.0909 147.897 16.8583C149.709 15.6318 149.907 12.3491 154.404 12.3491C158.901 12.3491 159.098 18.0909 161.95 17.4776C164.815 16.8583 164.767 15.8723 167.924 16.5457C173.091 17.646 170.932 22.1912 173.791 23.2193C176.649 24.2474 179.298 24.043 180.524 27.7346C181.75 31.4261 178.688 33.4763 180.524 35.5265C182.36 37.5827 184.609 38.5928 184.232 42.1821C183.855 45.7654 181.415 46.505 182.898 49.2225C184.375 51.9341 185.476 55.1326 182.898 58.6678C180.321 62.2031 184.65 61.2411 184.8 65.0469C184.854 66.3876 184.052 67.9749 183.723 68.3476C182.486 69.7665 183.006 71.7085 184.8 72.2616C189.273 73.8068 184.555 78.328 188.137 79.7289C191.031 80.8592 192.729 79.3381 193.303 83.8353C193.997 89.2944 195.815 85.9456 198.052 88.7954C200.288 91.6452 197.627 94.5312 201.185 96.413C204.612 98.2227 205.281 100.922 203.236 105.233C201.197 109.532 204.958 111.281 203.314 114.732L203.326 114.72Z" fill="black"/>
<path d="M131.058 57.189C131.189 57.3272 131.159 57.4295 131.118 57.5317C128.57 58.3433 126.926 60.9286 127.386 63.6522C127.888 66.6343 130.711 68.6484 133.671 68.1434C136.637 67.6383 138.64 64.8005 138.138 61.8244C137.815 59.9005 136.23 58.3012 134.562 57.6038C134.652 57.5076 134.729 57.4114 134.849 57.2852C136.637 58.0247 138.132 59.7141 138.479 61.7703C139.011 64.9388 136.882 67.951 133.731 68.4921C130.579 69.0272 127.583 66.8868 127.045 63.7183C126.555 60.8084 128.325 58.0487 131.058 57.201V57.189Z" fill="white"/>
<path d="M184.208 42.2545L183.61 42.1102C185.231 35.2382 179.071 32.6529 178.808 32.5507L179.035 31.9795C179.107 32.0096 185.954 34.8594 184.208 42.2545Z" fill="black"/>
<path d="M132.391 81.4666C129.766 81.4666 126.734 80.7992 124.737 78.244C120.21 72.4481 125.131 64.9087 125.185 64.8306L125.694 65.1733C125.646 65.2454 120.969 72.4181 125.221 77.8592C129.036 82.7412 137.331 80.1138 137.414 80.0898L137.606 80.679C137.42 80.7391 135.136 81.4666 132.397 81.4666H132.391Z" fill="black"/>
<path d="M127.045 33.8609C127.009 33.8248 123.206 30.1333 125.143 25.6361C126.973 21.3854 130.992 21.4155 131.028 21.4215L131.016 22.0407C130.878 22.0407 127.368 22.0287 125.706 25.8826C123.941 29.983 127.428 33.3799 127.464 33.416L127.039 33.8669L127.045 33.8609Z" fill="black"/>
<path d="M134.102 106.622L129.485 125.344L127.003 135.397C125.765 135.186 124.599 134.813 123.505 134.326C123.433 134.296 123.367 134.26 123.296 134.23C116.658 131.14 112.723 123.594 111.096 119.789C110.504 118.4 110.217 117.51 110.217 117.51L111.79 114.829L111.838 114.756L125.197 92.0359L125.556 91.4287L132.176 103.201L134.102 106.622Z" fill="#407BFF"/>
<path opacity="0.3" d="M127.003 135.397C125.765 135.186 124.599 134.813 123.505 134.326C123.433 134.296 123.367 134.26 123.296 134.23C116.658 131.14 112.723 123.594 111.096 119.789C110.504 118.4 110.217 117.51 110.217 117.51L111.79 114.829L111.838 114.756L125.197 92.0359L125.556 91.4287L125.813 99.3228L126.806 129.426L127.003 135.397Z" fill="black"/>
<g opacity="0.2">
<path d="M125.598 131.784C117.657 130.124 112.011 115.412 111.772 114.787L112.328 114.57C112.388 114.721 118.093 129.601 125.712 131.194L125.592 131.784H125.598Z" fill="black"/>
</g>
<path d="M189.428 128.194C189.249 131.555 189.171 134.735 189.165 137.754C189.141 151.504 190.619 161.815 190.607 168.813C190.607 169.889 190.152 170.863 189.411 171.537C188.866 172.042 188.167 172.384 187.383 172.481C162.423 175.559 133.862 176.31 125.712 172.799C125.191 172.577 124.761 172.342 124.414 172.084C120.258 166.498 124.587 136.226 123.714 134.886C123.619 134.735 123.523 134.591 123.427 134.441C123.385 134.369 123.338 134.297 123.296 134.23C122.153 132.403 121.304 130.677 120.682 129.042C120.521 128.609 120.371 128.182 120.234 127.761C116.993 117.474 122.823 110.897 122.823 106.225C122.823 104.067 122.901 102.053 123.086 100.195C123.403 97.0384 124.049 94.3148 125.197 92.0361C126.997 88.4588 130.047 85.9697 135.052 84.6049C136.141 84.3103 137.325 84.0638 138.604 83.8774C140.949 83.5287 143.394 83.2341 145.786 82.9936C146.223 82.9516 146.66 82.9095 147.09 82.8674C147.616 82.8193 148.143 82.7772 148.663 82.7351C148.747 82.7291 148.824 82.7231 148.902 82.7171C149.512 82.675 150.122 82.6329 150.726 82.5968C150.917 82.5848 151.109 82.5788 151.3 82.5668C151.868 82.5367 152.436 82.5127 153.004 82.4886C153.578 82.4706 154.147 82.4525 154.715 82.4345C157.597 82.3684 160.497 82.3924 163.505 82.4766C164.115 82.4946 164.731 82.5127 165.347 82.5367C166.196 82.5608 167.057 82.5968 167.924 82.6329H167.93C168.648 82.663 169.372 82.693 170.107 82.7291C170.639 82.7532 171.172 82.7772 171.716 82.8012C172.17 82.8253 172.631 82.8433 173.091 82.8674C175.573 82.9876 177.989 83.18 180.279 83.4145C182.504 83.637 184.555 84.3584 186.331 85.4467C190.463 87.9598 193.154 92.469 193.298 97.4472C193.333 98.5715 193.238 99.7198 192.999 100.874C191.916 106.069 191.115 110.999 190.541 115.664C190.499 115.947 190.469 116.224 190.439 116.494C190.116 119.17 189.865 121.755 189.674 124.25C189.674 124.268 189.674 124.28 189.668 124.298C189.572 125.621 189.488 126.919 189.423 128.188C189.423 128.188 189.423 128.19 189.423 128.194H189.428Z" fill="#407BFF"/>
<g opacity="0.2">
<path d="M182.061 172.92L181.457 172.793C185.547 153.145 179.825 116.266 179.765 115.899L180.375 115.803C180.435 116.175 186.175 153.169 182.061 172.926V172.92Z" fill="black"/>
</g>
<path d="M187.7 179.72C187.7 179.72 184.746 179.521 182.061 178.721C179.376 177.922 174.311 180.922 173.019 182.816C171.728 184.716 178.186 181.818 179.681 182.816C181.176 183.814 185.643 194.408 187.234 195.706C188.824 197.005 194.517 187.914 194.517 187.914L187.706 179.713L187.7 179.72Z" fill="#7F3E3B"/>
<path d="M171.722 82.8013C169.575 84.5088 166.017 89.1142 159.217 94.3208C151.539 100.201 140.189 103.303 139.448 95.6616C138.921 90.3106 142.874 85.7233 145.786 82.9997C146.223 82.9576 146.659 82.9155 147.084 82.8734C155.151 82.1339 162.692 82.3804 171.716 82.8073L171.722 82.8013Z" fill="white"/>
<path d="M167.942 82.6386C167.942 82.6386 165.09 84.6768 161.406 87.5927C161.4 87.5987 161.394 87.5988 161.388 87.6048C154.135 93.9838 146.618 96.4308 144.381 94.4107C141.768 92.0539 146.378 86.4444 146.976 85.7229C146.976 85.7229 146.988 85.7169 146.988 85.7109C147.012 85.6868 147.036 85.6628 147.06 85.6327C147.072 85.6207 147.078 85.6087 147.084 85.6027L147.09 85.5967C149.057 83.2398 149.255 80.871 148.788 78.0632C148.519 76.3137 147.891 74.51 147.156 72.7604L149.392 70.127L161.107 58.2407C160.814 66.1769 161.771 78.3338 167.942 82.6386Z" fill="#7F3E3B"/>
<g opacity="0.2">
<path d="M148.788 78.0573C148.519 76.3077 147.891 74.5041 147.156 72.7545L149.392 70.1211L155.803 71.0169C155.803 71.0169 153.518 76.0372 148.782 78.0573H148.788Z" fill="black"/>
</g>
<path d="M164.587 44.4428C164.127 57.4834 164.199 63.0148 157.95 69.8567C148.549 80.1498 133.025 76.6987 129.676 63.7783C126.662 52.1445 127.924 32.7729 140.231 27.2897C152.352 21.8847 165.048 31.4081 164.587 44.4488V44.4428Z" fill="#7F3E3B"/>
<path d="M134.442 50.034C134.4 50.052 134.353 50.058 134.305 50.058C134.137 50.058 133.988 49.9618 133.922 49.7935C133.922 49.7814 133.497 48.6271 132.284 48.3565C131.297 48.1341 130.585 48.579 130.34 48.7654C129.299 49.9077 127.978 48.2303 127.978 48.2303L129.485 48.5189C129.688 48.1521 130.908 47.2202 132.451 47.5689C134.095 47.9357 134.658 49.4688 134.676 49.5289C134.753 49.7394 134.646 49.9678 134.436 50.04L134.442 50.034Z" fill="black"/>
<path d="M148.609 47.485C148.609 47.485 147.198 49.2827 146.091 48.0682C145.828 47.8638 145.069 47.3949 144.022 47.6293C142.719 47.9179 142.27 49.1565 142.264 49.1685C142.204 49.3489 142.037 49.4571 141.858 49.4571C141.816 49.4571 141.768 49.4511 141.714 49.433C141.493 49.3549 141.373 49.1084 141.457 48.8859C141.481 48.8198 142.073 47.1844 143.831 46.7936C145.493 46.4149 146.797 47.4309 147.012 47.8097L148.609 47.4971V47.485Z" fill="black"/>
<path d="M138.03 63.135C137.785 63.123 137.594 62.9185 137.606 62.672C137.618 62.4255 137.821 62.2331 138.066 62.2452C138.252 62.2512 142.689 62.3654 143.52 57.6818C143.562 57.4413 143.795 57.279 144.034 57.3211C144.273 57.3632 144.435 57.5977 144.393 57.8382C143.424 63.2973 138.09 63.141 138.03 63.141V63.135Z" fill="black"/>
<path d="M165.257 48.0801C167.033 46.583 167.554 40.8172 166.136 36.6988C164.719 32.5744 163.302 24.8606 154.212 23.3575C145.117 21.8605 134.048 19.9426 128.887 32.9832C128.887 32.9832 128.391 36.3501 130.268 37.4323C132.612 38.7791 133.157 34.9853 135.148 34.1376C136.475 33.5724 136.386 35.785 139.023 35.7188C140.769 35.6707 140.458 33.4221 142.533 33.4221C144.608 33.4221 144.208 35.4783 146.444 36.2419C148.364 36.8912 149.273 34.8951 150.6 35.5926C151.856 36.2539 150.822 37.8412 152.388 39.1879C153.955 40.5347 154.912 39.1518 156.251 40.1258C157.591 41.0998 154.362 44.3284 155.468 45.8916C156.461 47.2925 159.158 46.547 158.56 48.7835C157.549 52.5893 153.477 54.9882 155.145 59.6237C156.79 64.181 162.716 62.1128 162.716 62.1128C157.394 61.3252 153.477 58.0304 165.251 48.0981L165.257 48.0801Z" fill="black"/>
<path d="M136.177 48.7716C136.177 48.7716 134.43 51.6275 132.517 54.1106C131.895 54.9222 132.152 56.1066 133.079 56.5335C134.67 57.267 136.386 57.5736 136.386 57.5736L136.183 48.7656L136.177 48.7716Z" fill="#630F0F"/>
<path d="M169.413 53.3468C168.313 55.866 166.328 57.4833 164.426 58.0665C161.568 58.9443 160.061 55.8058 160.79 52.5652C161.448 49.6493 163.726 45.6751 166.627 46.2343C169.485 46.7814 170.669 50.4609 169.419 53.3468H169.413Z" fill="#7F3E3B"/>
<path d="M164.175 55.5835C164.306 55.7218 164.277 55.824 164.235 55.9262C161.687 56.7379 160.043 59.3231 160.503 62.0467C161.006 65.0288 163.828 67.0429 166.788 66.5379C169.754 66.0329 171.758 63.1951 171.255 60.219C170.932 58.295 169.348 56.6958 167.679 55.9983C167.769 55.9021 167.847 55.806 167.966 55.6797C169.754 56.4192 171.249 58.1087 171.596 60.1649C172.128 63.3333 169.999 66.3455 166.848 66.8866C163.697 67.4217 160.701 65.2813 160.162 62.1128C159.672 59.2029 161.442 56.4433 164.175 55.5955V55.5835Z" fill="white"/>
<path d="M149.458 44.0039C149.297 43.9859 149.135 43.9077 149.028 43.7695C147.323 41.587 145.051 41.7614 145.021 41.7614C144.686 41.7914 144.381 41.5389 144.351 41.1962C144.321 40.8535 144.572 40.5529 144.913 40.5228C145.033 40.5108 147.885 40.2944 150.002 43.0059C150.212 43.2764 150.164 43.6673 149.895 43.8777C149.763 43.9799 149.608 44.022 149.452 44.0099L149.458 44.0039Z" fill="black"/>
<path d="M128.409 43.3967C128.253 43.3967 128.104 43.3306 127.984 43.2103C127.745 42.9638 127.751 42.573 127.99 42.3265C130.43 39.9096 133.234 40.4868 133.348 40.5168C133.683 40.589 133.892 40.9197 133.82 41.2563C133.749 41.593 133.42 41.8035 133.085 41.7313C132.977 41.7073 130.795 41.2864 128.857 43.2103C128.731 43.3366 128.564 43.3967 128.403 43.3907L128.409 43.3967Z" fill="black"/>
<path d="M193.112 97.1221C197.328 104.012 201.209 111.01 204.964 118.159C206.86 121.718 208.654 125.344 210.454 128.999C211.351 130.827 212.206 132.691 213.067 134.579C213.928 136.479 214.772 138.378 215.609 140.471C215.818 141 216.021 141.535 216.231 142.124C216.44 142.707 216.649 143.315 216.877 144.102L216.96 144.397L217.056 144.745L217.146 145.1L217.247 145.557L217.295 145.792L217.349 146.11C217.397 146.411 217.433 146.717 217.463 147.024C217.493 147.367 217.487 147.529 217.493 147.77C217.493 147.992 217.493 148.221 217.481 148.443C217.379 149.958 217.134 150.806 216.918 151.599C216.691 152.381 216.458 153.048 216.219 153.656C215.98 154.275 215.74 154.834 215.495 155.381C215.005 156.469 214.515 157.479 214 158.447C212.972 160.383 211.913 162.205 210.837 163.991C209.766 165.776 208.666 167.52 207.536 169.228C203.045 176.088 198.327 182.599 193.208 188.948L185.452 184.018C188.765 176.815 192.227 169.618 195.462 162.506C197.041 158.94 198.662 155.393 199.911 151.978C200.222 151.131 200.527 150.307 200.761 149.537C200.88 149.158 200.988 148.78 201.071 148.455C201.161 148.118 201.215 147.824 201.233 147.643C201.257 147.475 201.215 147.331 201.155 147.848C201.143 147.944 201.137 148.046 201.137 148.148C201.137 148.263 201.137 148.305 201.149 148.521C201.161 148.702 201.179 148.882 201.215 149.062C201.239 149.183 201.233 149.177 201.239 149.195V149.249L201.257 149.345H201.245C201.245 149.345 201.245 149.345 201.233 149.333L201.203 149.273L200.808 148.443L200.258 147.343C199.475 145.786 198.56 144.102 197.627 142.437L194.745 137.38C192.819 133.977 190.798 130.593 188.836 127.165C184.872 120.342 180.877 113.451 177.104 106.525L193.112 97.1281V97.1221Z" fill="#7F3E3B"/>
<path d="M204.899 113.055C202.148 115.652 199.188 118.051 196.018 120.264C195.971 120.3 195.911 120.342 195.863 120.378C191.695 123.234 187.162 125.771 182.426 128.122C182.426 128.122 169.521 115.772 168.062 101.403C166.74 88.3804 177.032 85.0255 177.032 85.0255C194.254 78.7667 204.905 113.055 204.905 113.055H204.899Z" fill="#407BFF"/>
<path opacity="0.2" d="M204.899 113.055C202.148 115.652 199.188 118.051 196.018 120.264C195.971 120.3 195.911 120.342 195.863 120.378C191.719 123.264 187.222 125.837 182.426 128.122C182.426 128.122 169.521 115.772 168.062 101.403C166.74 88.3804 177.032 85.0255 177.032 85.0255C194.254 78.7667 204.905 113.055 204.905 113.055H204.899Z" fill="black"/>
<g opacity="0.2">
<path d="M178.485 123.678L178.216 123.113C184.842 119.837 195.45 112.862 202.052 106.393L202.483 106.844C195.833 113.361 185.159 120.378 178.485 123.678Z" fill="black"/>
</g>
</g>
<defs>
<clipPath id="clip0_1621_1265">
<rect width="299" height="224" fill="white"/>
</clipPath>
</defs>
</svg>
