<svg width="310" height="260" viewBox="0 0 310 260" fill="none" xmlns="http://www.w3.org/2000/svg">
<path d="M310 231.06H0V231.215H310V231.06Z" fill="#EBEBEB"/>
<path d="M278.938 241.04H258.404V241.195H278.938V241.04Z" fill="#EBEBEB"/>
<path d="M205.356 242.727H199.969V242.882H205.356V242.727Z" fill="#EBEBEB"/>
<path d="M257.784 235.284H245.886V235.439H257.784V235.284Z" fill="#EBEBEB"/>
<path d="M59.3031 236.326H32.5253V236.481H59.3031V236.326Z" fill="#EBEBEB"/>
<path d="M68.7517 236.326H64.8271V236.481H68.7517V236.326Z" fill="#EBEBEB"/>
<path d="M139.593 238.943H81.5115V239.098H139.593V238.943Z" fill="#EBEBEB"/>
<path d="M146.946 203.395H27.2243C25.2713 203.395 23.6841 201.808 23.6841 199.854V31.4958C23.6841 29.542 25.2713 27.9541 27.2243 27.9541H146.946C148.899 27.9541 150.486 29.542 150.486 31.4958V199.854C150.486 201.808 148.899 203.395 146.946 203.395ZM27.2243 28.1092C25.3581 28.1092 23.8391 29.6288 23.8391 31.4958V199.854C23.8391 201.721 25.3581 203.24 27.2243 203.24H146.946C148.812 203.24 150.331 201.721 150.331 199.854V31.4958C150.331 29.6288 148.812 28.1092 146.946 28.1092H27.2243Z" fill="#EBEBEB"/>
<path d="M281.052 203.395H161.33C159.377 203.395 157.79 201.808 157.79 199.854V31.4958C157.79 29.542 159.377 27.9541 161.33 27.9541H281.052C283.005 27.9541 284.592 29.542 284.592 31.4958V199.854C284.592 201.808 283.005 203.395 281.052 203.395ZM161.33 28.1092C159.464 28.1092 157.945 29.6288 157.945 31.4958V199.854C157.945 201.721 159.464 203.24 161.33 203.24H281.052C282.918 203.24 284.437 201.721 284.437 199.854V31.4958C284.437 29.6288 282.918 28.1092 281.052 28.1092H161.33Z" fill="#EBEBEB"/>
<path d="M274.71 224.472V154.377H260.6V89.3838H258.61V126.634H253.18V116.33H243.416V80.6574H241.606V37.0683H240.155V79.8757H236.721V143.277H230.212V79.8757H218.452V133.499H206.109V68.5059H204.119V105.756H198.689V95.4524H188.925V59.7796H187.115V16.1904H185.664V58.9837H182.23V122.399H175.721V58.9837H163.961V120.324H156.032V84.6511H154.222V41.062H152.778V83.8694H149.337V147.27H142.828V83.8694H131.068V147.27H125.278V154.377H115.142V89.3838H113.152V126.634H107.722V116.33H97.958V80.6574H96.1478V37.0683H94.6972V79.8757H91.5418V76.3084H79.7881V79.8757H73.2727V76.3084H69.8384V33.501H68.3939V77.0901H66.5838V112.763H56.8138V123.067H51.3895V85.8165H49.3996V150.809H35.2902V224.472H274.71Z" fill="#DDDDDD"/>
<path d="M92.7829 82.4075C101.574 78.7644 105.749 68.6812 102.108 59.8861C98.466 51.091 88.3872 46.9144 79.5957 50.5575C70.8043 54.2005 66.6295 64.2837 70.271 73.0788C73.9126 81.8739 83.9915 86.0505 92.7829 82.4075Z" fill="#CECECE"/>
<path d="M80.8345 24.0729C80.8345 22.4168 79.4953 21.077 77.8399 21.077C77.5423 21.077 77.2509 21.1204 76.9781 21.2011C77.0215 20.9034 77.0463 20.5932 77.0463 20.2831C77.0463 16.7786 74.2067 13.9378 70.7037 13.9378C70.3069 13.9378 69.9163 13.975 69.5381 14.0495C68.5647 12.4554 66.8101 11.3823 64.8075 11.3823C61.7695 11.3823 59.3081 13.8262 59.2647 16.853C59.2337 16.853 59.2027 16.853 59.1717 16.853C56.3507 16.853 54.0629 19.1418 54.0629 21.964C54.0629 24.7862 56.3507 27.075 59.1717 27.075H77.9267C79.5387 27.0254 80.8345 25.7042 80.8345 24.0791V24.0729Z" fill="white"/>
<path d="M269.494 65.5802C269.494 63.9241 268.155 62.5844 266.5 62.5844C266.202 62.5844 265.911 62.6278 265.638 62.7084C265.681 62.4107 265.706 62.1005 265.706 61.7904C265.706 58.2859 262.867 55.4451 259.364 55.4451C258.967 55.4451 258.576 55.4823 258.198 55.5568C257.225 53.9627 255.47 52.8896 253.467 52.8896C250.429 52.8896 247.968 55.3335 247.925 58.3604C247.894 58.3604 247.863 58.3604 247.832 58.3604C245.011 58.3604 242.723 60.6491 242.723 63.4713C242.723 66.2935 245.011 68.5823 247.832 68.5823H266.587C268.199 68.5327 269.494 67.2115 269.494 65.5864V65.5802Z" fill="white"/>
<path d="M180.791 20.0779C180.791 17.4604 182.911 15.3391 185.528 15.3391C185.999 15.3391 186.458 15.4135 186.886 15.5376C186.817 15.06 186.78 14.5762 186.78 14.08C186.78 8.53481 191.275 4.04411 196.812 4.04411C197.444 4.04411 198.058 4.10614 198.659 4.21779C200.203 1.69332 202.975 0 206.149 0C210.954 0 214.854 3.86424 214.922 8.65266C214.972 8.65266 215.021 8.64646 215.071 8.64646C219.535 8.64646 223.156 12.2688 223.156 16.7347C223.156 21.2006 219.535 24.8229 215.071 24.8229H185.391C182.837 24.7423 180.785 22.6582 180.785 20.0841L180.791 20.0779Z" fill="white"/>
<path d="M93.2283 71.6963C93.2283 68.5454 95.7827 65.9899 98.9323 65.9899C99.5027 65.9899 100.048 66.0768 100.569 66.2318C100.488 65.6612 100.439 65.0781 100.439 64.4827C100.439 57.8087 105.845 52.4 112.516 52.4C113.279 52.4 114.017 52.4744 114.742 52.6109C116.596 49.5716 119.938 47.5371 123.757 47.5371C129.542 47.5371 134.229 52.1829 134.316 57.9513C134.378 57.9513 134.433 57.9451 134.489 57.9451C139.858 57.9451 144.217 62.2994 144.217 67.677C144.217 73.0547 139.865 77.409 134.489 77.409H98.7649L98.7711 77.4028C95.6959 77.3159 93.2283 74.8039 93.2283 71.7087V71.6963Z" fill="white"/>
<path d="M118.413 33.0476C118.413 32.018 117.582 31.1868 116.553 31.1868C116.367 31.1868 116.187 31.2178 116.02 31.2674C116.044 31.0814 116.063 30.8891 116.063 30.6968C116.063 28.5197 114.296 26.7519 112.12 26.7519C111.872 26.7519 111.63 26.7767 111.394 26.8202C110.787 25.8277 109.702 25.1641 108.449 25.1641C106.558 25.1641 105.027 26.6837 105.002 28.5631C104.984 28.5631 104.965 28.5631 104.946 28.5631C103.192 28.5631 101.772 29.9835 101.772 31.7388C101.772 33.4942 103.192 34.9146 104.946 34.9146H116.609C117.613 34.8836 118.419 34.0648 118.419 33.0538L118.413 33.0476Z" fill="white"/>
<path d="M51.9519 137.093C51.9519 136.063 52.7827 135.232 53.8119 135.232C53.9979 135.232 54.1777 135.263 54.3451 135.313C54.3203 135.127 54.3017 134.934 54.3017 134.742C54.3017 132.565 56.0687 130.797 58.2449 130.797C58.4929 130.797 58.7347 130.822 58.9703 130.866C59.5779 129.873 60.6629 129.209 61.9153 129.209C63.8063 129.209 65.3377 130.729 65.3625 132.609C65.3811 132.609 65.3997 132.609 65.4183 132.609C67.1729 132.609 68.5927 134.029 68.5927 135.784C68.5927 137.54 67.1729 138.96 65.4183 138.96H53.7561C52.7517 138.929 51.9457 138.11 51.9457 137.099L51.9519 137.093Z" fill="#F0F0F0"/>
<path d="M220.187 90.4343C220.187 89.4047 221.018 88.5735 222.047 88.5735C222.233 88.5735 222.413 88.6045 222.581 88.6542C222.556 88.4681 222.537 88.2758 222.537 88.0835C222.537 85.9064 224.304 84.1387 226.48 84.1387C226.728 84.1387 226.97 84.1635 227.206 84.2069C227.813 83.2145 228.898 82.5508 230.151 82.5508C232.042 82.5508 233.573 84.0704 233.598 85.9498C233.617 85.9498 233.635 85.9498 233.654 85.9498C235.408 85.9498 236.828 87.3702 236.828 89.1256C236.828 90.8809 235.408 92.3013 233.654 92.3013H221.992C220.987 92.2703 220.181 91.4516 220.181 90.4405L220.187 90.4343Z" fill="white"/>
<path d="M155 259.07C221.391 259.07 275.212 255.927 275.212 252.049C275.212 248.171 221.391 245.027 155 245.027C88.6089 245.027 34.7882 248.171 34.7882 252.049C34.7882 255.927 88.6089 259.07 155 259.07Z" fill="#F5F5F5"/>
<path d="M241.056 68.9411L214.551 109.314L213.385 111.088L211.079 112.161L129.041 150.301L137.144 178.082L138.998 184.434L132.575 189.743L77.2273 243.545H31.4279L114.235 174.752L109.219 147.429L107.855 139.998L114.266 137.04L201.698 96.766L230.181 61.5289L222.537 60.0155L246.549 50.0479L245.315 76.0307L241.056 68.9411Z" fill="#263238"/>
<path opacity="0.6" d="M241.056 68.9411L214.551 109.314L213.385 111.088L211.079 112.161L129.041 150.301L137.144 178.082L138.998 184.434L132.575 189.743L77.2273 243.545H31.4279L114.235 174.752L109.219 147.429L107.855 139.998L114.266 137.04L201.698 96.766L230.181 61.5289L222.537 60.0155L246.549 50.0479L245.315 76.0307L241.056 68.9411Z" fill="#FAFAFA"/>
<path d="M155.05 152.85L153.661 155.567L152.247 158.327L149.773 157.422L151.013 154.997L152.576 151.945L155.05 152.85Z" fill="#FFC2BC"/>
<path opacity="0.2" d="M155.05 152.85L153.661 155.567L151.013 154.997L152.576 151.945L155.05 152.85Z" fill="black"/>
<path d="M209.076 137.176C209.076 137.176 200.954 76.0309 190.991 49.0371" stroke="#263238" stroke-linecap="round" stroke-linejoin="round"/>
<path d="M193.378 135.737L196.019 135.631L196.528 129.516L193.886 129.621L193.378 135.737Z" fill="#FFC2BC"/>
<path d="M196.261 134.237L193.378 134.15C193.272 134.15 193.173 134.219 193.148 134.324L192.535 136.644C192.473 136.886 192.646 137.121 192.894 137.121C193.936 137.134 195.436 137.121 196.744 137.165C198.27 137.214 199.243 137.14 201.035 137.196C202.12 137.227 202.461 136.148 202.014 136.036C199.968 135.521 198.629 135.62 196.887 134.467C196.695 134.343 196.49 134.25 196.261 134.243V134.237Z" fill="#263238"/>
<path opacity="0.2" d="M196.528 129.516L196.261 132.667L193.626 132.772L193.886 129.621L196.528 129.516Z" fill="black"/>
<path d="M192.305 113.575C192.975 114.859 193.025 128.319 193.025 131.743H197.582C198.164 128.201 201.085 109.178 196.98 106.461C192.442 103.465 180.935 104.495 180.935 104.495L180.104 102.814L178.442 99.4644L168.9 103.012L166.823 103.781L165.968 104.104L165.893 104.129C165.893 104.129 165.9 104.222 165.918 104.383C165.949 104.761 166.036 105.512 166.191 106.449C166.352 107.429 166.594 108.613 166.947 109.773C167.828 112.645 169.39 115.362 172.106 114.45C172.224 114.413 172.341 114.363 172.459 114.313C172.682 114.214 172.924 114.121 173.172 114.028C174.983 113.377 177.388 112.949 179.881 112.707C185.609 112.155 191.797 112.589 192.305 113.575Z" fill="#263238"/>
<path d="M197.786 132.141L192.46 132.277L192.429 130.565L198.282 130.323L197.786 132.141Z" fill="#407BFF"/>
<path d="M152.706 157H149.494C149.389 157 149.29 157.074 149.271 157.18L148.726 159.524C148.67 159.766 148.856 159.996 149.104 159.996C150.139 159.977 150.889 159.915 152.191 159.915C152.991 159.915 155.409 159.996 156.513 159.996C157.616 159.996 157.771 158.904 157.325 158.805C155.298 158.358 153.779 157.751 153.134 157.161C153.016 157.056 152.867 157 152.706 157Z" fill="#263238"/>
<path d="M176.068 104.105C176.068 104.105 175.863 104.812 175.516 106.009C175.224 107.026 174.821 108.409 174.35 110.016C173.991 111.238 173.594 112.596 173.172 114.029C171.163 120.821 168.609 129.3 167.195 133.325C164.381 141.314 154.963 155.524 154.963 155.524L150.431 153.862C150.431 153.862 157.387 140.477 159.669 132.376C161.262 126.719 163.761 116.553 165.404 109.724C165.695 108.515 165.962 107.404 166.191 106.449C166.458 105.333 166.675 104.421 166.823 103.782C166.985 103.112 167.071 102.734 167.071 102.734L168.9 103.013L176.068 104.105Z" fill="#263238"/>
<path d="M155.465 155.822L150.133 153.862L150.734 152.274L156.42 153.992L155.465 155.822Z" fill="#407BFF"/>
<path opacity="0.2" d="M180.104 102.814L176.068 107.509L175.516 106.008L174.914 104.371L174.35 110.015L166.947 109.773L165.404 109.724C165.695 108.514 165.962 107.404 166.191 106.449C166.036 105.512 165.949 104.761 165.918 104.389L165.968 104.104L166.823 103.781C166.985 103.111 167.071 102.733 167.071 102.733L168.9 103.012L178.442 99.4644L180.104 102.814Z" fill="black"/>
<path opacity="0.2" d="M179.881 112.707C177.047 112.98 174.325 113.501 172.459 114.314C172.341 114.363 172.224 114.413 172.106 114.45L172.645 111.796C172.645 111.796 177.27 111.578 179.881 112.707Z" fill="black"/>
<path d="M145.254 105.363L143.635 107.509L142.265 104.867C142.265 104.867 143.821 103.037 144.733 103.881L145.26 105.363H145.254Z" fill="#FFC2BC"/>
<path d="M141.162 108.49L140.752 105.817L142.265 104.861L143.635 107.51L141.162 108.49Z" fill="#FFC2BC"/>
<path d="M145.694 105.165L145.241 105.395L144.572 103.695L145.291 103.348L145.694 105.165Z" fill="white"/>
<path d="M163.742 89.6769C163.506 90.0801 163.265 90.477 163.017 90.8678C162.39 91.885 161.739 92.8836 161.057 93.8699C160.871 94.1428 160.685 94.4095 160.493 94.6824C159.923 95.5011 159.321 96.3013 158.677 97.1014C158.354 97.4984 158.026 97.9016 157.66 98.2985C157.306 98.7017 156.891 99.1173 156.488 99.477C154.845 100.922 153.084 101.97 151.292 102.907C149.488 103.837 147.666 104.625 145.744 105.276L144.938 103.465C145.743 102.975 146.581 102.473 147.38 101.952C148.193 101.443 148.992 100.916 149.767 100.37C150.542 99.8244 151.305 99.2723 152.024 98.6955C152.756 98.1311 153.425 97.5108 154.033 96.9029C155.167 95.7431 156.184 94.0435 157.238 92.4743C158.274 90.8678 159.582 88.0518 160.605 86.4453L163.742 89.6769Z" fill="#263238"/>
<path opacity="0.2" d="M163.017 90.8676C162.39 91.8848 161.739 92.8835 161.057 93.8697C161.057 92.0089 162.118 90.1543 162.118 90.1543C162.545 90.3156 162.831 90.5637 163.017 90.8676Z" fill="black"/>
<path d="M198.567 82.9903L196.769 84.665L197.03 86.2157C197.687 87.084 199.2 86.0048 199.553 85.7381C199.609 85.6947 199.671 85.6636 199.733 85.6388L200.688 85.2481C201.035 85.1054 201.24 84.7395 201.178 84.3735L200.992 83.2322C200.917 82.7794 200.483 82.4755 200.031 82.5685L198.958 82.7918C198.815 82.8228 198.679 82.8911 198.574 82.9903H198.567Z" fill="#FFC2BC"/>
<path d="M196.354 84.6778L196.85 84.5537L197.135 86.3587L196.354 86.5385V84.6778Z" fill="white"/>
<path d="M196.769 86.5571C194.785 86.9851 192.814 87.2332 190.793 87.3635C188.771 87.4813 186.725 87.4813 184.574 87.0782C184.041 86.9727 183.47 86.8363 182.962 86.6688C182.441 86.5075 181.958 86.3339 181.474 86.154C180.513 85.8004 179.589 85.4221 178.678 85.0065C178.312 84.8452 177.946 84.6777 177.58 84.5103C176.75 84.1257 175.931 83.7287 175.113 83.3132C174.511 83.0154 173.916 82.6991 173.321 82.3704L174.914 78.5806C176.619 79.4365 178.628 80.5964 180.346 81.4462C182.051 82.2587 183.793 83.1953 185.361 83.6047C186.198 83.8218 187.085 84.0079 188.003 84.1195C188.92 84.2498 189.856 84.3304 190.799 84.4048C191.747 84.4793 192.702 84.5227 193.657 84.5351C194.612 84.5785 195.591 84.5785 196.534 84.5909L196.769 86.5571Z" fill="#263238"/>
<path opacity="0.2" d="M177.58 84.5104C176.75 84.1258 175.931 83.7289 175.113 83.3133L174.79 81.5518C174.79 81.5518 176.545 82.3147 177.58 84.5104Z" fill="black"/>
<path d="M161.125 86.1042C162.173 88.6101 162.961 91.2958 163.568 93.8823C164.008 95.7741 165.596 97.6163 165.868 99.3096C166.544 103.496 166.674 103.552 166.984 104.904C168.875 103.887 174.598 102.628 178.442 100.563C178.597 85.1056 174.455 79.0767 174.455 79.0767C174.455 79.0767 173.005 79.424 171.349 80.0753C171.132 80.1621 170.909 80.2552 170.686 80.3482C169.235 80.9809 166.898 82.2958 165.286 83.251C164.951 83.4495 164.61 83.6666 164.275 83.8775C162.595 84.963 161.132 86.1042 161.132 86.1042H161.125Z" fill="#407BFF"/>
<path opacity="0.7" d="M161.125 86.1042C162.173 88.6101 162.961 91.2958 163.568 93.8823C164.008 95.7741 165.596 97.6163 165.868 99.3096C166.544 103.496 166.674 103.552 166.984 104.904C168.875 103.887 174.598 102.628 178.442 100.563C178.597 85.1056 174.455 79.0767 174.455 79.0767C174.455 79.0767 173.005 79.424 171.349 80.0753C171.132 80.1621 170.909 80.2552 170.686 80.3482C169.235 80.9809 166.898 82.2958 165.286 83.251C164.951 83.4495 164.61 83.6666 164.275 83.8775C162.595 84.963 161.132 86.1042 161.132 86.1042H161.125Z" fill="white"/>
<path d="M171.287 85.8126L171.523 84.3798L170.537 84.3115L169.936 84.9814L171.287 85.8126Z" fill="#407BFF"/>
<path d="M170.537 84.3182C168.714 85.3355 166.91 84.1508 165.744 83.3382C165.701 83.3072 165.664 83.2824 165.62 83.2514C166.135 82.5381 166.185 81.4154 166.017 80.2369C165.837 78.8909 165.379 77.4705 165 76.5029L169.173 78.8971C169.154 79.1825 169.123 79.4368 169.111 79.6601C169.055 80.1997 169.049 80.5657 169.347 80.8013C169.595 80.9998 170.047 81.1053 170.866 81.1425C171.343 81.7069 171.789 83.6173 170.537 84.3182Z" fill="#FFC2BC"/>
<path d="M164.269 83.8775C164.269 83.8775 169.52 89.3544 173.364 92.344C173.364 92.344 173.085 82.6493 171.343 80.0753L174.914 78.5742C174.914 78.5742 178.349 86.1724 178.839 98.8506L180.395 102.039L176.067 106.455L174.672 103.186L173.755 108.607L164.802 109.407L165.899 103.192L160.611 86.4516L164.275 83.8899L164.269 83.8775Z" fill="#263238"/>
<path d="M170.816 85.5213C170.816 85.5213 172.05 89.7515 171.969 92.0092L173.563 92.8404L173.848 91.6122C173.848 91.6122 172.441 86.1601 171.151 85.1987L170.816 85.5151V85.5213Z" fill="#407BFF"/>
<path d="M164.486 83.4244C164.486 83.4244 171.039 90.6257 173.358 92.35C173.358 92.35 172.682 82.5995 171.176 80.1432C171.176 80.1432 172.211 79.4299 174.418 81.5884L173.315 83.6353L175.274 84.9875C175.274 84.9875 174.598 92.2942 173.315 95.7552C173.315 95.7552 173.47 94.6202 173.439 93.5471L165.745 89.2859L166.086 86.9227L163.178 86.7986C163.178 86.7986 163.5 84.0199 164.486 83.4244Z" fill="#263238"/>
<path opacity="0.2" d="M164.486 83.4244C164.486 83.4244 171.039 90.6257 173.358 92.35C173.358 92.35 172.682 82.5995 171.176 80.1432C171.176 80.1432 172.211 79.4299 174.418 81.5884L173.315 83.6353L175.274 84.9875C175.274 84.9875 174.598 92.2942 173.315 95.7552C173.315 95.7552 173.47 94.6202 173.439 93.5471L165.745 89.2859L166.086 86.9227L163.178 86.7986C163.178 86.7986 163.5 84.0199 164.486 83.4244Z" fill="white"/>
<path d="M191.196 49.5833C191.196 49.5833 187.488 49.1615 185.405 50.1477C183.322 51.1277 181.232 54.3221 177.866 54.626C174.493 54.93 173.817 53.8259 173.817 53.8259C173.817 53.8259 176.787 59.1043 182.509 59.0423C188.232 58.9803 191.189 58.0499 194.556 60.1712C194.556 60.1712 191.964 51.2332 191.202 49.5833H191.196Z" fill="#407BFF"/>
<path opacity="0.2" d="M169.347 80.8013C168.999 81.8806 168.138 83.4064 166.098 83.3692C165.974 83.3692 165.856 83.3568 165.744 83.3382C165.701 83.3072 165.664 83.2824 165.62 83.2514C166.135 82.5381 166.185 81.4154 166.017 80.2369C166.792 79.7221 167.865 79.4243 169.111 79.66C169.055 80.1997 169.049 80.5656 169.347 80.8013Z" fill="black"/>
<path d="M170.537 84.3111C170.537 84.3111 170.624 85.4648 170.066 86.4758C168.919 86.3145 165.497 84.5964 165.317 83.1946C165.373 82.748 165.85 82.3076 165.85 82.3076C165.85 82.3076 167.846 84.1808 170.537 84.3049V84.3111Z" fill="white"/>
<path d="M170.537 84.312C170.537 84.312 171.572 84.5601 172.273 85.199C172.595 83.8655 171.262 80.6587 170.921 80.485C170.239 80.33 169.297 80.7579 169.297 80.7579C169.297 80.7579 171.163 82.5071 170.531 84.312H170.537Z" fill="white"/>
<path d="M161.355 75.1754C161.287 76.2361 161.95 78.2209 163.165 77.2285C164.381 76.2361 161.473 73.3519 161.355 75.1754Z" fill="#263238"/>
<path d="M168.776 74.7723C169.545 77.2658 170.122 78.6924 169.359 80.3981C168.206 82.966 164.759 82.9536 163.252 80.7331C161.901 78.7296 160.865 74.9832 162.905 73.1348C164.908 71.3113 168.008 72.2789 168.783 74.7723H168.776Z" fill="#FFC2BC"/>
<path d="M169.173 71.615C168.925 69.9899 166.997 70.2194 165.869 71.0754C165.856 71.0816 165.85 71.0878 165.838 71.094V74.3008C166.303 74.0651 166.724 73.8107 167.053 73.5564C167.053 73.5564 167.487 75.9569 168.956 76.6391C170.884 74.8218 171.039 72.0306 169.173 71.6088V71.615Z" fill="#263238"/>
<path d="M170.488 76.4523C170.531 77.1532 170.24 77.8045 169.849 78.2324C169.26 78.8713 168.504 78.4495 168.28 77.6556C168.082 76.9423 168.15 75.7452 168.931 75.404C169.7 75.0691 170.444 75.6522 170.488 76.4523Z" fill="#FFC2BC"/>
<path d="M165.317 76.8185C165.391 77.017 165.348 77.2155 165.217 77.2651C165.087 77.3147 164.92 77.1907 164.845 76.9922C164.771 76.7937 164.814 76.5952 164.945 76.5456C165.075 76.496 165.242 76.62 165.317 76.8185Z" fill="#263238"/>
<path d="M163.054 77.6437C163.128 77.8422 163.085 78.0407 162.955 78.0903C162.824 78.1399 162.657 78.0159 162.583 77.8174C162.508 77.6189 162.552 77.4204 162.682 77.3708C162.812 77.3212 162.979 77.4452 163.054 77.6437Z" fill="#263238"/>
<path d="M163.81 77.4766C163.81 77.4766 163.761 78.7481 163.457 79.4738C163.922 79.6537 164.467 79.2877 164.467 79.2877L163.81 77.4828V77.4766Z" fill="#ED893E"/>
<path d="M165.825 79.654C165.745 79.6974 165.664 79.7346 165.571 79.7656C165.54 79.778 165.503 79.7656 165.49 79.7284C165.478 79.6974 165.49 79.6602 165.528 79.6478C166.402 79.3252 166.582 78.5685 166.588 78.5623C166.594 78.5313 166.631 78.5065 166.662 78.5127C166.693 78.5189 166.718 78.5561 166.712 78.5871C166.706 78.6181 166.551 79.2694 165.831 79.654H165.825Z" fill="#263238"/>
<path d="M165.738 75.8389C165.701 75.8576 165.652 75.8576 165.614 75.8389C165.143 75.5412 164.722 75.7211 164.715 75.7211C164.653 75.7521 164.579 75.7211 164.548 75.6591C164.517 75.597 164.548 75.5226 164.61 75.4978C164.635 75.4854 165.162 75.2559 165.745 75.6281C165.8 75.6653 165.819 75.7397 165.782 75.8017C165.769 75.8203 165.751 75.8327 165.732 75.8452L165.738 75.8389Z" fill="#263238"/>
<path d="M161.795 77.2286C161.795 77.2286 161.752 77.2472 161.727 77.241C161.659 77.2348 161.609 77.1727 161.616 77.1045C161.678 76.416 162.192 76.1555 162.211 76.1369C162.273 76.1059 162.347 76.1307 162.378 76.1927C162.409 76.2547 162.384 76.3292 162.329 76.3602C162.31 76.3726 161.919 76.5773 161.864 77.1293C161.864 77.1727 161.832 77.2099 161.795 77.2286Z" fill="#263238"/>
<path d="M167.053 73.5566C167.053 73.5566 165.478 75.1754 163.965 75.0948C163.965 75.0948 164.604 74.8281 165.081 74.3257C165.081 74.3257 162.08 75.6282 160.611 74.9273C159.142 74.2326 159.303 73.5193 159.303 73.5193C159.303 73.5193 159.464 73.9473 160.896 73.9039C160.896 73.9039 159.669 73.0852 160.158 71.9439C160.158 71.9439 160.363 72.3967 160.896 72.4339C160.896 72.4339 162.105 70.1823 165.323 69.8164C168.541 69.4504 169.198 70.722 169.341 71.6585C169.483 72.5951 167.059 73.5504 167.059 73.5504L167.053 73.5566Z" fill="#263238"/>
<path d="M227.199 241.039H183.303C182.872 241.039 182.522 241.389 182.522 241.821V251.832C182.522 252.263 182.872 252.613 183.303 252.613H227.199C227.631 252.613 227.98 252.263 227.98 251.832V241.821C227.98 241.389 227.631 241.039 227.199 241.039Z" fill="#407BFF"/>
<path opacity="0.2" d="M186.353 241.708H184.555V252.048H186.353V241.708Z" fill="black"/>
<path opacity="0.2" d="M190.439 241.659H189.131V251.998H190.439V241.659Z" fill="black"/>
<path opacity="0.2" d="M194.203 241.708H193.545V252.048H194.203V241.708Z" fill="black"/>
<path opacity="0.2" d="M199.274 241.659H198.946V251.998H199.274V241.659Z" fill="black"/>
<path opacity="0.2" d="M224.149 251.992H225.947V241.652H224.149V251.992Z" fill="black"/>
<path opacity="0.2" d="M220.063 252.042H221.371V241.702H220.063V252.042Z" fill="black"/>
<path opacity="0.2" d="M216.306 251.992H216.957V241.652H216.306V251.992Z" fill="black"/>
<path opacity="0.2" d="M211.228 252.042H211.556V241.702H211.228V252.042Z" fill="black"/>
<path opacity="0.2" d="M205.17 252.042H205.332V241.703H205.17V252.042Z" fill="black"/>
<path opacity="0.2" d="M226.765 242.8H183.83C183.526 242.8 183.284 242.558 183.284 242.254C183.284 241.95 183.526 241.708 183.83 241.708H226.765C227.069 241.708 227.311 241.95 227.311 242.254C227.311 242.558 227.069 242.8 226.765 242.8Z" fill="white"/>
<path d="M228.439 229.496H184.543C184.112 229.496 183.762 229.846 183.762 230.277V240.288C183.762 240.72 184.112 241.07 184.543 241.07H228.439C228.87 241.07 229.22 240.72 229.22 240.288V230.277C229.22 229.846 228.87 229.496 228.439 229.496Z" fill="#407BFF"/>
<path opacity="0.2" d="M187.593 230.159H185.795V240.499H187.593V230.159Z" fill="black"/>
<path opacity="0.2" d="M191.685 230.109H190.377V240.449H191.685V230.109Z" fill="black"/>
<path opacity="0.2" d="M195.443 230.159H194.792V240.499H195.443V230.159Z" fill="black"/>
<path opacity="0.2" d="M200.514 230.109H200.186V240.449H200.514V230.109Z" fill="black"/>
<path opacity="0.2" d="M225.395 240.449H227.193V230.109H225.395V240.449Z" fill="black"/>
<path opacity="0.2" d="M221.303 240.505H222.611V230.165H221.303V240.505Z" fill="black"/>
<path opacity="0.2" d="M217.539 240.449H218.197V230.109H217.539V240.449Z" fill="black"/>
<path opacity="0.2" d="M212.468 240.505H212.796V230.165H212.468V240.505Z" fill="black"/>
<path opacity="0.2" d="M206.41 240.505H206.572V230.165H206.41V240.505Z" fill="black"/>
<path opacity="0.2" d="M228.005 231.257H185.07C184.766 231.257 184.524 231.015 184.524 230.711C184.524 230.407 184.766 230.165 185.07 230.165H228.005C228.309 230.165 228.551 230.407 228.551 230.711C228.551 231.015 228.309 231.257 228.005 231.257Z" fill="white"/>
<path d="M228.439 217.946H184.543C184.112 217.946 183.762 218.296 183.762 218.728V228.739C183.762 229.17 184.112 229.52 184.543 229.52H228.439C228.87 229.52 229.22 229.17 229.22 228.739V218.728C229.22 218.296 228.87 217.946 228.439 217.946Z" fill="#407BFF"/>
<path opacity="0.2" d="M187.594 218.616H185.796V228.955H187.594V218.616Z" fill="black"/>
<path opacity="0.2" d="M191.686 218.566H190.377V228.906H191.686V218.566Z" fill="black"/>
<path opacity="0.2" d="M195.443 218.616H194.792V228.955H195.443V218.616Z" fill="black"/>
<path opacity="0.2" d="M200.514 218.566H200.186V228.906H200.514V218.566Z" fill="black"/>
<path opacity="0.2" d="M225.395 228.9H227.193V218.561H225.395V228.9Z" fill="black"/>
<path opacity="0.2" d="M221.303 228.956H222.611V218.616H221.303V228.956Z" fill="black"/>
<path opacity="0.2" d="M217.54 228.9H218.197V218.561H217.54V228.9Z" fill="black"/>
<path opacity="0.2" d="M212.468 228.956H212.797V218.616H212.468V228.956Z" fill="black"/>
<path opacity="0.2" d="M206.41 228.956H206.572V218.616H206.41V228.956Z" fill="black"/>
<path opacity="0.2" d="M228.005 219.707H185.07C184.766 219.707 184.524 219.465 184.524 219.162C184.524 218.858 184.766 218.616 185.07 218.616H228.005C228.309 218.616 228.551 218.858 228.551 219.162C228.551 219.465 228.309 219.707 228.005 219.707Z" fill="white"/>
<path d="M227.199 206.404H183.303C182.872 206.404 182.522 206.754 182.522 207.185V217.196C182.522 217.628 182.872 217.978 183.303 217.978H227.199C227.631 217.978 227.98 217.628 227.98 217.196V207.185C227.98 206.754 227.631 206.404 227.199 206.404Z" fill="#407BFF"/>
<path opacity="0.2" d="M186.353 207.073H184.555V217.413H186.353V207.073Z" fill="black"/>
<path opacity="0.2" d="M190.439 207.017H189.131V217.357H190.439V207.017Z" fill="black"/>
<path opacity="0.2" d="M194.203 207.073H193.545V217.413H194.203V207.073Z" fill="black"/>
<path opacity="0.2" d="M199.274 207.017H198.946V217.357H199.274V207.017Z" fill="black"/>
<path opacity="0.2" d="M224.149 217.356H225.947V207.017H224.149V217.356Z" fill="black"/>
<path opacity="0.2" d="M220.063 217.406H221.371V207.066H220.063V217.406Z" fill="black"/>
<path opacity="0.2" d="M216.306 217.356H216.957V207.017H216.306V217.356Z" fill="black"/>
<path opacity="0.2" d="M211.228 217.406H211.556V207.066H211.228V217.406Z" fill="black"/>
<path opacity="0.2" d="M205.17 217.407H205.332V207.067H205.17V217.407Z" fill="black"/>
<path opacity="0.2" d="M226.765 208.164H183.83C183.526 208.164 183.284 207.923 183.284 207.619C183.284 207.315 183.526 207.073 183.83 207.073H226.765C227.069 207.073 227.311 207.315 227.311 207.619C227.311 207.923 227.069 208.164 226.765 208.164Z" fill="white"/>
<path d="M225.339 194.854H181.443C181.011 194.854 180.662 195.204 180.662 195.636V205.647C180.662 206.079 181.011 206.429 181.443 206.429H225.339C225.77 206.429 226.12 206.079 226.12 205.647V195.636C226.12 195.204 225.77 194.854 225.339 194.854Z" fill="#407BFF"/>
<path opacity="0.2" d="M184.493 195.523H182.695V205.863H184.493V195.523Z" fill="black"/>
<path opacity="0.2" d="M188.579 195.475H187.271V205.815H188.579V195.475Z" fill="black"/>
<path opacity="0.2" d="M192.336 195.523H191.685V205.863H192.336V195.523Z" fill="black"/>
<path opacity="0.2" d="M197.414 195.475H197.086V205.815H197.414V195.475Z" fill="black"/>
<path opacity="0.2" d="M222.289 205.808H224.087V195.468H222.289V205.808Z" fill="black"/>
<path opacity="0.2" d="M218.197 205.864H219.505V195.524H218.197V205.864Z" fill="black"/>
<path opacity="0.2" d="M214.446 205.808H215.097V195.468H214.446V205.808Z" fill="black"/>
<path opacity="0.2" d="M209.374 205.864H209.703V195.524H209.374V205.864Z" fill="black"/>
<path opacity="0.2" d="M203.31 205.864H203.472V195.524H203.31V205.864Z" fill="black"/>
<path opacity="0.2" d="M224.905 196.616H181.97C181.666 196.616 181.425 196.374 181.425 196.07C181.425 195.766 181.666 195.524 181.97 195.524H224.905C225.209 195.524 225.451 195.766 225.451 196.07C225.451 196.374 225.209 196.616 224.905 196.616Z" fill="white"/>
<path d="M227.199 183.311H183.303C182.872 183.311 182.522 183.661 182.522 184.093V194.104C182.522 194.535 182.872 194.885 183.303 194.885H227.199C227.631 194.885 227.98 194.535 227.98 194.104V184.093C227.98 183.661 227.631 183.311 227.199 183.311Z" fill="#407BFF"/>
<path opacity="0.2" d="M186.354 183.981H184.556V194.321H186.354V183.981Z" fill="black"/>
<path opacity="0.2" d="M190.439 183.925H189.131V194.265H190.439V183.925Z" fill="black"/>
<path opacity="0.2" d="M194.203 183.981H193.545V194.321H194.203V183.981Z" fill="black"/>
<path opacity="0.2" d="M199.274 183.925H198.946V194.265H199.274V183.925Z" fill="black"/>
<path opacity="0.2" d="M224.149 194.271H225.947V183.931H224.149V194.271Z" fill="black"/>
<path opacity="0.2" d="M220.063 194.314H221.371V183.975H220.063V194.314Z" fill="black"/>
<path opacity="0.2" d="M216.306 194.271H216.957V183.931H216.306V194.271Z" fill="black"/>
<path opacity="0.2" d="M211.228 194.314H211.556V183.975H211.228V194.314Z" fill="black"/>
<path opacity="0.2" d="M205.17 194.314H205.332V183.975H205.17V194.314Z" fill="black"/>
<path opacity="0.2" d="M226.765 185.073H183.83C183.526 185.073 183.284 184.831 183.284 184.527C183.284 184.223 183.526 183.981 183.83 183.981H226.765C227.069 183.981 227.311 184.223 227.311 184.527C227.311 184.831 227.069 185.073 226.765 185.073Z" fill="white"/>
<path d="M227.199 171.762H183.303C182.872 171.762 182.522 172.112 182.522 172.543V182.554C182.522 182.986 182.872 183.336 183.303 183.336H227.199C227.631 183.336 227.98 182.986 227.98 182.554V172.543C227.98 172.112 227.631 171.762 227.199 171.762Z" fill="#407BFF"/>
<path opacity="0.2" d="M186.354 172.431H184.556V182.771H186.354V172.431Z" fill="black"/>
<path opacity="0.2" d="M190.439 172.381H189.131V182.721H190.439V172.381Z" fill="black"/>
<path opacity="0.2" d="M194.203 172.431H193.545V182.771H194.203V172.431Z" fill="black"/>
<path opacity="0.2" d="M199.274 172.381H198.946V182.721H199.274V172.381Z" fill="black"/>
<path opacity="0.2" d="M224.149 182.721H225.947V172.381H224.149V182.721Z" fill="black"/>
<path opacity="0.2" d="M220.063 182.771H221.371V172.431H220.063V182.771Z" fill="black"/>
<path opacity="0.2" d="M216.306 182.721H216.957V172.381H216.306V182.721Z" fill="black"/>
<path opacity="0.2" d="M211.228 182.771H211.556V172.431H211.228V182.771Z" fill="black"/>
<path opacity="0.2" d="M205.17 182.771H205.332V172.431H205.17V182.771Z" fill="black"/>
<path opacity="0.2" d="M226.765 173.523H183.83C183.526 173.523 183.284 173.281 183.284 172.977C183.284 172.673 183.526 172.431 183.83 172.431H226.765C227.069 172.431 227.311 172.673 227.311 172.977C227.311 173.281 227.069 173.523 226.765 173.523Z" fill="white"/>
<path d="M229.059 160.219H185.163C184.732 160.219 184.382 160.569 184.382 161V171.011C184.382 171.443 184.732 171.793 185.163 171.793H229.059C229.49 171.793 229.84 171.443 229.84 171.011V161C229.84 160.569 229.49 160.219 229.059 160.219Z" fill="#407BFF"/>
<path opacity="0.2" d="M188.213 160.888H186.415V171.228H188.213V160.888Z" fill="black"/>
<path opacity="0.2" d="M192.305 160.839H190.997V171.179H192.305V160.839Z" fill="black"/>
<path opacity="0.2" d="M196.069 160.888H195.412V171.228H196.069V160.888Z" fill="black"/>
<path opacity="0.2" d="M201.134 160.839H200.806V171.179H201.134V160.839Z" fill="black"/>
<path opacity="0.2" d="M226.015 171.173H227.813V160.833H226.015V171.173Z" fill="black"/>
<path opacity="0.2" d="M221.923 171.223H223.231V160.883H221.923V171.223Z" fill="black"/>
<path opacity="0.2" d="M218.166 171.173H218.817V160.833H218.166V171.173Z" fill="black"/>
<path opacity="0.2" d="M213.088 171.223H213.416V160.883H213.088V171.223Z" fill="black"/>
<path opacity="0.2" d="M207.037 171.223H207.198V160.883H207.037V171.223Z" fill="black"/>
<path opacity="0.2" d="M228.625 161.98H185.69C185.386 161.98 185.144 161.738 185.144 161.434C185.144 161.13 185.386 160.888 185.69 160.888H228.625C228.929 160.888 229.171 161.13 229.171 161.434C229.171 161.738 228.929 161.98 228.625 161.98Z" fill="white"/>
<path d="M225.959 148.675H182.063C181.631 148.675 181.282 149.025 181.282 149.457V159.468C181.282 159.899 181.631 160.249 182.063 160.249H225.959C226.39 160.249 226.74 159.899 226.74 159.468V149.457C226.74 149.025 226.39 148.675 225.959 148.675Z" fill="#407BFF"/>
<path opacity="0.2" d="M185.113 149.339H183.315V159.679H185.113V149.339Z" fill="black"/>
<path opacity="0.2" d="M189.199 149.29H187.891V159.629H189.199V149.29Z" fill="black"/>
<path opacity="0.2" d="M192.956 149.339H192.305V159.679H192.956V149.339Z" fill="black"/>
<path opacity="0.2" d="M198.034 149.29H197.706V159.629H198.034V149.29Z" fill="black"/>
<path opacity="0.2" d="M222.909 159.629H224.707V149.29H222.909V159.629Z" fill="black"/>
<path opacity="0.2" d="M218.816 159.679H220.125V149.339H218.816V159.679Z" fill="black"/>
<path opacity="0.2" d="M215.066 159.629H215.717V149.29H215.066V159.629Z" fill="black"/>
<path opacity="0.2" d="M209.988 159.679H210.316V149.339H209.988V159.679Z" fill="black"/>
<path opacity="0.2" d="M203.93 159.679H204.092V149.339H203.93V159.679Z" fill="black"/>
<path opacity="0.2" d="M225.525 150.431H182.59C182.286 150.431 182.044 150.189 182.044 149.885C182.044 149.581 182.286 149.339 182.59 149.339H225.525C225.829 149.339 226.071 149.581 226.071 149.885C226.071 150.189 225.829 150.431 225.525 150.431Z" fill="white"/>
<path d="M224.719 137.126H180.823C180.391 137.126 180.042 137.476 180.042 137.908V147.919C180.042 148.35 180.391 148.7 180.823 148.7H224.719C225.15 148.7 225.5 148.35 225.5 147.919V137.908C225.5 137.476 225.15 137.126 224.719 137.126Z" fill="#407BFF"/>
<path opacity="0.2" d="M183.873 137.795H182.075V148.135H183.873V137.795Z" fill="black"/>
<path opacity="0.2" d="M187.959 137.746H186.651V148.086H187.959V137.746Z" fill="black"/>
<path opacity="0.2" d="M191.723 137.795H191.065V148.135H191.723V137.795Z" fill="black"/>
<path opacity="0.2" d="M196.794 137.746H196.466V148.086H196.794V137.746Z" fill="black"/>
<path opacity="0.2" d="M221.669 148.08H223.467V137.74H221.669V148.08Z" fill="black"/>
<path opacity="0.2" d="M217.577 148.13H218.885V137.79H217.577V148.13Z" fill="black"/>
<path opacity="0.2" d="M213.819 148.08H214.47V137.74H213.819V148.08Z" fill="black"/>
<path opacity="0.2" d="M208.754 148.13H209.083V137.79H208.754V148.13Z" fill="black"/>
<path opacity="0.2" d="M202.69 148.13H202.852V137.79H202.69V148.13Z" fill="black"/>
<path opacity="0.2" d="M224.285 138.887H181.35C181.046 138.887 180.804 138.645 180.804 138.341C180.804 138.037 181.046 137.795 181.35 137.795H224.285C224.589 137.795 224.831 138.037 224.831 138.341C224.831 138.645 224.589 138.887 224.285 138.887Z" fill="white"/>
<path d="M171.368 241.039H127.472C127.041 241.039 126.691 241.389 126.691 241.821V251.832C126.691 252.263 127.041 252.613 127.472 252.613H171.368C171.799 252.613 172.149 252.263 172.149 251.832V241.821C172.149 241.389 171.799 241.039 171.368 241.039Z" fill="#407BFF"/>
<path opacity="0.2" d="M130.516 241.708H128.718V252.048H130.516V241.708Z" fill="black"/>
<path opacity="0.2" d="M134.608 241.659H133.3V251.998H134.608V241.659Z" fill="black"/>
<path opacity="0.2" d="M138.365 241.708H137.714V252.048H138.365V241.708Z" fill="black"/>
<path opacity="0.2" d="M143.437 241.659H143.108V251.998H143.437V241.659Z" fill="black"/>
<path opacity="0.2" d="M168.318 251.992H170.116V241.652H168.318V251.992Z" fill="black"/>
<path opacity="0.2" d="M164.226 252.042H165.534V241.702H164.226V252.042Z" fill="black"/>
<path opacity="0.2" d="M160.469 251.992H161.12V241.652H160.469V251.992Z" fill="black"/>
<path opacity="0.2" d="M155.397 252.042H155.726V241.702H155.397V252.042Z" fill="black"/>
<path opacity="0.2" d="M149.339 252.042H149.5V241.703H149.339V252.042Z" fill="black"/>
<path opacity="0.2" d="M170.934 242.8H127.999C127.695 242.8 127.453 242.558 127.453 242.254C127.453 241.95 127.695 241.708 127.999 241.708H170.934C171.238 241.708 171.479 241.95 171.479 242.254C171.479 242.558 171.238 242.8 170.934 242.8Z" fill="white"/>
<path d="M169.502 229.496H125.606C125.174 229.496 124.825 229.846 124.825 230.277V240.288C124.825 240.72 125.174 241.07 125.606 241.07H169.502C169.933 241.07 170.283 240.72 170.283 240.288V230.277C170.283 229.846 169.933 229.496 169.502 229.496Z" fill="#407BFF"/>
<path opacity="0.2" d="M128.656 230.159H126.858V240.499H128.656V230.159Z" fill="black"/>
<path opacity="0.2" d="M132.748 230.109H131.44V240.449H132.748V230.109Z" fill="black"/>
<path opacity="0.2" d="M136.505 230.159H135.854V240.499H136.505V230.159Z" fill="black"/>
<path opacity="0.2" d="M141.577 230.109H141.248V240.449H141.577V230.109Z" fill="black"/>
<path opacity="0.2" d="M166.458 240.449H168.256V230.109H166.458V240.449Z" fill="black"/>
<path opacity="0.2" d="M162.366 240.505H163.674V230.165H162.366V240.505Z" fill="black"/>
<path opacity="0.2" d="M158.608 240.449H159.259V230.109H158.608V240.449Z" fill="black"/>
<path opacity="0.2" d="M153.531 240.505H153.859V230.165H153.531V240.505Z" fill="black"/>
<path opacity="0.2" d="M147.473 240.505H147.634V230.165H147.473V240.505Z" fill="black"/>
<path opacity="0.2" d="M169.068 231.257H126.133C125.829 231.257 125.587 231.015 125.587 230.711C125.587 230.407 125.829 230.165 126.133 230.165H169.068C169.371 230.165 169.613 230.407 169.613 230.711C169.613 231.015 169.371 231.257 169.068 231.257Z" fill="white"/>
<path d="M171.368 217.946H127.472C127.041 217.946 126.691 218.296 126.691 218.728V228.739C126.691 229.17 127.041 229.52 127.472 229.52H171.368C171.799 229.52 172.149 229.17 172.149 228.739V218.728C172.149 218.296 171.799 217.946 171.368 217.946Z" fill="#407BFF"/>
<path opacity="0.2" d="M130.516 218.616H128.718V228.955H130.516V218.616Z" fill="black"/>
<path opacity="0.2" d="M134.608 218.566H133.3V228.906H134.608V218.566Z" fill="black"/>
<path opacity="0.2" d="M138.365 218.616H137.714V228.955H138.365V218.616Z" fill="black"/>
<path opacity="0.2" d="M143.437 218.566H143.108V228.906H143.437V218.566Z" fill="black"/>
<path opacity="0.2" d="M168.318 228.9H170.116V218.561H168.318V228.9Z" fill="black"/>
<path opacity="0.2" d="M164.226 228.956H165.534V218.616H164.226V228.956Z" fill="black"/>
<path opacity="0.2" d="M160.469 228.9H161.12V218.561H160.469V228.9Z" fill="black"/>
<path opacity="0.2" d="M155.397 228.956H155.726V218.616H155.397V228.956Z" fill="black"/>
<path opacity="0.2" d="M149.339 228.956H149.5V218.616H149.339V228.956Z" fill="black"/>
<path opacity="0.2" d="M170.934 219.707H127.999C127.695 219.707 127.453 219.465 127.453 219.162C127.453 218.858 127.695 218.616 127.999 218.616H170.934C171.238 218.616 171.479 218.858 171.479 219.162C171.479 219.465 171.238 219.707 170.934 219.707Z" fill="white"/>
<path d="M170.122 206.404H126.226C125.794 206.404 125.444 206.754 125.444 207.185V217.196C125.444 217.628 125.794 217.978 126.226 217.978H170.122C170.553 217.978 170.903 217.628 170.903 217.196V207.185C170.903 206.754 170.553 206.404 170.122 206.404Z" fill="#407BFF"/>
<path opacity="0.2" d="M129.276 207.073H127.478V217.413H129.276V207.073Z" fill="black"/>
<path opacity="0.2" d="M133.368 207.017H132.06V217.357H133.368V207.017Z" fill="black"/>
<path opacity="0.2" d="M137.125 207.073H136.474V217.413H137.125V207.073Z" fill="black"/>
<path opacity="0.2" d="M142.197 207.017H141.868V217.357H142.197V207.017Z" fill="black"/>
<path opacity="0.2" d="M167.078 217.356H168.876V207.017H167.078V217.356Z" fill="black"/>
<path opacity="0.2" d="M162.986 217.406H164.294V207.066H162.986V217.406Z" fill="black"/>
<path opacity="0.2" d="M159.222 217.356H159.879V207.017H159.222V217.356Z" fill="black"/>
<path opacity="0.2" d="M154.151 217.406H154.479V207.066H154.151V217.406Z" fill="black"/>
<path opacity="0.2" d="M148.099 217.407H148.26V207.067H148.099V217.407Z" fill="black"/>
<path opacity="0.2" d="M169.688 208.164H126.753C126.449 208.164 126.207 207.923 126.207 207.619C126.207 207.315 126.449 207.073 126.753 207.073H169.688C169.991 207.073 170.233 207.315 170.233 207.619C170.233 207.923 169.991 208.164 169.688 208.164Z" fill="white"/>
<path d="M170.122 194.854H126.226C125.794 194.854 125.444 195.204 125.444 195.636V205.647C125.444 206.079 125.794 206.429 126.226 206.429H170.122C170.553 206.429 170.903 206.079 170.903 205.647V195.636C170.903 195.204 170.553 194.854 170.122 194.854Z" fill="#407BFF"/>
<path opacity="0.2" d="M129.276 195.523H127.478V205.863H129.276V195.523Z" fill="black"/>
<path opacity="0.2" d="M133.368 195.475H132.06V205.815H133.368V195.475Z" fill="black"/>
<path opacity="0.2" d="M137.125 195.523H136.474V205.863H137.125V195.523Z" fill="black"/>
<path opacity="0.2" d="M142.197 195.475H141.868V205.815H142.197V195.475Z" fill="black"/>
<path opacity="0.2" d="M167.077 205.808H168.875V195.468H167.077V205.808Z" fill="black"/>
<path opacity="0.2" d="M162.986 205.864H164.294V195.524H162.986V205.864Z" fill="black"/>
<path opacity="0.2" d="M159.222 205.808H159.879V195.468H159.222V205.808Z" fill="black"/>
<path opacity="0.2" d="M154.15 205.864H154.479V195.524H154.15V205.864Z" fill="black"/>
<path opacity="0.2" d="M148.099 205.864H148.26V195.524H148.099V205.864Z" fill="black"/>
<path opacity="0.2" d="M169.688 196.616H126.753C126.449 196.616 126.207 196.374 126.207 196.07C126.207 195.766 126.449 195.524 126.753 195.524H169.688C169.991 195.524 170.233 195.766 170.233 196.07C170.233 196.374 169.991 196.616 169.688 196.616Z" fill="white"/>
<path d="M170.122 183.311H126.226C125.794 183.311 125.444 183.661 125.444 184.093V194.104C125.444 194.535 125.794 194.885 126.226 194.885H170.122C170.553 194.885 170.903 194.535 170.903 194.104V184.093C170.903 183.661 170.553 183.311 170.122 183.311Z" fill="#407BFF"/>
<path opacity="0.2" d="M129.276 183.981H127.478V194.321H129.276V183.981Z" fill="black"/>
<path opacity="0.2" d="M133.368 183.925H132.06V194.265H133.368V183.925Z" fill="black"/>
<path opacity="0.2" d="M137.125 183.981H136.474V194.321H137.125V183.981Z" fill="black"/>
<path opacity="0.2" d="M142.197 183.925H141.868V194.265H142.197V183.925Z" fill="black"/>
<path opacity="0.2" d="M167.077 194.271H168.875V183.931H167.077V194.271Z" fill="black"/>
<path opacity="0.2" d="M162.986 194.314H164.294V183.975H162.986V194.314Z" fill="black"/>
<path opacity="0.2" d="M159.222 194.271H159.879V183.931H159.222V194.271Z" fill="black"/>
<path opacity="0.2" d="M154.15 194.314H154.479V183.975H154.15V194.314Z" fill="black"/>
<path opacity="0.2" d="M148.099 194.314H148.26V183.975H148.099V194.314Z" fill="black"/>
<path opacity="0.2" d="M169.688 185.073H126.753C126.449 185.073 126.207 184.831 126.207 184.527C126.207 184.223 126.449 183.981 126.753 183.981H169.688C169.991 183.981 170.233 184.223 170.233 184.527C170.233 184.831 169.991 185.073 169.688 185.073Z" fill="white"/>
<path d="M170.661 160.095H126.765C126.334 160.095 125.984 160.445 125.984 160.876V170.887C125.984 171.319 126.334 171.669 126.765 171.669H170.661C171.093 171.669 171.442 171.319 171.442 170.887V160.876C171.442 160.445 171.093 160.095 170.661 160.095Z" fill="#407BFF"/>
<path opacity="0.2" d="M129.816 160.764H128.018V171.103H129.816V160.764Z" fill="black"/>
<path opacity="0.2" d="M133.908 160.714H132.599V171.054H133.908V160.714Z" fill="black"/>
<path opacity="0.2" d="M137.665 160.764H137.014V171.103H137.665V160.764Z" fill="black"/>
<path opacity="0.2" d="M142.736 160.714H142.408V171.054H142.736V160.714Z" fill="black"/>
<path opacity="0.2" d="M167.617 171.048H169.415V160.709H167.617V171.048Z" fill="black"/>
<path opacity="0.2" d="M163.525 171.098H164.833V160.758H163.525V171.098Z" fill="black"/>
<path opacity="0.2" d="M159.768 171.048H160.419V160.709H159.768V171.048Z" fill="black"/>
<path opacity="0.2" d="M154.69 171.098H155.019V160.758H154.69V171.098Z" fill="black"/>
<path opacity="0.2" d="M148.639 171.098H148.8V160.758H148.639V171.098Z" fill="black"/>
<path opacity="0.2" d="M170.227 161.856H127.292C126.989 161.856 126.747 161.614 126.747 161.31C126.747 161.007 126.989 160.765 127.292 160.765H170.227C170.531 160.765 170.773 161.007 170.773 161.31C170.773 161.614 170.531 161.856 170.227 161.856Z" fill="white"/>
<path d="M171.368 171.762H127.472C127.041 171.762 126.691 172.112 126.691 172.543V182.554C126.691 182.986 127.041 183.336 127.472 183.336H171.368C171.799 183.336 172.149 182.986 172.149 182.554V172.543C172.149 172.112 171.799 171.762 171.368 171.762Z" fill="#407BFF"/>
<path opacity="0.2" d="M130.516 172.431H128.718V182.771H130.516V172.431Z" fill="black"/>
<path opacity="0.2" d="M134.608 172.381H133.3V182.721H134.608V172.381Z" fill="black"/>
<path opacity="0.2" d="M138.365 172.431H137.714V182.771H138.365V172.431Z" fill="black"/>
<path opacity="0.2" d="M143.437 172.381H143.108V182.721H143.437V172.381Z" fill="black"/>
<path opacity="0.2" d="M168.318 182.721H170.116V172.381H168.318V182.721Z" fill="black"/>
<path opacity="0.2" d="M164.226 182.771H165.534V172.431H164.226V182.771Z" fill="black"/>
<path opacity="0.2" d="M160.468 182.721H161.119V172.381H160.468V182.721Z" fill="black"/>
<path opacity="0.2" d="M155.397 182.771H155.725V172.431H155.397V182.771Z" fill="black"/>
<path opacity="0.2" d="M149.339 182.771H149.5V172.431H149.339V182.771Z" fill="black"/>
<path opacity="0.2" d="M170.934 173.523H127.999C127.695 173.523 127.453 173.281 127.453 172.977C127.453 172.673 127.695 172.431 127.999 172.431H170.934C171.238 172.431 171.479 172.673 171.479 172.977C171.479 173.281 171.238 173.523 170.934 173.523Z" fill="white"/>
<path d="M115.531 241.039H71.6347C71.2033 241.039 70.8535 241.389 70.8535 241.821V251.832C70.8535 252.263 71.2033 252.613 71.6347 252.613H115.531C115.962 252.613 116.312 252.263 116.312 251.832V241.821C116.312 241.389 115.962 241.039 115.531 241.039Z" fill="#407BFF"/>
<path opacity="0.2" d="M74.6851 241.708H72.8871V252.048H74.6851V241.708Z" fill="black"/>
<path opacity="0.2" d="M78.771 241.659H77.4628V251.998H78.771V241.659Z" fill="black"/>
<path opacity="0.2" d="M82.5281 241.708H81.8771V252.048H82.5281V241.708Z" fill="black"/>
<path opacity="0.2" d="M87.5997 241.659H87.2711V251.998H87.5997V241.659Z" fill="black"/>
<path opacity="0.2" d="M112.48 251.992H114.278V241.652H112.48V251.992Z" fill="black"/>
<path opacity="0.2" d="M108.395 252.042H109.703V241.702H108.395V252.042Z" fill="black"/>
<path opacity="0.2" d="M104.631 251.992H105.282V241.652H104.631V251.992Z" fill="black"/>
<path opacity="0.2" d="M99.5595 252.042H99.8881V241.702H99.5595V252.042Z" fill="black"/>
<path opacity="0.2" d="M93.5021 252.042H93.6633V241.703H93.5021V252.042Z" fill="black"/>
<path opacity="0.2" d="M115.097 242.8H72.1618C71.858 242.8 71.6162 242.558 71.6162 242.254C71.6162 241.95 71.858 241.708 72.1618 241.708H115.097C115.401 241.708 115.642 241.95 115.642 242.254C115.642 242.558 115.401 242.8 115.097 242.8Z" fill="white"/>
<path d="M116.151 229.496H72.2548C71.8234 229.496 71.4736 229.846 71.4736 230.277V240.288C71.4736 240.72 71.8234 241.07 72.2548 241.07H116.151C116.582 241.07 116.932 240.72 116.932 240.288V230.277C116.932 229.846 116.582 229.496 116.151 229.496Z" fill="#407BFF"/>
<path opacity="0.2" d="M75.3053 230.159H73.5073V240.499H75.3053V230.159Z" fill="black"/>
<path opacity="0.2" d="M79.391 230.109H78.0828V240.449H79.391V230.109Z" fill="black"/>
<path opacity="0.2" d="M83.1482 230.159H82.4972V240.499H83.1482V230.159Z" fill="black"/>
<path opacity="0.2" d="M88.2261 230.109H87.8975V240.449H88.2261V230.109Z" fill="black"/>
<path opacity="0.2" d="M113.1 240.449H114.898V230.109H113.1V240.449Z" fill="black"/>
<path opacity="0.2" d="M109.008 240.505H110.317V230.165H109.008V240.505Z" fill="black"/>
<path opacity="0.2" d="M105.251 240.449H105.902V230.109H105.251V240.449Z" fill="black"/>
<path opacity="0.2" d="M100.18 240.505H100.508V230.165H100.18V240.505Z" fill="black"/>
<path opacity="0.2" d="M94.1222 240.505H94.2834V230.165H94.1222V240.505Z" fill="black"/>
<path opacity="0.2" d="M115.717 231.257H72.7818C72.478 231.257 72.2362 231.015 72.2362 230.711C72.2362 230.407 72.478 230.165 72.7818 230.165H115.717C116.021 230.165 116.262 230.407 116.262 230.711C116.262 231.015 116.021 231.257 115.717 231.257Z" fill="white"/>
<path d="M113.671 217.946H69.7747C69.3433 217.946 68.9935 218.296 68.9935 218.728V228.739C68.9935 229.17 69.3433 229.52 69.7747 229.52H113.671C114.102 229.52 114.452 229.17 114.452 228.739V218.728C114.452 218.296 114.102 217.946 113.671 217.946Z" fill="#407BFF"/>
<path opacity="0.2" d="M72.819 218.616H71.021V228.955H72.819V218.616Z" fill="black"/>
<path opacity="0.2" d="M76.911 218.566H75.6028V228.906H76.911V218.566Z" fill="black"/>
<path opacity="0.2" d="M80.6682 218.616H80.0172V228.955H80.6682V218.616Z" fill="black"/>
<path opacity="0.2" d="M85.7397 218.566H85.4111V228.906H85.7397V218.566Z" fill="black"/>
<path opacity="0.2" d="M110.614 228.9H112.412V218.561H110.614V228.9Z" fill="black"/>
<path opacity="0.2" d="M106.535 228.956H107.843V218.616H106.535V228.956Z" fill="black"/>
<path opacity="0.2" d="M102.771 228.9H103.422V218.561H102.771V228.9Z" fill="black"/>
<path opacity="0.2" d="M97.6997 228.956H98.0283V218.616H97.6997V228.956Z" fill="black"/>
<path opacity="0.2" d="M91.6421 228.956H91.8033V218.616H91.6421V228.956Z" fill="black"/>
<path opacity="0.2" d="M113.237 219.707H70.3017C69.9979 219.707 69.7561 219.465 69.7561 219.162C69.7561 218.858 69.9979 218.616 70.3017 218.616H113.237C113.54 218.616 113.782 218.858 113.782 219.162C113.782 219.465 113.54 219.707 113.237 219.707Z" fill="white"/>
<path d="M88.9451 210.299L87.6989 213.369L86.7565 215.689L84.3881 214.845L85.2375 212.761L86.5767 209.449L88.9451 210.299Z" fill="#E4897B"/>
<path d="M139.562 193.861L137.547 195.356L136.809 193.719L135.098 189.935L137.113 188.434L138.731 192.019L139.562 193.861Z" fill="#E4897B"/>
<path opacity="0.2" d="M86.5768 209.449L88.9452 210.299L87.6989 213.369L85.2375 212.761L86.5768 209.449Z" fill="black"/>
<path opacity="0.2" d="M138.731 192.019L136.809 193.719L135.098 189.935L137.113 188.434L138.731 192.019Z" fill="black"/>
<path d="M106.721 125.291C106.789 125.483 106.944 125.601 107.068 125.558C107.192 125.514 107.241 125.322 107.173 125.13C107.105 124.937 106.95 124.82 106.826 124.863C106.702 124.906 106.653 125.099 106.721 125.291Z" fill="#263238"/>
<path d="M106.925 125.607C106.925 125.607 107.75 126.556 108.413 126.916C108.184 127.35 107.564 127.412 107.564 127.412L106.925 125.607Z" fill="#DE5753"/>
<path d="M105.648 124.473C105.648 124.473 105.592 124.473 105.561 124.454C105.505 124.417 105.493 124.343 105.53 124.287C105.908 123.747 106.454 123.753 106.479 123.76C106.547 123.76 106.596 123.815 106.596 123.884C106.596 123.952 106.541 124.002 106.472 124.002C106.472 124.002 106.026 124.002 105.728 124.429C105.71 124.461 105.679 124.473 105.648 124.479V124.473Z" fill="#263238"/>
<path d="M102.133 128.418C102.164 130.291 101.928 133.665 100.446 134.652C100.446 134.652 100.614 136.574 103.974 137.176C107.669 137.834 106.07 135.656 106.07 135.656C104.141 134.813 104.458 133.33 105.059 131.984L102.133 128.424V128.418Z" fill="#E4897B"/>
<path d="M100.211 127.134C101.184 129.429 101.637 130.824 103.242 131.606C105.66 132.79 108.178 130.694 107.911 128.151C107.669 125.862 106.125 122.494 103.497 122.37C100.911 122.246 99.2371 124.832 100.204 127.127L100.211 127.134Z" fill="#E4897B"/>
<path d="M101.847 130.867C102.945 131.308 106.367 128.851 105.195 126.017C105.195 126.017 106.367 124.125 105.946 122.283C105.524 120.441 104.141 119.901 102.833 120.496C101.68 121.017 101.804 121.669 101.804 121.669C101.804 121.669 96.2178 123.133 97.7492 125.272C95.79 128.12 100.471 130.321 101.835 130.867H101.847Z" fill="#263238"/>
<path d="M104.278 126.668C104.526 127.27 105.016 127.754 105.487 128.014C106.2 128.405 106.615 127.865 106.473 127.14C106.336 126.488 105.809 125.496 105.065 125.397C104.334 125.304 103.993 125.98 104.278 126.668Z" fill="#E4897B"/>
<path d="M99.5533 134.676C99.2929 134.155 99.0077 133.566 99.6401 133.398C100.335 133.218 104.761 132.976 106.045 133.398C105.623 134.093 106.274 134.986 106.274 134.986L99.5533 134.676Z" fill="#407BFF"/>
<path opacity="0.5" d="M99.5533 134.676C99.2929 134.155 99.0077 133.566 99.6401 133.398C100.335 133.218 104.761 132.976 106.045 133.398C105.623 134.093 106.274 134.986 106.274 134.986L99.5533 134.676Z" fill="#FAFAFA"/>
<path d="M86.9176 214.653H84.1772C84.0718 214.653 83.985 214.721 83.9664 214.827L83.4704 217.059C83.4208 217.289 83.5944 217.512 83.83 217.506C84.822 217.487 86.248 217.432 87.4942 217.432C88.945 217.432 90.2036 217.512 91.9086 217.512C92.9378 217.512 93.223 216.47 92.7952 216.377C90.8298 215.949 89.2302 215.9 87.5314 214.851C87.3454 214.74 87.1408 214.653 86.9238 214.653H86.9176Z" fill="#263238"/>
<path d="M104.65 156.844C104.65 156.844 103.869 162.11 102.901 168.157C102.486 170.75 102.04 173.485 101.599 176.016C101.11 178.851 100.632 181.419 100.235 183.23C98.5241 191.107 89.3419 212.816 89.3419 212.816L84.8469 211.842C84.8469 211.842 91.2701 194.953 92.7023 183.943C93.8121 175.489 95.9883 156.844 95.9883 156.844H104.65Z" fill="#263238"/>
<path d="M90.4146 211.309L89.5776 212.934L84.5184 211.837L84.9462 210.317L90.4146 211.309Z" fill="#407BFF"/>
<path opacity="0.3" d="M90.4146 211.309L89.5776 212.934L84.5184 211.837L84.9462 210.317L90.4146 211.309Z" fill="black"/>
<path opacity="0.2" d="M102.901 168.157C102.486 170.75 102.04 173.485 101.599 176.016C100.39 171.011 100.762 168.015 100.762 168.015L102.901 168.157Z" fill="black"/>
<path d="M97.3029 139.266C96.1001 140.407 94.8477 141.617 93.6697 142.826C92.5041 144.048 91.3385 145.301 90.3589 146.566C89.9807 147.081 89.5467 147.844 89.1685 148.576C88.7841 149.326 88.3935 150.089 88.0153 150.871L85.7398 155.572L83.9604 154.958C84.3448 153.209 84.8347 151.516 85.3679 149.804C85.6469 148.954 85.9382 148.104 86.273 147.255C86.6264 146.399 86.9489 145.568 87.5379 144.619C88.5795 143.018 89.7078 141.61 90.923 140.264C92.1382 138.912 93.3783 137.647 94.7671 136.431L97.3029 139.272V139.266Z" fill="#DC897C"/>
<path d="M83.8055 159.518L84.7169 157.899L81.9393 157.062C81.9393 157.062 81.3813 158.364 81.9889 159.419L83.8055 159.518Z" fill="#E4897B"/>
<path d="M85.7336 155.529L83.9542 154.953L81.9392 157.062L84.7168 157.899L85.7336 155.529Z" fill="#E4897B"/>
<path d="M139.531 193.52L137.262 195.201C137.181 195.263 137.15 195.375 137.194 195.468L138.124 197.558C138.223 197.775 138.496 197.844 138.688 197.701C139.469 197.099 139.816 196.771 140.814 196.033C141.428 195.58 142.848 194.581 143.691 193.955C144.522 193.341 144.026 192.41 143.623 192.59C141.819 193.403 140.777 193.489 139.946 193.409C139.798 193.396 139.649 193.44 139.525 193.527L139.531 193.52Z" fill="#263238"/>
<path d="M96.2239 134.905C93.8121 134.757 90.2533 139.973 90.2533 139.973L93.7687 144.768C93.7687 144.768 95.8953 143.688 97.4887 141.027C99.1565 138.236 98.6915 135.061 96.2301 134.912L96.2239 134.905Z" fill="#407BFF"/>
<path opacity="0.6" d="M96.2239 134.905C93.8121 134.757 90.2533 139.973 90.2533 139.973L93.7687 144.768C93.7687 144.768 95.8953 143.688 97.4887 141.027C99.1565 138.236 98.6915 135.061 96.2301 134.912L96.2239 134.905Z" fill="#FAFAFA"/>
<path opacity="0.2" d="M96.9059 139.712C95.3249 140.562 94.2709 142.659 93.6075 144.55L93.7625 144.761C93.7625 144.761 95.8891 143.682 97.4825 141.021C97.5817 140.854 97.6747 140.686 97.7615 140.519L96.9059 139.712Z" fill="black"/>
<path d="M110.496 134.521C110.496 134.521 111.935 138.156 109.411 156.844H95.9822C95.8892 154.785 97.185 144.724 95.1948 135.005C95.1948 135.005 97.495 134.54 99.6898 134.434C101.407 134.353 107.136 133.194 108.643 133.33C110.633 133.51 110.49 134.515 110.49 134.515L110.496 134.521Z" fill="#407BFF"/>
<path opacity="0.6" d="M110.813 142.764C110.652 146.07 110.249 150.623 109.412 156.844H95.9886C95.8956 154.778 97.1914 144.718 95.2012 135.004C95.2012 135.004 97.5014 134.539 99.6962 134.434C101.414 134.353 107.142 133.193 108.649 133.336C110.639 133.516 110.497 134.521 110.497 134.521C110.497 134.521 110.8 135.284 110.881 137.907C110.924 139.104 110.918 140.686 110.813 142.764Z" fill="#FAFAFA"/>
<path d="M108.866 155.753L111.513 161.98C111.513 161.98 124.366 163.593 128.011 168.016C131.657 172.438 138.527 190.388 138.527 190.388L135.092 193.304C135.092 193.304 125.234 175.167 122.475 172.984C119.722 170.801 104.011 170.801 100.502 169.492C96.9929 168.183 95.9761 156.851 95.9761 156.851L108.86 155.765L108.866 155.753Z" fill="#263238"/>
<path d="M134.391 192.944L138.533 189.768L139.066 190.791L135.098 193.918L134.391 192.944Z" fill="#407BFF"/>
<path opacity="0.3" d="M134.391 192.944L138.533 189.768L139.066 190.791L135.098 193.918L134.391 192.944Z" fill="black"/>
<path d="M106.032 123.189C106.032 123.189 105.871 119.511 103.93 119.387C101.984 119.263 100.446 121.024 100.446 121.024C100.446 121.024 99.9811 120.323 98.8775 120.267C97.7739 120.205 95.8457 122.091 95.8457 122.091C95.8457 122.091 98.2451 120.615 99.2557 121.291C99.2557 121.291 96.5339 122.048 95.8457 123.766C95.1575 125.484 94.4197 126.098 94.4197 126.098H95.8457L94.9095 127.692C94.9095 127.692 96.8811 129.602 98.3691 129.28L97.8917 130.185C97.8917 130.185 100.812 131.252 102.002 130.924C103.193 130.595 102.064 124.665 102.064 124.665L106.032 123.195V123.189Z" fill="#263238"/>
<path opacity="0.2" d="M110.813 142.765C108.376 141.109 108.413 137.294 108.413 137.294L110.881 137.908C110.924 139.105 110.918 140.687 110.813 142.765Z" fill="black"/>
<path d="M88.3376 161.595L71.7774 158.81L67.4932 171.563L70.2336 176.537L88.3128 178.919L91.977 165.031L88.3376 161.595Z" fill="#407BFF"/>
<path opacity="0.4" d="M67.4932 171.563L68.5596 173.504L68.8014 173.932L70.2336 176.537L88.3128 178.919L91.977 165.031L90.427 163.561L89.9434 163.108L88.3438 161.595L71.7774 158.81L67.4932 171.563Z" fill="black"/>
<path opacity="0.2" d="M91.9768 165.031L75.584 162.482L71.7772 158.81L88.3436 161.595L91.9768 165.031Z" fill="white"/>
<path opacity="0.1" d="M75.5842 162.482L70.2336 176.537L67.4932 171.563L71.7774 158.81L75.5842 162.482Z" fill="white"/>
<path d="M68.5597 173.504L68.8015 173.932L73.7553 160.758L90.4271 163.562L89.9435 163.109L73.4577 160.473L68.5597 173.504Z" fill="#263238"/>
<path d="M84.8284 162.352L83.9914 161.577L79.8188 160.82L80.5504 161.657L84.8284 162.352Z" fill="#263238"/>
<path d="M86.4404 162.662C86.4404 162.662 86.6326 158.283 86.5148 157.991C86.3908 157.7 80.5256 156.738 80.0854 156.658C79.6514 156.571 77.7046 160.832 77.7046 160.832L78.0394 161.347L79.1492 161.496C79.1492 161.496 80.5566 157.817 80.6992 157.731C80.8418 157.644 85.3616 158.413 85.4856 158.512C85.6096 158.611 85.1198 161.948 85.1198 161.948L85.5042 162.5L86.4342 162.668L86.4404 162.662Z" fill="#263238"/>
<path d="M68.6154 169.621L69.8183 171.215L69.9361 170.898L70.8722 168.411L70.9838 168.114L71.1822 167.58C71.1822 167.58 70.8289 167.977 70.3453 168.43C69.8183 168.92 69.1425 169.472 68.6093 169.621H68.6154Z" fill="#407BFF"/>
<path opacity="0.2" d="M69.0184 169.739L69.9422 170.899L70.8784 168.411L70.99 168.114C70.556 168.647 69.7686 169.497 69.0184 169.745V169.739Z" fill="white"/>
<path opacity="0.2" d="M70.3514 168.43C70.5312 168.417 70.711 168.411 70.8784 168.411L71.1946 167.58C71.1946 167.58 70.8412 167.977 70.3576 168.43H70.3514Z" fill="black"/>
<path d="M68.1628 166.495L67.9333 168.74C67.9333 168.74 69.3531 168.039 70.8969 168.349L71.0148 168.039L71.7401 166.11L71.8146 165.912C71.8146 165.912 69.781 165.676 68.1628 166.501V166.495Z" fill="#407BFF"/>
<path d="M70.5188 162.693C70.5188 162.693 71.176 164.033 72.2114 164.963L72.2982 164.727L72.5214 164.113L72.8934 163.09L73.0732 162.594L73.1228 162.451C73.1228 162.451 72.6082 161.669 72.354 161.018L70.525 162.687L70.5188 162.693Z" fill="#407BFF"/>
<path d="M74.3132 159.802C74.3132 159.802 74.7658 160.54 74.8278 160.937L75.0882 160.981L75.4478 161.037L76.0182 161.136L76.57 161.229L76.7684 161.26C76.7684 161.26 76.8428 160.075 75.8632 158.928L74.307 159.796L74.3132 159.802Z" fill="#407BFF"/>
<path opacity="0.2" d="M74.6605 159.858C74.6605 159.858 74.9953 160.503 75.0945 160.987L75.4541 161.043C75.3921 160.95 75.3735 160.832 75.4107 160.72C75.4789 160.516 75.6959 160.404 75.9005 160.472C76.1051 160.54 76.2167 160.757 76.1485 160.962C76.1237 161.037 76.0803 161.099 76.0245 161.142L76.5763 161.235C76.5329 160.757 76.3841 159.777 75.8509 159.219L74.6543 159.858H74.6605Z" fill="white"/>
<path opacity="0.2" d="M68.3117 166.588L68.1691 168.411C68.1691 168.411 69.7501 167.865 71.0087 168.045L71.7341 166.116C71.0583 166.042 69.6323 165.986 68.3117 166.588ZM70.3019 166.439C70.6553 166.414 70.9529 166.612 70.9715 166.891C70.9901 167.171 70.7235 167.412 70.3701 167.437C70.0167 167.462 69.7191 167.257 69.6943 166.984C69.6757 166.705 69.9423 166.463 70.2957 166.439H70.3019Z" fill="white"/>
<path opacity="0.2" d="M70.835 162.792C70.835 162.792 71.672 164.194 72.292 164.727L72.5152 164.113C72.261 164.02 72.1246 163.722 72.2176 163.443C72.3106 163.158 72.602 162.997 72.8624 163.077C72.8686 163.077 72.881 163.077 72.8872 163.09L73.067 162.594C72.819 162.308 72.4842 161.868 72.3106 161.415L70.835 162.792Z" fill="white"/>
<path d="M126.312 122.798L127.267 121.204L129.375 123.201C129.375 123.201 128.52 124.336 127.305 124.324L126.319 122.798H126.312Z" fill="#E4897B"/>
<path d="M128.743 119.07L130.237 121.167L129.375 123.201L127.267 121.204L128.743 119.07Z" fill="#E4897B"/>
<path d="M109.814 133.652C111.476 133.305 113.243 132.865 114.892 132.338C116.535 131.785 118.178 131.184 119.493 130.328C119.672 130.216 119.728 130.154 119.871 130.055L120.299 129.664C120.596 129.379 120.894 129.063 121.198 128.74C121.793 128.083 122.394 127.406 122.983 126.712C124.174 125.335 125.345 123.902 126.542 122.506L128.111 123.548C127.249 125.229 126.294 126.823 125.283 128.424C124.763 129.211 124.242 130.005 123.659 130.774C123.368 131.159 123.064 131.55 122.729 131.941C122.568 132.139 122.363 132.338 122.177 132.53C121.966 132.722 121.681 132.983 121.477 133.125C119.753 134.384 117.943 135.234 116.101 135.892C114.247 136.555 112.431 137.052 110.453 137.393L109.802 133.64L109.814 133.652Z" fill="#DC897C"/>
<path d="M109.015 139.074C111.631 141.338 117.366 137.455 117.366 137.455L115.078 131.804C115.078 131.804 111.823 132.145 108.884 133.138C105.251 134.366 107.024 137.343 109.015 139.074Z" fill="#407BFF"/>
<path opacity="0.6" d="M109.015 139.074C111.631 141.338 117.366 137.455 117.366 137.455L115.078 131.804C115.078 131.804 111.823 132.145 108.884 133.138C105.251 134.366 107.024 137.343 109.015 139.074Z" fill="#FAFAFA"/>
</svg>
