<svg width="483" height="289" viewBox="0 0 483 289" fill="none" xmlns="http://www.w3.org/2000/svg">
<g clip-path="url(#clip0_1434_1040)">
<path d="M118.13 52.4978H20.2112V120.905H118.13V52.4978Z" fill="#FAFAFA"/>
<path d="M118.13 52.4978H20.2112V61.0487H118.13V52.4978Z" fill="#E0E0E0"/>
<path d="M25.522 57.0219C25.522 57.6146 25.067 58.0916 24.5033 58.0916C23.9396 58.0916 23.4846 57.6146 23.4846 57.0219C23.4846 56.4291 23.9396 55.9521 24.5033 55.9521C25.067 55.9521 25.522 56.4291 25.522 57.0219Z" fill="white"/>
<path d="M29.6717 57.0219C29.6717 57.6146 29.2167 58.0916 28.653 58.0916C28.0893 58.0916 27.6343 57.6146 27.6343 57.0219C27.6343 56.4291 28.0893 55.9521 28.653 55.9521C29.2167 55.9521 29.6717 56.4291 29.6717 57.0219Z" fill="white"/>
<path d="M33.8145 57.0219C33.8145 57.6146 33.3595 58.0916 32.7958 58.0916C32.2321 58.0916 31.7771 57.6146 31.7771 57.0219C31.7771 56.4291 32.2321 55.9521 32.7958 55.9521C33.3595 55.9521 33.8145 56.4291 33.8145 57.0219Z" fill="white"/>
<path d="M43.4718 69.4292H29.5154V103.02H43.4718V69.4292Z" fill="#E0E0E0"/>
<path d="M64.994 69.4292H51.0376V103.02H64.994V69.4292Z" fill="#F5F5F5"/>
<path d="M86.5091 69.4292H72.5527V103.02H86.5091V69.4292Z" fill="white"/>
<path d="M108.031 69.6951H94.0747V103.285H108.031V69.6951Z" fill="#EBEBEB"/>
<path d="M112.48 106.726H27.8992V114.398H112.48V106.726Z" fill="#EBEBEB"/>
<path d="M124.684 199.894H11.5454V278.937H124.684V199.894Z" fill="#EBEBEB"/>
<path d="M124.684 199.894H11.5454V209.773H124.684V199.894Z" fill="#E0E0E0"/>
<path d="M17.685 205.119C17.685 205.801 17.1552 206.359 16.5032 206.359C15.8513 206.359 15.3215 205.808 15.3215 205.119C15.3215 204.431 15.8513 203.879 16.5032 203.879C17.1552 203.879 17.685 204.431 17.685 205.119Z" fill="#FAFAFA"/>
<path d="M22.4728 205.119C22.4728 205.801 21.9431 206.359 21.2911 206.359C20.6391 206.359 20.1094 205.808 20.1094 205.119C20.1094 204.431 20.6391 203.879 21.2911 203.879C21.9431 203.879 22.4728 204.431 22.4728 205.119Z" fill="#FAFAFA"/>
<path d="M27.2609 205.119C27.2609 205.801 26.7311 206.359 26.0792 206.359C25.4272 206.359 24.8975 205.808 24.8975 205.119C24.8975 204.431 25.4272 203.879 26.0792 203.879C26.7311 203.879 27.2609 204.431 27.2609 205.119Z" fill="#FAFAFA"/>
<path d="M474.205 114.882H400.233V168.797H474.205V114.882Z" fill="#F5F5F5"/>
<path d="M474.205 114.882H400.233V120.36H474.205V114.882Z" fill="#E0E0E0"/>
<path d="M421.198 128.298H409.381V140.153H421.198V128.298Z" fill="#E0E0E0"/>
<path d="M421.198 146.088H409.381V157.943H421.198V146.088Z" fill="#E0E0E0"/>
<path d="M454.055 132.624H428.193V135.84H454.055V132.624Z" fill="#E0E0E0"/>
<path d="M454.055 150.108H428.193V153.324H454.055V150.108Z" fill="#E0E0E0"/>
<path d="M474.205 48.5188H419.629V82.8178H474.205V48.5188Z" fill="#E0E0E0"/>
<path d="M474.205 48.5188H419.629V55.1142H474.205V48.5188Z" fill="#EBEBEB"/>
<path d="M440.796 64.0725L433.055 64.2L433.182 71.9663L440.923 71.8388L440.796 64.0725Z" fill="#F5F5F5"/>
<path d="M438.973 65.9419L431.232 66.0693L431.359 73.8356L439.1 73.7082L438.973 65.9419Z" fill="#E0E0E0"/>
<path d="M437.117 67.4644L429.376 67.5918L429.503 75.3581L437.244 75.2307L437.117 67.4644Z" fill="#F5F5F5"/>
<path d="M466.952 67.4807H448.235V70.4378H466.952V67.4807Z" fill="#F5F5F5"/>
<path d="M48.9662 18.7984C50.5282 17.8377 52.5181 17.715 54.2906 18.192C56.0632 18.6757 57.6388 19.7114 59.0175 20.931C61.6797 23.2884 63.4455 26.9882 64.5185 30.3881C60.6882 31.3352 56.5929 29.2979 54.5759 28.1328C51.3907 26.2864 46.7521 21.0196 48.9662 18.7984Z" fill="#B731FF"/>
<path d="M71.2691 30.8991C69.3607 30.1428 68.0432 28.201 67.8055 26.1569C67.5678 24.1129 68.3217 22.0212 69.6188 20.4336C70.2233 19.6978 71.0314 19.0164 71.9822 19.0232C72.8719 19.0232 73.6665 19.6569 74.074 20.4473C74.4815 21.2376 74.5562 22.1574 74.5087 23.05C74.3524 26.0956 73.6529 29.0186 71.2623 30.9059" fill="#B731FF"/>
<path d="M77.9451 40.2608C77.9451 40.2608 77.7414 40.0904 77.4154 39.7566C77.0486 39.3886 76.58 38.9049 76.0163 38.3325C74.8618 37.1197 73.1843 35.4232 72.0501 33.0657C70.9092 30.7287 70.5492 28.3167 70.7122 26.627C70.7869 25.7753 70.9499 25.1008 71.0993 24.6579C71.1673 24.4331 71.2487 24.2627 71.2895 24.1469C71.337 24.0311 71.371 23.9766 71.3778 23.9766C71.4389 23.9902 70.9907 24.9645 70.8956 26.6406C70.7733 28.3099 71.1605 30.6538 72.281 32.9567C73.3948 35.2665 75.0316 36.963 76.1522 38.2099C76.7226 38.8299 77.1845 39.3341 77.4901 39.6884C77.8025 40.0427 77.9655 40.2471 77.9519 40.2608H77.9451Z" fill="#263238"/>
<path d="M52.851 22.498C52.851 22.498 52.9528 22.5457 53.1294 22.6479C53.3331 22.7706 53.5844 22.9273 53.9036 23.1249C54.576 23.5473 55.5404 24.1673 56.7221 24.9441C59.0923 26.4975 62.3318 28.6847 65.8633 31.1852C69.3881 33.6857 72.5325 36.0228 74.7805 37.7397C75.9079 38.5982 76.8111 39.3068 77.4292 39.7974C77.7212 40.0359 77.9521 40.2199 78.1355 40.3697C78.2985 40.506 78.38 40.5742 78.3732 40.581C78.3732 40.5878 78.2781 40.5265 78.1083 40.4106C77.9181 40.2744 77.6736 40.0972 77.368 39.8724C76.7025 39.3818 75.7924 38.7073 74.6718 37.876C72.3967 36.1931 69.2387 33.8833 65.7139 31.3828C62.1892 28.8891 58.9632 26.6747 56.6202 25.0871C55.4657 24.3036 54.5284 23.6631 53.8493 23.2066C53.5437 22.9954 53.2924 22.8183 53.1022 22.6888C52.9324 22.5662 52.8442 22.498 52.851 22.4912V22.498Z" fill="#263238"/>
<path d="M70.0807 36.3634C66.196 34.4625 61.3809 34.6056 57.6185 36.7382C56.6609 37.2833 55.6625 38.169 55.7984 39.266C55.9342 40.3629 57.1295 40.9761 58.2025 41.2419C62.6577 42.332 67.6969 40.397 70.2845 36.5951" fill="#B731FF"/>
<path d="M60.6339 38.2645C60.6339 38.2645 60.8309 38.1214 61.218 37.9033C61.4081 37.7943 61.6458 37.6581 61.9379 37.5354C62.2299 37.4128 62.5491 37.2424 62.9226 37.1198C63.2961 36.9835 63.7036 36.8268 64.1587 36.7178C64.6069 36.5815 65.0959 36.4861 65.612 36.3908C66.6511 36.2204 67.8124 36.1387 69.0213 36.2204C70.237 36.3158 71.3712 36.5611 72.3763 36.8813C72.8721 37.0585 73.3475 37.222 73.7685 37.4264C74.2032 37.6036 74.5767 37.8284 74.9231 38.0192C75.2762 38.2031 75.5615 38.4212 75.8263 38.5915C76.0912 38.7618 76.3017 38.9322 76.4715 39.0753C76.8179 39.3546 77.0013 39.5181 76.9877 39.5318C76.9537 39.5795 76.2067 38.9322 74.828 38.1759C74.4816 37.9919 74.1013 37.7875 73.6735 37.6172C73.2524 37.4196 72.7906 37.2697 72.2948 37.0994C71.3032 36.7996 70.1894 36.5611 68.9942 36.4657C67.7989 36.3839 66.6647 36.4657 65.6392 36.6156C65.1298 36.7042 64.6408 36.7928 64.1994 36.9154C63.7512 37.0176 63.3437 37.1607 62.9702 37.2833C61.4896 37.808 60.6407 38.3053 60.6135 38.2576L60.6339 38.2645Z" fill="#263238"/>
<path d="M392.09 0.177246H78.7942V288.843H392.09V0.177246Z" fill="white"/>
<path d="M392.09 288.843C392.09 287.562 392.029 173.75 391.941 0.17715L392.09 0.327046C301.689 0.33386 194.038 0.340673 78.8283 0.3543H78.8011L78.9777 0.17715C78.9709 105.37 78.9641 204.261 78.9573 288.843L78.8011 288.687C266.136 288.782 390.759 288.843 392.097 288.843C390.759 288.843 266.143 288.905 78.8011 289H78.6449V288.843C78.6449 204.261 78.6313 105.37 78.6245 0.17715V0H78.8283C194.045 0.00681347 301.689 0.0204404 392.09 0.0272539H392.239V0.17715C392.151 173.75 392.09 287.569 392.09 288.843Z" fill="#263238"/>
<path d="M392.09 0.184082H78.7942V13.886H392.09V0.184082Z" fill="#263238"/>
<path d="M88.7709 6.13891C88.7709 7.12005 87.922 7.91723 86.8829 7.91723C85.8438 7.91723 84.9949 7.12005 84.9949 6.13891C84.9949 5.15777 85.8438 4.3606 86.8829 4.3606C87.922 4.3606 88.7709 5.15777 88.7709 6.13891Z" fill="white"/>
<path d="M96.3161 6.13891C96.3161 7.12005 95.4671 7.91723 94.4281 7.91723C93.389 7.91723 92.54 7.12005 92.54 6.13891C92.54 5.15777 93.389 4.3606 94.4281 4.3606C95.4671 4.3606 96.3161 5.15777 96.3161 6.13891Z" fill="white"/>
<path d="M103.861 6.13891C103.861 7.12005 103.013 7.91723 101.973 7.91723C100.934 7.91723 100.085 7.12005 100.085 6.13891C100.085 5.15777 100.934 4.3606 101.973 4.3606C103.013 4.3606 103.861 5.15777 103.861 6.13891Z" fill="white"/>
<path d="M214.195 110.651C212.035 112.777 209.298 114.453 206.29 114.8C204.239 115.039 202.147 114.657 200.116 114.984C196.918 115.495 194.086 117.887 193.026 120.959C191.967 124.032 192.734 127.664 194.941 130.049C195.593 130.75 196.497 131.384 197.427 131.18C197.943 131.064 198.371 130.703 198.778 130.355C202.412 127.228 206.039 124.107 209.672 120.98L219.954 103.79C218.311 106.338 216.362 108.525 214.195 110.651Z" fill="#455A64"/>
<g opacity="0.3">
<path d="M201.196 128.332C200.259 126.853 199.301 125.831 197.916 124.543C197.142 123.828 196.456 122.976 195.41 123.119C194.296 123.269 193.434 124.291 193.223 125.395C193.013 126.499 193.359 127.65 193.923 128.625C194.384 129.422 195.023 130.158 195.872 130.512C196.857 130.928 197.943 130.492 198.921 130.062C199.899 129.633 200.374 129.013 201.196 128.332Z" fill="black"/>
</g>
<path d="M242.135 225.498L238.868 238.546C238.868 238.546 252.818 243.765 252.974 246.348L225.992 246.3L229.985 224.858L242.142 225.498H242.135Z" fill="#455A64"/>
<g opacity="0.6">
<path d="M230.528 237.361C230.006 237.504 229.646 238.09 229.768 238.621C229.89 239.153 230.481 239.527 231.004 239.391C231.527 239.255 231.982 238.567 231.805 238.049C231.629 237.538 230.909 237.136 230.427 237.388" fill="white"/>
</g>
<g opacity="0.6">
<path d="M225.992 246.3L226.399 244.12L251.915 244.971C251.915 244.971 253.117 245.496 252.981 246.348L225.998 246.3H225.992Z" fill="white"/>
</g>
<path d="M238.902 238.71C238.902 238.839 238.237 238.901 237.591 239.323C236.933 239.732 236.593 240.304 236.478 240.25C236.355 240.222 236.552 239.432 237.347 238.935C238.135 238.43 238.936 238.587 238.902 238.71Z" fill="#263238"/>
<path d="M241.918 239.943C241.945 240.072 241.374 240.297 240.926 240.856C240.464 241.401 240.349 242.007 240.213 242.001C240.091 242.021 240.002 241.244 240.573 240.563C241.137 239.875 241.911 239.82 241.918 239.95V239.943Z" fill="#263238"/>
<path d="M243.541 243.35C243.419 243.377 243.242 242.716 243.582 241.994C243.914 241.265 244.539 240.985 244.594 241.094C244.668 241.203 244.268 241.592 243.996 242.191C243.711 242.784 243.677 243.343 243.541 243.35Z" fill="#263238"/>
<path d="M239.629 235.794C239.561 235.909 238.977 235.671 238.23 235.651C237.483 235.616 236.885 235.814 236.824 235.691C236.756 235.589 237.367 235.153 238.243 235.187C239.119 235.214 239.697 235.691 239.622 235.787L239.629 235.794Z" fill="#263238"/>
<path d="M155.483 208.233L142.009 212.342C142.009 212.342 143.958 227.147 141.751 228.496L129.139 204.568L149.894 198.047L155.483 208.233Z" fill="#455A64"/>
<g opacity="0.6">
<path d="M139.143 204.397C138.769 204.002 138.083 203.954 137.676 204.309C137.268 204.663 137.214 205.365 137.581 205.767C137.941 206.169 138.769 206.251 139.136 205.849C139.503 205.447 139.516 204.622 139.068 204.322" fill="white"/>
</g>
<g opacity="0.6">
<path d="M129.139 204.568L131.251 203.907L142.464 226.916C142.464 226.916 142.566 228.224 141.751 228.503L129.139 204.574V204.568Z" fill="white"/>
</g>
<path d="M141.886 212.451C141.771 212.512 141.404 211.953 140.732 211.579C140.066 211.183 139.401 211.156 139.394 211.027C139.36 210.904 140.148 210.713 140.963 211.183C141.778 211.647 142.015 212.423 141.893 212.458L141.886 212.451Z" fill="#263238"/>
<path d="M142.213 215.701C142.111 215.789 141.649 215.387 140.949 215.251C140.25 215.094 139.666 215.278 139.611 215.156C139.537 215.053 140.175 214.611 141.044 214.801C141.914 214.978 142.328 215.639 142.219 215.701H142.213Z" fill="#263238"/>
<path d="M139.971 218.74C139.89 218.644 140.386 218.174 141.18 218.14C141.975 218.099 142.518 218.515 142.45 218.617C142.389 218.733 141.859 218.562 141.207 218.603C140.555 218.631 140.046 218.855 139.971 218.746V218.74Z" fill="#263238"/>
<path d="M144.786 211.729C144.657 211.729 144.589 211.095 144.257 210.42C143.937 209.746 143.482 209.303 143.564 209.194C143.625 209.085 144.29 209.426 144.671 210.216C145.058 211.006 144.909 211.742 144.786 211.722V211.729Z" fill="#263238"/>
<path d="M162.831 159.748L156.06 147.361C156.06 147.361 142.009 152.307 140.243 150.42L161.011 133.134L171.619 152.178L162.824 159.748H162.831Z" fill="#EBEBEB"/>
<path d="M163.232 142.919C163.544 142.477 163.443 141.788 163.015 141.461C162.587 141.134 161.887 141.223 161.568 141.666C161.249 142.102 161.344 142.933 161.806 143.212C162.268 143.492 163.083 143.335 163.286 142.838" fill="#E0E0E0"/>
<path d="M161.018 133.128L162.098 135.063L141.941 150.782C141.941 150.782 140.684 151.15 140.25 150.407L161.018 133.122V133.128Z" fill="#E0E0E0"/>
<path d="M155.938 147.259C155.856 147.157 156.325 146.687 156.556 145.944C156.807 145.209 156.699 144.554 156.821 144.514C156.929 144.459 157.283 145.188 156.991 146.081C156.705 146.98 155.992 147.368 155.938 147.253V147.259Z" fill="#E0E0E0"/>
<path d="M152.827 148.247C152.726 148.166 153.018 147.627 153.004 146.912C153.011 146.197 152.719 145.658 152.821 145.577C152.902 145.481 153.466 146.019 153.466 146.912C153.466 147.805 152.909 148.343 152.827 148.247Z" fill="#E0E0E0"/>
<path d="M149.411 146.667C149.486 146.571 150.05 146.96 150.247 147.737C150.45 148.506 150.158 149.126 150.043 149.079C149.914 149.045 149.975 148.486 149.805 147.852C149.649 147.219 149.323 146.762 149.411 146.667Z" fill="#E0E0E0"/>
<path d="M157.235 149.958C157.215 149.828 157.812 149.637 158.403 149.167C159.001 148.718 159.334 148.179 159.456 148.234C159.571 148.268 159.381 148.997 158.682 149.528C157.989 150.073 157.242 150.073 157.235 149.951V149.958Z" fill="#E0E0E0"/>
<path d="M198.785 180.584C198.785 180.584 194.391 176.299 191.844 176.094C189.297 175.89 170.166 144.813 170.166 144.813L157.595 151.375C157.595 151.375 176.265 190.048 179.423 192.16L183.986 195.029L198.785 180.584Z" fill="#E0E0E0"/>
<path d="M185.399 186.328C185.379 186.287 185.915 185.919 186.846 185.422C187.776 184.924 189.114 184.318 190.649 183.827C193.046 183.044 195.199 182.799 195.994 182.778L196.007 182.901C195.763 182.901 195.634 182.887 195.634 182.867C195.634 182.846 195.756 182.819 196 182.778L196.014 182.901C195.24 183.057 193.134 183.398 190.764 184.168C189.25 184.652 187.919 185.21 186.968 185.647C186.017 186.083 185.44 186.376 185.413 186.328H185.399Z" fill="#E0E0E0"/>
<path d="M185.739 185.66C185.671 185.599 186.866 184.1 188.666 182.58C190.459 181.047 192.129 180.107 192.177 180.182C192.231 180.271 190.669 181.334 188.897 182.846C187.117 184.352 185.813 185.728 185.739 185.66Z" fill="#E0E0E0"/>
<path d="M194.208 182.247C194.113 182.288 193.766 181.681 193.148 181.109C192.537 180.53 191.905 180.223 191.939 180.128C191.96 180.039 192.714 180.216 193.386 180.85C194.065 181.477 194.289 182.22 194.208 182.247Z" fill="#E0E0E0"/>
<path d="M169.501 147.355C175.491 158.856 182.636 169.751 190.779 179.835Z" fill="#EBEBEB"/>
<path d="M190.778 179.835C190.778 179.835 190.676 179.746 190.506 179.549C190.316 179.324 190.072 179.038 189.773 178.683C189.141 177.927 188.251 176.816 187.172 175.426C185.012 172.647 182.139 168.715 179.192 164.225C176.251 159.728 173.793 155.518 172.108 152.424C171.266 150.878 170.601 149.617 170.159 148.738C169.955 148.322 169.792 147.989 169.657 147.723C169.548 147.491 169.494 147.362 169.5 147.355C169.514 147.355 169.589 147.464 169.718 147.689C169.867 147.948 170.05 148.275 170.275 148.677C170.777 149.576 171.47 150.809 172.319 152.308C174.057 155.368 176.543 159.544 179.477 164.034C182.418 168.518 185.256 172.463 187.362 175.283C188.401 176.66 189.25 177.784 189.875 178.608C190.153 178.976 190.377 179.276 190.554 179.515C190.703 179.726 190.785 179.835 190.771 179.848L190.778 179.835Z" fill="#E0E0E0"/>
<path d="M152.461 181.6L140.65 173.914C140.65 173.914 130.619 184.952 128.168 184.127L138.287 159.033L156.624 170.759L152.461 181.606V181.6Z" fill="#F5F5F5"/>
<path d="M144.861 166.589C144.922 166.051 144.515 165.492 143.978 165.411C143.442 165.322 142.878 165.738 142.803 166.276C142.728 166.814 143.204 167.496 143.74 167.523C144.277 167.55 144.922 167.025 144.861 166.487" fill="#E0E0E0"/>
<path d="M138.287 159.026L140.155 160.219L129.838 183.643C129.838 183.643 128.901 184.563 128.168 184.12L138.287 159.026Z" fill="#E0E0E0"/>
<path d="M140.487 173.887C140.365 173.832 140.555 173.198 140.406 172.435C140.277 171.672 139.869 171.141 139.964 171.052C140.032 170.95 140.691 171.427 140.854 172.354C141.024 173.28 140.582 173.962 140.481 173.887H140.487Z" fill="#E0E0E0"/>
<path d="M138.219 176.23C138.09 176.21 138.097 175.597 137.744 174.97C137.411 174.336 136.895 174.002 136.949 173.88C136.976 173.757 137.723 173.961 138.144 174.752C138.572 175.535 138.328 176.278 138.212 176.23H138.219Z" fill="#E0E0E0"/>
<path d="M134.463 176.469C134.484 176.346 135.163 176.421 135.706 177.007C136.25 177.586 136.283 178.274 136.161 178.288C136.032 178.315 135.822 177.797 135.373 177.327C134.932 176.844 134.429 176.598 134.47 176.469H134.463Z" fill="#E0E0E0"/>
<path d="M142.905 175.644C142.824 175.542 143.265 175.086 143.557 174.398C143.87 173.716 143.91 173.083 144.046 173.076C144.168 173.048 144.338 173.777 143.978 174.588C143.625 175.392 142.966 175.753 142.905 175.651V175.644Z" fill="#E0E0E0"/>
<path d="M193.963 182.846C193.963 182.846 188.068 181.163 185.732 182.192C183.396 183.221 151.87 164.961 151.87 164.961L143.904 176.714C143.904 176.714 176.53 198.708 180.306 199.062L190.486 195.533L193.97 182.839L193.963 182.846Z" fill="#EBEBEB"/>
<path d="M184.89 194.279C184.849 194.259 185.148 193.673 185.739 192.794C186.323 191.915 187.213 190.75 188.333 189.585C190.079 187.752 191.851 186.519 192.544 186.117L192.612 186.219C192.394 186.335 192.279 186.382 192.265 186.369C192.252 186.348 192.347 186.267 192.544 186.117L192.612 186.219C192.001 186.73 190.309 188.024 188.591 189.83C187.484 190.982 186.574 192.106 185.943 192.944C185.311 193.782 184.937 194.313 184.89 194.286V194.279Z" fill="#E0E0E0"/>
<path d="M184.87 193.523C184.781 193.503 185.128 191.615 185.99 189.415C186.846 187.214 187.871 185.585 187.946 185.633C188.034 185.681 187.158 187.371 186.316 189.544C185.46 191.718 184.965 193.55 184.863 193.523H184.87Z" fill="#E0E0E0"/>
<path d="M190.717 186.498C190.656 186.58 190.058 186.205 189.243 186.001C188.428 185.783 187.729 185.817 187.715 185.708C187.695 185.619 188.435 185.415 189.331 185.653C190.228 185.885 190.778 186.43 190.717 186.498Z" fill="#E0E0E0"/>
<path d="M186.561 186.001C186.561 186.001 186.425 185.967 186.187 185.878C185.909 185.769 185.562 185.633 185.134 185.463C184.224 185.102 182.913 184.543 181.304 183.834C178.092 182.417 173.704 180.319 168.984 177.764C164.264 175.202 160.121 172.667 157.174 170.746C155.7 169.785 154.519 168.988 153.717 168.422C153.344 168.157 153.038 167.939 152.793 167.761C152.583 167.605 152.481 167.523 152.488 167.509C152.495 167.502 152.617 167.564 152.834 167.7C153.086 167.857 153.405 168.054 153.792 168.3C154.661 168.852 155.85 169.608 157.303 170.528C160.278 172.395 164.441 174.888 169.147 177.45C173.854 180.005 178.221 182.124 181.406 183.603C182.968 184.318 184.251 184.904 185.189 185.333C185.603 185.524 185.942 185.681 186.214 185.81C186.445 185.919 186.567 185.987 186.561 186.001Z" fill="#E0E0E0"/>
<path d="M199.165 126.09C199.165 126.09 193.868 132.706 192.802 134.321C191.729 135.929 181.562 174.779 181.562 174.779C181.562 174.779 176.754 178.595 176.224 181.102C175.694 183.609 142.491 198.592 142.491 198.592L147.34 211.947C147.34 211.947 187.994 198.408 190.493 195.547C192.992 192.685 214.405 160.641 214.405 160.641L236.369 190.416C236.369 190.416 231.466 204.752 230.46 209.868C229.435 215.081 225.557 232.414 225.557 232.414L240.627 231.828C240.627 231.828 251.147 200.643 254 194.552C256.852 188.467 255.976 184.809 254.373 181.586C252.77 178.363 235.995 144.711 235.995 144.711L236.62 142.258L199.186 126.097L199.165 126.09Z" fill="#263238"/>
<path d="M185.494 188.842C185.454 188.863 185.155 188.277 184.788 187.282C184.421 186.294 183.994 184.884 183.708 183.296C183.246 180.809 183.287 178.636 183.369 177.845H183.491C183.457 178.097 183.43 178.22 183.409 178.22C183.389 178.22 183.376 178.09 183.369 177.845H183.491C183.545 178.642 183.606 180.782 184.061 183.235C184.347 184.809 184.727 186.205 185.033 187.207C185.338 188.209 185.556 188.822 185.501 188.842H185.494Z" fill="#455A64"/>
<path d="M184.876 188.42C184.808 188.481 183.484 187.091 182.214 185.101C180.93 183.119 180.217 181.334 180.306 181.3C180.401 181.252 181.25 182.955 182.513 184.911C183.769 186.873 184.958 188.352 184.883 188.42H184.876Z" fill="#455A64"/>
<path d="M246.074 188.904C246.054 189.013 244.376 188.481 242.305 188.822C240.227 189.135 238.8 190.157 238.746 190.055C238.719 190.021 239.038 189.721 239.656 189.367C240.267 189.013 241.184 188.638 242.257 188.467C243.33 188.297 244.315 188.372 245.001 188.522C245.694 188.672 246.088 188.856 246.074 188.897V188.904Z" fill="#455A64"/>
<path d="M243.846 190.423C243.812 190.525 242.515 190.123 240.872 190.13C239.221 190.13 237.931 190.532 237.897 190.43C237.856 190.348 239.153 189.769 240.872 189.775C242.59 189.769 243.887 190.341 243.846 190.423Z" fill="#455A64"/>
<path d="M220.79 151.082C220.83 151.109 220.491 151.777 219.886 152.826C219.282 153.875 218.406 155.306 217.373 156.846C216.348 158.386 215.363 159.742 214.623 160.709C213.883 161.67 213.394 162.242 213.36 162.215C213.319 162.188 213.733 161.561 214.419 160.566C215.166 159.469 216.069 158.134 217.075 156.655C218.053 155.163 218.942 153.807 219.669 152.703C220.328 151.688 220.742 151.061 220.79 151.089V151.082Z" fill="#455A64"/>
<path d="M184.027 178.438C184.027 178.438 184.068 178.254 184.184 177.92C184.292 177.586 184.476 177.102 184.679 176.462C185.107 175.201 185.671 173.348 186.275 171.045C186.88 168.742 187.505 165.969 188.143 162.876C188.788 159.789 189.454 156.376 190.282 152.826C191.118 149.276 192.082 145.924 193.189 142.96C194.296 139.996 195.525 137.414 196.748 135.356C197.963 133.299 199.118 131.732 199.987 130.716C200.401 130.192 200.775 129.831 201.006 129.565C201.244 129.306 201.373 129.177 201.386 129.183C201.393 129.19 201.284 129.34 201.06 129.613C200.843 129.892 200.49 130.267 200.096 130.805C199.267 131.847 198.154 133.421 196.965 135.486C195.777 137.543 194.581 140.126 193.495 143.083C192.408 146.04 191.464 149.378 190.629 152.915C189.8 156.458 189.128 159.864 188.462 162.951C187.803 166.037 187.158 168.81 186.52 171.113C185.881 173.416 185.284 175.256 184.815 176.51C184.591 177.143 184.387 177.62 184.258 177.947C184.122 178.274 184.048 178.445 184.041 178.438H184.027Z" fill="#455A64"/>
<path d="M182.608 179.555C182.642 179.657 181.99 179.916 181.345 180.461C180.693 180.993 180.306 181.586 180.217 181.538C180.129 181.504 180.401 180.782 181.121 180.189C181.834 179.596 182.594 179.467 182.608 179.555Z" fill="#455A64"/>
<path d="M179.776 182.649C179.776 182.649 179.674 182.737 179.457 182.887C179.205 183.051 178.893 183.255 178.506 183.5C177.677 184.032 176.462 184.774 174.947 185.667C171.918 187.452 167.66 189.803 162.838 192.147C158.009 194.49 153.534 196.385 150.254 197.659C148.617 198.299 147.286 198.79 146.355 199.117C145.921 199.267 145.567 199.389 145.282 199.485C145.038 199.567 144.902 199.601 144.902 199.587C144.902 199.573 145.017 199.519 145.262 199.417C145.54 199.301 145.887 199.165 146.308 198.987C147.265 198.599 148.569 198.074 150.165 197.427C153.412 196.092 157.867 194.17 162.689 191.833C167.504 189.489 171.776 187.186 174.832 185.456C176.326 184.604 177.548 183.902 178.445 183.391C178.845 183.167 179.171 182.983 179.43 182.833C179.654 182.71 179.776 182.649 179.783 182.655L179.776 182.649Z" fill="#455A64"/>
<path d="M207.546 135.82C207.546 135.82 207.274 136.317 206.582 136.91C205.903 137.496 204.789 138.143 203.444 138.463C202.093 138.77 200.816 138.681 199.946 138.45C199.07 138.225 198.588 137.925 198.609 137.898C198.636 137.843 199.145 138.054 200.001 138.204C200.856 138.361 202.072 138.416 203.369 138.116C204.66 137.816 205.733 137.23 206.432 136.712C207.139 136.194 207.499 135.779 207.546 135.82Z" fill="#455A64"/>
<path d="M239.792 189.237C239.792 189.237 239.69 189.142 239.527 188.938C239.344 188.699 239.106 188.406 238.821 188.038C238.209 187.255 237.347 186.11 236.294 184.686C234.189 181.838 231.343 177.852 228.307 173.376C225.278 168.892 222.643 164.763 220.783 161.752C219.852 160.246 219.112 159.013 218.609 158.161C218.378 157.759 218.188 157.432 218.039 157.173C217.91 156.948 217.849 156.819 217.862 156.819C217.876 156.819 217.957 156.921 218.1 157.139C218.263 157.391 218.473 157.705 218.725 158.093C219.288 158.965 220.056 160.164 220.993 161.622C222.908 164.607 225.577 168.708 228.599 173.185C231.628 177.661 234.44 181.661 236.491 184.55C237.496 185.96 238.318 187.118 238.922 187.97C239.187 188.352 239.405 188.658 239.574 188.903C239.717 189.121 239.792 189.237 239.785 189.244L239.792 189.237Z" fill="#455A64"/>
<path d="M229.218 232.128C229.218 232.128 229.218 231.978 229.258 231.692C229.306 231.372 229.367 230.956 229.442 230.445C229.605 229.362 229.869 227.808 230.223 225.887C230.929 222.044 232.05 216.757 233.557 210.986C235.072 205.215 236.681 200.057 237.945 196.357C238.576 194.511 239.106 193.019 239.493 191.997C239.676 191.513 239.826 191.125 239.941 190.825C240.05 190.559 240.111 190.423 240.118 190.423C240.131 190.423 240.091 190.573 240.002 190.845C239.9 191.152 239.771 191.554 239.615 192.044C239.262 193.121 238.773 194.613 238.175 196.439C236.973 200.152 235.405 205.317 233.897 211.074C232.396 216.839 231.235 222.105 230.467 225.935C230.094 227.815 229.795 229.355 229.571 230.472C229.469 230.977 229.387 231.385 229.326 231.706C229.265 231.985 229.231 232.135 229.218 232.135V232.128Z" fill="#455A64"/>
<path d="M273.131 128.625L273.117 137.155L285.913 118.425L292.453 120.537C292.453 120.537 284.486 141.42 279.936 145.331C275.386 149.242 269.769 148.683 269.769 148.683L267.759 142.565L271.209 128.291L273.124 128.625H273.131Z" fill="#E0E0E0"/>
<path d="M291.943 122.656L294.062 120.094L295.991 118.111C296.229 117.853 296.419 117.641 296.534 117.491C297.37 116.449 296.799 115.059 296.799 115.059L297.112 113.73C297.424 112.402 296.378 111.816 296.378 111.816C296.378 111.816 298.225 109.54 299.774 108.211C301.411 106.808 301.54 106.351 300.623 105.909C299.706 105.466 294.123 110.106 294.123 110.106C294.123 110.106 295.054 107.646 295.855 105.404C296.67 103.135 295.529 102.958 295.061 103.197C294.47 103.49 292.711 106.965 291.59 109.274C291.02 110.446 290.619 111.318 290.619 111.318C290.619 111.318 289.07 112.368 288.113 113.172C287.794 113.437 287.542 113.676 287.441 113.846C287.019 114.5 286.109 118.677 286.109 118.677L285.369 120.557" fill="#E0E0E0"/>
<path d="M289.641 118.95C289.641 118.95 289.763 118.929 289.981 118.827C290.191 118.725 290.49 118.548 290.796 118.227C291.094 117.914 291.4 117.444 291.529 116.837C291.658 116.238 291.611 115.502 291.264 114.821L291.088 114.95C291.536 115.42 292.059 115.938 292.765 116.251C293.458 116.565 294.388 116.619 295.101 116.088C295.149 116.047 295.196 116.006 295.237 115.965L295.319 115.897L295.251 115.802C294.504 114.78 293.791 113.812 293.139 112.92C292.976 112.702 292.813 112.477 292.602 112.293C292.398 112.109 292.14 111.986 291.875 111.952C291.346 111.884 290.891 112.082 290.524 112.286C290.157 112.497 289.865 112.736 289.6 112.92C289.335 113.11 289.098 113.254 288.887 113.342C288.473 113.526 288.208 113.512 288.208 113.533C288.208 113.533 288.269 113.553 288.398 113.547C288.52 113.547 288.704 113.512 288.928 113.431C289.152 113.349 289.403 113.213 289.682 113.036C289.96 112.858 290.259 112.627 290.612 112.443C290.965 112.259 291.4 112.088 291.848 112.157C292.31 112.218 292.65 112.613 292.955 113.056C293.6 113.949 294.307 114.923 295.054 115.952L295.067 115.788C295.027 115.822 294.993 115.856 294.952 115.89C294.347 116.347 293.499 116.313 292.867 116.027C292.208 115.74 291.699 115.25 291.251 114.793L290.728 114.262L291.074 114.923C291.407 115.55 291.461 116.238 291.352 116.803C291.244 117.376 290.972 117.825 290.7 118.146C290.137 118.779 289.627 118.922 289.648 118.956L289.641 118.95Z" fill="#EBEBEB"/>
<path d="M292.779 116.238C292.779 116.238 292.69 116.272 292.568 116.374C292.446 116.476 292.262 116.633 292.113 116.892C291.964 117.144 291.862 117.566 292.106 117.948C292.229 118.139 292.466 118.255 292.697 118.261C292.928 118.275 293.152 118.214 293.356 118.146C294.979 117.546 296.269 117.015 296.242 116.946C296.222 116.878 294.884 117.314 293.274 117.907C292.887 118.057 292.473 118.084 292.29 117.812C292.106 117.553 292.147 117.198 292.262 116.974C292.378 116.735 292.534 116.565 292.636 116.442C292.738 116.32 292.792 116.251 292.779 116.238Z" fill="#EBEBEB"/>
<path d="M294.463 114.977C294.504 115.039 294.898 114.841 295.427 114.78C295.95 114.712 296.385 114.8 296.412 114.732C296.439 114.671 295.991 114.459 295.4 114.534C294.809 114.603 294.429 114.923 294.47 114.977H294.463Z" fill="#EBEBEB"/>
<path d="M293.227 113.001C293.274 113.056 293.777 112.695 294.476 112.429C294.823 112.299 295.162 112.204 295.393 112.163C295.624 112.122 295.726 112.225 295.753 112.211C295.767 112.204 295.76 112.156 295.699 112.095C295.638 112.034 295.515 111.993 295.38 111.986C295.101 111.986 294.762 112.061 294.388 112.197C293.641 112.477 293.179 112.954 293.227 113.001Z" fill="#EBEBEB"/>
<path d="M260.825 116.238C260.757 118.561 256.41 138.463 256.784 143.226C257.158 147.989 287.488 157.616 287.488 157.616L289.288 150.693L270.245 138.545L273.681 121.539L260.832 116.245L260.825 116.238Z" fill="#EBEBEB"/>
<path d="M286.612 157.118L289.505 158.754L291.794 160.307C292.086 160.491 292.33 160.641 292.5 160.736C293.675 161.37 294.932 160.559 294.932 160.559L296.29 160.627C297.648 160.696 298.035 159.558 298.035 159.558C298.035 159.558 300.596 160.975 302.178 162.263C303.849 163.625 304.317 163.673 304.589 162.685C304.861 161.697 299.305 157.023 299.305 157.023C299.305 157.023 301.886 157.5 304.229 157.888C306.599 158.284 306.565 157.132 306.253 156.71C305.859 156.178 302.137 155.068 299.672 154.373C298.422 154.018 297.492 153.78 297.492 153.78C297.492 153.78 296.181 152.438 295.224 151.64C294.904 151.375 294.626 151.17 294.443 151.095C293.723 150.796 289.464 150.653 289.464 150.653L287.488 150.257" fill="#EBEBEB"/>
<path d="M289.831 154.182C289.831 154.182 289.872 154.305 290.008 154.495C290.144 154.686 290.374 154.945 290.741 155.19C291.108 155.429 291.617 155.647 292.235 155.667C292.847 155.688 293.56 155.511 294.164 155.047L294.008 154.897C293.628 155.422 293.213 156.035 293.03 156.785C292.847 157.521 292.955 158.454 293.607 159.06C293.655 159.101 293.702 159.142 293.75 159.176L293.831 159.244L293.913 159.163C294.782 158.236 295.604 157.364 296.358 156.56C296.541 156.362 296.731 156.158 296.874 155.919C297.016 155.688 297.091 155.408 297.078 155.143C297.05 154.611 296.772 154.196 296.507 153.869C296.235 153.542 295.95 153.296 295.719 153.065C295.488 152.84 295.305 152.629 295.176 152.438C294.918 152.063 294.891 151.797 294.864 151.804C294.864 151.804 294.864 151.872 294.884 151.988C294.911 152.111 294.972 152.281 295.095 152.485C295.217 152.69 295.393 152.915 295.617 153.16C295.842 153.405 296.12 153.657 296.371 153.971C296.616 154.284 296.86 154.686 296.874 155.136C296.901 155.599 296.575 156.008 296.188 156.39C295.427 157.187 294.599 158.059 293.729 158.979L293.892 158.965C293.852 158.931 293.811 158.904 293.77 158.87C293.213 158.359 293.091 157.514 293.261 156.832C293.424 156.131 293.811 155.538 294.178 155.013L294.606 154.4L294.021 154.863C293.465 155.299 292.806 155.483 292.229 155.477C291.651 155.477 291.155 155.286 290.796 155.075C290.069 154.632 289.845 154.155 289.811 154.182H289.831Z" fill="#E0E0E0"/>
<path d="M293.057 156.792C293.057 156.792 293.01 156.71 292.887 156.608C292.765 156.505 292.582 156.355 292.297 156.246C292.018 156.144 291.59 156.124 291.264 156.43C291.101 156.587 291.027 156.839 291.061 157.071C291.088 157.303 291.19 157.507 291.298 157.705C292.174 159.197 292.935 160.375 292.989 160.341C293.05 160.307 292.385 159.067 291.516 157.582C291.305 157.228 291.203 156.819 291.434 156.594C291.658 156.369 292.011 156.342 292.249 156.417C292.507 156.492 292.697 156.614 292.833 156.689C292.969 156.771 293.05 156.812 293.057 156.792Z" fill="#E0E0E0"/>
<path d="M294.599 158.222C294.544 158.27 294.809 158.631 294.966 159.135C295.129 159.639 295.115 160.089 295.19 160.096C295.251 160.11 295.387 159.626 295.203 159.06C295.027 158.488 294.646 158.168 294.606 158.215L294.599 158.222Z" fill="#E0E0E0"/>
<path d="M296.31 156.648C296.263 156.703 296.711 157.132 297.098 157.779C297.288 158.1 297.444 158.42 297.526 158.631C297.607 158.856 297.526 158.972 297.546 158.999C297.553 159.013 297.607 158.999 297.648 158.924C297.696 158.856 297.716 158.726 297.696 158.59C297.641 158.318 297.512 157.991 297.308 157.65C296.894 156.962 296.344 156.594 296.31 156.648Z" fill="#E0E0E0"/>
<path d="M257.619 122.683C257.918 124.986 254.984 143.676 256.098 148.322C257.212 152.969 268.621 170.296 268.621 170.296L274.476 167.605L267.766 142.565L271.1 125.47L257.626 122.683H257.619Z" fill="#FFBE9D"/>
<path d="M267.969 169.614L268.893 173.212L269.579 175.896C269.674 176.23 269.762 176.51 269.824 176.687C270.279 177.947 271.759 178.172 271.759 178.172L272.73 179.126C273.701 180.08 274.741 179.487 274.741 179.487C274.741 179.487 275.725 182.247 276.051 184.27C276.398 186.403 276.724 186.75 277.573 186.192C278.428 185.633 277.355 178.438 277.355 178.438C277.355 178.438 278.972 180.509 280.466 182.362C281.98 184.236 282.72 183.35 282.761 182.826C282.816 182.165 280.765 178.853 279.379 176.7C278.673 175.603 278.143 174.806 278.143 174.806C278.143 174.806 278.055 172.933 277.865 171.699C277.803 171.291 277.729 170.95 277.64 170.773C277.301 170.071 274.211 167.128 274.211 167.128L272.988 165.52" fill="#FFBE9D"/>
<path d="M272.153 170.003C272.153 170.003 272.105 170.119 272.078 170.357C272.058 170.589 272.058 170.943 272.173 171.365C272.289 171.788 272.527 172.292 272.982 172.714C273.423 173.137 274.075 173.478 274.836 173.532L274.815 173.314C274.184 173.457 273.471 173.634 272.832 174.077C272.207 174.506 271.671 175.283 271.759 176.169C271.759 176.23 271.779 176.292 271.786 176.353L271.807 176.462L271.922 176.448C273.178 176.332 274.381 176.223 275.474 176.128C275.746 176.101 276.024 176.073 276.282 175.992C276.547 175.91 276.785 175.753 276.948 175.549C277.281 175.133 277.348 174.636 277.362 174.22C277.376 173.798 277.321 173.423 277.301 173.096C277.281 172.769 277.281 172.49 277.308 172.265C277.362 171.808 277.518 171.597 277.491 171.583C277.491 171.583 277.443 171.631 277.382 171.74C277.321 171.849 277.253 172.019 277.206 172.251C277.158 172.483 277.145 172.769 277.158 173.103C277.158 173.437 277.206 173.811 277.185 174.213C277.158 174.609 277.077 175.072 276.785 175.419C276.499 175.781 275.983 175.869 275.44 175.903C274.347 175.999 273.145 176.101 271.888 176.203L272.017 176.298C272.01 176.251 271.997 176.196 271.99 176.142C271.908 175.385 272.377 174.677 272.954 174.282C273.538 173.866 274.224 173.682 274.842 173.532L275.569 173.362L274.822 173.321C274.116 173.28 273.498 172.973 273.077 172.585C272.642 172.197 272.397 171.727 272.275 171.331C272.024 170.514 272.173 170.01 272.133 170.01L272.153 170.003Z" fill="#EB996E"/>
<path d="M272.839 174.104C272.839 174.104 272.852 174.009 272.839 173.852C272.812 173.696 272.778 173.457 272.635 173.191C272.499 172.933 272.187 172.626 271.739 172.64C271.515 172.64 271.29 172.789 271.168 172.98C271.039 173.171 270.978 173.396 270.93 173.607C270.598 175.31 270.387 176.694 270.455 176.707C270.523 176.721 270.842 175.351 271.175 173.662C271.25 173.253 271.44 172.885 271.766 172.864C272.078 172.844 272.363 173.062 272.493 173.28C272.635 173.505 272.703 173.723 272.751 173.873C272.798 174.023 272.832 174.104 272.852 174.104H272.839Z" fill="#EB996E"/>
<path d="M273.049 176.203C272.975 176.203 272.934 176.646 272.717 177.13C272.506 177.62 272.201 177.94 272.248 177.995C272.282 178.049 272.703 177.777 272.941 177.232C273.185 176.687 273.111 176.196 273.049 176.203Z" fill="#EB996E"/>
<path d="M275.372 176.162C275.297 176.169 275.352 176.796 275.209 177.532C275.141 177.9 275.046 178.24 274.965 178.458C274.883 178.683 274.74 178.71 274.734 178.744C274.734 178.758 274.781 178.785 274.863 178.758C274.944 178.738 275.046 178.656 275.121 178.54C275.263 178.302 275.379 177.968 275.454 177.579C275.603 176.789 275.433 176.148 275.372 176.162Z" fill="#EB996E"/>
<path d="M277.158 69.3882C276.533 69.0203 275.732 69.0952 275.046 69.3405C274.36 69.5858 273.742 69.9878 273.07 70.2603C272.397 70.5329 271.616 70.6828 270.951 70.4034C270.761 70.3216 270.584 70.2126 270.387 70.1717C270.19 70.1309 269.946 70.1854 269.851 70.3693C269.769 70.5192 269.81 70.7032 269.871 70.8667C270.088 71.4867 270.516 72.0318 271.059 72.3997C270.292 72.3248 269.518 72.243 268.75 72.1681C268.54 72.1476 268.295 72.134 268.146 72.2907C267.983 72.4611 268.024 72.7336 268.098 72.9516C268.465 74.1304 269.341 75.1319 270.462 75.6566C269.844 76.0926 269.212 76.5423 268.832 77.1896C268.451 77.8369 268.384 78.7431 268.886 79.3018C269.348 79.8196 270.143 79.8946 270.808 79.7242C272.323 79.3495 273.396 78.0072 274.177 76.6513C274.958 75.2955 275.603 73.8101 276.764 72.7609" fill="#263238"/>
<path d="M291.719 58.6162C285.471 56.3746 278.612 59.7472 276.554 66.0769L271.453 81.2165L266.278 86.7081L276.038 101.793C276.9 99.6469 284.962 92.1521 284.962 92.1521C284.962 92.1521 291.21 93.7396 293.77 87.8868C295.006 85.0661 297.077 79.0634 298.891 73.599C300.921 67.4805 297.743 60.851 291.719 58.6162Z" fill="#FFBE9D"/>
<path d="M284.948 92.1383C284.948 92.1383 281.118 90.8642 278.231 86.7012C278.231 86.7012 277.552 91.4365 283.624 93.3988L284.948 92.1315V92.1383Z" fill="#EB996E"/>
<path d="M295.38 77.0124C295.21 77.4621 294.687 77.687 294.212 77.5166C293.743 77.3463 293.498 76.8421 293.668 76.3924C293.838 75.9427 294.361 75.7179 294.836 75.8882C295.305 76.0585 295.549 76.5627 295.38 77.0124Z" fill="#263238"/>
<path d="M296.365 75.9768C296.215 76.0449 295.78 75.3023 294.877 74.9207C293.981 74.5255 293.125 74.7095 293.071 74.5596C293.044 74.4915 293.234 74.3348 293.607 74.253C293.981 74.1644 294.551 74.1644 295.108 74.4097C295.665 74.655 296.052 75.057 296.235 75.3908C296.419 75.7247 296.432 75.9632 296.358 75.9904L296.365 75.9768Z" fill="#263238"/>
<path d="M286.707 73.7556C286.537 74.2053 286.014 74.4301 285.539 74.2598C285.07 74.0894 284.826 73.5852 284.996 73.1356C285.165 72.6859 285.688 72.461 286.164 72.6314C286.632 72.8017 286.877 73.3059 286.707 73.7556Z" fill="#263238"/>
<path d="M287.447 72.3725C287.298 72.4407 286.863 71.698 285.96 71.3165C285.063 70.9213 284.208 71.1052 284.153 70.9553C284.126 70.8872 284.316 70.7305 284.69 70.6487C285.063 70.5602 285.634 70.5602 286.191 70.8054C286.748 71.0507 287.135 71.4527 287.318 71.7866C287.502 72.1205 287.515 72.3589 287.44 72.3862L287.447 72.3725Z" fill="#263238"/>
<path d="M287.875 80.4671C287.895 80.4125 288.493 80.5556 289.451 80.8282C289.688 80.9031 289.926 80.9508 290.035 80.8077C290.157 80.6646 290.171 80.3717 290.171 80.0582C290.191 79.411 290.211 78.7296 290.232 78.0142C290.347 75.1117 290.537 72.761 290.653 72.7678C290.768 72.7678 290.768 75.1321 290.653 78.0346C290.619 78.7501 290.585 79.4314 290.558 80.0787C290.53 80.3785 290.558 80.7396 290.293 81.0326C290.157 81.1757 289.933 81.2302 289.77 81.2097C289.6 81.1893 289.471 81.1416 289.356 81.1007C288.425 80.76 287.855 80.5216 287.875 80.4739V80.4671Z" fill="#263238"/>
<path d="M284.962 79.9627C285.111 80.0173 284.697 80.9984 285.24 82.0477C285.777 83.1038 286.87 83.4376 286.816 83.5739C286.802 83.642 286.503 83.6625 286.055 83.4921C285.62 83.3218 285.05 82.913 284.717 82.2725C284.384 81.6252 284.412 80.9643 284.547 80.5487C284.683 80.1263 284.894 79.9287 284.962 79.9627Z" fill="#263238"/>
<path d="M289.179 68.9317C288.989 69.1361 288.14 68.6387 287.026 68.3185C285.919 67.971 284.941 67.9233 284.894 67.6372C284.873 67.5077 285.125 67.3374 285.566 67.2488C286.008 67.1602 286.646 67.167 287.311 67.3646C287.977 67.569 288.514 67.9165 288.833 68.2367C289.152 68.557 289.267 68.8363 289.179 68.9385V68.9317Z" fill="#263238"/>
<path d="M297.145 73.2242C296.901 73.3604 296.371 72.8835 295.631 72.5564C294.904 72.2021 294.198 72.1067 294.144 71.8274C294.123 71.6979 294.313 71.5344 294.667 71.4595C295.02 71.3845 295.543 71.4186 296.045 71.6502C296.548 71.8819 296.914 72.2635 297.084 72.5837C297.261 72.9039 297.254 73.156 297.145 73.2242Z" fill="#263238"/>
<path d="M289.641 72.1067C289.485 71.841 289.206 71.6707 288.928 71.5617C287.128 70.8462 285.376 70.3625 283.691 69.9741L282.978 70.0763C282.829 70.8667 282.571 72.0386 282.591 72.8426C282.612 73.6466 282.815 74.471 283.311 75.1115C283.854 75.8133 284.69 76.2289 285.552 76.4129C286.252 76.5627 287.012 76.5764 287.658 76.2561C288.697 75.7451 289.179 74.5528 289.566 73.4626C289.722 73.0197 289.878 72.5087 289.641 72.1067Z" fill="#263238"/>
<path d="M288.921 72.5634C288.799 72.3522 288.581 72.2091 288.357 72.1137C286.931 71.521 285.532 71.1053 284.194 70.7715L283.624 70.8464C283.495 71.4801 283.27 72.4067 283.277 73.054C283.284 73.7013 283.433 74.3622 283.821 74.88C284.242 75.4455 284.907 75.793 285.593 75.9497C286.15 76.0792 286.761 76.0996 287.277 75.8543C288.113 75.4591 288.513 74.5121 288.846 73.6468C288.982 73.2925 289.111 72.8905 288.928 72.5634H288.921Z" fill="#455A64"/>
<path d="M298.429 75.3228C298.273 75.0571 297.994 74.8867 297.716 74.7777C296.025 74.11 294.375 73.6399 292.779 73.2651C292.582 73.2174 292.378 73.2106 292.174 73.2379L291.767 73.2992C291.617 74.0896 291.359 75.2615 291.38 76.0655C291.4 76.8694 291.604 77.6939 292.099 78.3343C292.643 79.0361 293.478 79.4517 294.341 79.6357C295.04 79.7856 295.801 79.7992 296.446 79.479C297.485 78.968 297.967 77.7756 298.354 76.6855C298.511 76.2426 298.667 75.7316 298.429 75.3296V75.3228Z" fill="#263238"/>
<path d="M297.743 75.6362C297.621 75.425 297.403 75.2819 297.179 75.1865C295.753 74.5937 294.354 74.1781 293.016 73.8442L292.446 73.9192C292.317 74.5528 292.092 75.4795 292.099 76.1268C292.099 76.774 292.255 77.4349 292.643 77.9528C293.064 78.5183 293.729 78.8658 294.415 79.0225C294.972 79.1519 295.583 79.1724 296.099 78.9271C296.935 78.5319 297.335 77.5848 297.668 76.7195C297.804 76.3652 297.933 75.9632 297.75 75.6362H297.743Z" fill="#455A64"/>
<path d="M276.398 69.8789C278.829 69.913 281.26 69.9402 283.685 69.9743L283.434 70.9963L276.051 70.9146L276.398 69.8789Z" fill="#263238"/>
<path d="M291.733 74.0351L289.512 73.0949L289.641 72.1069L292.52 73.3947L291.733 74.0351Z" fill="#263238"/>
<path d="M275.257 70.199C275.257 70.199 273.681 57.8258 284.018 55.2776C294.354 52.7225 295.509 54.1738 296.935 56.831C298.361 59.4883 299.977 63.6786 299.977 63.6786C299.977 63.6786 309.153 62.6906 309.411 64.0737C309.669 65.4569 302.803 67.5554 302.803 67.5554C302.803 67.5554 300.697 66.6629 297.383 66.2268C295.223 65.9406 290.103 65.7499 286.809 65.6545C284.894 65.6 283.366 65.743 281.552 66.2949C281.464 66.3222 281.383 66.3631 281.308 66.4108L275.263 70.2059L275.257 70.199Z" fill="#B731FF"/>
<path d="M278.062 68.9658C277.98 68.8772 274.564 66.0292 272.961 70.09C271.358 74.1508 275.752 74.9275 275.807 74.8117C275.861 74.6959 278.062 68.9589 278.062 68.9589V68.9658Z" fill="#FFBE9D"/>
<path d="M275.175 72.7882C275.175 72.7882 275.087 72.8087 274.944 72.8155C274.808 72.8223 274.591 72.7814 274.415 72.6179C274.048 72.2909 273.959 71.4664 274.224 70.7238C274.36 70.349 274.578 70.0288 274.822 69.7903C275.06 69.545 275.338 69.4088 275.569 69.4565C275.8 69.4905 275.902 69.6813 275.909 69.8176C275.915 69.9538 275.861 70.022 275.881 70.0424C275.888 70.056 275.997 70.0083 276.031 69.8312C276.044 69.7426 276.031 69.6268 275.97 69.511C275.902 69.3951 275.78 69.2929 275.623 69.252C275.304 69.1498 274.91 69.327 274.639 69.5859C274.353 69.8448 274.102 70.1991 273.946 70.6216C273.647 71.4528 273.763 72.3794 274.285 72.7814C274.544 72.9722 274.815 72.979 274.971 72.9313C275.134 72.8836 275.196 72.795 275.182 72.7882H275.175Z" fill="#EB996E"/>
<path d="M281.478 66.2608C279.447 67.569 278.191 68.3662 276.269 67.9301C275.963 67.862 275.623 67.9574 275.399 68.1822C275.1 68.482 275.229 68.9862 275.555 69.2519C275.983 69.5926 276.506 69.797 277.05 69.8447C277.172 69.8583 277.308 69.8651 277.382 69.9674C277.505 70.1309 277.342 70.3489 277.185 70.4784C276.533 71.0575 275.875 71.6298 275.223 72.209C275.005 72.3998 274.788 72.5905 274.645 72.8426C274.503 73.0947 274.455 73.415 274.598 73.6671C274.863 74.144 275.555 74.0895 276.065 73.8987C277.613 73.3196 278.863 72.1 279.759 70.7032C280.663 69.3133 281.328 67.6167 281.912 66.0632L281.471 66.254L281.478 66.2608Z" fill="#263238"/>
<path d="M281.477 66.2609C281.477 66.2609 281.715 66.111 282.17 65.8998C282.625 65.6954 283.304 65.4228 284.167 65.1707C285.885 64.6325 288.33 64.1623 291.053 63.8762C293.777 63.59 296.256 63.5083 298.042 63.4946C298.938 63.4946 299.665 63.5014 300.161 63.5219C300.663 63.5423 300.935 63.5628 300.935 63.59C300.935 63.6173 300.656 63.6377 300.161 63.6582C299.583 63.6786 298.877 63.7127 298.042 63.7399C296.256 63.8149 293.79 63.9307 291.081 64.2237C288.378 64.5166 285.946 64.9391 284.228 65.4092C282.503 65.8589 281.498 66.3222 281.471 66.2609H281.477Z" fill="#263238"/>
<g opacity="0.3">
<path d="M307.251 64.4962C307.047 64.176 306.613 64.1147 306.232 64.0874C298.979 63.6105 292.256 64.1488 285.125 65.5591C288.106 65.6613 290.592 65.7772 293.437 65.893C296.989 66.1315 300.174 66.4108 302.755 67.4192C304.297 67.3034 305.254 66.7924 306.551 65.9475C306.803 65.784 307.054 65.6 307.21 65.3479C307.366 65.0958 307.414 64.7483 307.258 64.4962H307.251Z" fill="black"/>
</g>
<path d="M303.502 67.8143C304.372 67.6917 305.153 67.0648 305.472 66.2472C304.48 66.3699 303.468 66.3358 302.49 66.1518C303.203 66.1246 303.896 65.7362 304.297 65.1366C302.056 65.8316 299.631 65.5318 297.322 65.1094C296.514 64.9595 295.692 64.8028 294.87 64.8845C294.049 64.9663 293.145 65.1707 292.711 65.8725C293.179 65.961 293.729 66.0769 294.327 66.2949C294.918 66.5129 295.495 66.7173 295.991 67.1125C297.295 68.1414 296.908 70.3489 298.028 71.5753C298.599 72.2022 299.536 72.4611 300.344 72.2226C301.152 71.9842 301.798 71.2551 301.94 70.4171C302.64 70.9212 303.638 70.9758 304.392 70.5533C304.799 70.3217 305.159 69.8788 305.058 69.4155C304.895 68.6728 303.733 68.5433 303.509 67.8143H303.502Z" fill="#263238"/>
<path d="M280.085 64.3871C280.038 64.3803 280.079 63.7602 280.208 62.7586C280.35 61.7639 280.588 60.3671 281.206 58.9363C281.831 57.4987 282.795 56.4017 283.637 55.8225C284.479 55.2298 285.125 55.1071 285.125 55.1412C285.152 55.2025 284.554 55.4069 283.787 56.0201C283.019 56.6265 282.13 57.6962 281.525 59.0794C280.927 60.4625 280.649 61.8252 280.452 62.7995C280.255 63.7807 280.133 64.3939 280.079 64.3871H280.085Z" fill="#263238"/>
<path d="M292.181 61.8186C292.133 61.8254 292.011 61.328 291.807 60.5308C291.603 59.7405 291.318 58.6367 290.768 57.5329C290.218 56.4291 289.451 55.5911 288.805 55.1141C288.16 54.6304 287.678 54.46 287.698 54.4055C287.705 54.3715 288.235 54.4532 288.948 54.9097C289.661 55.3526 290.503 56.2179 291.081 57.3762C291.658 58.5277 291.909 59.6655 292.052 60.4831C292.188 61.3008 292.221 61.8118 292.181 61.8186Z" fill="#263238"/>
<path d="M287.203 73.4356C287.223 73.5309 286.619 73.7285 285.858 73.8784C285.097 74.0283 284.466 74.0692 284.445 73.967C284.425 73.8716 285.029 73.674 285.79 73.5241C286.551 73.3742 287.182 73.3334 287.203 73.4356Z" fill="#263238"/>
<path d="M287.95 72.7678C287.97 72.8632 287.366 73.0608 286.605 73.2107C285.844 73.3606 285.213 73.4015 285.192 73.2993C285.172 73.2039 285.776 73.0063 286.537 72.8564C287.298 72.7065 287.929 72.6656 287.95 72.7678Z" fill="#263238"/>
<path d="M296.038 76.8764C296.052 76.9717 295.577 77.1148 294.979 77.1966C294.381 77.2783 293.885 77.2647 293.872 77.1693C293.858 77.0739 294.334 76.9309 294.931 76.8491C295.529 76.7673 296.025 76.781 296.032 76.8764H296.038Z" fill="#263238"/>
<path d="M296.887 75.9973C296.908 76.0927 296.127 76.3652 295.122 76.4879C294.116 76.6173 293.295 76.5492 293.295 76.4538C293.295 76.3516 294.096 76.263 295.081 76.1404C296.066 76.0177 296.867 75.9019 296.887 76.0041V75.9973Z" fill="#263238"/>
<path d="M294.449 78.9816C294.449 78.9816 294.096 78.9816 293.6 78.7227C293.111 78.4774 292.486 77.946 292.154 77.1488C291.821 76.3448 291.889 75.5272 292.059 75.0094C292.228 74.4779 292.459 74.2122 292.48 74.2258C292.514 74.2463 292.33 74.5324 292.208 75.0503C292.079 75.5613 292.045 76.3244 292.351 77.0739C292.663 77.8165 293.227 78.3344 293.675 78.6001C294.13 78.8794 294.463 78.9544 294.449 78.9885V78.9816Z" fill="white"/>
<path d="M283.882 74.7165C283.841 74.7574 283.345 74.0624 283.284 73.0472C283.209 72.032 283.61 71.2825 283.658 71.3165C283.719 71.337 283.427 72.0797 283.495 73.0335C283.549 73.9874 283.943 74.6824 283.882 74.7165Z" fill="white"/>
<path d="M258.204 120.121L256.642 125.736L273.783 128.74L276.785 113.996L258.204 120.121Z" fill="#455A64"/>
<path d="M276.785 113.996L250.977 127.895L237.401 143.464C237.401 143.464 214.677 140.964 210.521 138.184C206.364 135.404 199.159 125.674 199.159 125.674C199.159 125.674 213.427 112.333 217.516 106.774C221.604 101.214 226.318 98.1546 227.703 96.2127C229.089 94.2709 248.206 80.0921 260.675 80.0921C260.675 80.0921 267.582 79.254 270.618 82.1021C270.618 82.1021 276.887 99.5173 277.26 100.301C277.634 101.078 276.785 114.01 276.785 114.01" fill="#455A64"/>
<g opacity="0.3">
<path d="M229.387 120.537C233.096 116.265 232.016 109.336 235.486 104.866C237.198 102.665 239.826 101.357 242.488 100.526C245.15 99.7013 247.921 99.2788 250.584 98.4544C253.64 97.5073 256.512 96.0288 259.127 94.1824C255.331 95.1226 251.534 96.0629 247.738 97.0031C247.195 97.1394 246.631 97.2689 246.088 97.1462C245.368 96.9827 244.838 96.4036 244.227 95.9879C242.053 94.4958 239.14 95.1022 236.593 95.7631C234.481 96.315 232.165 97.01 231.017 98.87C230.114 100.335 230.168 102.175 230.209 103.898C230.331 109.083 230.073 114.275 229.428 119.419" fill="black"/>
</g>
<path d="M243.269 81.2096C243.269 81.2096 258.061 77.8573 262.312 78.0754C267.875 78.3615 271.209 83.6215 271.209 83.6215V93.3989L245.592 98.7066L243.262 81.2096H243.269Z" fill="#455A64"/>
<path d="M268.065 91.2866C268.004 91.2662 268.194 90.6257 268.336 89.5628C268.479 88.4999 268.527 87.0078 268.241 85.3998C267.949 83.7918 267.386 82.4087 266.883 81.4616C266.38 80.5145 265.98 79.9763 266.027 79.9354C266.054 79.9081 266.53 80.3987 267.1 81.3322C267.671 82.2656 268.289 83.676 268.588 85.3317C268.88 86.9873 268.791 88.5272 268.588 89.5969C268.377 90.6734 268.105 91.2935 268.072 91.2866H268.065Z" fill="#263238"/>
<path d="M201.706 129.613C201.665 129.64 201.21 129.081 200.497 128.148C199.784 127.214 198.826 125.913 197.78 124.468C197.522 124.114 197.25 123.794 196.924 123.589C196.605 123.385 196.225 123.317 195.872 123.365C195.152 123.453 194.595 123.896 194.242 124.325C193.882 124.761 193.671 125.191 193.522 125.477C193.373 125.77 193.291 125.926 193.264 125.92C193.243 125.913 193.284 125.736 193.393 125.422C193.508 125.116 193.685 124.659 194.045 124.169C194.391 123.685 194.996 123.16 195.831 123.038C196.238 122.976 196.714 123.044 197.108 123.29C197.502 123.528 197.801 123.889 198.072 124.257C199.118 125.708 200.048 127.03 200.707 127.998C201.366 128.965 201.753 129.578 201.712 129.606L201.706 129.613Z" fill="#263238"/>
<path d="M258.108 96.1719C258.129 96.2673 255.338 96.9214 251.881 97.6368C248.417 98.3522 245.599 98.8496 245.578 98.7542C245.558 98.6588 248.349 98.0047 251.813 97.2893C255.276 96.5739 258.095 96.0765 258.115 96.1719H258.108Z" fill="#263238"/>
<path d="M275.372 115.202C275.413 115.291 270.455 117.846 264.289 120.912C258.122 123.978 253.096 126.39 253.049 126.308C253.008 126.219 257.966 123.664 264.132 120.598C270.292 117.532 275.325 115.12 275.372 115.202Z" fill="#263238"/>
<path d="M243.378 82.0205C243.378 82.0205 223.574 86.1972 222.209 88.9975C220.674 92.1589 219.954 127.241 219.954 127.241L228.104 127.589C228.104 127.589 233.374 99.8309 233.333 99.4289L245.354 96.8194L243.385 82.0205H243.378Z" fill="#FFBE9D"/>
<path d="M219.927 126.308C219.927 126.308 218.711 133.578 218.99 134.402C219.275 135.227 217.91 142.722 218.949 142.981C219.988 143.24 219.533 142.749 219.886 141.584C220.239 140.419 220.47 137.509 220.98 137.591C221.489 137.673 220.81 146.701 221.115 147.076C221.421 147.443 221.611 148.288 222.168 147.273C222.168 147.273 222.501 148.772 223.363 148.677C224.226 148.581 225.007 148.111 225.116 147.294C225.224 146.476 226.521 139.983 226.521 139.983C226.521 139.983 225.19 147.178 225.903 147.314C226.623 147.45 226.474 147.675 227.194 146.926C227.907 146.176 229.021 141.489 229.021 141.489L229.218 135.792C229.218 135.792 230.168 140.051 230.807 140.698C231.445 141.345 232.756 141.931 233.394 141.298C234.033 140.664 233.442 140.201 232.994 139.519C232.545 138.831 231.37 133.578 230.949 132.59C230.528 131.602 227.513 126.472 227.513 126.472L219.92 126.315L219.927 126.308Z" fill="#FFBE9D"/>
<path d="M141.886 242.88C140.875 243.493 149.398 248.725 158.077 249.979C163.945 250.824 270.55 249.788 270.55 249.788C270.55 249.788 276.628 249.788 275.82 248.364C275.012 246.94 270.761 246.477 267.718 246.511C265.735 246.532 166.39 246.947 161.548 246.511C154.675 245.898 142.905 242.266 141.893 242.873L141.886 242.88Z" fill="#B731FF"/>
<path d="M275.467 247.969C275.467 247.969 275.352 247.983 275.121 247.99C274.876 247.99 274.537 247.996 274.102 248.003C273.192 248.01 271.875 248.024 270.19 248.037C266.781 248.051 261.864 248.065 255.799 248.085C243.636 248.085 226.861 248.099 208.334 248.112C189.216 248.078 171.966 248.051 159.823 248.031H159.809C154.016 247.499 149.527 246.007 146.559 244.794C143.591 243.561 142.077 242.627 142.077 242.627C142.077 242.627 142.179 242.668 142.375 242.764C142.579 242.866 142.864 243.009 143.231 243.186C143.992 243.547 145.112 244.079 146.607 244.671C149.581 245.843 154.057 247.288 159.823 247.785H159.809C171.952 247.778 189.196 247.772 208.32 247.758C226.847 247.792 243.629 247.819 255.786 247.84C261.85 247.867 266.761 247.887 270.17 247.901C271.854 247.915 273.172 247.928 274.082 247.935C274.516 247.942 274.856 247.949 275.1 247.956C275.331 247.956 275.447 247.976 275.447 247.976L275.467 247.969Z" fill="#263238"/>
<path d="M244.6 260.847C247.5 260.847 249.85 258.489 249.85 255.58C249.85 252.671 247.5 250.313 244.6 250.313C241.701 250.313 239.35 252.671 239.35 255.58C239.35 258.489 241.701 260.847 244.6 260.847Z" fill="#455A64"/>
<path d="M249.327 255.58C249.286 255.58 249.307 255.157 249.11 254.442C248.919 253.74 248.437 252.704 247.385 251.914C246.862 251.526 246.203 251.199 245.449 251.069C244.695 250.947 243.853 250.974 243.052 251.28C242.25 251.573 241.483 252.118 240.94 252.882C240.383 253.631 240.063 254.592 240.057 255.58C240.063 256.568 240.383 257.528 240.94 258.278C241.483 259.034 242.25 259.586 243.052 259.879C243.853 260.192 244.702 260.22 245.449 260.09C246.203 259.961 246.862 259.634 247.385 259.245C248.444 258.455 248.919 257.419 249.11 256.718C249.3 256.002 249.286 255.573 249.327 255.58C249.341 255.58 249.347 255.682 249.347 255.886C249.347 256.084 249.327 256.384 249.245 256.758C249.089 257.494 248.634 258.591 247.534 259.45C246.991 259.872 246.298 260.233 245.497 260.383C244.702 260.526 243.799 260.513 242.929 260.186C242.067 259.879 241.238 259.3 240.648 258.482C240.043 257.678 239.697 256.643 239.69 255.573C239.697 254.51 240.043 253.468 240.648 252.67C241.238 251.86 242.06 251.274 242.929 250.967C243.792 250.647 244.695 250.626 245.497 250.769C246.298 250.919 246.991 251.28 247.534 251.703C248.627 252.568 249.089 253.665 249.245 254.394C249.327 254.769 249.354 255.062 249.347 255.266C249.347 255.464 249.341 255.573 249.327 255.573V255.58Z" fill="#263238"/>
<path d="M169.718 260.847C172.617 260.847 174.968 258.489 174.968 255.58C174.968 252.671 172.617 250.313 169.718 250.313C166.818 250.313 164.468 252.671 164.468 255.58C164.468 258.489 166.818 260.847 169.718 260.847Z" fill="#455A64"/>
<path d="M174.445 255.58C174.404 255.58 174.424 255.157 174.227 254.442C174.037 253.74 173.555 252.704 172.502 251.914C171.979 251.526 171.321 251.199 170.567 251.069C169.813 250.947 168.971 250.974 168.169 251.28C167.368 251.573 166.601 252.118 166.057 252.882C165.5 253.631 165.181 254.592 165.174 255.58C165.181 256.568 165.5 257.528 166.057 258.278C166.601 259.034 167.368 259.586 168.169 259.879C168.971 260.192 169.82 260.22 170.567 260.09C171.321 259.961 171.979 259.634 172.502 259.245C173.562 258.455 174.037 257.419 174.227 256.718C174.418 256.002 174.404 255.573 174.445 255.58C174.458 255.58 174.465 255.682 174.465 255.886C174.465 256.084 174.445 256.384 174.363 256.758C174.207 257.494 173.752 258.591 172.652 259.45C172.108 259.872 171.416 260.233 170.614 260.383C169.82 260.526 168.916 260.513 168.047 260.186C167.185 259.879 166.356 259.3 165.765 258.482C165.161 257.678 164.814 256.643 164.808 255.573C164.814 254.51 165.161 253.468 165.765 252.67C166.356 251.86 167.185 251.274 168.047 250.967C168.91 250.647 169.813 250.626 170.614 250.769C171.416 250.919 172.108 251.28 172.652 251.703C173.745 252.568 174.207 253.665 174.363 254.394C174.445 254.769 174.472 255.062 174.465 255.266C174.465 255.464 174.458 255.573 174.445 255.573V255.58Z" fill="#263238"/>
<path d="M308.643 260.847C308.643 259.457 308.582 169.069 308.487 34.6327L308.643 34.7894C254.937 34.7894 193.352 34.8031 128.181 34.8099H128.161L128.338 34.6327C128.324 118.377 128.317 196.214 128.31 260.847L128.161 260.697C237 260.785 307.414 260.847 308.643 260.847C307.421 260.847 237 260.908 128.161 260.997H128.012V260.847C128.005 196.214 127.991 118.377 127.984 34.6327V34.4556H128.161H128.181C193.352 34.4556 254.937 34.4692 308.643 34.476H308.8V34.6327C308.704 169.069 308.643 259.457 308.643 260.847Z" fill="#B731FF"/>
<path d="M310.192 257.562H305.37V262.4H310.192V257.562Z" fill="white"/>
<path d="M310.199 262.4C310.199 262.4 310.151 261.869 310.124 261.017C310.097 260.165 310.063 258.973 310.049 257.556L310.205 257.712C308.779 257.719 307.136 257.726 305.384 257.74C305.343 257.781 305.716 257.406 305.56 257.563V257.644V257.726V257.89V258.217C305.56 258.435 305.56 258.653 305.56 258.864C305.56 259.293 305.56 259.709 305.56 260.118C305.56 260.922 305.547 261.692 305.54 262.4L305.384 262.243C306.796 262.257 307.985 262.291 308.834 262.318C309.682 262.346 310.185 262.373 310.212 262.393C310.239 262.414 309.778 262.441 308.935 262.468C308.093 262.496 306.871 262.53 305.39 262.543H305.241V262.387C305.241 261.678 305.227 260.908 305.221 260.104C305.221 259.695 305.221 259.28 305.221 258.85C305.221 258.639 305.221 258.421 305.221 258.203V257.876V257.712V257.556C305.064 257.706 305.438 257.331 305.397 257.372C307.149 257.379 308.793 257.385 310.219 257.399H310.375V257.556C310.362 259.041 310.328 260.274 310.301 261.112C310.273 261.957 310.246 262.421 310.226 262.393L310.199 262.4Z" fill="#B731FF"/>
<path d="M220.857 257.562H216.035V262.4H220.857V257.562Z" fill="white"/>
<path d="M220.857 262.4C220.857 262.4 220.81 261.869 220.783 261.017C220.755 260.165 220.722 258.973 220.708 257.556L220.864 257.712C219.438 257.719 217.794 257.726 216.042 257.74C216.001 257.781 216.375 257.406 216.219 257.563V257.89V258.217C216.219 258.435 216.219 258.653 216.219 258.864C216.219 259.293 216.219 259.709 216.219 260.118C216.219 260.922 216.205 261.692 216.198 262.4L216.042 262.243C217.455 262.257 218.643 262.291 219.492 262.318C220.341 262.346 220.844 262.373 220.871 262.393C220.891 262.414 220.436 262.441 219.594 262.468C218.752 262.496 217.53 262.53 216.049 262.543H215.9V262.387C215.9 261.678 215.886 260.908 215.879 260.104C215.879 259.695 215.879 259.28 215.879 258.85C215.879 258.639 215.879 258.421 215.879 258.203V257.876V257.712V257.556C215.723 257.706 216.097 257.331 216.056 257.372C217.808 257.379 219.452 257.385 220.878 257.399H221.034V257.556C221.02 259.041 220.986 260.274 220.959 261.112C220.932 261.957 220.905 262.421 220.885 262.393L220.857 262.4Z" fill="#B731FF"/>
<path d="M131.516 257.562H126.694V262.4H131.516V257.562Z" fill="white"/>
<path d="M131.516 262.4C131.516 262.4 131.468 261.869 131.441 261.017C131.414 260.165 131.38 258.973 131.367 257.556L131.523 257.712C130.097 257.719 128.453 257.726 126.701 257.74C126.66 257.781 127.034 257.406 126.877 257.563V257.89V258.217C126.877 258.435 126.877 258.653 126.877 258.864C126.877 259.293 126.877 259.709 126.877 260.118C126.877 260.922 126.864 261.692 126.857 262.4L126.701 262.243C128.114 262.257 129.302 262.291 130.151 262.318C131 262.346 131.502 262.373 131.53 262.393C131.55 262.414 131.095 262.441 130.253 262.468C129.411 262.496 128.188 262.53 126.708 262.543H126.558V262.387C126.558 261.678 126.545 260.908 126.538 260.104C126.538 259.695 126.538 259.28 126.538 258.85C126.538 258.639 126.538 258.421 126.538 258.203V257.876V257.712V257.59V257.569V257.556C126.382 257.706 126.755 257.331 126.714 257.372C128.467 257.379 130.11 257.385 131.536 257.399H131.693V257.556C131.679 259.041 131.645 260.274 131.618 261.112C131.591 261.957 131.564 262.421 131.543 262.393L131.516 262.4Z" fill="#B731FF"/>
<path d="M310.158 32.4661H305.336V37.3036H310.158V32.4661Z" fill="white"/>
<path d="M310.158 37.3105C310.158 37.3105 310.11 36.7791 310.083 35.9274C310.056 35.0757 310.022 33.8834 310.008 32.4662L310.165 32.6229C308.738 32.6297 307.095 32.6365 305.343 32.6501C305.302 32.691 305.676 32.3163 305.519 32.473V32.8V33.1271C305.519 33.3451 305.519 33.5631 305.519 33.7743C305.519 34.2036 305.519 34.6192 305.519 35.028C305.519 35.832 305.506 36.6019 305.499 37.3105L305.343 37.1538C306.755 37.1674 307.944 37.2015 308.793 37.2288C309.642 37.256 310.144 37.2833 310.171 37.3037C310.192 37.3242 309.737 37.3514 308.895 37.3787C308.053 37.4059 306.83 37.44 305.35 37.4536H305.2V37.2969C305.2 36.5883 305.187 35.8184 305.18 35.0144C305.18 34.6056 305.18 34.19 305.18 33.7607C305.18 33.5495 305.18 33.3315 305.18 33.1134V32.7864V32.6229V32.5411V32.5002V32.4662C305.024 32.6161 305.397 32.2413 305.356 32.2822C307.109 32.289 308.752 32.2958 310.178 32.3094H310.334V32.4662C310.321 33.9515 310.287 35.1847 310.26 36.0228C310.233 36.8677 310.205 37.331 310.185 37.3037L310.158 37.3105Z" fill="#B731FF"/>
<path d="M220.817 32.4661H215.995V37.3036H220.817V32.4661Z" fill="white"/>
<path d="M220.817 37.3105C220.817 37.3105 220.769 36.7791 220.742 35.9274C220.715 35.0757 220.681 33.8834 220.667 32.4662L220.823 32.6229C219.397 32.6297 217.754 32.6365 216.001 32.6501C215.961 32.691 216.334 32.3163 216.178 32.473V32.8V33.1271C216.178 33.3451 216.178 33.5631 216.178 33.7743C216.178 34.2036 216.178 34.6192 216.178 35.028C216.178 35.832 216.164 36.6019 216.158 37.3105L216.001 37.1538C217.414 37.1674 218.603 37.2015 219.451 37.2288C220.3 37.256 220.803 37.2833 220.83 37.3037C220.851 37.3242 220.395 37.3514 219.553 37.3787C218.711 37.4059 217.489 37.44 216.008 37.4536H215.859V37.2969C215.859 36.5883 215.845 35.8184 215.838 35.0144C215.838 34.6056 215.838 34.19 215.838 33.7607C215.838 33.5495 215.838 33.3315 215.838 33.1134V32.7864V32.6229V32.5411V32.5002V32.4662C215.682 32.6161 216.056 32.2413 216.015 32.2822C217.767 32.289 219.411 32.2958 220.837 32.3094H220.993V32.4662C220.98 33.9515 220.946 35.1847 220.918 36.0228C220.891 36.8677 220.864 37.331 220.844 37.3037L220.817 37.3105Z" fill="#B731FF"/>
<path d="M131.475 32.4661H126.653V37.3036H131.475V32.4661Z" fill="white"/>
<path d="M131.475 37.3105C131.475 37.3105 131.428 36.7791 131.401 35.9274C131.373 35.0757 131.339 33.8834 131.326 32.4662L131.482 32.6229C130.056 32.6297 128.412 32.6365 126.66 32.6501C126.619 32.691 126.993 32.3163 126.837 32.473V32.6365V32.8V33.1271C126.837 33.3451 126.837 33.5631 126.837 33.7743C126.837 34.2036 126.837 34.6192 126.837 35.028C126.837 35.832 126.823 36.6019 126.816 37.3105L126.66 37.1538C128.073 37.1674 129.261 37.2015 130.11 37.2288C130.959 37.256 131.462 37.2833 131.489 37.3037C131.509 37.3242 131.054 37.3514 130.212 37.3787C129.37 37.4059 128.147 37.44 126.667 37.4536H126.518V37.2969C126.518 36.5883 126.504 35.8184 126.497 35.0144C126.497 34.6056 126.497 34.19 126.497 33.7607C126.497 33.5495 126.497 33.3315 126.497 33.1134V32.7864V32.6229V32.4662C126.341 32.6161 126.714 32.2413 126.674 32.2822C128.426 32.289 130.069 32.2958 131.496 32.3094H131.652V32.4662C131.638 33.9515 131.604 35.1847 131.577 36.0228C131.55 36.8677 131.523 37.331 131.502 37.3037L131.475 37.3105Z" fill="#B731FF"/>
<path d="M131.475 140.923H126.653V145.76H131.475V140.923Z" fill="white"/>
<path d="M131.475 145.76C131.475 145.76 131.428 145.229 131.401 144.377C131.373 143.526 131.339 142.333 131.326 140.916L131.482 141.073C130.056 141.08 128.412 141.086 126.66 141.1C126.619 141.141 126.993 140.766 126.837 140.923V141.086V141.25V141.577C126.837 141.795 126.837 142.013 126.837 142.224C126.837 142.654 126.837 143.069 126.837 143.478C126.837 144.282 126.823 145.052 126.816 145.76L126.66 145.604C128.073 145.617 129.261 145.651 130.11 145.679C130.959 145.706 131.462 145.733 131.489 145.754C131.509 145.774 131.054 145.801 130.212 145.829C129.37 145.856 128.147 145.89 126.667 145.904H126.518V145.747C126.518 145.038 126.504 144.268 126.497 143.464C126.497 143.056 126.497 142.64 126.497 142.211C126.497 141.999 126.497 141.781 126.497 141.563V141.236V141.073V140.916C126.341 141.066 126.714 140.691 126.674 140.725C128.426 140.732 130.069 140.739 131.496 140.753H131.652V140.909C131.638 142.395 131.604 143.628 131.577 144.466C131.55 145.311 131.523 145.774 131.502 145.747L131.475 145.76Z" fill="#B731FF"/>
<path d="M311.326 132.658H306.504V137.496H311.326V132.658Z" fill="white"/>
<path d="M311.333 137.496C311.333 137.496 311.285 136.964 311.258 136.113C311.231 135.261 311.197 134.069 311.184 132.651L311.34 132.808C309.914 132.815 308.27 132.822 306.518 132.835C306.477 132.876 306.851 132.502 306.694 132.658V132.985V133.312C306.694 133.53 306.694 133.748 306.694 133.96C306.694 134.389 306.694 134.805 306.694 135.213C306.694 136.017 306.681 136.787 306.674 137.496L306.518 137.339C307.93 137.353 309.119 137.387 309.968 137.414C310.817 137.441 311.319 137.469 311.347 137.489C311.367 137.509 310.912 137.537 310.07 137.564C309.228 137.591 308.005 137.625 306.525 137.639H306.375V137.482C306.375 136.774 306.362 136.004 306.355 135.2C306.355 134.791 306.355 134.375 306.355 133.946C306.355 133.735 306.355 133.517 306.355 133.299V132.972V132.808V132.726V132.686V132.651C306.199 132.801 306.572 132.427 306.531 132.461C308.284 132.468 309.927 132.474 311.353 132.488H311.509V132.645C311.496 134.13 311.462 135.363 311.435 136.201C311.408 137.046 311.38 137.509 311.36 137.482L311.333 137.496Z" fill="#B731FF"/>
<path d="M227.818 94.8436C228.179 94.8436 228.47 94.5507 228.47 94.1895C228.47 93.8283 228.179 93.5354 227.818 93.5354C227.458 93.5354 227.167 93.8283 227.167 94.1895C227.167 94.5507 227.458 94.8436 227.818 94.8436Z" fill="#B731FF"/>
<path d="M273.783 113.022C274.143 113.022 274.435 112.729 274.435 112.368C274.435 112.006 274.143 111.714 273.783 111.714C273.423 111.714 273.131 112.006 273.131 112.368C273.131 112.729 273.423 113.022 273.783 113.022Z" fill="#B731FF"/>
<path d="M261.579 141.89C261.939 141.89 262.231 141.598 262.231 141.236C262.231 140.875 261.939 140.582 261.579 140.582C261.219 140.582 260.927 140.875 260.927 141.236C260.927 141.598 261.219 141.89 261.579 141.89Z" fill="#B731FF"/>
<path d="M271.209 170.003C271.569 170.003 271.861 169.71 271.861 169.349C271.861 168.987 271.569 168.695 271.209 168.695C270.849 168.695 270.557 168.987 270.557 169.349C270.557 169.71 270.849 170.003 271.209 170.003Z" fill="#B731FF"/>
<path d="M265.151 84.8686C265.192 85.2297 264.934 85.5499 264.581 85.5908C264.221 85.6317 263.901 85.3728 263.861 85.0185C263.82 84.6574 264.078 84.3371 264.431 84.2962C264.791 84.2554 265.11 84.5143 265.151 84.8686Z" fill="#B731FF"/>
<path d="M224.959 131.221C225.319 131.221 225.611 130.928 225.611 130.566C225.611 130.205 225.319 129.912 224.959 129.912C224.599 129.912 224.307 130.205 224.307 130.566C224.307 130.928 224.599 131.221 224.959 131.221Z" fill="#B731FF"/>
<path d="M269.769 97.93C269.769 98.5705 269.253 99.0883 268.615 99.0883C267.976 99.0883 267.46 98.5705 267.46 97.93C267.46 97.2895 267.976 96.7717 268.615 96.7717C269.253 96.7717 269.769 97.2895 269.769 97.93Z" fill="#B731FF"/>
<path d="M241.917 115.209C242.555 115.209 243.072 114.69 243.072 114.051C243.072 113.411 242.555 112.892 241.917 112.892C241.28 112.892 240.763 113.411 240.763 114.051C240.763 114.69 241.28 115.209 241.917 115.209Z" fill="#B731FF"/>
<path d="M230.793 147.648C231.431 147.648 231.948 147.129 231.948 146.49C231.948 145.85 231.431 145.331 230.793 145.331C230.156 145.331 229.639 145.85 229.639 146.49C229.639 147.129 230.156 147.648 230.793 147.648Z" fill="#B731FF"/>
<path d="M250.862 187.302C251.499 187.302 252.016 186.784 252.016 186.144C252.016 185.504 251.499 184.986 250.862 184.986C250.224 184.986 249.707 185.504 249.707 186.144C249.707 186.784 250.224 187.302 250.862 187.302Z" fill="#B731FF"/>
<path d="M190.337 191.111C190.337 191.751 189.821 192.269 189.182 192.269C188.544 192.269 188.028 191.751 188.028 191.111C188.028 190.47 188.544 189.953 189.182 189.953C189.821 189.953 190.337 190.47 190.337 191.111Z" fill="#B731FF"/>
<path d="M142.233 208.295C142.871 208.295 143.387 207.776 143.387 207.136C143.387 206.497 142.871 205.978 142.233 205.978C141.595 205.978 141.078 206.497 141.078 207.136C141.078 207.776 141.595 208.295 142.233 208.295Z" fill="#B731FF"/>
<path d="M235.826 234.67C235.826 235.31 235.31 235.828 234.671 235.828C234.033 235.828 233.517 235.31 233.517 234.67C233.517 234.029 234.033 233.511 234.671 233.511C235.31 233.511 235.826 234.029 235.826 234.67Z" fill="#B731FF"/>
<path d="M203.913 135.445C204.55 135.445 205.067 134.926 205.067 134.287C205.067 133.647 204.55 133.128 203.913 133.128C203.275 133.128 202.758 133.647 202.758 134.287C202.758 134.926 203.275 135.445 203.913 135.445Z" fill="#B731FF"/>
<path d="M271.209 170.003C271.209 170.003 271.141 169.832 271.019 169.499C270.897 169.151 270.727 168.654 270.496 168.006C270.041 166.678 269.382 164.743 268.533 162.263C266.849 157.268 264.418 150.087 261.45 141.284L261.436 141.236L261.456 141.189C264.92 132.965 269.07 123.106 273.627 112.299V112.422C271.413 106.181 269.042 99.5038 266.598 92.6154C265.687 90.0399 264.784 87.4985 263.901 85.0047L264.112 85.1138C250.78 88.5069 238.427 91.6479 227.866 94.3324L227.975 94.2029C227.085 105.357 226.352 114.609 225.835 121.089C225.571 124.312 225.36 126.839 225.217 128.584C225.143 129.435 225.082 130.096 225.041 130.553C225 130.996 224.966 131.227 224.966 131.227C224.966 131.227 224.966 130.996 224.993 130.553C225.02 130.096 225.068 129.435 225.122 128.584C225.245 126.846 225.428 124.312 225.659 121.082C226.148 114.602 226.84 105.343 227.676 94.1893V94.0803L227.785 94.053C238.345 91.3481 250.692 88.1866 264.017 84.7799L264.173 84.739L264.227 84.8889C265.11 87.3826 266.013 89.9309 266.924 92.4995C269.362 99.388 271.732 106.072 273.939 112.313L273.959 112.374L273.932 112.436C269.355 123.228 265.178 133.081 261.701 141.298V141.202C264.628 150.019 267.019 157.214 268.676 162.215C269.491 164.702 270.129 166.644 270.571 167.979C270.781 168.633 270.944 169.137 271.053 169.485C271.161 169.826 271.202 170.003 271.202 170.003H271.209Z" fill="#B731FF"/>
<path d="M234.671 234.669C234.671 234.669 234.691 234.588 234.732 234.431C234.787 234.267 234.854 234.036 234.95 233.743C235.147 233.123 235.439 232.23 235.812 231.072C236.579 228.728 237.7 225.328 239.113 221.042C241.965 212.451 245.992 200.316 250.706 186.096V186.226C246.658 178.22 242.21 169.437 237.551 160.246C235.18 155.565 232.865 150.986 230.637 146.578L230.603 146.51L230.63 146.442C234.814 134.28 238.631 123.201 241.795 114.01L241.816 113.962L241.863 113.935C250.04 109.383 256.723 105.663 261.368 103.074C263.684 101.793 265.491 100.798 266.733 100.11C267.345 99.7763 267.813 99.5242 268.139 99.3471C268.458 99.1767 268.628 99.095 268.628 99.095C268.628 99.095 268.472 99.1972 268.16 99.3811C267.834 99.5651 267.372 99.8376 266.774 100.178C265.538 100.88 263.745 101.902 261.443 103.21C256.811 105.827 250.149 109.581 241.999 114.18L242.06 114.105C238.916 123.303 235.126 134.389 230.963 146.558V146.421C233.184 150.83 235.506 155.408 237.877 160.089C242.522 169.28 246.97 178.07 251.018 186.082L251.052 186.144L251.032 186.212C246.264 200.411 242.196 212.532 239.316 221.117C237.87 225.389 236.722 228.782 235.928 231.12C235.534 232.271 235.228 233.164 235.011 233.777C234.909 234.07 234.827 234.295 234.766 234.458C234.712 234.608 234.678 234.683 234.678 234.683L234.671 234.669Z" fill="#B731FF"/>
<path d="M142.471 207.136C142.471 207.136 142.545 207.095 142.702 207.041C142.871 206.98 143.102 206.891 143.394 206.789C144.019 206.564 144.916 206.244 146.063 205.842C148.406 205.024 151.782 203.845 155.965 202.387C164.38 199.485 176.047 195.465 189.128 190.954L189.012 191.077C189.379 189.66 189.766 188.154 190.16 186.635C193.929 172.183 197.339 159.094 199.811 149.61C201.06 144.888 202.072 141.066 202.779 138.402C203.132 137.094 203.41 136.072 203.6 135.356C203.695 135.023 203.77 134.764 203.824 134.566C203.879 134.389 203.906 134.3 203.913 134.3C203.913 134.3 203.899 134.396 203.858 134.573C203.811 134.77 203.75 135.036 203.668 135.37C203.492 136.085 203.234 137.114 202.908 138.429C202.228 141.1 201.257 144.936 200.055 149.671C197.603 159.169 194.228 172.258 190.5 186.723C190.106 188.242 189.712 189.748 189.345 191.165L189.318 191.261L189.23 191.288C176.129 195.758 164.454 199.744 156.026 202.619C151.829 204.036 148.447 205.174 146.09 205.971C144.936 206.353 144.033 206.652 143.401 206.864C143.102 206.959 142.871 207.034 142.702 207.089C142.545 207.136 142.464 207.157 142.457 207.157L142.471 207.136Z" fill="#B731FF"/>
<path d="M100.629 137.871H0.210449V177.034H100.629V137.871Z" fill="white"/>
<path d="M100.629 137.871H0.210449V146.265H100.629V137.871Z" fill="#B731FF"/>
<path d="M15.7968 156.737H5.87451V166.692H15.7968V156.737Z" fill="white"/>
<path d="M15.79 166.692C15.79 166.692 15.7629 166.412 15.7493 165.935C15.7357 165.404 15.7221 164.722 15.7017 163.891C15.6814 162.099 15.6474 159.646 15.6067 156.737L15.79 156.921C12.8901 156.928 9.49438 156.941 5.86775 156.948C5.82021 156.996 6.26844 156.546 6.07828 156.737V156.907V157.078V157.418V158.093C6.07828 158.543 6.07828 158.985 6.07828 159.422C6.07828 160.3 6.07828 161.159 6.07828 161.997C6.07149 163.666 6.0647 165.24 6.05791 166.692L5.87454 166.508C8.78128 166.548 11.2194 166.576 13.0055 166.603C13.8341 166.623 14.5132 166.637 15.043 166.651C15.5184 166.664 15.7832 166.678 15.7968 166.692C15.8104 166.705 15.5727 166.719 15.1245 166.732C14.6083 166.746 13.9428 166.76 13.1278 166.78C11.396 166.814 8.88994 166.855 5.87454 166.875H5.69117V166.692C5.69117 165.24 5.67759 163.666 5.6708 161.997C5.6708 161.159 5.6708 160.3 5.6708 159.422C5.6708 158.985 5.6708 158.536 5.6708 158.093V157.418V157.078V156.744C5.48064 156.928 5.92887 156.478 5.88133 156.519C9.50796 156.533 12.9037 156.539 15.8036 156.546H15.987V156.73C15.9666 159.755 15.9259 162.27 15.8919 164.007C15.8715 164.825 15.858 165.486 15.8444 166.01C15.8308 166.467 15.8172 166.705 15.8036 166.685L15.79 166.692Z" fill="#263238"/>
<path d="M5.87455 166.691C5.79306 166.609 7.94594 164.313 10.6829 161.568C13.4198 158.822 15.7086 156.655 15.7968 156.744C15.8851 156.832 13.7255 159.121 10.9885 161.874C8.25156 164.62 5.96284 166.787 5.88135 166.698L5.87455 166.691Z" fill="#B731FF"/>
<path d="M28.7006 156.737H18.7783V166.692H28.7006V156.737Z" fill="#263238"/>
<path d="M41.611 156.737H31.6887V166.692H41.611V156.737Z" fill="#455A64"/>
<path d="M54.5217 156.737H44.5994V166.692H54.5217V156.737Z" fill="#B731FF"/>
<path d="M67.4321 156.737H57.5098V166.692H67.4321V156.737Z" fill="#B731FF"/>
<g opacity="0.5">
<path d="M67.4321 156.737H57.5098V166.692H67.4321V156.737Z" fill="white"/>
</g>
<path d="M80.3427 156.737H70.4204V166.692H80.3427V156.737Z" fill="#B731FF"/>
<g opacity="0.3">
<path d="M80.3427 156.737H70.4204V166.692H80.3427V156.737Z" fill="black"/>
</g>
<path d="M93.2531 156.737H83.3308V166.692H93.2531V156.737Z" fill="#B731FF"/>
<g opacity="0.7">
<path d="M93.2531 156.737H83.3308V166.692H93.2531V156.737Z" fill="black"/>
</g>
<path d="M100.629 177.034C100.629 177.034 100.622 176.789 100.615 176.333C100.615 175.863 100.608 175.188 100.602 174.309C100.595 172.524 100.581 169.908 100.568 166.528C100.547 159.776 100.52 150.005 100.486 137.871L100.635 138.021C75.4325 138.034 39.7435 138.061 0.224117 138.089L0.434652 137.877C0.434652 151.573 0.434652 164.804 0.42786 177.041L0.224117 176.837C29.2643 176.878 54.3451 176.912 72.1726 176.932C81.0897 176.959 88.1936 176.973 93.0834 176.987C95.5215 177 97.4027 177.007 98.6863 177.014C99.3179 177.014 99.8001 177.021 100.14 177.028C100.466 177.028 100.642 177.041 100.642 177.041C100.642 177.041 100.486 177.048 100.167 177.055C99.8341 177.055 99.3587 177.062 98.7407 177.069C97.4639 177.069 95.5962 177.082 93.1785 177.096C88.3022 177.109 81.212 177.13 72.3152 177.15C54.4537 177.171 29.3254 177.205 0.230909 177.246H0.00679143V177.041C0 164.797 0 151.566 0 137.871V137.659H0.210534C39.7299 137.687 75.4121 137.707 100.622 137.728H100.771V137.877C100.737 150.053 100.71 159.851 100.69 166.623C100.676 169.983 100.663 172.592 100.656 174.37C100.649 175.243 100.642 175.91 100.642 176.374C100.642 176.823 100.629 177.041 100.629 177.041V177.034Z" fill="#263238"/>
<path d="M481.16 179.603H320.488V242.362H481.16V179.603Z" fill="white"/>
<path d="M481.153 242.355C481.153 242.355 481.146 241.974 481.139 241.245C481.139 240.509 481.132 239.425 481.126 238.008C481.119 235.16 481.105 230.97 481.098 225.553C481.085 214.74 481.058 199.062 481.03 179.596L481.153 179.719C440.818 179.733 383.723 179.753 320.495 179.774H320.481L320.658 179.596C320.658 201.543 320.658 222.746 320.651 242.355L320.481 242.185C366.982 242.219 407.126 242.246 435.65 242.267C449.926 242.287 461.288 242.301 469.091 242.314C472.989 242.321 475.998 242.328 478.042 242.335C479.061 242.335 479.835 242.342 480.358 242.348C480.881 242.348 481.153 242.362 481.153 242.362C481.153 242.362 480.895 242.369 480.379 242.376C479.856 242.376 479.088 242.376 478.083 242.389C476.052 242.389 473.057 242.403 469.166 242.41C461.369 242.423 450.021 242.437 435.766 242.457C407.214 242.478 367.03 242.505 320.481 242.539H320.311V242.369C320.311 222.76 320.311 201.556 320.304 179.61V179.433H320.495C383.723 179.453 440.818 179.474 481.153 179.487H481.275V179.61C481.248 199.11 481.227 214.808 481.207 225.642C481.193 231.038 481.187 235.228 481.18 238.07C481.18 239.48 481.173 240.556 481.166 241.286C481.166 242.008 481.153 242.369 481.153 242.369V242.355Z" fill="#263238"/>
<path d="M476.568 183.262H324.359V196.875H476.568V183.262Z" fill="#455A64"/>
<path d="M422.774 200.228H324.359V204.118H422.774V200.228Z" fill="#455A64"/>
<path d="M465.227 206.83H366.812V210.72H465.227V206.83Z" fill="#263238"/>
<path d="M371.709 213.275H324.359V217.166H371.709V213.275Z" fill="#B731FF"/>
<path d="M397.727 232.258H324.359V236.148H397.727V232.258Z" fill="#B731FF"/>
<path d="M427.324 213.275H406.821V217.166H427.324V213.275Z" fill="#B731FF"/>
<path d="M476.568 213.275H454.911V217.166H476.568V213.275Z" fill="#B731FF"/>
<path d="M349.834 202.169C349.834 203.246 348.964 204.118 347.891 204.118C346.818 204.118 345.949 203.246 345.949 202.169C345.949 201.093 346.818 200.221 347.891 200.221C348.964 200.221 349.834 201.093 349.834 202.169Z" fill="#E0E0E0"/>
<path d="M347.898 204.459C346.642 204.459 345.616 203.437 345.616 202.169C345.616 200.902 346.635 199.88 347.898 199.88C349.161 199.88 350.18 200.902 350.18 202.169C350.18 203.437 349.161 204.459 347.898 204.459ZM347.898 200.568C347.015 200.568 346.295 201.291 346.295 202.176C346.295 203.062 347.015 203.784 347.898 203.784C348.781 203.784 349.501 203.062 349.501 202.176C349.501 201.291 348.781 200.568 347.898 200.568Z" fill="#263238"/>
<path d="M391.139 208.697C391.139 209.773 390.27 210.645 389.197 210.645C388.124 210.645 387.254 209.773 387.254 208.697C387.254 207.62 388.124 206.748 389.197 206.748C390.27 206.748 391.139 207.62 391.139 208.697Z" fill="#E0E0E0"/>
<path d="M389.204 210.986C387.947 210.986 386.922 209.964 386.922 208.697C386.922 207.429 387.94 206.407 389.204 206.407C390.467 206.407 391.485 207.429 391.485 208.697C391.485 209.964 390.467 210.986 389.204 210.986ZM389.204 207.096C388.321 207.096 387.601 207.818 387.601 208.704C387.601 209.589 388.321 210.312 389.204 210.312C390.086 210.312 390.806 209.589 390.806 208.704C390.806 207.818 390.086 207.096 389.204 207.096Z" fill="#263238"/>
<path d="M417.062 201.972C417.062 203.048 416.193 203.92 415.12 203.92C414.047 203.92 413.177 203.048 413.177 201.972C413.177 200.895 414.047 200.023 415.12 200.023C416.193 200.023 417.062 200.895 417.062 201.972Z" fill="#E0E0E0"/>
<path d="M415.12 204.261C413.863 204.261 412.838 203.239 412.838 201.972C412.838 200.704 413.856 199.682 415.12 199.682C416.383 199.682 417.401 200.704 417.401 201.972C417.401 203.239 416.383 204.261 415.12 204.261ZM415.12 200.371C414.237 200.371 413.517 201.093 413.517 201.979C413.517 202.864 414.237 203.586 415.12 203.586C416.002 203.586 416.722 202.864 416.722 201.979C416.722 201.093 416.002 200.371 415.12 200.371Z" fill="#263238"/>
<path d="M452.982 221.983H324.359V225.873H452.982V221.983Z" fill="#455A64"/>
<path d="M349.834 223.932C349.834 225.008 348.964 225.88 347.891 225.88C346.818 225.88 345.949 225.008 345.949 223.932C345.949 222.855 346.818 221.983 347.891 221.983C348.964 221.983 349.834 222.855 349.834 223.932Z" fill="#E0E0E0"/>
<path d="M347.898 226.214C346.642 226.214 345.616 225.192 345.616 223.925C345.616 222.658 346.635 221.635 347.898 221.635C349.161 221.635 350.18 222.658 350.18 223.925C350.18 225.192 349.161 226.214 347.898 226.214ZM347.898 222.324C347.015 222.324 346.295 223.046 346.295 223.932C346.295 224.817 347.015 225.54 347.898 225.54C348.781 225.54 349.501 224.817 349.501 223.932C349.501 223.046 348.781 222.324 347.898 222.324Z" fill="#263238"/>
<path d="M417.062 223.727C417.062 224.804 416.193 225.676 415.12 225.676C414.047 225.676 413.177 224.804 413.177 223.727C413.177 222.651 414.047 221.779 415.12 221.779C416.193 221.779 417.062 222.651 417.062 223.727Z" fill="#E0E0E0"/>
<path d="M415.12 226.017C413.863 226.017 412.838 224.995 412.838 223.727C412.838 222.46 413.856 221.438 415.12 221.438C416.383 221.438 417.401 222.46 417.401 223.727C417.401 224.995 416.383 226.017 415.12 226.017ZM415.12 222.126C414.237 222.126 413.517 222.848 413.517 223.734C413.517 224.62 414.237 225.342 415.12 225.342C416.002 225.342 416.722 224.62 416.722 223.734C416.722 222.848 416.002 222.126 415.12 222.126Z" fill="#263238"/>
<path d="M450.795 208.772C450.795 209.848 449.926 210.72 448.853 210.72C447.78 210.72 446.91 209.848 446.91 208.772C446.91 207.695 447.78 206.823 448.853 206.823C449.926 206.823 450.795 207.695 450.795 208.772Z" fill="#E0E0E0"/>
<path d="M448.86 211.061C447.603 211.061 446.578 210.039 446.578 208.772C446.578 207.504 447.596 206.482 448.86 206.482C450.123 206.482 451.142 207.504 451.142 208.772C451.142 210.039 450.123 211.061 448.86 211.061ZM448.86 207.171C447.977 207.171 447.257 207.893 447.257 208.779C447.257 209.664 447.977 210.387 448.86 210.387C449.742 210.387 450.462 209.664 450.462 208.779C450.462 207.893 449.742 207.171 448.86 207.171Z" fill="#263238"/>
<path d="M365.766 215.224C365.766 216.3 364.897 217.172 363.824 217.172C362.751 217.172 361.882 216.3 361.882 215.224C361.882 214.147 362.751 213.275 363.824 213.275C364.897 213.275 365.766 214.147 365.766 215.224Z" fill="#E0E0E0"/>
<path d="M363.831 217.506C362.574 217.506 361.549 216.484 361.549 215.217C361.549 213.95 362.568 212.928 363.831 212.928C365.094 212.928 366.113 213.95 366.113 215.217C366.113 216.484 365.094 217.506 363.831 217.506ZM363.831 213.616C362.948 213.616 362.228 214.338 362.228 215.224C362.228 216.11 362.948 216.832 363.831 216.832C364.714 216.832 365.434 216.11 365.434 215.224C365.434 214.338 364.714 213.616 363.831 213.616Z" fill="#263238"/>
<path d="M392.45 234.445C392.45 235.521 391.581 236.393 390.508 236.393C389.434 236.393 388.565 235.521 388.565 234.445C388.565 233.368 389.434 232.496 390.508 232.496C391.581 232.496 392.45 233.368 392.45 234.445Z" fill="#E0E0E0"/>
<path d="M390.514 236.734C389.258 236.734 388.232 235.712 388.232 234.445C388.232 233.178 389.251 232.156 390.514 232.156C391.778 232.156 392.796 233.178 392.796 234.445C392.796 235.712 391.778 236.734 390.514 236.734ZM390.514 232.844C389.631 232.844 388.912 233.566 388.912 234.452C388.912 235.337 389.631 236.06 390.514 236.06C391.397 236.06 392.117 235.337 392.117 234.452C392.117 233.566 391.397 232.844 390.514 232.844Z" fill="#263238"/>
<path d="M336.237 187.473V191.234L338.254 193.189L340.264 191.227V187.473H336.237Z" fill="#B731FF"/>
<path d="M336.237 187.473C336.237 187.473 336.59 187.432 337.29 187.398C337.989 187.37 339.015 187.336 340.264 187.323H340.414V187.473C340.421 188.59 340.427 189.857 340.441 191.22V191.295L340.387 191.35C340.203 191.527 340.013 191.717 339.816 191.908C339.32 192.392 338.838 192.862 338.37 193.312L338.247 193.428L338.132 193.312C337.419 192.603 336.746 191.935 336.135 191.336L336.088 191.288V191.227C336.101 190.062 336.135 189.101 336.162 188.454C336.19 187.8 336.21 187.452 336.23 187.473C336.251 187.493 336.271 187.888 336.298 188.549C336.325 189.21 336.359 190.13 336.373 191.234L336.325 191.131C336.943 191.724 337.629 192.378 338.356 193.073H338.118C338.58 192.617 339.062 192.147 339.558 191.663C339.755 191.472 339.945 191.281 340.129 191.104L340.074 191.234C340.081 189.871 340.095 188.597 340.101 187.486L340.251 187.636C339.069 187.623 338.084 187.588 337.371 187.561C336.665 187.534 336.244 187.514 336.223 187.486L336.237 187.473Z" fill="#263238"/>
<path d="M338.254 236.148C338.159 236.148 338.078 226.534 338.078 214.672C338.078 202.81 338.159 193.189 338.254 193.189C338.349 193.189 338.431 202.803 338.431 214.672C338.431 226.541 338.349 236.148 338.254 236.148Z" fill="#263238"/>
<path d="M406.508 25.9866H345.324V105.363H406.508V25.9866Z" fill="white"/>
<path d="M406.515 105.357C406.515 105.357 406.515 105.227 406.508 104.975C406.508 104.716 406.508 104.348 406.501 103.865C406.501 102.877 406.488 101.432 406.481 99.5517C406.474 95.777 406.454 90.2717 406.44 83.2879C406.42 69.3408 406.393 49.5136 406.359 25.9867L406.515 26.1434C388.226 26.1434 367.376 26.157 345.338 26.1638L345.514 25.9867C345.501 55.4549 345.494 82.8042 345.48 105.364L345.338 105.214C363.797 105.248 379.077 105.268 389.747 105.289C395.085 105.302 399.275 105.316 402.134 105.329C403.561 105.336 404.654 105.343 405.394 105.343C406.135 105.343 406.522 105.357 406.522 105.357C406.522 105.357 406.155 105.37 405.421 105.37C404.681 105.37 403.601 105.377 402.189 105.384C399.336 105.391 395.16 105.404 389.835 105.425C379.139 105.445 363.831 105.473 345.331 105.5H345.181V105.35C345.175 82.7905 345.161 55.4413 345.147 25.973V25.7959H345.324C367.362 25.7959 388.219 25.8095 406.501 25.8163H406.658V25.973C406.624 49.5408 406.596 69.4021 406.576 83.3765C406.556 90.3399 406.542 95.8383 406.535 99.5994C406.528 101.466 406.522 102.904 406.515 103.885C406.515 104.362 406.508 104.73 406.508 104.982C406.508 105.227 406.501 105.35 406.501 105.35L406.515 105.357Z" fill="#263238"/>
<path d="M345.195 33.4678H390.086V30.7696H406.515V25.9866H345.324L345.195 33.4678Z" fill="#B731FF"/>
<path d="M386.338 37.1541H348.964V78.4777H386.338V37.1541Z" fill="#E0E0E0"/>
<path d="M403.71 42.1277H396.45V43.8515H403.71V42.1277Z" fill="#263238"/>
<path d="M403.71 49.3569H396.45V51.0807H403.71V49.3569Z" fill="#263238"/>
<path d="M403.71 56.7971H396.45V58.5209H403.71V56.7971Z" fill="#263238"/>
<path d="M400.219 82.0071H349.501V86.613H400.219V82.0071Z" fill="#263238"/>
<path d="M400.219 89.2905H349.501V93.8964H400.219V89.2905Z" fill="#E0E0E0"/>
<path d="M400.219 96.3767H349.501V100.983H400.219V96.3767Z" fill="#EBEBEB"/>
<path d="M393.727 40.6423H389.061V45.3232H393.727V40.6423Z" fill="#E0E0E0"/>
<path d="M393.727 47.7693H389.061V52.4501H393.727V47.7693Z" fill="#EBEBEB"/>
<path d="M393.727 54.9985H389.061V59.6794H393.727V54.9985Z" fill="#F5F5F5"/>
<path d="M351.273 29.972C351.273 30.6125 350.757 31.1303 350.118 31.1303C349.48 31.1303 348.964 30.6125 348.964 29.972C348.964 29.3315 349.48 28.8137 350.118 28.8137C350.757 28.8137 351.273 29.3315 351.273 29.972Z" fill="white"/>
<path d="M350.119 31.1446C349.474 31.1446 348.944 30.6199 348.944 29.9658C348.944 29.3117 349.467 28.7871 350.119 28.7871C350.771 28.7871 351.294 29.3117 351.294 29.9658C351.294 30.6199 350.771 31.1446 350.119 31.1446ZM350.119 28.828C349.494 28.828 348.978 29.339 348.978 29.9727C348.978 30.6063 349.487 31.1173 350.119 31.1173C350.75 31.1173 351.26 30.6063 351.26 29.9727C351.26 29.339 350.75 28.828 350.119 28.828Z" fill="#263238"/>
<path d="M355.001 29.972C355.001 30.6125 354.485 31.1303 353.847 31.1303C353.209 31.1303 352.692 30.6125 352.692 29.972C352.692 29.3315 353.209 28.8137 353.847 28.8137C354.485 28.8137 355.001 29.3315 355.001 29.972Z" fill="white"/>
<path d="M353.847 31.1446C353.202 31.1446 352.672 30.6199 352.672 29.9658C352.672 29.3117 353.195 28.7871 353.847 28.7871C354.499 28.7871 355.022 29.3117 355.022 29.9658C355.022 30.6199 354.499 31.1446 353.847 31.1446ZM353.847 28.828C353.222 28.828 352.706 29.339 352.706 29.9727C352.706 30.6063 353.216 31.1173 353.847 31.1173C354.479 31.1173 354.988 30.6063 354.988 29.9727C354.988 29.339 354.479 28.828 353.847 28.828Z" fill="#263238"/>
<path d="M358.75 29.972C358.75 30.6125 358.234 31.1303 357.596 31.1303C356.957 31.1303 356.441 30.6125 356.441 29.972C356.441 29.3315 356.957 28.8137 357.596 28.8137C358.234 28.8137 358.75 29.3315 358.75 29.972Z" fill="white"/>
<path d="M357.596 31.1446C356.951 31.1446 356.421 30.6199 356.421 29.9658C356.421 29.3117 356.944 28.7871 357.596 28.7871C358.248 28.7871 358.771 29.3117 358.771 29.9658C358.771 30.6199 358.248 31.1446 357.596 31.1446ZM357.596 28.828C356.971 28.828 356.455 29.339 356.455 29.9727C356.455 30.6063 356.964 31.1173 357.596 31.1173C358.228 31.1173 358.737 30.6063 358.737 29.9727C358.737 29.339 358.228 28.828 357.596 28.828Z" fill="#263238"/>
<path d="M341.27 134.055L345.1 154.454L348.251 148.758L355.022 158.931L358.404 156.642L351.633 146.476L357.847 145.515L341.27 134.055Z" fill="#263238"/>
</g>
<defs>
<clipPath id="clip0_1434_1040">
<rect width="483" height="289" fill="white"/>
</clipPath>
</defs>
</svg>
