<svg width="25" height="25" viewBox="0 0 12 12" fill="none" xmlns="http://www.w3.org/2000/svg">
<path d="M5.5 1H4.5C2 1 1 2 1 4.5V7.5C1 10 2 11 4.5 11H7.5C10 11 11 10 11 7.5V6.5" stroke="#407BFF" stroke-width="0.75" stroke-linecap="round" stroke-linejoin="round"/>
<path d="M8.02 1.50964L4.08 5.44964C3.93 5.59964 3.78 5.89464 3.75 6.10964L3.535 7.61464C3.455 8.15964 3.84 8.53964 4.385 8.46464L5.89 8.24964C6.1 8.21964 6.395 8.06964 6.55 7.91964L10.49 3.97964C11.17 3.29964 11.49 2.50964 10.49 1.50964C9.49 0.509638 8.7 0.829638 8.02 1.50964Z" stroke="#407BFF" stroke-width="0.75" stroke-miterlimit="10" stroke-linecap="round" stroke-linejoin="round"/>
<path d="M7.45496 2.0752C7.78996 3.2702 8.72496 4.2052 9.92496 4.5452" stroke="#407BFF" stroke-width="0.75" stroke-miterlimit="10" stroke-linecap="round" stroke-linejoin="round"/>
</svg>
