<svg width="30" height="30" viewBox="0 0 30 30" fill="none" xmlns="http://www.w3.org/2000/svg">
<path d="M10 14.25C10 15.2125 10.75 16 11.6625 16H13.5375C14.3375 16 14.9875 15.3125 14.9875 14.475C14.9875 13.5625 14.5875 13.2375 14 13.025L11 11.975C10.4 11.7625 10 11.4375 10 10.525C10 9.6875 10.65 9 11.45 9H13.325C14.25 9.0125 15 9.7875 15 10.75" stroke="#C5C5C5" stroke-width="2" stroke-linecap="round" stroke-linejoin="round"/>
<path d="M12.5 16.0625V16.9875" stroke="#C5C5C5" stroke-width="2" stroke-linecap="round" stroke-linejoin="round"/>
<path d="M12.5 8.0127V8.9877" stroke="#C5C5C5" stroke-width="2" stroke-linecap="round" stroke-linejoin="round"/>
<path d="M12.4875 22.475C18.0034 22.475 22.475 18.0034 22.475 12.4875C22.475 6.97156 18.0034 2.5 12.4875 2.5C6.97156 2.5 2.5 6.97156 2.5 12.4875C2.5 18.0034 6.97156 22.475 12.4875 22.475Z" stroke="#C5C5C5" stroke-width="2" stroke-linecap="round" stroke-linejoin="round"/>
<path d="M16.2251 24.85C17.3501 26.4375 19.1876 27.475 21.2876 27.475C24.7001 27.475 27.4751 24.7 27.4751 21.2875C27.4751 19.2125 26.4501 17.375 24.8876 16.25" stroke="#C5C5C5" stroke-width="2" stroke-linecap="round" stroke-linejoin="round"/>
</svg>
