<svg width="491" height="410" viewBox="0 0 491 410" fill="none" xmlns="http://www.w3.org/2000/svg">
<path d="M490.601 365.67H0V365.916H490.601V365.67Z" fill="#EBEBEB"/>
<path d="M441.443 381.464H408.945V381.71H441.443V381.464Z" fill="#EBEBEB"/>
<path d="M324.994 384.134H316.467V384.38H324.994V384.134Z" fill="#EBEBEB"/>
<path d="M407.964 372.355H389.135V372.6H407.964V372.355Z" fill="#EBEBEB"/>
<path d="M93.8519 374.004H51.4738V374.25H93.8519V374.004Z" fill="#EBEBEB"/>
<path d="M108.805 374.004H102.594V374.25H108.805V374.004Z" fill="#EBEBEB"/>
<path d="M220.918 378.147H128.999V378.392H220.918V378.147Z" fill="#EBEBEB"/>
<path d="M232.555 321.89H43.0846C39.9938 321.89 37.4819 319.377 37.4819 316.285V49.8443C37.4819 46.7522 39.9938 44.2393 43.0846 44.2393H232.555C235.645 44.2393 238.157 46.7522 238.157 49.8443V316.285C238.157 319.377 235.645 321.89 232.555 321.89ZM43.0846 44.4847C40.1312 44.4847 37.7272 46.8896 37.7272 49.8443V316.285C37.7272 319.239 40.1312 321.644 43.0846 321.644H232.555C235.508 321.644 237.912 319.239 237.912 316.285V49.8443C237.912 46.8896 235.508 44.4847 232.555 44.4847H43.0846Z" fill="#EBEBEB"/>
<path d="M444.789 321.89H255.318C252.228 321.89 249.716 319.377 249.716 316.285V49.8443C249.716 46.7522 252.228 44.2393 255.318 44.2393H444.789C447.879 44.2393 450.391 46.7522 450.391 49.8443V316.285C450.391 319.377 447.879 321.89 444.789 321.89ZM255.318 44.4847C252.365 44.4847 249.961 46.8896 249.961 49.8443V316.285C249.961 319.239 252.365 321.644 255.318 321.644H444.789C447.742 321.644 450.146 319.239 450.146 316.285V49.8443C450.146 46.8896 447.742 44.4847 444.789 44.4847H255.318Z" fill="#EBEBEB"/>
<path d="M434.751 355.246V244.314H412.422V141.458H409.273V200.41H400.678V184.103H385.227V127.647H382.362V58.664H380.066V126.41H374.631V226.748H364.33V126.41H345.719V211.273H326.185V108.417H323.036V167.369H314.442V151.062H298.99V94.6065H296.125V25.623H293.829V93.3469H288.394V193.707H278.093V93.3469H259.482V190.423H246.934V133.968H244.069V64.9843H241.783V132.731H236.338V233.068H226.037V132.731H207.426V233.068H198.263V244.314H182.222V141.458H179.073V200.41H170.479V184.103H155.027V127.647H152.162V58.664H149.866V126.41H144.873V120.765H126.271V126.41H115.96V120.765H110.525V53.0185H108.239V122.002H105.374V178.457H89.9126V194.764H81.3282V135.812H78.1789V238.669H55.8496V355.246H434.751Z" fill="#B5CCFF"/>
<path d="M146.836 130.416C160.75 124.651 167.357 108.693 161.594 94.774C155.831 80.855 139.88 74.2452 125.967 80.0107C112.054 85.7761 105.447 101.734 111.21 115.653C116.973 129.572 132.923 136.181 146.836 130.416Z" fill="#6393FF"/>
<path d="M127.927 38.0966C127.927 35.4757 125.808 33.3554 123.188 33.3554C122.717 33.3554 122.256 33.4241 121.824 33.5517C121.893 33.0805 121.932 32.5897 121.932 32.0989C121.932 26.5528 117.438 22.057 111.894 22.057C111.266 22.057 110.648 22.1159 110.05 22.2336C108.509 19.7109 105.732 18.0127 102.563 18.0127C97.7553 18.0127 93.8599 21.8803 93.7912 26.6706C93.7422 26.6706 93.6931 26.6706 93.6441 26.6706C89.1796 26.6706 85.559 30.2927 85.559 34.7591C85.559 39.2255 89.1796 42.8476 93.6441 42.8476H123.325C125.877 42.7691 127.927 40.6782 127.927 38.1064V38.0966Z" fill="white"/>
<path d="M426.497 103.787C426.497 101.166 424.378 99.0453 421.758 99.0453C421.287 99.0453 420.826 99.114 420.394 99.2416C420.463 98.7705 420.502 98.2796 420.502 97.7888C420.502 92.2427 416.008 87.7469 410.464 87.7469C409.836 87.7469 409.218 87.8058 408.62 87.9236C407.079 85.4008 404.302 83.7026 401.133 83.7026C396.325 83.7026 392.43 87.5702 392.361 92.3605C392.312 92.3605 392.263 92.3605 392.214 92.3605C387.75 92.3605 384.129 95.9827 384.129 100.449C384.129 104.915 387.75 108.538 392.214 108.538H421.895C424.446 108.459 426.497 106.368 426.497 103.796V103.787Z" fill="white"/>
<path d="M286.117 31.775C286.117 27.6325 289.472 24.2754 293.613 24.2754C294.359 24.2754 295.085 24.3932 295.762 24.5895C295.654 23.8337 295.595 23.068 295.595 22.2827C295.595 13.5071 302.709 6.40014 311.471 6.40014C312.472 6.40014 313.443 6.49831 314.395 6.675C316.838 2.67982 321.224 0 326.248 0C333.852 0 340.024 6.11548 340.132 13.6936C340.21 13.6936 340.289 13.6837 340.367 13.6837C347.432 13.6837 353.162 19.4164 353.162 26.484C353.162 33.5517 347.432 39.2843 340.367 39.2843H293.397C289.355 39.1567 286.107 35.8585 286.107 31.7848L286.117 31.775Z" fill="white"/>
<path d="M147.542 113.465C147.542 108.478 151.584 104.434 156.569 104.434C157.471 104.434 158.335 104.572 159.159 104.817C159.031 103.914 158.953 102.991 158.953 102.049C158.953 91.4865 167.509 82.9268 178.067 82.9268C179.274 82.9268 180.441 83.0446 181.589 83.2606C184.523 78.4507 189.812 75.231 195.856 75.231C205.01 75.231 212.428 82.5833 212.566 91.7123C212.664 91.7123 212.752 91.7025 212.84 91.7025C221.338 91.7025 228.236 98.5935 228.236 107.104C228.236 115.615 221.347 122.506 212.84 122.506H156.304L156.313 122.496C151.447 122.358 147.542 118.383 147.542 113.485V113.465Z" fill="white"/>
<path d="M187.398 52.3006C187.398 50.6711 186.083 49.3557 184.454 49.3557C184.16 49.3557 183.875 49.4048 183.611 49.4833C183.65 49.1889 183.679 48.8846 183.679 48.5803C183.679 45.1348 180.883 42.3372 177.439 42.3372C177.046 42.3372 176.664 42.3764 176.291 42.4451C175.329 40.8746 173.612 39.8242 171.63 39.8242C168.637 39.8242 166.214 42.2292 166.175 45.2035C166.145 45.2035 166.116 45.2035 166.086 45.2035C163.309 45.2035 161.062 47.4514 161.062 50.2294C161.062 53.0073 163.309 55.2552 166.086 55.2552H184.543C186.132 55.2062 187.408 53.9104 187.408 52.3104L187.398 52.3006Z" fill="white"/>
<path d="M82.2179 216.961C82.2179 215.331 83.5328 214.016 85.1615 214.016C85.4559 214.016 85.7405 214.065 86.0054 214.144C85.9661 213.849 85.9367 213.545 85.9367 213.241C85.9367 209.795 88.7331 206.998 92.1771 206.998C92.5696 206.998 92.9523 207.037 93.3251 207.106C94.2867 205.535 96.0038 204.485 97.9859 204.485C100.979 204.485 103.402 206.89 103.441 209.864C103.471 209.864 103.5 209.864 103.53 209.864C106.306 209.864 108.553 212.112 108.553 214.89C108.553 217.668 106.306 219.916 103.53 219.916H85.0732C83.4837 219.867 82.2081 218.571 82.2081 216.971L82.2179 216.961Z" fill="#F0F0F0"/>
<path d="M348.465 143.119C348.465 141.49 349.78 140.174 351.408 140.174C351.703 140.174 351.987 140.223 352.252 140.302C352.213 140.007 352.184 139.703 352.184 139.399C352.184 135.953 354.98 133.156 358.424 133.156C358.817 133.156 359.199 133.195 359.572 133.264C360.534 131.693 362.251 130.643 364.233 130.643C367.225 130.643 369.649 133.048 369.688 136.022C369.718 136.022 369.747 136.022 369.777 136.022C372.553 136.022 374.8 138.27 374.8 141.048C374.8 143.826 372.553 146.074 369.777 146.074H351.32C349.731 146.025 348.455 144.729 348.455 143.129L348.465 143.119Z" fill="white"/>
<path d="M245.3 410C350.37 410 435.546 405.025 435.546 398.888C435.546 392.751 350.37 387.776 245.3 387.776C140.231 387.776 55.0551 392.751 55.0551 398.888C55.0551 405.025 140.231 410 245.3 410Z" fill="#F5F5F5"/>
<path d="M381.491 109.105L339.545 172.998L337.7 175.806L334.05 177.504L204.217 237.863L217.042 281.83L219.976 291.882L209.81 300.285L122.218 385.43H49.7371L180.786 276.559L172.848 233.319L170.69 221.559L180.835 216.876L319.205 153.14L364.281 97.3743L352.183 94.9792L390.185 79.2046L388.232 120.325L381.491 109.105Z" fill="#263238"/>
<path opacity="0.6" d="M381.491 109.105L339.545 172.998L337.7 175.806L334.05 177.504L204.217 237.863L217.042 281.83L219.976 291.882L209.81 300.285L122.218 385.43H49.7371L180.786 276.559L172.848 233.319L170.69 221.559L180.835 216.876L319.205 153.14L364.281 97.3743L352.183 94.9792L390.185 79.2046L388.232 120.325L381.491 109.105Z" fill="#407BFF"/>
<path d="M245.379 241.898L243.181 246.198L240.944 250.566L237.029 249.133L238.991 245.294L241.464 240.465L245.379 241.898Z" fill="#FFC2BC"/>
<path opacity="0.2" d="M245.379 241.898L243.181 246.198L238.991 245.294L241.464 240.465L245.379 241.898Z" fill="black"/>
<path d="M330.881 217.093C330.881 217.093 318.027 120.325 302.259 77.6047" stroke="#263238" stroke-linecap="round" stroke-linejoin="round"/>
<path d="M306.037 214.815L310.217 214.648L311.021 204.969L306.841 205.136L306.037 214.815Z" fill="#FFC2BC"/>
<path d="M310.599 212.44L306.037 212.302C305.87 212.302 305.713 212.41 305.674 212.577L304.702 216.249C304.604 216.631 304.879 217.004 305.271 217.004C306.92 217.024 309.294 217.004 311.365 217.073C313.778 217.152 315.319 217.034 318.155 217.122C319.872 217.171 320.411 215.463 319.705 215.287C316.467 214.472 314.348 214.629 311.59 212.803C311.286 212.607 310.962 212.46 310.599 212.45V212.44Z" fill="#263238"/>
<path opacity="0.2" d="M311.021 204.969L310.599 209.956L306.429 210.123L306.841 205.136L311.021 204.969Z" fill="black"/>
<path d="M304.339 179.742C305.399 181.774 305.477 203.075 305.477 208.494H312.689C313.612 202.888 318.233 172.782 311.737 168.483C304.555 163.742 286.344 165.371 286.344 165.371L285.029 162.711L282.4 157.41L267.299 163.025L264.012 164.242L262.658 164.753L262.54 164.792C262.54 164.792 262.55 164.939 262.579 165.194C262.628 165.793 262.766 166.981 263.011 168.463C263.266 170.014 263.649 171.889 264.208 173.725C265.601 178.27 268.074 182.569 272.372 181.126C272.558 181.067 272.745 180.989 272.931 180.91C273.284 180.753 273.667 180.606 274.059 180.459C276.924 179.428 280.732 178.751 284.676 178.368C293.742 177.494 303.535 178.181 304.339 179.742Z" fill="#263238"/>
<path d="M313.013 209.122L304.584 209.338L304.535 206.628L313.798 206.246L313.013 209.122Z" fill="#407BFF"/>
<path d="M241.67 248.465H236.587C236.421 248.465 236.264 248.583 236.234 248.75L235.371 252.46C235.282 252.843 235.577 253.206 235.969 253.206C237.608 253.177 238.795 253.079 240.856 253.079C242.121 253.079 245.948 253.206 247.695 253.206C249.441 253.206 249.686 251.479 248.98 251.322C245.771 250.615 243.368 249.653 242.347 248.72C242.161 248.553 241.925 248.465 241.67 248.465Z" fill="#263238"/>
<path d="M278.642 164.753C278.642 164.753 278.318 165.872 277.768 167.766C277.307 169.376 276.669 171.565 275.924 174.108C275.355 176.041 274.727 178.191 274.059 180.459C270.88 191.207 266.838 204.626 264.601 210.997C260.146 223.64 245.242 246.129 245.242 246.129L238.069 243.498C238.069 243.498 249.078 222.315 252.689 209.495C255.211 200.543 259.165 184.454 261.765 173.646C262.226 171.732 262.648 169.975 263.011 168.463C263.433 166.696 263.776 165.253 264.012 164.242C264.267 163.182 264.404 162.583 264.404 162.583L267.299 163.025L278.642 164.753Z" fill="#263238"/>
<path d="M246.036 246.6L237.598 243.498L238.55 240.985L247.547 243.704L246.036 246.6Z" fill="#407BFF"/>
<path opacity="0.2" d="M285.029 162.711L278.642 170.142L277.768 167.766L276.817 165.175L275.924 174.107L264.208 173.725L261.765 173.646C262.226 171.732 262.648 169.975 263.011 168.463C262.766 166.981 262.628 165.793 262.579 165.204L262.658 164.753L264.012 164.242C264.267 163.182 264.404 162.583 264.404 162.583L267.299 163.025L282.4 157.41L285.029 162.711Z" fill="black"/>
<path opacity="0.2" d="M284.676 178.367C280.192 178.799 275.885 179.624 272.931 180.91C272.745 180.988 272.558 181.067 272.372 181.126L273.225 176.924C273.225 176.924 280.545 176.581 284.676 178.367Z" fill="black"/>
<path d="M229.876 166.746L227.315 170.142L225.147 165.96C225.147 165.96 227.609 163.065 229.052 164.4L229.886 166.746H229.876Z" fill="#FFC2BC"/>
<path d="M223.4 171.693L222.752 167.462L225.147 165.95L227.315 170.142L223.4 171.693Z" fill="#FFC2BC"/>
<path d="M230.573 166.432L229.856 166.795L228.797 164.105L229.935 163.555L230.573 166.432Z" fill="white"/>
<path d="M259.135 141.92C258.763 142.558 258.38 143.187 257.987 143.805C256.996 145.415 255.966 146.995 254.887 148.556C254.592 148.988 254.298 149.41 253.994 149.842C253.091 151.138 252.139 152.404 251.119 153.67C250.609 154.299 250.089 154.937 249.51 155.565C248.951 156.203 248.293 156.861 247.655 157.43C245.055 159.717 242.269 161.376 239.433 162.858C236.578 164.331 233.693 165.577 230.651 166.608L229.376 163.742C230.651 162.966 231.976 162.171 233.242 161.347C234.527 160.542 235.793 159.707 237.019 158.843C238.246 157.98 239.453 157.106 240.591 156.193C241.749 155.3 242.808 154.318 243.77 153.356C245.565 151.521 247.175 148.831 248.843 146.347C250.481 143.805 252.552 139.349 254.171 136.806L259.135 141.92Z" fill="#263238"/>
<path opacity="0.2" d="M257.987 143.805C256.996 145.415 255.966 146.995 254.887 148.556C254.887 145.611 256.565 142.676 256.565 142.676C257.242 142.931 257.693 143.324 257.987 143.805Z" fill="black"/>
<path d="M314.249 131.339L311.404 133.989L311.816 136.443C312.856 137.817 315.25 136.109 315.81 135.687C315.898 135.618 315.996 135.569 316.094 135.53L317.605 134.912C318.155 134.686 318.478 134.107 318.38 133.528L318.086 131.721C317.968 131.005 317.281 130.524 316.565 130.671L314.868 131.024C314.642 131.074 314.426 131.182 314.259 131.339H314.249Z" fill="#FFC2BC"/>
<path d="M310.747 134.009L311.532 133.812L311.983 136.669L310.747 136.954V134.009Z" fill="white"/>
<path d="M311.404 136.983C308.264 137.66 305.144 138.053 301.945 138.259C298.746 138.446 295.509 138.446 292.104 137.808C291.26 137.641 290.357 137.425 289.553 137.16C288.728 136.904 287.963 136.63 287.198 136.345C285.677 135.785 284.215 135.187 282.773 134.529C282.194 134.274 281.615 134.009 281.036 133.744C279.721 133.135 278.426 132.507 277.131 131.849C276.179 131.378 275.237 130.877 274.295 130.357L276.817 124.359C279.515 125.714 282.694 127.55 285.412 128.894C288.11 130.18 290.867 131.663 293.35 132.31C294.674 132.654 296.078 132.949 297.53 133.125C298.982 133.331 300.464 133.459 301.955 133.577C303.456 133.695 304.967 133.763 306.478 133.783C307.989 133.852 309.54 133.852 311.031 133.871L311.404 136.983Z" fill="#263238"/>
<path opacity="0.2" d="M281.036 133.744C279.721 133.135 278.426 132.507 277.131 131.849L276.62 129.061C276.62 129.061 279.397 130.269 281.036 133.744Z" fill="black"/>
<path d="M254.995 136.266C256.653 140.232 257.899 144.482 258.861 148.576C259.557 151.57 262.069 154.485 262.501 157.165C263.57 163.791 263.776 163.879 264.267 166.019C267.26 164.409 276.316 162.417 282.4 159.148C282.645 134.686 276.091 125.145 276.091 125.145C276.091 125.145 273.795 125.694 271.175 126.725C270.831 126.862 270.478 127.01 270.125 127.157C267.829 128.158 264.13 130.239 261.579 131.751C261.049 132.065 260.509 132.409 259.979 132.742C257.32 134.46 255.005 136.266 255.005 136.266H254.995Z" fill="#407BFF"/>
<path opacity="0.7" d="M254.995 136.266C256.653 140.232 257.899 144.482 258.861 148.576C259.557 151.57 262.069 154.485 262.501 157.165C263.57 163.791 263.776 163.879 264.267 166.019C267.26 164.409 276.316 162.417 282.4 159.148C282.645 134.686 276.091 125.145 276.091 125.145C276.091 125.145 273.795 125.694 271.175 126.725C270.831 126.862 270.478 127.01 270.125 127.157C267.829 128.158 264.13 130.239 261.579 131.751C261.049 132.065 260.509 132.409 259.979 132.742C257.32 134.46 255.005 136.266 255.005 136.266H254.995Z" fill="white"/>
<path d="M271.077 135.805L271.449 133.537L269.889 133.429L268.938 134.49L271.077 135.805Z" fill="#407BFF"/>
<path d="M269.889 133.439C267.005 135.049 264.149 133.174 262.305 131.888C262.236 131.839 262.177 131.8 262.108 131.751C262.923 130.622 263.001 128.845 262.736 126.98C262.452 124.85 261.726 122.602 261.127 121.071L267.731 124.86C267.701 125.311 267.652 125.714 267.633 126.067C267.544 126.921 267.534 127.5 268.005 127.873C268.398 128.187 269.114 128.354 270.409 128.413C271.165 129.306 271.871 132.33 269.889 133.439Z" fill="#FFC2BC"/>
<path d="M259.969 132.742C259.969 132.742 268.28 141.41 274.364 146.141C274.364 146.141 273.922 130.799 271.165 126.725L276.817 124.349C276.817 124.349 282.253 136.374 283.028 156.438L285.49 161.484L278.642 168.473L276.434 163.3L274.982 171.879L260.813 173.146L262.55 163.31L254.18 136.816L259.979 132.762L259.969 132.742Z" fill="#263238"/>
<path d="M270.331 135.344C270.331 135.344 272.284 142.039 272.156 145.612L274.678 146.927L275.129 144.983C275.129 144.983 272.902 136.355 270.861 134.833L270.331 135.334V135.344Z" fill="#407BFF"/>
<path d="M260.313 132.026C260.313 132.026 270.684 143.422 274.354 146.151C274.354 146.151 273.284 130.72 270.9 126.833C270.9 126.833 272.539 125.704 276.032 129.12L274.285 132.359L277.386 134.499C277.386 134.499 276.316 146.063 274.285 151.54C274.285 151.54 274.53 149.744 274.481 148.046L262.305 141.302L262.844 137.562L258.243 137.366C258.243 137.366 258.753 132.968 260.313 132.026Z" fill="#263238"/>
<path opacity="0.2" d="M260.313 132.026C260.313 132.026 270.684 143.422 274.354 146.151C274.354 146.151 273.284 130.72 270.9 126.833C270.9 126.833 272.539 125.704 276.032 129.12L274.285 132.359L277.386 134.499C277.386 134.499 276.316 146.063 274.285 151.54C274.285 151.54 274.53 149.744 274.481 148.046L262.305 141.302L262.844 137.562L258.243 137.366C258.243 137.366 258.753 132.968 260.313 132.026Z" fill="white"/>
<path d="M302.583 78.4685C302.583 78.4685 296.715 77.801 293.419 79.3618C290.122 80.9128 286.815 85.9681 281.487 86.4491C276.149 86.9301 275.08 85.1828 275.08 85.1828C275.08 85.1828 279.78 93.5364 288.836 93.4382C297.893 93.34 302.573 91.8676 307.901 95.2247C307.901 95.2247 303.8 81.0796 302.593 78.4685H302.583Z" fill="#407BFF"/>
<path opacity="0.2" d="M268.005 127.874C267.456 129.582 266.092 131.997 262.864 131.938C262.668 131.938 262.481 131.918 262.305 131.889C262.236 131.84 262.177 131.8 262.108 131.751C262.923 130.622 263.001 128.846 262.736 126.981C263.963 126.166 265.66 125.695 267.633 126.068C267.544 126.922 267.534 127.501 268.005 127.874Z" fill="black"/>
<path d="M269.889 133.429C269.889 133.429 270.027 135.255 269.144 136.855C267.328 136.6 261.912 133.881 261.628 131.662C261.716 130.955 262.471 130.259 262.471 130.259C262.471 130.259 265.631 133.223 269.889 133.419V133.429Z" fill="white"/>
<path d="M269.889 133.429C269.889 133.429 271.528 133.822 272.637 134.833C273.147 132.722 271.037 127.647 270.498 127.372C269.418 127.127 267.927 127.804 267.927 127.804C267.927 127.804 270.88 130.572 269.879 133.429H269.889Z" fill="white"/>
<path d="M255.358 118.97C255.25 120.649 256.3 123.79 258.223 122.219C260.146 120.649 255.544 116.084 255.358 118.97Z" fill="#263238"/>
<path d="M267.103 118.332C268.319 122.278 269.232 124.536 268.025 127.235C266.2 131.299 260.745 131.279 258.36 127.765C256.221 124.595 254.583 118.666 257.811 115.74C260.98 112.854 265.886 114.386 267.113 118.332H267.103Z" fill="#FFC2BC"/>
<path d="M267.731 113.335C267.338 110.764 264.287 111.127 262.501 112.481C262.481 112.491 262.471 112.501 262.452 112.511V117.586C263.188 117.213 263.855 116.81 264.375 116.408C264.375 116.408 265.062 120.207 267.387 121.287C270.439 118.41 270.684 113.993 267.731 113.326V113.335Z" fill="#263238"/>
<path d="M269.811 120.992C269.879 122.101 269.418 123.132 268.8 123.809C267.868 124.82 266.671 124.153 266.318 122.896C266.004 121.767 266.112 119.873 267.348 119.333C268.565 118.803 269.742 119.725 269.811 120.992Z" fill="#FFC2BC"/>
<path d="M261.628 121.571C261.745 121.885 261.677 122.2 261.471 122.278C261.265 122.357 261 122.16 260.882 121.846C260.764 121.532 260.833 121.218 261.039 121.139C261.245 121.061 261.51 121.257 261.628 121.571Z" fill="#263238"/>
<path d="M258.046 122.877C258.164 123.191 258.095 123.505 257.889 123.583C257.683 123.662 257.418 123.466 257.3 123.152C257.183 122.837 257.251 122.523 257.457 122.445C257.664 122.366 257.928 122.563 258.046 122.877Z" fill="#263238"/>
<path d="M259.243 122.612C259.243 122.612 259.165 124.624 258.684 125.773C259.42 126.057 260.283 125.478 260.283 125.478L259.243 122.622V122.612Z" fill="#ED893E"/>
<path d="M262.432 126.057C262.305 126.126 262.177 126.185 262.03 126.234C261.981 126.254 261.922 126.234 261.902 126.175C261.883 126.126 261.902 126.067 261.961 126.048C263.345 125.537 263.629 124.34 263.639 124.33C263.649 124.281 263.708 124.241 263.757 124.251C263.806 124.261 263.845 124.32 263.835 124.369C263.826 124.418 263.58 125.449 262.442 126.057H262.432Z" fill="#263238"/>
<path d="M262.295 120.02C262.236 120.05 262.157 120.05 262.099 120.02C261.353 119.549 260.686 119.834 260.676 119.834C260.578 119.883 260.46 119.834 260.411 119.736C260.362 119.638 260.411 119.52 260.509 119.48C260.548 119.461 261.382 119.098 262.305 119.687C262.393 119.746 262.422 119.863 262.363 119.961C262.344 119.991 262.314 120.011 262.285 120.03L262.295 120.02Z" fill="#263238"/>
<path d="M256.054 122.219C256.054 122.219 255.986 122.248 255.946 122.239C255.839 122.229 255.76 122.131 255.77 122.023C255.868 120.933 256.682 120.521 256.712 120.491C256.81 120.442 256.928 120.482 256.977 120.58C257.026 120.678 256.987 120.796 256.898 120.845C256.869 120.864 256.251 121.188 256.162 122.062C256.162 122.131 256.113 122.19 256.054 122.219Z" fill="#263238"/>
<path d="M264.375 116.408C264.375 116.408 261.883 118.97 259.489 118.842C259.489 118.842 260.499 118.42 261.255 117.625C261.255 117.625 256.506 119.687 254.18 118.577C251.855 117.478 252.11 116.349 252.11 116.349C252.11 116.349 252.365 117.026 254.632 116.958C254.632 116.958 252.689 115.662 253.464 113.856C253.464 113.856 253.788 114.572 254.632 114.631C254.632 114.631 256.545 111.068 261.637 110.489C266.73 109.91 267.77 111.922 267.996 113.404C268.221 114.887 264.385 116.398 264.385 116.398L264.375 116.408Z" fill="#263238"/>
<path d="M359.561 381.464H290.092C289.41 381.464 288.856 382.018 288.856 382.701V398.544C288.856 399.227 289.41 399.781 290.092 399.781H359.561C360.244 399.781 360.798 399.227 360.798 398.544V382.701C360.798 382.018 360.244 381.464 359.561 381.464Z" fill="#407BFF"/>
<path opacity="0.2" d="M294.92 382.523H292.074V398.887H294.92V382.523Z" fill="black"/>
<path opacity="0.2" d="M301.386 382.445H299.316V398.809H301.386V382.445Z" fill="black"/>
<path opacity="0.2" d="M307.342 382.524H306.302V398.887H307.342V382.524Z" fill="black"/>
<path opacity="0.2" d="M315.368 382.445H314.848V398.809H315.368V382.445Z" fill="black"/>
<path opacity="0.2" d="M354.734 398.799H357.579V382.436H354.734V398.799Z" fill="black"/>
<path opacity="0.2" d="M348.268 398.878H350.338V382.514H348.268V398.878Z" fill="black"/>
<path opacity="0.2" d="M342.322 398.799H343.352V382.436H342.322V398.799Z" fill="black"/>
<path opacity="0.2" d="M334.286 398.878H334.806V382.514H334.286V398.878Z" fill="black"/>
<path opacity="0.2" d="M324.699 398.878H324.954V382.514H324.699V398.878Z" fill="black"/>
<path opacity="0.2" d="M358.875 384.252H290.926C290.446 384.252 290.063 383.869 290.063 383.388C290.063 382.907 290.446 382.524 290.926 382.524H358.875C359.355 382.524 359.738 382.907 359.738 383.388C359.738 383.869 359.355 384.252 358.875 384.252Z" fill="white"/>
<path d="M361.524 363.196H292.055C291.372 363.196 290.818 363.75 290.818 364.433V380.276C290.818 380.959 291.372 381.513 292.055 381.513H361.524C362.207 381.513 362.76 380.959 362.76 380.276V364.433C362.76 363.75 362.207 363.196 361.524 363.196Z" fill="#407BFF"/>
<path opacity="0.2" d="M296.882 364.246H294.037V380.61H296.882V364.246Z" fill="black"/>
<path opacity="0.2" d="M303.358 364.168H301.288V380.531H303.358V364.168Z" fill="black"/>
<path opacity="0.2" d="M309.304 364.246H308.274V380.61H309.304V364.246Z" fill="black"/>
<path opacity="0.2" d="M317.331 364.168H316.811V380.531H317.331V364.168Z" fill="black"/>
<path opacity="0.2" d="M356.706 380.531H359.552V364.168H356.706V380.531Z" fill="black"/>
<path opacity="0.2" d="M350.23 380.62H352.301V364.256H350.23V380.62Z" fill="black"/>
<path opacity="0.2" d="M344.274 380.531H345.314V364.168H344.274V380.531Z" fill="black"/>
<path opacity="0.2" d="M336.248 380.62H336.768V364.256H336.248V380.62Z" fill="black"/>
<path opacity="0.2" d="M326.662 380.62H326.917V364.256H326.662V380.62Z" fill="black"/>
<path opacity="0.2" d="M360.837 365.984H292.889C292.408 365.984 292.025 365.601 292.025 365.12C292.025 364.639 292.408 364.256 292.889 364.256H360.837C361.318 364.256 361.701 364.639 361.701 365.12C361.701 365.601 361.318 365.984 360.837 365.984Z" fill="white"/>
<path d="M361.524 344.919H292.055C291.372 344.919 290.818 345.472 290.818 346.155V361.999C290.818 362.682 291.372 363.236 292.055 363.236H361.524C362.207 363.236 362.76 362.682 362.76 361.999V346.155C362.76 345.472 362.207 344.919 361.524 344.919Z" fill="#407BFF"/>
<path opacity="0.2" d="M296.882 345.979H294.037V362.342H296.882V345.979Z" fill="black"/>
<path opacity="0.2" d="M303.358 345.9H301.288V362.264H303.358V345.9Z" fill="black"/>
<path opacity="0.2" d="M309.304 345.979H308.274V362.342H309.304V345.979Z" fill="black"/>
<path opacity="0.2" d="M317.331 345.9H316.811V362.264H317.331V345.9Z" fill="black"/>
<path opacity="0.2" d="M356.706 362.254H359.552V345.891H356.706V362.254Z" fill="black"/>
<path opacity="0.2" d="M350.23 362.342H352.301V345.979H350.23V362.342Z" fill="black"/>
<path opacity="0.2" d="M344.274 362.254H345.314V345.891H344.274V362.254Z" fill="black"/>
<path opacity="0.2" d="M336.248 362.342H336.768V345.979H336.248V362.342Z" fill="black"/>
<path opacity="0.2" d="M326.662 362.342H326.917V345.978H326.662V362.342Z" fill="black"/>
<path opacity="0.2" d="M360.837 347.706H292.889C292.408 347.706 292.025 347.323 292.025 346.842C292.025 346.361 292.408 345.979 292.889 345.979H360.837C361.318 345.979 361.701 346.361 361.701 346.842C361.701 347.323 361.318 347.706 360.837 347.706Z" fill="white"/>
<path d="M359.561 326.651H290.092C289.41 326.651 288.856 327.204 288.856 327.888V343.731C288.856 344.414 289.41 344.968 290.092 344.968H359.561C360.244 344.968 360.798 344.414 360.798 343.731V327.888C360.798 327.204 360.244 326.651 359.561 326.651Z" fill="#407BFF"/>
<path opacity="0.2" d="M294.92 327.71H292.074V344.074H294.92V327.71Z" fill="black"/>
<path opacity="0.2" d="M301.386 327.622H299.315V343.986H301.386V327.622Z" fill="black"/>
<path opacity="0.2" d="M307.342 327.71H306.302V344.074H307.342V327.71Z" fill="black"/>
<path opacity="0.2" d="M315.368 327.622H314.848V343.986H315.368V327.622Z" fill="black"/>
<path opacity="0.2" d="M354.734 343.986H357.579V327.622H354.734V343.986Z" fill="black"/>
<path opacity="0.2" d="M348.268 344.064H350.338V327.701H348.268V344.064Z" fill="black"/>
<path opacity="0.2" d="M342.322 343.986H343.352V327.622H342.322V343.986Z" fill="black"/>
<path opacity="0.2" d="M334.286 344.064H334.806V327.701H334.286V344.064Z" fill="black"/>
<path opacity="0.2" d="M324.699 344.064H324.954V327.701H324.699V344.064Z" fill="black"/>
<path opacity="0.2" d="M358.875 329.438H290.926C290.446 329.438 290.063 329.055 290.063 328.574C290.063 328.093 290.446 327.71 290.926 327.71H358.875C359.355 327.71 359.738 328.093 359.738 328.574C359.738 329.055 359.355 329.438 358.875 329.438Z" fill="white"/>
<path d="M356.618 308.373H287.149C286.466 308.373 285.912 308.927 285.912 309.61V325.453C285.912 326.136 286.466 326.69 287.149 326.69H356.618C357.301 326.69 357.854 326.136 357.854 325.453V309.61C357.854 308.927 357.301 308.373 356.618 308.373Z" fill="#407BFF"/>
<path opacity="0.2" d="M291.976 309.433H289.131V325.796H291.976V309.433Z" fill="black"/>
<path opacity="0.2" d="M298.442 309.355H296.372V325.718H298.442V309.355Z" fill="black"/>
<path opacity="0.2" d="M304.389 309.433H303.358V325.796H304.389V309.433Z" fill="black"/>
<path opacity="0.2" d="M312.425 309.355H311.905V325.718H312.425V309.355Z" fill="black"/>
<path opacity="0.2" d="M351.791 325.708H354.636V309.345H351.791V325.708Z" fill="black"/>
<path opacity="0.2" d="M345.314 325.797H347.385V309.433H345.314V325.797Z" fill="black"/>
<path opacity="0.2" d="M339.378 325.708H340.408V309.345H339.378V325.708Z" fill="black"/>
<path opacity="0.2" d="M331.352 325.797H331.872V309.433H331.352V325.797Z" fill="black"/>
<path opacity="0.2" d="M321.756 325.797H322.011V309.433H321.756V325.797Z" fill="black"/>
<path opacity="0.2" d="M355.931 311.161H287.983C287.502 311.161 287.119 310.778 287.119 310.297C287.119 309.816 287.502 309.433 287.983 309.433H355.931C356.412 309.433 356.795 309.816 356.795 310.297C356.795 310.778 356.412 311.161 355.931 311.161Z" fill="white"/>
<path d="M359.561 290.105H290.092C289.41 290.105 288.856 290.659 288.856 291.342V307.185C288.856 307.868 289.41 308.422 290.092 308.422H359.561C360.244 308.422 360.798 307.868 360.798 307.185V291.342C360.798 290.659 360.244 290.105 359.561 290.105Z" fill="#407BFF"/>
<path opacity="0.2" d="M294.92 291.165H292.074V307.529H294.92V291.165Z" fill="black"/>
<path opacity="0.2" d="M301.386 291.076H299.316V307.44H301.386V291.076Z" fill="black"/>
<path opacity="0.2" d="M307.342 291.165H306.302V307.529H307.342V291.165Z" fill="black"/>
<path opacity="0.2" d="M315.368 291.076H314.848V307.44H315.368V291.076Z" fill="black"/>
<path opacity="0.2" d="M354.734 307.45H357.579V291.087H354.734V307.45Z" fill="black"/>
<path opacity="0.2" d="M348.268 307.519H350.338V291.155H348.268V307.519Z" fill="black"/>
<path opacity="0.2" d="M342.322 307.45H343.352V291.087H342.322V307.45Z" fill="black"/>
<path opacity="0.2" d="M334.286 307.519H334.806V291.155H334.286V307.519Z" fill="black"/>
<path opacity="0.2" d="M324.699 307.519H324.954V291.155H324.699V307.519Z" fill="black"/>
<path opacity="0.2" d="M358.875 292.893H290.926C290.446 292.893 290.063 292.51 290.063 292.029C290.063 291.548 290.446 291.165 290.926 291.165H358.875C359.355 291.165 359.738 291.548 359.738 292.029C359.738 292.51 359.355 292.893 358.875 292.893Z" fill="white"/>
<path d="M359.561 271.827H290.092C289.41 271.827 288.856 272.381 288.856 273.064V288.908C288.856 289.591 289.41 290.144 290.092 290.144H359.561C360.244 290.144 360.798 289.591 360.798 288.908V273.064C360.798 272.381 360.244 271.827 359.561 271.827Z" fill="#407BFF"/>
<path opacity="0.2" d="M294.92 272.888H292.074V289.251H294.92V272.888Z" fill="black"/>
<path opacity="0.2" d="M301.386 272.809H299.316V289.172H301.386V272.809Z" fill="black"/>
<path opacity="0.2" d="M307.342 272.888H306.302V289.251H307.342V272.888Z" fill="black"/>
<path opacity="0.2" d="M315.368 272.809H314.848V289.172H315.368V272.809Z" fill="black"/>
<path opacity="0.2" d="M354.734 289.173H357.579V272.809H354.734V289.173Z" fill="black"/>
<path opacity="0.2" d="M348.268 289.251H350.338V272.888H348.268V289.251Z" fill="black"/>
<path opacity="0.2" d="M342.322 289.173H343.352V272.809H342.322V289.173Z" fill="black"/>
<path opacity="0.2" d="M334.286 289.251H334.806V272.888H334.286V289.251Z" fill="black"/>
<path opacity="0.2" d="M324.699 289.251H324.954V272.888H324.699V289.251Z" fill="black"/>
<path opacity="0.2" d="M358.875 274.615H290.926C290.446 274.615 290.063 274.232 290.063 273.751C290.063 273.27 290.446 272.887 290.926 272.887H358.875C359.355 272.887 359.738 273.27 359.738 273.751C359.738 274.232 359.355 274.615 358.875 274.615Z" fill="white"/>
<path d="M362.505 253.559H293.036C292.353 253.559 291.8 254.113 291.8 254.796V270.639C291.8 271.323 292.353 271.876 293.036 271.876H362.505C363.188 271.876 363.741 271.323 363.741 270.639V254.796C363.741 254.113 363.188 253.559 362.505 253.559Z" fill="#407BFF"/>
<path opacity="0.2" d="M297.863 254.619H295.018V270.983H297.863V254.619Z" fill="black"/>
<path opacity="0.2" d="M304.34 254.541H302.269V270.905H304.34V254.541Z" fill="black"/>
<path opacity="0.2" d="M310.295 254.619H309.255V270.983H310.295V254.619Z" fill="black"/>
<path opacity="0.2" d="M318.312 254.541H317.792V270.905H318.312V254.541Z" fill="black"/>
<path opacity="0.2" d="M357.687 270.895H360.533V254.531H357.687V270.895Z" fill="black"/>
<path opacity="0.2" d="M351.212 270.973H353.282V254.61H351.212V270.973Z" fill="black"/>
<path opacity="0.2" d="M345.265 270.895H346.296V254.531H345.265V270.895Z" fill="black"/>
<path opacity="0.2" d="M337.229 270.973H337.749V254.61H337.229V270.973Z" fill="black"/>
<path opacity="0.2" d="M327.653 270.973H327.908V254.61H327.653V270.973Z" fill="black"/>
<path opacity="0.2" d="M361.818 256.347H293.87C293.389 256.347 293.006 255.964 293.006 255.483C293.006 255.002 293.389 254.619 293.87 254.619H361.818C362.299 254.619 362.682 255.002 362.682 255.483C362.682 255.964 362.299 256.347 361.818 256.347Z" fill="white"/>
<path d="M357.599 235.292H288.13C287.447 235.292 286.894 235.845 286.894 236.528V252.372C286.894 253.055 287.447 253.608 288.13 253.608H357.599C358.282 253.608 358.835 253.055 358.835 252.372V236.528C358.835 235.845 358.282 235.292 357.599 235.292Z" fill="#407BFF"/>
<path opacity="0.2" d="M292.957 236.342H290.112V252.705H292.957V236.342Z" fill="black"/>
<path opacity="0.2" d="M299.424 236.263H297.353V252.627H299.424V236.263Z" fill="black"/>
<path opacity="0.2" d="M305.37 236.342H304.339V252.705H305.37V236.342Z" fill="black"/>
<path opacity="0.2" d="M313.406 236.263H312.886V252.627H313.406V236.263Z" fill="black"/>
<path opacity="0.2" d="M352.772 252.627H355.617V236.263H352.772V252.627Z" fill="black"/>
<path opacity="0.2" d="M346.296 252.705H348.366V236.342H346.296V252.705Z" fill="black"/>
<path opacity="0.2" d="M340.359 252.627H341.39V236.263H340.359V252.627Z" fill="black"/>
<path opacity="0.2" d="M332.323 252.705H332.843V236.342H332.323V252.705Z" fill="black"/>
<path opacity="0.2" d="M322.737 252.705H322.992V236.342H322.737V252.705Z" fill="black"/>
<path opacity="0.2" d="M356.912 238.069H288.964C288.483 238.069 288.1 237.687 288.1 237.206C288.1 236.725 288.483 236.342 288.964 236.342H356.912C357.393 236.342 357.776 236.725 357.776 237.206C357.776 237.687 357.393 238.069 356.912 238.069Z" fill="white"/>
<path d="M355.637 217.014H286.168C285.485 217.014 284.931 217.568 284.931 218.251V234.094C284.931 234.777 285.485 235.331 286.168 235.331H355.637C356.319 235.331 356.873 234.777 356.873 234.094V218.251C356.873 217.568 356.319 217.014 355.637 217.014Z" fill="#407BFF"/>
<path opacity="0.2" d="M290.995 218.073H288.15V234.437H290.995V218.073Z" fill="black"/>
<path opacity="0.2" d="M297.461 217.995H295.391V234.359H297.461V217.995Z" fill="black"/>
<path opacity="0.2" d="M303.417 218.074H302.377V234.437H303.417V218.074Z" fill="black"/>
<path opacity="0.2" d="M311.443 217.995H310.923V234.359H311.443V217.995Z" fill="black"/>
<path opacity="0.2" d="M350.809 234.349H353.655V217.986H350.809V234.349Z" fill="black"/>
<path opacity="0.2" d="M344.333 234.427H346.404V218.064H344.333V234.427Z" fill="black"/>
<path opacity="0.2" d="M338.387 234.349H339.417V217.986H338.387V234.349Z" fill="black"/>
<path opacity="0.2" d="M330.371 234.427H330.891V218.064H330.371V234.427Z" fill="black"/>
<path opacity="0.2" d="M320.775 234.427H321.03V218.064H320.775V234.427Z" fill="black"/>
<path opacity="0.2" d="M354.95 219.801H287.002C286.521 219.801 286.138 219.419 286.138 218.938C286.138 218.457 286.521 218.074 287.002 218.074H354.95C355.431 218.074 355.813 218.457 355.813 218.938C355.813 219.419 355.431 219.801 354.95 219.801Z" fill="white"/>
<path d="M271.204 381.464H201.735C201.052 381.464 200.499 382.018 200.499 382.701V398.544C200.499 399.227 201.052 399.781 201.735 399.781H271.204C271.887 399.781 272.441 399.227 272.441 398.544V382.701C272.441 382.018 271.887 381.464 271.204 381.464Z" fill="#407BFF"/>
<path opacity="0.2" d="M206.553 382.523H203.707V398.887H206.553V382.523Z" fill="black"/>
<path opacity="0.2" d="M213.029 382.445H210.958V398.809H213.029V382.445Z" fill="black"/>
<path opacity="0.2" d="M218.975 382.524H217.945V398.887H218.975V382.524Z" fill="black"/>
<path opacity="0.2" d="M227.001 382.445H226.481V398.809H227.001V382.445Z" fill="black"/>
<path opacity="0.2" d="M266.377 398.799H269.222V382.436H266.377V398.799Z" fill="black"/>
<path opacity="0.2" d="M259.901 398.878H261.971V382.514H259.901V398.878Z" fill="black"/>
<path opacity="0.2" d="M253.955 398.799H254.985V382.436H253.955V398.799Z" fill="black"/>
<path opacity="0.2" d="M245.928 398.878H246.448V382.514H245.928V398.878Z" fill="black"/>
<path opacity="0.2" d="M236.342 398.878H236.597V382.514H236.342V398.878Z" fill="black"/>
<path opacity="0.2" d="M270.517 384.252H202.569C202.088 384.252 201.706 383.869 201.706 383.388C201.706 382.907 202.088 382.524 202.569 382.524H270.517C270.998 382.524 271.381 382.907 271.381 383.388C271.381 383.869 270.998 384.252 270.517 384.252Z" fill="white"/>
<path d="M268.251 363.196H198.782C198.099 363.196 197.545 363.75 197.545 364.433V380.276C197.545 380.959 198.099 381.513 198.782 381.513H268.251C268.934 381.513 269.487 380.959 269.487 380.276V364.433C269.487 363.75 268.934 363.196 268.251 363.196Z" fill="#407BFF"/>
<path opacity="0.2" d="M203.609 364.246H200.764V380.61H203.609V364.246Z" fill="black"/>
<path opacity="0.2" d="M210.085 364.168H208.015V380.531H210.085V364.168Z" fill="black"/>
<path opacity="0.2" d="M216.031 364.246H215.001V380.61H216.031V364.246Z" fill="black"/>
<path opacity="0.2" d="M224.058 364.168H223.537V380.531H224.058V364.168Z" fill="black"/>
<path opacity="0.2" d="M263.433 380.531H266.279V364.168H263.433V380.531Z" fill="black"/>
<path opacity="0.2" d="M256.957 380.62H259.027V364.256H256.957V380.62Z" fill="black"/>
<path opacity="0.2" d="M251.011 380.531H252.041V364.168H251.011V380.531Z" fill="black"/>
<path opacity="0.2" d="M242.975 380.62H243.495V364.256H242.975V380.62Z" fill="black"/>
<path opacity="0.2" d="M233.389 380.62H233.644V364.256H233.389V380.62Z" fill="black"/>
<path opacity="0.2" d="M267.564 365.984H199.616C199.135 365.984 198.752 365.601 198.752 365.12C198.752 364.639 199.135 364.256 199.616 364.256H267.564C268.045 364.256 268.427 364.639 268.427 365.12C268.427 365.601 268.045 365.984 267.564 365.984Z" fill="white"/>
<path d="M271.204 344.919H201.735C201.052 344.919 200.499 345.472 200.499 346.155V361.999C200.499 362.682 201.052 363.236 201.735 363.236H271.204C271.887 363.236 272.441 362.682 272.441 361.999V346.155C272.441 345.472 271.887 344.919 271.204 344.919Z" fill="#407BFF"/>
<path opacity="0.2" d="M206.553 345.979H203.707V362.342H206.553V345.979Z" fill="black"/>
<path opacity="0.2" d="M213.029 345.9H210.958V362.264H213.029V345.9Z" fill="black"/>
<path opacity="0.2" d="M218.975 345.979H217.945V362.342H218.975V345.979Z" fill="black"/>
<path opacity="0.2" d="M227.001 345.9H226.481V362.264H227.001V345.9Z" fill="black"/>
<path opacity="0.2" d="M266.377 362.254H269.222V345.891H266.377V362.254Z" fill="black"/>
<path opacity="0.2" d="M259.901 362.342H261.971V345.979H259.901V362.342Z" fill="black"/>
<path opacity="0.2" d="M253.955 362.254H254.985V345.891H253.955V362.254Z" fill="black"/>
<path opacity="0.2" d="M245.928 362.342H246.448V345.979H245.928V362.342Z" fill="black"/>
<path opacity="0.2" d="M236.342 362.342H236.597V345.978H236.342V362.342Z" fill="black"/>
<path opacity="0.2" d="M270.517 347.706H202.569C202.088 347.706 201.706 347.323 201.706 346.842C201.706 346.361 202.088 345.979 202.569 345.979H270.517C270.998 345.979 271.381 346.361 271.381 346.842C271.381 347.323 270.998 347.706 270.517 347.706Z" fill="white"/>
<path d="M269.232 326.651H199.763C199.08 326.651 198.527 327.204 198.527 327.888V343.731C198.527 344.414 199.08 344.968 199.763 344.968H269.232C269.915 344.968 270.468 344.414 270.468 343.731V327.888C270.468 327.204 269.915 326.651 269.232 326.651Z" fill="#407BFF"/>
<path opacity="0.2" d="M204.59 327.71H201.745V344.074H204.59V327.71Z" fill="black"/>
<path opacity="0.2" d="M211.066 327.622H208.996V343.986H211.066V327.622Z" fill="black"/>
<path opacity="0.2" d="M217.012 327.71H215.982V344.074H217.012V327.71Z" fill="black"/>
<path opacity="0.2" d="M225.039 327.622H224.519V343.986H225.039V327.622Z" fill="black"/>
<path opacity="0.2" d="M264.414 343.986H267.26V327.622H264.414V343.986Z" fill="black"/>
<path opacity="0.2" d="M257.938 344.064H260.009V327.701H257.938V344.064Z" fill="black"/>
<path opacity="0.2" d="M251.983 343.986H253.023V327.622H251.983V343.986Z" fill="black"/>
<path opacity="0.2" d="M243.956 344.064H244.476V327.701H243.956V344.064Z" fill="black"/>
<path opacity="0.2" d="M234.38 344.064H234.635V327.701H234.38V344.064Z" fill="black"/>
<path opacity="0.2" d="M268.545 329.438H200.597C200.116 329.438 199.733 329.055 199.733 328.574C199.733 328.093 200.116 327.71 200.597 327.71H268.545C269.026 327.71 269.409 328.093 269.409 328.574C269.409 329.055 269.026 329.438 268.545 329.438Z" fill="white"/>
<path d="M269.232 308.373H199.763C199.08 308.373 198.527 308.927 198.527 309.61V325.453C198.527 326.136 199.08 326.69 199.763 326.69H269.232C269.915 326.69 270.468 326.136 270.468 325.453V309.61C270.468 308.927 269.915 308.373 269.232 308.373Z" fill="#407BFF"/>
<path opacity="0.2" d="M204.59 309.433H201.745V325.796H204.59V309.433Z" fill="black"/>
<path opacity="0.2" d="M211.066 309.355H208.996V325.718H211.066V309.355Z" fill="black"/>
<path opacity="0.2" d="M217.012 309.433H215.982V325.796H217.012V309.433Z" fill="black"/>
<path opacity="0.2" d="M225.039 309.355H224.519V325.718H225.039V309.355Z" fill="black"/>
<path opacity="0.2" d="M264.414 325.708H267.26V309.345H264.414V325.708Z" fill="black"/>
<path opacity="0.2" d="M257.938 325.797H260.009V309.433H257.938V325.797Z" fill="black"/>
<path opacity="0.2" d="M251.982 325.708H253.022V309.345H251.982V325.708Z" fill="black"/>
<path opacity="0.2" d="M243.956 325.797H244.476V309.433H243.956V325.797Z" fill="black"/>
<path opacity="0.2" d="M234.38 325.797H234.635V309.433H234.38V325.797Z" fill="black"/>
<path opacity="0.2" d="M268.545 311.161H200.597C200.116 311.161 199.733 310.778 199.733 310.297C199.733 309.816 200.116 309.433 200.597 309.433H268.545C269.026 309.433 269.409 309.816 269.409 310.297C269.409 310.778 269.026 311.161 268.545 311.161Z" fill="white"/>
<path d="M269.232 290.105H199.763C199.08 290.105 198.527 290.659 198.527 291.342V307.185C198.527 307.868 199.08 308.422 199.763 308.422H269.232C269.915 308.422 270.468 307.868 270.468 307.185V291.342C270.468 290.659 269.915 290.105 269.232 290.105Z" fill="#407BFF"/>
<path opacity="0.2" d="M204.59 291.165H201.745V307.529H204.59V291.165Z" fill="black"/>
<path opacity="0.2" d="M211.066 291.076H208.996V307.44H211.066V291.076Z" fill="black"/>
<path opacity="0.2" d="M217.012 291.165H215.982V307.529H217.012V291.165Z" fill="black"/>
<path opacity="0.2" d="M225.039 291.076H224.519V307.44H225.039V291.076Z" fill="black"/>
<path opacity="0.2" d="M264.414 307.45H267.26V291.087H264.414V307.45Z" fill="black"/>
<path opacity="0.2" d="M257.938 307.519H260.009V291.155H257.938V307.519Z" fill="black"/>
<path opacity="0.2" d="M251.982 307.45H253.022V291.087H251.982V307.45Z" fill="black"/>
<path opacity="0.2" d="M243.956 307.519H244.476V291.155H243.956V307.519Z" fill="black"/>
<path opacity="0.2" d="M234.38 307.519H234.635V291.155H234.38V307.519Z" fill="black"/>
<path opacity="0.2" d="M268.545 292.893H200.597C200.116 292.893 199.733 292.51 199.733 292.029C199.733 291.548 200.116 291.165 200.597 291.165H268.545C269.026 291.165 269.409 291.548 269.409 292.029C269.409 292.51 269.026 292.893 268.545 292.893Z" fill="white"/>
<path d="M270.086 253.363H200.617C199.934 253.363 199.38 253.917 199.38 254.6V270.443C199.38 271.126 199.934 271.68 200.617 271.68H270.086C270.768 271.68 271.322 271.126 271.322 270.443V254.6C271.322 253.917 270.768 253.363 270.086 253.363Z" fill="#407BFF"/>
<path opacity="0.2" d="M205.444 254.423H202.599V270.786H205.444V254.423Z" fill="black"/>
<path opacity="0.2" d="M211.92 254.345H209.85V270.708H211.92V254.345Z" fill="black"/>
<path opacity="0.2" d="M217.866 254.423H216.836V270.787H217.866V254.423Z" fill="black"/>
<path opacity="0.2" d="M225.892 254.345H225.372V270.708H225.892V254.345Z" fill="black"/>
<path opacity="0.2" d="M265.268 270.698H268.114V254.335H265.268V270.698Z" fill="black"/>
<path opacity="0.2" d="M258.792 270.777H260.862V254.414H258.792V270.777Z" fill="black"/>
<path opacity="0.2" d="M252.846 270.698H253.876V254.335H252.846V270.698Z" fill="black"/>
<path opacity="0.2" d="M244.81 270.777H245.33V254.414H244.81V270.777Z" fill="black"/>
<path opacity="0.2" d="M235.233 270.777H235.489V254.414H235.233V270.777Z" fill="black"/>
<path opacity="0.2" d="M269.399 256.151H201.451C200.97 256.151 200.587 255.768 200.587 255.287C200.587 254.806 200.97 254.423 201.451 254.423H269.399C269.88 254.423 270.262 254.806 270.262 255.287C270.262 255.768 269.88 256.151 269.399 256.151Z" fill="white"/>
<path d="M271.204 271.827H201.735C201.052 271.827 200.499 272.381 200.499 273.064V288.908C200.499 289.591 201.052 290.144 201.735 290.144H271.204C271.887 290.144 272.441 289.591 272.441 288.908V273.064C272.441 272.381 271.887 271.827 271.204 271.827Z" fill="#407BFF"/>
<path opacity="0.2" d="M206.553 272.888H203.707V289.251H206.553V272.888Z" fill="black"/>
<path opacity="0.2" d="M213.029 272.809H210.958V289.172H213.029V272.809Z" fill="black"/>
<path opacity="0.2" d="M218.975 272.888H217.945V289.251H218.975V272.888Z" fill="black"/>
<path opacity="0.2" d="M227.001 272.809H226.481V289.172H227.001V272.809Z" fill="black"/>
<path opacity="0.2" d="M266.377 289.173H269.222V272.809H266.377V289.173Z" fill="black"/>
<path opacity="0.2" d="M259.901 289.251H261.971V272.888H259.901V289.251Z" fill="black"/>
<path opacity="0.2" d="M253.955 289.173H254.985V272.809H253.955V289.173Z" fill="black"/>
<path opacity="0.2" d="M245.928 289.251H246.448V272.888H245.928V289.251Z" fill="black"/>
<path opacity="0.2" d="M236.342 289.251H236.597V272.888H236.342V289.251Z" fill="black"/>
<path opacity="0.2" d="M270.517 274.615H202.569C202.088 274.615 201.706 274.232 201.706 273.751C201.706 273.27 202.088 272.887 202.569 272.887H270.517C270.998 272.887 271.381 273.27 271.381 273.751C271.381 274.232 270.998 274.615 270.517 274.615Z" fill="white"/>
<path d="M182.837 381.464H113.368C112.685 381.464 112.132 382.018 112.132 382.701V398.544C112.132 399.227 112.685 399.781 113.368 399.781H182.837C183.52 399.781 184.073 399.227 184.073 398.544V382.701C184.073 382.018 183.52 381.464 182.837 381.464Z" fill="#407BFF"/>
<path opacity="0.2" d="M118.196 382.523H115.35V398.887H118.196V382.523Z" fill="black"/>
<path opacity="0.2" d="M124.662 382.445H122.591V398.809H124.662V382.445Z" fill="black"/>
<path opacity="0.2" d="M130.608 382.524H129.578V398.887H130.608V382.524Z" fill="black"/>
<path opacity="0.2" d="M138.634 382.445H138.114V398.809H138.634V382.445Z" fill="black"/>
<path opacity="0.2" d="M178.01 398.799H180.855V382.436H178.01V398.799Z" fill="black"/>
<path opacity="0.2" d="M171.544 398.878H173.614V382.514H171.544V398.878Z" fill="black"/>
<path opacity="0.2" d="M165.588 398.799H166.618V382.436H165.588V398.799Z" fill="black"/>
<path opacity="0.2" d="M157.561 398.878H158.081V382.514H157.561V398.878Z" fill="black"/>
<path opacity="0.2" d="M147.975 398.878H148.23V382.514H147.975V398.878Z" fill="black"/>
<path opacity="0.2" d="M182.15 384.252H114.202C113.721 384.252 113.339 383.869 113.339 383.388C113.339 382.907 113.721 382.524 114.202 382.524H182.15C182.631 382.524 183.014 382.907 183.014 383.388C183.014 383.869 182.631 384.252 182.15 384.252Z" fill="white"/>
<path d="M183.818 363.196H114.349C113.666 363.196 113.113 363.75 113.113 364.433V380.276C113.113 380.959 113.666 381.513 114.349 381.513H183.818C184.501 381.513 185.055 380.959 185.055 380.276V364.433C185.055 363.75 184.501 363.196 183.818 363.196Z" fill="#407BFF"/>
<path opacity="0.2" d="M119.177 364.246H116.331V380.61H119.177V364.246Z" fill="black"/>
<path opacity="0.2" d="M125.643 364.168H123.573V380.531H125.643V364.168Z" fill="black"/>
<path opacity="0.2" d="M131.589 364.246H130.559V380.61H131.589V364.246Z" fill="black"/>
<path opacity="0.2" d="M139.625 364.168H139.105V380.531H139.625V364.168Z" fill="black"/>
<path opacity="0.2" d="M178.991 380.531H181.836V364.168H178.991V380.531Z" fill="black"/>
<path opacity="0.2" d="M172.515 380.62H174.585V364.256H172.515V380.62Z" fill="black"/>
<path opacity="0.2" d="M166.569 380.531H167.599V364.168H166.569V380.531Z" fill="black"/>
<path opacity="0.2" d="M158.543 380.62H159.063V364.256H158.543V380.62Z" fill="black"/>
<path opacity="0.2" d="M148.956 380.62H149.211V364.256H148.956V380.62Z" fill="black"/>
<path opacity="0.2" d="M183.132 365.984H115.183C114.703 365.984 114.32 365.601 114.32 365.12C114.32 364.639 114.703 364.256 115.183 364.256H183.132C183.612 364.256 183.995 364.639 183.995 365.12C183.995 365.601 183.612 365.984 183.132 365.984Z" fill="white"/>
<path d="M179.894 344.919H110.424C109.742 344.919 109.188 345.472 109.188 346.155V361.999C109.188 362.682 109.742 363.236 110.424 363.236H179.894C180.576 363.236 181.13 362.682 181.13 361.999V346.155C181.13 345.472 180.576 344.919 179.894 344.919Z" fill="#407BFF"/>
<path opacity="0.2" d="M115.242 345.979H112.397V362.342H115.242V345.979Z" fill="black"/>
<path opacity="0.2" d="M121.718 345.9H119.648V362.264H121.718V345.9Z" fill="black"/>
<path opacity="0.2" d="M127.664 345.979H126.634V362.342H127.664V345.979Z" fill="black"/>
<path opacity="0.2" d="M135.691 345.9H135.17V362.264H135.691V345.9Z" fill="black"/>
<path opacity="0.2" d="M175.056 362.254H177.902V345.891H175.056V362.254Z" fill="black"/>
<path opacity="0.2" d="M168.6 362.342H170.67V345.979H168.6V362.342Z" fill="black"/>
<path opacity="0.2" d="M162.644 362.254H163.674V345.891H162.644V362.254Z" fill="black"/>
<path opacity="0.2" d="M154.618 362.342H155.138V345.979H154.618V362.342Z" fill="black"/>
<path opacity="0.2" d="M145.032 362.342H145.287V345.978H145.032V362.342Z" fill="black"/>
<path opacity="0.2" d="M179.207 347.706H111.259C110.778 347.706 110.395 347.323 110.395 346.842C110.395 346.361 110.778 345.979 111.259 345.979H179.207C179.688 345.979 180.07 346.361 180.07 346.842C180.07 347.323 179.688 347.706 179.207 347.706Z" fill="white"/>
<path d="M140.763 332.816L138.791 337.675L137.3 341.346L133.551 340.011L134.896 336.713L137.015 331.471L140.763 332.816Z" fill="#E4897B"/>
<path d="M220.868 306.803L217.68 309.169L216.512 306.577L213.804 300.589L216.993 298.214L219.554 303.887L220.868 306.803Z" fill="#E4897B"/>
<path opacity="0.2" d="M137.015 331.471L140.763 332.816L138.791 337.675L134.896 336.713L137.015 331.471Z" fill="black"/>
<path opacity="0.2" d="M219.554 303.887L216.512 306.577L213.804 300.589L216.993 298.214L219.554 303.887Z" fill="black"/>
<path d="M168.894 198.285C169.002 198.589 169.248 198.775 169.444 198.707C169.64 198.638 169.719 198.334 169.611 198.029C169.503 197.725 169.257 197.539 169.061 197.607C168.865 197.676 168.786 197.98 168.894 198.285Z" fill="#263238"/>
<path d="M169.218 198.785C169.218 198.785 170.523 200.287 171.573 200.856C171.21 201.544 170.229 201.642 170.229 201.642L169.218 198.785Z" fill="#DE5753"/>
<path d="M167.197 196.989C167.197 196.989 167.109 196.989 167.059 196.96C166.971 196.901 166.952 196.783 167.01 196.695C167.609 195.841 168.472 195.85 168.512 195.86C168.62 195.86 168.698 195.949 168.698 196.057C168.698 196.165 168.61 196.243 168.502 196.243C168.502 196.243 167.795 196.243 167.324 196.92C167.295 196.969 167.246 196.989 167.197 196.999V196.989Z" fill="#263238"/>
<path d="M161.633 203.232C161.683 206.197 161.31 211.537 158.965 213.097C158.965 213.097 159.23 216.14 164.548 217.093C170.396 218.133 167.864 214.688 167.864 214.688C164.813 213.353 165.313 211.007 166.265 208.876L161.633 203.242V203.232Z" fill="#E4897B"/>
<path d="M158.592 201.2C160.132 204.832 160.848 207.041 163.39 208.278C167.216 210.153 171.2 206.835 170.778 202.81C170.396 199.188 167.952 193.858 163.792 193.661C159.7 193.465 157.051 197.558 158.582 201.19L158.592 201.2Z" fill="#E4897B"/>
<path d="M161.182 207.109C162.919 207.806 168.335 203.919 166.481 199.433C166.481 199.433 168.335 196.439 167.668 193.524C167.001 190.608 164.813 189.754 162.742 190.697C160.917 191.521 161.113 192.552 161.113 192.552C161.113 192.552 152.273 194.869 154.696 198.255C151.596 202.761 159.004 206.246 161.162 207.109H161.182Z" fill="#263238"/>
<path d="M165.028 200.464C165.421 201.416 166.196 202.182 166.942 202.594C168.07 203.212 168.728 202.358 168.502 201.21C168.286 200.179 167.452 198.609 166.275 198.452C165.117 198.304 164.577 199.374 165.028 200.464Z" fill="#E4897B"/>
<path d="M157.552 213.137C157.14 212.312 156.688 211.38 157.689 211.115C158.788 210.83 165.794 210.447 167.825 211.115C167.158 212.214 168.188 213.628 168.188 213.628L157.552 213.137Z" fill="#407BFF"/>
<path opacity="0.5" d="M157.552 213.137C157.14 212.312 156.688 211.38 157.689 211.115C158.788 210.83 165.794 210.447 167.825 211.115C167.158 212.214 168.188 213.628 168.188 213.628L157.552 213.137Z" fill="#407BFF"/>
<path d="M137.555 339.706H133.218C133.051 339.706 132.914 339.814 132.884 339.981L132.099 343.515C132.021 343.878 132.296 344.232 132.668 344.222C134.238 344.192 136.495 344.104 138.467 344.104C140.763 344.104 142.755 344.232 145.453 344.232C147.082 344.232 147.534 342.583 146.857 342.435C143.746 341.758 141.215 341.679 138.526 340.021C138.232 339.844 137.908 339.706 137.565 339.706H137.555Z" fill="#263238"/>
<path d="M165.617 248.22C165.617 248.22 164.381 256.554 162.85 266.124C162.193 270.228 161.486 274.557 160.79 278.562C160.014 283.048 159.259 287.111 158.631 289.978C155.923 302.444 141.391 336.801 141.391 336.801L134.278 335.26C134.278 335.26 144.443 308.53 146.709 291.107C148.466 277.727 151.91 248.22 151.91 248.22H165.617Z" fill="#263238"/>
<path d="M143.089 334.416L141.764 336.988L133.757 335.25L134.434 332.845L143.089 334.416Z" fill="#407BFF"/>
<path opacity="0.3" d="M143.089 334.416L141.764 336.988L133.757 335.25L134.434 332.845L143.089 334.416Z" fill="black"/>
<path opacity="0.2" d="M162.85 266.124C162.193 270.227 161.486 274.556 160.79 278.561C158.876 270.64 159.465 265.899 159.465 265.899L162.85 266.124Z" fill="black"/>
<path d="M153.99 220.401C152.086 222.207 150.104 224.121 148.24 226.035C146.395 227.969 144.551 229.952 143 231.954C142.402 232.769 141.715 233.976 141.116 235.135C140.508 236.322 139.89 237.53 139.291 238.767L135.69 246.207L132.874 245.235C133.483 242.467 134.258 239.787 135.102 237.078C135.543 235.733 136.004 234.389 136.534 233.044C137.094 231.689 137.604 230.374 138.536 228.872C140.184 226.339 141.97 224.111 143.893 221.981C145.816 219.841 147.779 217.839 149.977 215.915L153.99 220.41V220.401Z" fill="#DC897C"/>
<path d="M132.629 252.45L134.071 249.888L129.676 248.563C129.676 248.563 128.793 250.625 129.754 252.293L132.629 252.45Z" fill="#E4897B"/>
<path d="M135.681 246.138L132.865 245.226L129.676 248.563L134.071 249.888L135.681 246.138Z" fill="#E4897B"/>
<path d="M220.819 306.263L217.228 308.923C217.101 309.021 217.052 309.198 217.12 309.345L218.592 312.653C218.749 312.996 219.181 313.104 219.485 312.879C220.721 311.927 221.271 311.406 222.851 310.238C223.822 309.522 226.069 307.941 227.403 306.95C228.718 305.978 227.933 304.505 227.295 304.79C224.44 306.076 222.792 306.214 221.477 306.086C221.241 306.066 221.006 306.135 220.81 306.272L220.819 306.263Z" fill="#263238"/>
<path d="M152.283 213.5C148.466 213.264 142.834 221.52 142.834 221.52L148.397 229.108C148.397 229.108 151.762 227.4 154.284 223.188C156.924 218.771 156.188 213.745 152.292 213.51L152.283 213.5Z" fill="#407BFF"/>
<path opacity="0.6" d="M152.283 213.5C148.466 213.264 142.834 221.52 142.834 221.52L148.397 229.108C148.397 229.108 151.762 227.4 154.284 223.188C156.924 218.771 156.188 213.745 152.292 213.51L152.283 213.5Z" fill="#407BFF"/>
<path opacity="0.2" d="M153.362 221.107C150.86 222.452 149.192 225.77 148.142 228.764L148.387 229.098C148.387 229.098 151.753 227.39 154.274 223.179C154.431 222.914 154.579 222.649 154.716 222.384L153.362 221.107Z" fill="black"/>
<path d="M174.87 212.891C174.87 212.891 177.146 218.643 173.153 248.22H151.9C151.753 244.961 153.803 229.039 150.654 213.657C150.654 213.657 154.294 212.921 157.767 212.754C160.485 212.626 169.552 210.79 171.936 211.006C175.086 211.291 174.86 212.881 174.86 212.881L174.87 212.891Z" fill="#407BFF"/>
<path opacity="0.6" d="M175.37 225.937C175.115 231.169 174.478 238.374 173.153 248.219H151.91C151.763 244.951 153.813 229.029 150.664 213.657C150.664 213.657 154.304 212.92 157.778 212.754C160.495 212.626 169.562 210.79 171.946 211.016C175.096 211.301 174.87 212.891 174.87 212.891C174.87 212.891 175.351 214.098 175.478 218.251C175.547 220.145 175.537 222.648 175.37 225.937Z" fill="#407BFF"/>
<path d="M172.289 246.492L176.479 256.348C176.479 256.348 196.819 258.9 202.589 265.899C208.358 272.898 219.23 301.306 219.23 301.306L213.794 305.92C213.794 305.92 198.193 277.217 193.827 273.762C189.47 270.306 164.606 270.306 159.053 268.235C153.499 266.164 151.89 248.23 151.89 248.23L172.279 246.512L172.289 246.492Z" fill="#263238"/>
<path d="M212.685 305.35L219.24 300.324L220.084 301.944L213.804 306.891L212.685 305.35Z" fill="#407BFF"/>
<path opacity="0.3" d="M212.685 305.35L219.24 300.324L220.084 301.944L213.804 306.891L212.685 305.35Z" fill="black"/>
<path d="M167.805 194.957C167.805 194.957 167.55 189.136 164.479 188.94C161.398 188.744 158.965 191.532 158.965 191.532C158.965 191.532 158.229 190.422 156.482 190.334C154.736 190.236 151.684 193.22 151.684 193.22C151.684 193.22 155.481 190.884 157.081 191.954C157.081 191.954 152.773 193.151 151.684 195.87C150.595 198.589 149.427 199.561 149.427 199.561H151.684L150.202 202.084C150.202 202.084 153.323 205.107 155.678 204.597L154.922 206.03C154.922 206.03 159.544 207.718 161.427 207.198C163.311 206.678 161.526 197.294 161.526 197.294L167.805 194.967V194.957Z" fill="#263238"/>
<path opacity="0.2" d="M175.37 225.937C171.514 223.316 171.573 217.279 171.573 217.279L175.478 218.251C175.547 220.146 175.537 222.649 175.37 225.937Z" fill="black"/>
<path d="M139.802 255.739L113.594 251.331L106.814 271.513L111.151 279.386L139.762 283.155L145.561 261.177L139.802 255.739Z" fill="#407BFF"/>
<path opacity="0.4" d="M106.814 271.513L108.501 274.586L108.884 275.263L111.151 279.386L139.762 283.155L145.561 261.177L143.108 258.85L142.343 258.134L139.811 255.739L113.594 251.331L106.814 271.513Z" fill="black"/>
<path opacity="0.2" d="M145.561 261.177L119.618 257.142L113.594 251.331L139.811 255.739L145.561 261.177Z" fill="white"/>
<path opacity="0.1" d="M119.618 257.142L111.151 279.386L106.814 271.513L113.594 251.331L119.618 257.142Z" fill="white"/>
<path d="M108.501 274.586L108.884 275.264L116.724 254.414L143.108 258.851L142.343 258.134L116.253 253.962L108.501 274.586Z" fill="#263238"/>
<path d="M134.248 256.936L132.923 255.709L126.32 254.512L127.478 255.837L134.248 256.936Z" fill="#263238"/>
<path d="M136.799 257.427C136.799 257.427 137.103 250.497 136.917 250.035C136.721 249.574 127.439 248.053 126.742 247.925C126.055 247.787 122.974 254.531 122.974 254.531L123.504 255.346L125.26 255.582C125.26 255.582 127.488 249.761 127.713 249.623C127.939 249.486 135.092 250.703 135.288 250.86C135.484 251.017 134.709 256.298 134.709 256.298L135.318 257.172L136.789 257.437L136.799 257.427Z" fill="#263238"/>
<path d="M108.59 268.441L110.493 270.963L110.68 270.463L112.161 266.526L112.338 266.055L112.652 265.211C112.652 265.211 112.093 265.839 111.327 266.556C110.493 267.331 109.424 268.205 108.58 268.441H108.59Z" fill="#407BFF"/>
<path opacity="0.2" d="M109.227 268.627L110.689 270.463L112.171 266.527L112.348 266.056C111.661 266.9 110.415 268.245 109.227 268.637V268.627Z" fill="white"/>
<path opacity="0.2" d="M111.337 266.556C111.622 266.536 111.906 266.526 112.171 266.526L112.671 265.211C112.671 265.211 112.112 265.839 111.347 266.556H111.337Z" fill="black"/>
<path d="M107.873 263.494L107.51 267.047C107.51 267.047 109.757 265.938 112.201 266.429L112.387 265.938L113.535 262.885L113.653 262.571C113.653 262.571 110.434 262.198 107.873 263.503V263.494Z" fill="#407BFF"/>
<path d="M111.602 257.476C111.602 257.476 112.642 259.597 114.281 261.069L114.418 260.696L114.771 259.724L115.36 258.105L115.645 257.319L115.723 257.093C115.723 257.093 114.909 255.857 114.506 254.826L111.612 257.466L111.602 257.476Z" fill="#407BFF"/>
<path d="M117.607 252.902C117.607 252.902 118.323 254.07 118.421 254.698L118.833 254.767L119.403 254.855L120.305 255.012L121.178 255.16L121.492 255.209C121.492 255.209 121.61 253.334 120.06 251.518L117.597 252.892L117.607 252.902Z" fill="#407BFF"/>
<path opacity="0.2" d="M118.156 252.99C118.156 252.99 118.686 254.011 118.843 254.777L119.412 254.865C119.314 254.718 119.285 254.531 119.344 254.355C119.452 254.031 119.795 253.854 120.119 253.962C120.443 254.07 120.619 254.414 120.511 254.738C120.472 254.855 120.403 254.954 120.315 255.022L121.188 255.17C121.12 254.414 120.884 252.863 120.04 251.979L118.147 252.99H118.156Z" fill="white"/>
<path opacity="0.2" d="M108.109 263.641L107.883 266.527C107.883 266.527 110.385 265.663 112.377 265.948L113.525 262.895C112.456 262.777 110.199 262.689 108.109 263.641ZM111.259 263.405C111.818 263.366 112.289 263.68 112.318 264.122C112.348 264.563 111.926 264.946 111.367 264.986C110.807 265.025 110.336 264.701 110.297 264.269C110.268 263.827 110.689 263.444 111.249 263.405H111.259Z" fill="white"/>
<path opacity="0.2" d="M112.102 257.634C112.102 257.634 113.427 259.852 114.408 260.696L114.761 259.724C114.359 259.577 114.143 259.106 114.291 258.664C114.438 258.213 114.899 257.957 115.311 258.085C115.321 258.085 115.34 258.085 115.35 258.105L115.635 257.319C115.242 256.868 114.712 256.171 114.438 255.454L112.102 257.634Z" fill="white"/>
<path d="M199.9 194.339L201.411 191.816L204.747 194.977C204.747 194.977 203.393 196.773 201.47 196.753L199.91 194.339H199.9Z" fill="#E4897B"/>
<path d="M203.747 188.439L206.111 191.757L204.747 194.977L201.411 191.816L203.747 188.439Z" fill="#E4897B"/>
<path d="M173.79 211.517C176.42 210.968 179.217 210.271 181.827 209.436C184.427 208.563 187.027 207.611 189.107 206.256C189.392 206.079 189.48 205.981 189.706 205.824L190.383 205.206C190.854 204.754 191.325 204.253 191.805 203.743C192.747 202.702 193.699 201.632 194.631 200.533C196.515 198.354 198.37 196.086 200.263 193.878L202.746 195.527C201.382 198.187 199.871 200.71 198.271 203.242C197.447 204.489 196.623 205.745 195.701 206.963C195.24 207.571 194.759 208.19 194.229 208.808C193.974 209.122 193.65 209.436 193.356 209.741C193.022 210.045 192.571 210.457 192.247 210.683C189.519 212.676 186.654 214.02 183.74 215.061C180.806 216.111 177.931 216.897 174.801 217.437L173.771 211.498L173.79 211.517Z" fill="#DC897C"/>
<path d="M172.525 220.096C176.665 223.679 185.741 217.534 185.741 217.534L182.121 208.592C182.121 208.592 176.97 209.132 172.319 210.702C166.569 212.646 169.375 217.358 172.525 220.096Z" fill="#407BFF"/>
<path opacity="0.6" d="M172.525 220.096C176.665 223.679 185.741 217.534 185.741 217.534L182.121 208.592C182.121 208.592 176.97 209.132 172.319 210.702C166.569 212.646 169.375 217.358 172.525 220.096Z" fill="#407BFF"/>
</svg>
