<svg width="311" height="257" viewBox="0 0 211 157" fill="none" xmlns="http://www.w3.org/2000/svg">
<g clip-path="url(#clip0_1196_7795)">
<path d="M211 137.972H0V138.077H211V137.972Z" fill="#EBEBEB"/>
<path d="M100.018 119.179H18.53C17.2007 119.179 16.1204 118.101 16.1204 116.774V2.40592C16.1204 1.07866 17.2007 0 18.53 0H100.018C101.348 0 102.428 1.07866 102.428 2.40592V116.774C102.428 118.101 101.348 119.179 100.018 119.179ZM18.53 0.105338C17.2598 0.105338 16.2259 1.13765 16.2259 2.40592V116.774C16.2259 118.042 17.2598 119.074 18.53 119.074H100.018C101.288 119.074 102.322 118.042 102.322 116.774V2.40592C102.322 1.13765 101.288 0.105338 100.018 0.105338H18.53Z" fill="#EBEBEB"/>
<path d="M191.297 119.179H109.809C108.479 119.179 107.399 118.101 107.399 116.774V2.40592C107.399 1.07866 108.479 0 109.809 0H191.297C192.626 0 193.706 1.07866 193.706 2.40592V116.774C193.706 118.101 192.626 119.179 191.297 119.179ZM109.809 0.105338C108.538 0.105338 107.505 1.13765 107.505 2.40592V116.774C107.505 118.042 108.538 119.074 109.809 119.074H191.297C192.567 119.074 193.601 118.042 193.601 116.774V2.40592C193.601 1.13765 192.567 0.105338 191.297 0.105338H109.809Z" fill="#EBEBEB"/>
<path d="M84.5856 141.983H73.6136V142.088H84.5856V141.983Z" fill="#EBEBEB"/>
<path d="M44.9683 140.841H22.1381V140.946H44.9683V140.841Z" fill="#EBEBEB"/>
<path d="M73.1916 145.897H62.0846V146.003H73.1916V145.897Z" fill="#EBEBEB"/>
<path d="M125.359 145.189H108.973V145.295H125.359V145.189Z" fill="#EBEBEB"/>
<path d="M133.626 145.189H129.115V145.295H133.626V145.189Z" fill="#EBEBEB"/>
<path d="M189.862 143.407H166.838V143.512H189.862V143.407Z" fill="#EBEBEB"/>
<path d="M95.0766 15.2949H32.4602V81.2702H95.0766V15.2949Z" fill="#A4C0FF"/>
<path d="M101.791 13.1587H28.409C28.0672 13.1587 27.7887 13.4368 27.7887 13.7781C27.7887 14.1194 28.0672 14.3975 28.409 14.3975H101.791C102.132 14.3975 102.411 14.1194 102.411 13.7781C102.411 13.4368 102.132 13.1587 101.791 13.1587Z" fill="#A4C0FF"/>
<path d="M97.7394 15.2949H33.7051V81.2702H97.7394V15.2949Z" fill="#1C62FF"/>
<path d="M95.0766 81.2703H32.4602V83.7352H95.0766V81.2703Z" fill="#A4C0FF"/>
<path d="M102.162 81.2703H38.1277V83.7352H102.162V81.2703Z" fill="#1C62FF"/>
<path d="M94.0173 77.5581V19.0112L37.4229 19.0112L37.4229 77.5581H94.0173Z" fill="#FAFAFA"/>
<path d="M50.2687 77.5582L72.103 19.0071H82.4082L60.5781 77.5582H50.2687Z" fill="white"/>
<path d="M62.7894 77.5582L84.6237 19.0071H88.6412L66.8069 77.5582H62.7894Z" fill="white"/>
<path d="M94.0173 77.554V19.0071H93.5447V77.554H94.0173Z" fill="#A4C0FF"/>
<g opacity="0.6">
<path d="M35.8869 71.6424H28.025L32.2619 12.0464H40.1238L35.8869 71.6424Z" fill="#1C62FF"/>
<path d="M38.9506 71.6424H32.8231L37.06 12.0464H43.1874L38.9506 71.6424Z" fill="#A4C0FF"/>
<path d="M43.7487 71.6424H35.8868L40.1237 12.0464H47.9856L43.7487 71.6424Z" fill="#1C62FF"/>
<path d="M46.8125 71.6424H40.6851L44.9262 12.0464H51.0494L46.8125 71.6424Z" fill="#A4C0FF"/>
<path d="M51.6106 71.6424H43.7488L47.9857 12.0464H55.8517L51.6106 71.6424Z" fill="#1C62FF"/>
</g>
<g opacity="0.6">
<path d="M96.4396 71.6424H100.883L98.4905 12.0464H94.0469L96.4396 71.6424Z" fill="#1C62FF"/>
<path d="M94.7095 71.6424H98.1699L95.7771 12.0464H92.3125L94.7095 71.6424Z" fill="#A4C0FF"/>
<path d="M91.9959 71.6424H96.4395L94.0468 12.0464H89.6031L91.9959 71.6424Z" fill="#1C62FF"/>
<path d="M90.2657 71.6424H93.7261L91.3334 12.0464H87.8688L90.2657 71.6424Z" fill="#A4C0FF"/>
<path d="M87.5523 71.6424H91.9959L89.6032 12.0464H85.1595L87.5523 71.6424Z" fill="#1C62FF"/>
</g>
<path d="M180.051 12.0464H136.749V69.5272H180.051V12.0464Z" fill="#A4C0FF"/>
<path d="M183.338 12.0464H138.099V69.5272H183.338V12.0464Z" fill="#769FFC"/>
<path d="M143.96 14.399L139.933 64.1501L177.47 67.1788L181.497 17.4276L143.96 14.399Z" fill="white"/>
<path d="M180.569 17.3523L176.543 67.1035L177.468 67.1782L181.495 17.427L180.569 17.3523Z" fill="#A4C0FF"/>
<path d="M185.726 90.9993H161.542V137.967H185.726V90.9993Z" fill="#769FFC"/>
<path d="M185.726 90.9993H183.73V137.967H185.726V90.9993Z" fill="#1C62FF"/>
<path d="M107.72 112.219H163.407V92.3433H107.72V112.219Z" fill="#A4C0FF"/>
<path d="M110.399 94.5259L185.722 94.5259V91.0034L110.399 91.0034V94.5259Z" fill="#1C62FF"/>
<path d="M110.404 90.9993H86.2188V137.967H110.404V90.9993Z" fill="#769FFC"/>
<path d="M87.0923 105.966H87.2021C90.4135 105.966 93.0214 108.57 93.0214 111.776V137.967H81.2729V111.776C81.2729 108.57 83.8809 105.966 87.0923 105.966Z" fill="#A4C0FF"/>
<path d="M110.404 90.9993H108.408V137.967H110.404V90.9993Z" fill="#1C62FF"/>
<path d="M137.623 90.9993H132.407L133.673 80.8616H138.893L137.623 90.9993Z" fill="#1C62FF"/>
<path d="M138.779 90.9993H133.559L134.829 80.8616H140.045L138.779 90.9993Z" fill="#769FFC"/>
<path d="M139.412 85.9304H134.192L134.829 80.8616H140.045L139.412 85.9304Z" fill="#1C62FF"/>
<path d="M120.24 84.717H157.149C157.457 84.717 157.693 84.4473 157.655 84.144L154.811 61.4247C154.777 61.1676 154.562 60.978 154.304 60.978H117.396C117.088 60.978 116.852 61.2477 116.89 61.5511L119.734 84.2704C119.768 84.5274 119.983 84.717 120.24 84.717Z" fill="#1C62FF"/>
<path d="M120.789 84.717H157.697C158.005 84.717 158.242 84.4473 158.204 84.144L155.359 61.4247C155.325 61.1676 155.11 60.978 154.853 60.978H117.945C117.637 60.978 117.4 61.2477 117.438 61.5511L120.283 84.2704C120.316 84.5274 120.532 84.717 120.789 84.717Z" fill="#769FFC"/>
<path d="M157.014 83.4614L154.351 62.1957C154.342 62.1241 154.279 62.0693 154.207 62.0693H118.768C118.683 62.0693 118.616 62.1452 118.624 62.2295L121.287 83.4951C121.296 83.5667 121.359 83.6215 121.431 83.6215H156.87C156.955 83.6215 157.022 83.5457 157.014 83.4614Z" fill="#A4C0FF"/>
<path d="M153.232 83.6215L143.864 62.0693H135.648L145.016 83.6215H153.232Z" fill="#5086FF"/>
<path d="M143.434 83.6215L134.065 62.0693H131.107L140.475 83.6215H143.434Z" fill="#5086FF"/>
<path d="M143.526 90.9993H135.027V90.8939C135.027 90.4262 135.407 90.047 135.876 90.047H142.682C143.151 90.047 143.531 90.4262 143.531 90.8939V90.9993H143.526Z" fill="#769FFC"/>
<path d="M136.011 90.9993H130.246V90.8939C130.246 90.4262 130.626 90.047 131.094 90.047H135.167C135.635 90.047 136.015 90.4262 136.015 90.8939V90.9993H136.011Z" fill="#1C62FF"/>
<path d="M152.916 90.9993H126.642L125.933 88.8967H149.498L152.916 90.9993Z" fill="#769FFC"/>
<path d="M129.533 90.9993H125.19L124.604 88.8967H128.946L129.533 90.9993Z" fill="#1C62FF"/>
<path d="M121.173 91.0037H113.695C113.695 90.0303 114.484 89.2424 115.459 89.2424H119.409C120.384 89.2424 121.173 90.0303 121.173 91.0037Z" fill="#1C62FF"/>
<path d="M37.6508 137.972H44.981L44.981 103.956H37.6508L37.6508 137.972Z" fill="#004FFF"/>
<path d="M70.1955 137.972H40.5626L36.8997 97.7747H66.5325L70.1955 137.972Z" fill="#A4C0FF"/>
<path d="M71.7315 137.972H42.0987L38.4315 97.7747H68.0686L71.7315 137.972Z" fill="#1C62FF"/>
<path d="M46.1498 133.522L43.2971 102.224H64.0173L66.87 133.522H46.1498Z" fill="white"/>
<path d="M105.5 157C150.689 157 187.322 154.865 187.322 152.23C187.322 149.596 150.689 147.461 105.5 147.461C60.3112 147.461 23.6784 149.596 23.6784 152.23C23.6784 154.865 60.3112 157 105.5 157Z" fill="#90B2FF"/>
<path d="M41.8117 51.4238L41.3899 51.4375L41.5735 57.0511L41.9952 57.0374L41.8117 51.4238Z" fill="#407BFF"/>
<path d="M41.6536 46.579L41.2318 46.5928L41.3191 49.2627L41.7409 49.249L41.6536 46.579Z" fill="#407BFF"/>
<path d="M47.3485 87.1861H127.891C129.714 87.1861 131.153 85.6988 131.094 83.8785L129.301 29.0059C129.242 27.1856 127.701 25.6982 125.878 25.6982H45.3397C43.5167 25.6982 42.0777 27.1856 42.1368 29.0059L43.9303 83.8785C43.9893 85.6988 45.5296 87.1861 47.3527 87.1861H47.3485Z" fill="#407BFF"/>
<path d="M47.6058 87.1861H128.149C129.972 87.1861 131.411 85.6988 131.352 83.8785L129.558 29.0059C129.499 27.1856 127.959 25.6982 126.136 25.6982H45.5971C43.774 25.6982 42.335 27.1856 42.3941 29.0059L44.1876 83.8785C44.2467 85.6988 45.787 87.1861 47.61 87.1861H47.6058Z" fill="#407BFF"/>
<path opacity="0.5" d="M47.6058 87.1861H128.149C129.972 87.1861 131.411 85.6988 131.352 83.8785L129.558 29.0059C129.499 27.1856 127.959 25.6982 126.136 25.6982H45.5971C43.774 25.6982 42.335 27.1856 42.3941 29.0059L44.1876 83.8785C44.2467 85.6988 45.787 87.1861 47.61 87.1861H47.6058Z" fill="white"/>
<path opacity="0.5" d="M125.937 27.3499H45.3903C45.2975 27.3499 45.2089 27.3499 45.1202 27.3625C43.0567 27.531 43.3521 30.6575 45.4283 30.6575H126.11C128.187 30.6575 128.28 27.531 126.203 27.3625C126.115 27.3541 126.022 27.3499 125.933 27.3499H125.937Z" fill="#407BFF"/>
<path d="M47.4243 29.0016C47.437 29.4187 47.1078 29.76 46.6901 29.76C46.2723 29.76 45.9178 29.4187 45.9051 29.0016C45.8925 28.5845 46.2216 28.2432 46.6394 28.2432C47.0572 28.2432 47.4117 28.5845 47.4243 29.0016Z" fill="#FAFAFA"/>
<path d="M50.007 29.0016C50.0196 29.4187 49.6905 29.76 49.2727 29.76C48.8549 29.76 48.5004 29.4187 48.4878 29.0016C48.4751 28.5845 48.8043 28.2432 49.2221 28.2432C49.6398 28.2432 49.9943 28.5845 50.007 29.0016Z" fill="#FAFAFA"/>
<path d="M52.5896 29.0016C52.6023 29.4187 52.2731 29.76 51.8553 29.76C51.4376 29.76 51.0831 29.4187 51.0704 29.0016C51.0578 28.5845 51.3869 28.2432 51.8047 28.2432C52.2225 28.2432 52.577 28.5845 52.5896 29.0016Z" fill="#FAFAFA"/>
<path d="M49.1672 81.7087H126.229C126.891 81.7087 127.41 81.1736 127.389 80.5078L125.916 35.381C125.895 34.7195 125.338 34.1802 124.676 34.1802H47.6142C46.9517 34.1802 46.4326 34.7153 46.4537 35.381L47.9265 80.5078C47.9476 81.1694 48.5047 81.7087 49.1672 81.7087Z" fill="white"/>
<g opacity="0.3">
<path d="M105.724 76.1214H104.314V75.7253H105.31L105.276 74.7309L105.677 74.7183L105.724 76.1214Z" fill="#407BFF"/>
<path d="M102.073 76.1215H99.8325V75.7212H102.073V76.1215ZM97.5916 76.1215H95.3508V75.7212H97.5916V76.1215ZM93.11 76.1215H90.8692V75.7212H93.11V76.1215ZM88.6284 76.1215H86.3875V75.7212H88.6284V76.1215ZM84.1467 76.1215H81.9059V75.7212H84.1467V76.1215ZM79.6651 76.1215H77.4243V75.7212H79.6651V76.1215ZM75.1834 76.1215H72.9426V75.7212H75.1834V76.1215Z" fill="#407BFF"/>
<path d="M70.7061 76.1214H69.3093L69.2671 74.7309L69.6638 74.7183L69.6975 75.7253H70.7061V76.1214Z" fill="#407BFF"/>
<path d="M69.1911 72.4936L69.1194 70.2562L69.5203 70.2436L69.592 72.481L69.1911 72.4936ZM69.0434 68.0188L68.9717 65.7815L69.3726 65.7688L69.4443 68.0062L69.0434 68.0188ZM68.8957 63.5441L68.824 61.3067L69.2249 61.2941L69.2966 63.5314L68.8957 63.5441ZM68.748 59.0693L68.6763 56.8319L69.0772 56.8193L69.1489 59.0567L68.748 59.0693ZM68.6003 54.5946L68.5286 52.3572L68.9295 52.3445L69.0012 54.5819L68.6003 54.5946ZM68.4526 50.1198L68.3809 47.8824L68.7818 47.8698L68.8535 50.1072L68.4526 50.1198ZM68.3049 45.645L68.2332 43.4077L68.6341 43.395L68.7058 45.6324L68.3049 45.645Z" fill="#407BFF"/>
<path d="M68.1698 41.1702L68.1234 39.7671H69.5287V40.1674H68.537L68.5665 41.1576L68.1698 41.1702Z" fill="#407BFF"/>
<path d="M100.9 40.1674H98.6594V39.7671H100.9V40.1674ZM96.4185 40.1674H94.1777V39.7671H96.4185V40.1674ZM91.9369 40.1674H89.6961V39.7671H91.9369V40.1674ZM87.4553 40.1674H85.2144V39.7671H87.4553V40.1674ZM82.9736 40.1674H80.7328V39.7671H82.9736V40.1674ZM78.492 40.1674H76.2512V39.7671H78.492V40.1674ZM74.0104 40.1674H71.7695V39.7671H74.0104V40.1674Z" fill="#407BFF"/>
<path d="M104.179 41.1702L104.145 40.1674H103.141V39.7671H104.534L104.58 41.1576L104.179 41.1702Z" fill="#407BFF"/>
<path d="M105.205 72.4936L105.133 70.2562L105.534 70.2436L105.605 72.481L105.205 72.4936ZM105.057 68.0188L104.985 65.7815L105.386 65.7688L105.458 68.0062L105.057 68.0188ZM104.909 63.5441L104.837 61.3067L105.238 61.2941L105.31 63.5314L104.909 63.5441ZM104.761 59.0693L104.69 56.8319L105.091 56.8193L105.162 59.0567L104.761 59.0693ZM104.614 54.5946L104.542 52.3572L104.943 52.3445L105.015 54.5819L104.614 54.5946ZM104.466 50.1198L104.394 47.8824L104.795 47.8698L104.867 50.1072L104.466 50.1198ZM104.318 45.645L104.247 43.4077L104.647 43.395L104.719 45.6324L104.318 45.645Z" fill="#407BFF"/>
</g>
<path d="M94.8741 63.6494H80.142C77.3273 63.6494 74.9599 61.3615 74.867 58.5511C74.7826 55.9808 76.631 53.8151 79.1335 53.4696C79.7749 50.992 82.0368 49.2266 84.649 49.2266C86.7632 49.2266 88.7002 50.3305 89.8058 52.1339C90.2658 51.9906 90.7469 51.919 91.2364 51.919C93.8233 51.919 96.0346 53.9373 96.3004 56.4822C97.6044 57.1016 98.4906 58.4247 98.537 59.8615C98.5708 60.8727 98.2079 61.8208 97.5116 62.5371C96.8195 63.2534 95.8784 63.6452 94.8698 63.6452L94.8741 63.6494ZM84.6532 50.2125C82.3871 50.2125 80.4417 51.8137 80.0239 54.0173L79.9521 54.3923L79.5723 54.4176C77.4159 54.5567 75.7828 56.3601 75.8545 58.5216C75.9305 60.8095 77.8548 62.6677 80.142 62.6677H94.8741C95.6168 62.6677 96.3046 62.3812 96.8068 61.8587C97.3132 61.3362 97.5791 60.641 97.5538 59.8994C97.5158 58.7449 96.7562 57.6915 95.659 57.2828L95.3551 57.169L95.3425 56.8446C95.2538 54.6746 93.4139 52.9092 91.2406 52.9092C90.73 52.9092 90.2363 53.0061 89.7721 53.1957L89.3585 53.3642L89.1517 52.9682C88.2655 51.2701 86.5438 50.2167 84.6532 50.2167V50.2125Z" fill="#407BFF"/>
<path d="M90.6287 58.8756L86.5649 54.9443L82.7584 58.8756H84.9866L85.1216 62.9374H88.5356L88.4006 58.8756H90.6287Z" fill="#407BFF"/>
<path d="M154.853 42.9146C155.241 43.4708 155.553 43.9469 155.878 44.4694C156.199 44.9792 156.503 45.4975 156.798 46.0242C157.389 47.0691 157.938 48.1394 158.444 49.2433C158.946 50.3473 159.419 51.4723 159.811 52.6478C160.221 53.8108 160.554 55.0327 160.803 56.2925L160.968 57.2532L160.989 57.3712L161.01 57.5229C161.027 57.6704 161.044 57.7968 161.052 57.9611C161.056 58.1212 161.065 58.2729 161.052 58.4583L161.031 58.7237L160.985 59.0187C160.955 59.2041 160.887 59.4316 160.824 59.6339C160.74 59.853 160.655 60.0636 160.529 60.2743C160.292 60.6957 159.946 61.0707 159.596 61.3361C158.875 61.8881 158.22 62.044 157.693 62.1451C157.157 62.2336 156.722 62.2336 156.317 62.2125C155.912 62.1915 155.545 62.1451 155.195 62.0819C154.503 61.9513 153.87 61.7785 153.266 61.5889C152.059 61.1929 150.949 60.7252 149.873 60.1985C148.793 59.6718 147.772 59.1156 146.746 58.4541L147.962 55.7659C150.093 56.2883 152.3 56.8614 154.325 57.1395C154.828 57.2111 155.317 57.2574 155.756 57.2617C156.178 57.2701 156.596 57.2237 156.663 57.1605C156.689 57.1395 156.596 57.11 156.313 57.2954C156.186 57.3838 156.034 57.544 155.929 57.7125C155.878 57.8052 155.836 57.8768 155.807 57.9653C155.773 58.0285 155.76 58.1212 155.743 58.1633L155.718 58.2982C155.718 58.3445 155.71 58.3487 155.71 58.3698C155.71 58.3909 155.701 58.3782 155.701 58.3867C155.701 58.3993 155.693 58.3572 155.684 58.3319L155.659 58.2434L155.469 57.5355C154.903 55.6352 154.072 53.7012 153.097 51.8094C152.62 50.8571 152.097 49.9217 151.565 48.9863C151.3 48.5186 151.021 48.0593 150.751 47.6001C150.481 47.1534 150.181 46.6646 149.937 46.277L154.857 42.9104L154.853 42.9146Z" fill="#FFB573"/>
<path d="M148.455 55.9809L146.628 54.1606L144.805 58.2098C144.805 58.2098 146.527 59.1621 148.063 58.4669L148.455 55.9809Z" fill="#FFB573"/>
<path d="M143.919 52.707L142.568 56.1284L144.805 58.2099L146.624 54.1565L143.919 52.707Z" fill="#FFB573"/>
<path d="M150.099 44.2671L114.964 38.0876L108.776 73.1687L143.911 79.3481L150.099 44.2671Z" fill="#407BFF"/>
<path opacity="0.6" d="M150.099 44.2671L114.964 38.0876L108.776 73.1687L143.911 79.3481L150.099 44.2671Z" fill="white"/>
<path d="M148.086 45.6755L116.371 40.0977L110.785 71.7635L142.499 77.3414L148.086 45.6755Z" fill="white"/>
<path opacity="0.3" d="M131.292 56.2688C133.982 54.3877 134.635 50.6857 132.751 48.0001C130.867 45.3146 127.159 44.6625 124.469 46.5436C121.78 48.4248 121.127 52.1268 123.011 54.8123C124.895 57.4978 128.602 58.1499 131.292 56.2688Z" fill="#407BFF"/>
<path opacity="0.2" d="M135.319 60.0554L124.688 67.4839L119.802 60.5147L111.779 66.1271L110.783 71.7648L142.497 77.3435L143.493 71.7058L135.319 60.0554Z" fill="#407BFF"/>
<path d="M137.061 30.152C137.066 30.4343 136.922 30.6619 136.741 30.6661C136.559 30.6703 136.403 30.447 136.399 30.1647C136.395 29.8824 136.538 29.6548 136.719 29.6506C136.901 29.6506 137.057 29.8697 137.061 30.152Z" fill="#263238"/>
<path d="M136.952 30.6619C136.952 30.6619 136.348 32.2925 135.66 33.0889C136.167 33.5397 137.006 33.3122 137.006 33.3122L136.952 30.6619Z" fill="#FF5652"/>
<path d="M138.053 28.5761C138.011 28.5845 137.969 28.5761 137.931 28.5508C137.331 28.1379 136.779 28.3528 136.753 28.3612C136.669 28.3949 136.572 28.3528 136.538 28.2685C136.504 28.1842 136.542 28.0873 136.627 28.0536C136.656 28.041 137.365 27.7587 138.116 28.2769C138.192 28.3275 138.209 28.4328 138.159 28.5044C138.133 28.5424 138.095 28.5676 138.053 28.5719V28.5761Z" fill="#263238"/>
<path d="M145.197 31.2222C145.02 33.8093 145.223 39.0298 147.202 40.4919C147.202 40.4919 146.717 42.5987 142.02 43.1886C136.855 43.8375 139.23 40.9385 139.23 40.9385C141.965 39.9147 141.627 37.8332 140.889 35.9371L145.193 31.2222H145.197Z" fill="#FFB573"/>
<path d="M157.993 143.1C157.993 143.1 157.972 143.091 157.959 143.087C157.874 143.049 157.777 142.952 157.782 142.737C157.782 142.624 157.832 142.527 157.925 142.447C158.322 142.109 159.478 142.257 159.529 142.265C159.562 142.27 159.588 142.291 159.596 142.324C159.605 142.354 159.596 142.388 159.571 142.409C159.301 142.64 158.406 143.243 157.993 143.1ZM159.309 142.409C158.917 142.379 158.271 142.375 158.035 142.573C157.98 142.619 157.95 142.674 157.95 142.741C157.946 142.897 158.01 142.927 158.031 142.935C158.254 143.041 158.887 142.72 159.309 142.404V142.409Z" fill="#407BFF"/>
<path d="M158.938 142.303C158.533 142.164 158.102 141.924 158.031 141.68C158.009 141.612 158.001 141.477 158.166 141.368C158.271 141.296 158.393 141.275 158.524 141.3C159.035 141.406 159.567 142.265 159.588 142.303C159.605 142.328 159.605 142.362 159.588 142.387C159.571 142.413 159.546 142.43 159.516 142.43C159.372 142.43 159.157 142.379 158.934 142.303H158.938ZM158.55 141.481C158.55 141.481 158.512 141.469 158.495 141.465C158.406 141.444 158.33 141.46 158.263 141.507C158.174 141.566 158.187 141.616 158.195 141.637C158.263 141.861 158.917 142.172 159.36 142.248C159.199 142.021 158.866 141.591 158.554 141.481H158.55Z" fill="#407BFF"/>
<path d="M132.369 148.86C131.921 148.86 131.491 148.796 131.347 148.598C131.297 148.527 131.259 148.409 131.356 148.24C131.411 148.143 131.499 148.08 131.618 148.046C132.196 147.89 133.415 148.581 133.466 148.611C133.495 148.628 133.512 148.661 133.508 148.695C133.504 148.729 133.479 148.754 133.445 148.763C133.221 148.809 132.795 148.86 132.377 148.86H132.369ZM131.816 148.185C131.757 148.185 131.706 148.19 131.656 148.202C131.58 148.223 131.525 148.261 131.495 148.316C131.436 148.417 131.457 148.468 131.478 148.497C131.639 148.72 132.521 148.725 133.166 148.636C132.841 148.472 132.221 148.181 131.812 148.181L131.816 148.185Z" fill="#407BFF"/>
<path d="M133.419 148.763C133.419 148.763 133.398 148.763 133.386 148.754C132.964 148.564 132.132 147.814 132.196 147.423C132.213 147.33 132.276 147.216 132.504 147.191C132.673 147.174 132.824 147.22 132.959 147.334C133.403 147.696 133.495 148.632 133.5 148.674C133.5 148.704 133.491 148.733 133.466 148.75C133.453 148.758 133.436 148.767 133.419 148.767V148.763ZM132.571 147.355C132.571 147.355 132.537 147.355 132.521 147.355C132.373 147.372 132.364 147.427 132.36 147.448C132.322 147.684 132.888 148.274 133.318 148.531C133.272 148.257 133.149 147.696 132.858 147.461C132.77 147.389 132.677 147.355 132.571 147.355Z" fill="#407BFF"/>
<path d="M137.247 148.678H133.766L133.42 140.63H136.901L137.247 148.678Z" fill="#FFB573"/>
<path d="M163.28 141.338L160.052 142.223L155.921 134.677L159.149 133.792L163.28 141.338Z" fill="#FFB573"/>
<path d="M159.567 141.869L163.048 140.091C163.175 140.028 163.331 140.057 163.419 140.167L165.441 142.607C165.652 142.859 165.563 143.243 165.268 143.39C164.04 143.989 163.415 144.22 161.883 145.004C160.942 145.484 158.14 147.566 156.727 147.933C155.342 148.291 154.764 146.951 155.309 146.677C157.756 145.434 158.748 143.399 159.157 142.32C159.233 142.126 159.377 141.966 159.562 141.874L159.567 141.869Z" fill="#263238"/>
<path d="M133.791 148.278H137.593C137.737 148.278 137.859 148.375 137.888 148.514L138.576 151.603C138.648 151.923 138.403 152.226 138.074 152.222C136.703 152.197 134.719 152.117 132.998 152.117C130.98 152.117 129.242 152.226 126.879 152.226C125.448 152.226 125.051 150.785 125.65 150.654C128.372 150.06 130.596 149.997 132.951 148.548C133.209 148.392 133.491 148.278 133.791 148.278Z" fill="#263238"/>
<path d="M148.747 46.9259C149.109 47.8613 149.51 48.7714 149.911 49.6225C150.603 51.0972 151.295 52.3908 151.798 53.2799C152.245 54.0804 152.54 54.5565 152.54 54.5565L160.145 50.7897C160.145 50.7897 157.081 41.996 153.882 41.0143C150.603 40.0199 147.105 42.725 148.747 46.9174V46.9259Z" fill="#263238"/>
<path opacity="0.2" d="M152.118 47.7981C151.456 48.2827 150.983 49.5931 150.646 51.131C151.08 51.9779 151.477 52.7111 151.802 53.2841C152.249 54.0889 152.54 54.565 152.54 54.565L153.414 54.131C153.355 52.0959 153.03 49.8079 152.118 47.7981Z" fill="black"/>
<path d="M132.668 52.5341C132.668 53.7181 132.698 55.0201 132.761 56.4527C132.93 60.3502 133.356 65.2126 134.175 71.2505H152.794C152.92 68.398 151.127 54.4723 153.882 41.0227C153.882 41.0227 150.688 40.3823 147.645 40.239C145.265 40.1253 141.822 40.0494 139.733 40.239C136.973 40.4961 134.377 41.2039 134.377 41.2039C134.377 41.2039 132.66 43.1379 132.668 52.5383V52.5341Z" fill="#263238"/>
<path d="M137.458 47.0187C137.129 47.7097 136.846 48.1985 136.534 48.7083C136.226 49.2055 135.918 49.6817 135.593 50.1452C134.951 51.0763 134.28 51.9654 133.576 52.8376C132.166 54.5736 130.643 56.2295 128.879 57.759C128.001 58.5259 127.043 59.2506 125.967 59.9121L125.553 60.1523L125.444 60.2155L125.292 60.2913L124.984 60.4388C124.57 60.6158 124.152 60.7548 123.743 60.8391C122.92 61.0076 122.148 61.0203 121.435 60.9571C120.013 60.8054 118.818 60.3714 117.73 59.8489C117.189 59.5792 116.67 59.2927 116.177 58.9641C115.674 58.6396 115.236 58.3067 114.738 57.8896L116.231 55.3446C118.054 55.8208 120.118 56.2506 121.536 56.0483C121.882 56.0062 122.173 55.9219 122.372 55.8166C122.473 55.7618 122.549 55.7112 122.612 55.6607C122.625 55.6438 122.642 55.6312 122.654 55.6185L122.675 55.6017L122.734 55.5595L122.992 55.3783C123.68 54.8727 124.368 54.2576 125.043 53.5918C126.389 52.2561 127.672 50.7266 128.879 49.1508C129.482 48.3586 130.069 47.5496 130.626 46.7406C130.9 46.3319 131.174 45.9274 131.428 45.5314C131.672 45.1395 131.934 44.7224 132.065 44.4653L137.454 47.0187H137.458Z" fill="#FFB573"/>
<path d="M116.987 55.7154L113.775 54.1943L113.484 58.4963C113.484 58.4963 115.978 58.9261 117.303 57.9528L116.987 55.7154Z" fill="#FFB573"/>
<path d="M109.728 54.9233L110.965 58.2014L113.484 58.4921L113.775 54.1943L109.728 54.9233Z" fill="#FFB573"/>
<path d="M139.758 44.739C139.648 48.0593 132.795 55.7153 132.795 55.7153L125.553 50.9919C125.553 50.9919 127.849 46.7025 130.828 43.6014C135.327 38.9202 139.885 40.7531 139.754 44.739H139.758Z" fill="#263238"/>
<path opacity="0.2" d="M133.42 140.631L133.597 144.781H137.083L136.905 140.631H133.42Z" fill="black"/>
<path opacity="0.2" d="M159.149 133.792L155.921 134.677L158.052 138.57L161.28 137.681L159.149 133.792Z" fill="black"/>
<path d="M146.413 29.364C146.274 32.8106 146.367 34.8373 144.662 36.6407C142.096 39.3542 137.808 37.8669 136.914 34.4455C136.108 31.3696 136.471 26.246 139.817 24.8049C143.113 23.385 146.548 25.9173 146.409 29.364H146.413Z" fill="#FFB573"/>
<path d="M139.543 31.0073C138.302 30.1224 137.082 28.298 137.175 26.9412C136.027 26.8949 135.251 24.9988 135.884 23.6168C136.281 24.5058 137.652 23.8527 138.188 23.1491C137.901 22.4707 137.948 21.3457 139.918 20.5493C139.754 21.1224 139.838 22.0873 141.817 21.392C144.218 20.5493 148.443 21.1097 147.206 23.9665C148.898 24.2699 151.093 27.7544 149.228 29.5915C147.362 31.4286 146.978 34.3823 145.383 34.6899C143.788 34.9975 139.64 35.0986 139.547 31.0073H139.543Z" fill="#263238"/>
<path d="M146.079 23.8527C147.189 23.3471 148.974 23.562 149.937 24.9356C148.628 24.4005 147.877 24.0508 146.079 23.8527Z" fill="#263238"/>
<path d="M140.45 30.8597C140.425 31.6687 140.07 32.4356 139.631 32.9454C138.973 33.7123 138.251 33.2656 138.108 32.3597C137.977 31.5423 138.163 30.1645 138.981 29.7263C139.788 29.2965 140.48 29.9327 140.45 30.8555V30.8597Z" fill="#FFB573"/>
<path d="M140.779 71.2507C140.779 71.2507 139.138 97.5557 142.252 107.255C147.185 122.618 155.975 138.313 155.975 138.313L162.263 136.425C162.263 136.425 155.347 119.858 153.072 106.918C151.03 95.2931 152.793 80.748 152.793 71.2549H140.779V71.2507Z" fill="#407BFF"/>
<path opacity="0.2" d="M140.513 77.1116C142.269 76.5975 143.64 76.7913 143.995 78.3546C144.923 82.429 142.138 93.1777 140.75 98.0949C140.188 91.0499 140.319 82.6229 140.509 77.1116H140.513Z" fill="black"/>
<path d="M154.199 136.51C154.173 136.518 155.84 138.452 155.84 138.452L162.711 136.387L161.837 134.066L154.199 136.505V136.51Z" fill="#263238"/>
<path d="M134.175 71.2507C134.175 71.2507 128.929 93.4433 128.562 104.045C128.149 115.935 132.305 143.976 132.305 143.976H138.205C138.205 143.976 138.931 115.716 139.192 104.887C139.479 93.081 146.417 71.2507 146.417 71.2507H134.175Z" fill="#407BFF"/>
<path d="M131.166 141.633C131.141 141.633 131.499 144.077 131.499 144.077H138.673L138.868 141.895L131.166 141.633Z" fill="#263238"/>
<path d="M136.779 39.4217C137.576 39.1436 143.661 38.3725 148.076 38.6085C150.595 38.7433 152.017 39.0172 153.047 39.5144C154.076 40.0116 152.232 42.5186 151.38 42.822C151.726 43.7827 149.806 45.0088 148.709 45.5903C148.27 46.492 143.957 47.3262 141.421 45.388C139.475 43.8964 134.5 40.2096 136.779 39.4217Z" fill="#407BFF"/>
</g>
<defs>
<clipPath id="clip0_1196_7795">
<rect width="211" height="157" fill="white"/>
</clipPath>
</defs>
</svg>
