<svg width="939" height="939" viewBox="0 0 939 939" fill="none" xmlns="http://www.w3.org/2000/svg">
<g clip-path="url(#clip0_2024_1405)">
<rect width="939" height="939" fill="white"/>
<path d="M1128.09 230.065H146.128C128.001 230.065 113.307 244.759 113.307 262.885V890.012C113.307 908.138 128.001 922.833 146.128 922.833H1128.09C1146.21 922.833 1160.91 908.138 1160.91 890.012V262.885C1160.91 244.759 1146.21 230.065 1128.09 230.065Z" fill="#455A64"/>
<path d="M79.0225 878.073H1214V898.594C1214 920.715 1196.05 938.691 1173.9 938.691H119.096C96.9758 938.691 79 920.738 79 898.594V878.073H79.0225Z" fill="#455A64"/>
<path d="M533.825 871.586L547.926 893.977H746.111L759.176 871.586H533.825Z" fill="#263238"/>
<path d="M1151.9 871.586C1151.9 871.969 919.381 872.262 632.624 872.262C345.867 872.262 113.307 871.969 113.307 871.586C113.307 871.203 345.776 870.91 632.624 870.91C919.471 870.91 1151.9 871.203 1151.9 871.586Z" fill="#263238"/>
<path d="M150.679 269.891H1119.41C1123.49 269.891 1126.78 273.202 1126.78 277.257V845.883C1126.78 849.96 1123.47 853.249 1119.41 853.249H150.679C146.601 853.249 143.312 849.938 143.312 845.883V277.257C143.312 273.18 146.624 269.891 150.679 269.891Z" fill="#EBEBEB"/>
<path d="M1125.74 854.128H142.253L143.312 313.479H1125.74V854.128Z" fill="white"/>
<path d="M223.978 292.417C223.978 296.765 220.464 300.279 216.116 300.279C211.769 300.279 208.255 296.765 208.255 292.417C208.255 288.07 211.769 284.555 216.116 284.555C220.464 284.555 223.978 288.07 223.978 292.417Z" fill="#263238"/>
<path d="M176.358 292.417C176.358 296.765 172.844 300.279 168.497 300.279C164.149 300.279 160.635 296.765 160.635 292.417C160.635 288.07 164.149 284.555 168.497 284.555C172.844 284.555 176.358 288.07 176.358 292.417Z" fill="#263238"/>
<path d="M199.222 292.417C199.222 296.765 195.708 300.279 191.361 300.279C187.013 300.279 183.499 296.765 183.499 292.417C183.499 288.07 187.013 284.555 191.361 284.555C195.708 284.555 199.222 288.07 199.222 292.417Z" fill="#263238"/>
<path d="M1126.8 801.913H142.253V854.128H1126.8V801.913Z" fill="#263238"/>
<path d="M179.444 834.058V835.725H171.605V834.395L175.84 830.386C176.876 829.395 177.057 828.787 177.057 828.178C177.057 827.21 176.381 826.647 175.074 826.647C174.038 826.647 173.182 827.007 172.574 827.75L171.2 826.692C172.011 825.588 173.497 824.935 175.232 824.935C177.552 824.935 179.039 826.106 179.039 827.998C179.039 829.034 178.746 829.98 177.282 831.354L174.443 834.058H179.467H179.444Z" fill="white"/>
<path d="M180.526 828.786C180.526 828.02 181.089 827.525 181.765 827.525C182.441 827.525 183.004 828.02 183.004 828.786C183.004 829.552 182.441 830.048 181.765 830.048C181.089 830.048 180.526 829.507 180.526 828.786ZM180.526 834.575C180.526 833.809 181.089 833.314 181.765 833.314C182.441 833.314 183.004 833.809 183.004 834.575C183.004 835.341 182.441 835.837 181.765 835.837C181.089 835.837 180.526 835.296 180.526 834.575Z" fill="white"/>
<path d="M187.959 825.092V835.724H185.977V826.736H183.725V825.07H187.937L187.959 825.092Z" fill="white"/>
<path d="M199.561 833.314H197.668V835.725H195.754V833.314H189.919V831.94L195.168 825.092H197.285L192.352 831.647H195.844V829.507H197.691V831.647H199.583V833.314H199.561Z" fill="white"/>
<path d="M1023.9 829.056H216.927V832.728H1023.9V829.056Z" fill="white"/>
<path d="M468.499 825.093H216.319V834.914H468.499V825.093Z" fill="#407BFF"/>
<path d="M476.654 830.904C476.654 837.684 471.158 843.181 464.377 843.181C457.597 843.181 452.101 837.684 452.101 830.904C452.101 824.124 457.597 818.627 464.377 818.627C471.158 818.627 476.654 824.124 476.654 830.904Z" fill="#407BFF"/>
<path d="M277.117 345.647H219.158L190.167 395.835L219.158 446.046H277.117L306.108 395.835L277.117 345.647Z" fill="#EBEBEB"/>
<path d="M223.888 405.656C221.297 402.795 218.684 399.889 216.792 396.511C214.9 393.132 213.773 389.212 214.404 385.383C214.764 383.153 215.711 381.035 215.868 378.783C216.071 375.674 214.764 372.43 215.868 369.524C217.58 364.974 223.707 364.276 227.424 361.145C230.307 358.689 231.727 354.725 234.903 352.675C237.674 350.873 241.255 350.918 244.521 351.391C247.788 351.864 251.099 352.675 254.365 352.247C256.708 351.931 258.893 350.985 261.191 350.422C263.488 349.859 266.034 349.701 268.061 350.895C270.089 352.089 271.237 354.972 269.908 356.91C273.715 355.153 278.536 358.126 279.572 362.158C280.608 366.213 278.536 370.583 275.315 373.264C272.093 375.944 267.926 377.183 263.826 377.949C252.203 380.134 239.566 378.895 229.542 372.61" fill="#263238"/>
<path d="M277.635 418.045C277.252 410.86 275.225 396.128 273.265 382.815C271.148 368.488 258.375 358.216 243.936 359.185L242.494 359.275C227.087 361.212 220.126 375.381 222.491 390.744L227.019 446.045H264.638C264.638 446.045 263.759 436.337 263.737 436.247C263.737 436.247 278.446 432.935 277.635 418.068V418.045Z" fill="#FFBE9D"/>
<path d="M263.737 436.021C263.737 436.021 254.389 437.418 243.981 431.809C243.981 431.809 249.275 442.194 264.03 439.873L263.737 436.021Z" fill="#EB996E"/>
<path d="M268.467 395.587C268.58 396.713 267.724 397.727 266.552 397.862C265.381 397.997 264.345 397.209 264.232 396.105C264.119 394.979 264.976 393.965 266.124 393.83C267.296 393.695 268.332 394.483 268.445 395.609L268.467 395.587Z" fill="#263238"/>
<path d="M270.54 390.316C270.292 390.609 268.602 389.527 266.327 389.685C264.052 389.82 262.453 391.104 262.183 390.834C262.047 390.721 262.295 390.203 262.971 389.618C263.647 389.032 264.841 388.446 266.26 388.356C267.679 388.266 268.918 388.716 269.639 389.212C270.382 389.708 270.652 390.181 270.517 390.316H270.54Z" fill="#263238"/>
<path d="M246.886 397.119C246.999 398.245 246.143 399.259 244.972 399.394C243.8 399.529 242.764 398.741 242.652 397.637C242.539 396.511 243.395 395.497 244.544 395.362C245.715 395.227 246.751 396.015 246.864 397.142L246.886 397.119Z" fill="#263238"/>
<path d="M248.103 392.231C247.855 392.523 246.166 391.442 243.891 391.6C241.616 391.735 240.016 393.019 239.746 392.749C239.611 392.636 239.858 392.118 240.557 391.532C241.233 390.947 242.426 390.361 243.846 390.271C245.265 390.181 246.504 390.631 247.225 391.127C247.968 391.622 248.238 392.095 248.103 392.231Z" fill="#263238"/>
<path d="M257.542 408.629C257.542 408.494 258.916 408.156 261.214 407.706C261.799 407.616 262.34 407.458 262.407 407.052C262.52 406.624 262.227 406.016 261.912 405.34C261.259 403.966 260.605 402.525 259.884 401.015C257.069 394.843 254.974 389.775 255.222 389.662C255.469 389.55 257.97 394.46 260.786 400.632C261.461 402.164 262.115 403.606 262.745 405.003C263.016 405.656 263.444 406.377 263.196 407.278C263.061 407.728 262.655 408.066 262.295 408.201C261.934 408.336 261.596 408.359 261.304 408.404C259.006 408.674 257.564 408.787 257.542 408.652V408.629Z" fill="#263238"/>
<path d="M248.104 383.242C247.924 383.873 245.626 383.738 242.968 384.233C240.287 384.684 238.192 385.607 237.787 385.089C237.607 384.842 237.945 384.233 238.778 383.558C239.611 382.904 240.941 382.229 242.54 381.958C244.139 381.665 245.626 381.823 246.64 382.161C247.653 382.499 248.171 382.949 248.104 383.242Z" fill="#263238"/>
<path d="M269.256 383.76C268.896 384.301 267.274 383.873 265.382 383.963C263.489 384.008 261.913 384.549 261.507 384.031C261.327 383.783 261.552 383.242 262.205 382.702C262.859 382.161 263.985 381.688 265.291 381.643C266.598 381.598 267.747 381.981 268.445 382.476C269.143 382.972 269.414 383.49 269.234 383.76H269.256Z" fill="#263238"/>
<path d="M224.451 401.669C224.181 401.579 214.022 399.326 215.035 409.485C216.049 419.622 227.042 416.333 227.019 416.04C227.019 415.747 224.451 401.691 224.451 401.691V401.669Z" fill="#FFBE9D"/>
<path d="M222.514 412.684C222.514 412.684 222.356 412.819 222.063 412.999C221.793 413.157 221.298 413.292 220.734 413.157C219.631 412.864 218.549 411.265 218.324 409.44C218.212 408.517 218.324 407.616 218.572 406.872C218.797 406.106 219.248 405.543 219.766 405.386C220.284 405.205 220.712 405.498 220.847 405.769C221.005 406.039 220.96 406.242 221.027 406.264C221.05 406.287 221.23 406.084 221.095 405.656C221.027 405.453 220.892 405.228 220.622 405.07C220.352 404.89 219.991 404.822 219.608 404.913C218.842 405.048 218.189 405.836 217.919 406.67C217.603 407.503 217.446 408.517 217.581 409.553C217.851 411.58 219.09 413.405 220.599 413.675C221.32 413.788 221.906 413.518 222.199 413.247C222.492 412.954 222.514 412.729 222.491 412.729L222.514 412.684Z" fill="#EB996E"/>
<path d="M272.499 368.938C271.801 372.971 263.624 376.665 256.821 376.485C250.559 376.304 247.473 373.196 242.923 370.988C241 370.057 238.74 369.802 236.142 370.222C232.989 370.74 231.344 374.457 229.565 377.115C232.944 384.481 231.57 393.041 230.15 401.015C229.993 401.894 229.79 402.84 229.114 403.448C227.965 404.462 226.118 403.854 225.014 402.818C223.212 401.173 222.401 398.74 221.816 396.375C220.464 390.991 219.969 385.36 220.802 379.886C221.658 374.412 223.911 369.074 227.672 364.996C232.358 359.883 239.183 356.932 246.121 356.572C253.037 356.211 259.997 358.351 265.787 362.158C268.467 363.915 270.99 366.1 272.499 368.938Z" fill="#263238"/>
<path d="M259.028 413.766C257.293 412.955 255.581 412.166 253.847 411.355C253.554 411.22 253.239 411.085 252.901 411.108C252.54 411.153 252.248 411.423 252 411.716C250.806 413.158 250.491 415.365 251.437 417.01C252.36 418.654 254.545 419.51 256.28 418.789C258.104 418.023 259.005 415.906 259.141 413.923L259.005 413.766H259.028Z" fill="#EB996E"/>
<path d="M256.46 419.149C256.46 419.149 255.379 419.983 253.419 419.42C252.473 419.127 251.414 418.406 250.739 417.234C250.063 416.086 249.815 414.464 250.401 413C250.671 412.279 251.122 411.625 251.662 411.13C251.933 410.882 252.203 410.657 252.541 410.477C252.879 410.229 253.577 410.206 253.892 410.409C255.064 411.062 255.875 411.625 256.663 412.144C258.172 413.157 259.073 413.833 258.983 413.991C258.893 414.126 257.857 413.698 256.235 412.864C255.289 412.369 254.388 411.896 253.487 411.423C253.262 411.355 253.284 411.355 253.081 411.468C252.879 411.603 252.631 411.783 252.451 411.986C252.045 412.391 251.707 412.887 251.505 413.45C251.054 414.576 251.212 415.815 251.707 416.761C252.203 417.708 252.969 418.338 253.735 418.676C255.289 419.352 256.438 418.992 256.483 419.172L256.46 419.149Z" fill="#263238"/>
<path d="M254.838 395.835C254.726 395.835 254.748 394.889 254.275 393.312C253.825 391.758 252.743 389.483 250.401 387.748C248.126 386.014 244.409 385.045 240.827 386.396C237.268 387.635 234.204 391.42 234.249 395.835C234.204 400.25 237.268 404.034 240.827 405.273C244.409 406.625 248.126 405.656 250.401 403.922C252.743 402.187 253.847 399.912 254.275 398.358C254.726 396.781 254.703 395.812 254.838 395.835C254.883 395.835 254.906 396.06 254.928 396.511C254.951 396.961 254.928 397.637 254.726 398.47C254.388 400.137 253.374 402.615 250.896 404.575C248.509 406.535 244.431 407.706 240.444 406.287C236.48 404.981 233.011 400.768 233.056 395.835C233.011 390.902 236.48 386.689 240.444 385.383C244.454 383.941 248.509 385.112 250.896 387.095C253.374 389.055 254.388 391.555 254.726 393.199C254.906 394.033 254.951 394.709 254.928 395.159C254.928 395.61 254.883 395.835 254.838 395.835Z" fill="#263238"/>
<path d="M280.136 394.843C280.023 394.843 280.023 393.92 279.595 392.388C279.167 390.879 278.108 388.671 275.811 386.982C273.603 385.292 269.976 384.369 266.485 385.675C263.016 386.869 260.042 390.563 260.087 394.866C260.042 399.168 263.038 402.84 266.485 404.057C269.976 405.363 273.603 404.44 275.811 402.75C278.108 401.061 279.167 398.853 279.595 397.344C280.045 395.79 280.023 394.866 280.136 394.888C280.181 394.888 280.203 395.114 280.226 395.564C280.248 395.992 280.226 396.646 280.045 397.479C279.73 399.101 278.739 401.511 276.329 403.448C274.008 405.363 270.044 406.512 266.124 405.115C262.25 403.831 258.871 399.732 258.916 394.911C258.871 390.09 262.25 385.991 266.124 384.707C270.021 383.31 273.986 384.459 276.329 386.374C278.739 388.288 279.73 390.721 280.045 392.343C280.226 393.154 280.248 393.807 280.226 394.258C280.226 394.686 280.181 394.934 280.136 394.934V394.843Z" fill="#263238"/>
<path d="M259.501 392.501C259.276 392.726 258.262 392.073 256.911 392.118C255.559 392.118 254.591 392.816 254.343 392.591C254.028 392.433 254.974 390.969 256.888 390.924C258.803 390.902 259.794 392.321 259.501 392.478V392.501Z" fill="#263238"/>
<path d="M234.295 394.325C234.497 394.596 232.515 396.375 229.902 398.335C227.289 400.295 224.991 401.669 224.811 401.399C224.608 401.128 226.591 399.349 229.204 397.389C231.817 395.429 234.114 394.055 234.295 394.325Z" fill="#263238"/>
<path d="M443.36 395.317C443.36 395.632 417.297 395.902 385.153 395.902C353.008 395.902 326.945 395.632 326.945 395.317C326.945 395.001 353.008 394.731 385.153 394.731C417.297 394.731 443.36 395.001 443.36 395.317Z" fill="#263238"/>
<path d="M389.545 407.503C389.545 407.819 375.713 408.089 358.639 408.089C341.564 408.089 327.733 407.819 327.733 407.503C327.733 407.188 341.564 406.917 358.639 406.917C375.713 406.917 389.545 407.188 389.545 407.503Z" fill="#263238"/>
<path d="M792.085 485.331C792.085 485.331 823.014 500.401 833.894 539.326C844.774 578.251 878.023 679.618 878.023 679.618C878.023 679.618 897.035 701.987 899.084 718.543C901.112 735.1 897.057 775.174 890.93 782.653C884.825 790.131 876.108 788.893 876.108 788.893L796.073 781.301L764.559 570.277L792.085 485.331Z" fill="#407BFF"/>
<path d="M527.427 481.637C527.427 481.637 470.21 499.59 455.951 515.201L502.805 733.186L502.062 801.958H773.366C773.366 798.556 775.799 573.611 775.799 573.611L792.086 485.331L695.651 468.346L676.639 453.412L569.348 458.84L553.061 475.127L527.449 481.614L527.427 481.637Z" fill="#407BFF"/>
<g opacity="0.3">
<path d="M549.164 670.744C548.331 668.897 547.137 666.892 545.155 666.486C541.889 665.811 539.704 669.685 538.6 672.816C529.792 697.775 518.124 720.729 502.963 742.399L502.265 775.873C518.078 762.56 533.667 748.301 543.758 730.258C553.85 712.214 557.702 689.575 549.187 670.744H549.164Z" fill="black"/>
</g>
<path d="M455.952 515.201C455.952 515.201 437.098 540.903 429.259 557.685C421.419 574.467 356.544 715.39 352.647 729.942C348.728 744.494 338.659 790.334 368.303 800.967H429.259L490.439 677.231L493.571 533.627L455.929 515.201H455.952Z" fill="#407BFF"/>
<path d="M433.178 711.605C433.178 711.605 431.826 710.412 429.01 708.812C426.217 707.235 421.847 705.411 416.215 704.172C413.4 703.564 410.269 703.068 406.89 702.865C403.511 702.663 399.884 702.708 396.19 703.564C388.801 705.208 381.458 709.893 375.669 716.449C369.789 723.004 366.185 730.753 364.045 738.051C361.883 745.372 360.959 752.243 360.373 757.987C359.81 763.753 359.585 768.439 359.382 771.683C359.292 773.192 359.202 774.431 359.157 775.422C359.089 776.278 359.044 776.728 358.999 776.728C358.954 776.728 358.932 776.278 358.932 775.422C358.932 774.431 358.932 773.192 358.932 771.683C358.999 768.439 359.089 763.731 359.54 757.919C360.013 752.13 360.869 745.192 362.986 737.736C365.081 730.325 368.753 722.373 374.767 715.66C380.692 708.947 388.261 704.149 395.942 702.505C399.771 701.649 403.511 701.626 406.935 701.897C410.359 702.144 413.535 702.685 416.373 703.361C422.072 704.712 426.442 706.672 429.213 708.407C430.587 709.285 431.601 710.074 432.232 710.659C432.862 711.245 433.178 711.583 433.133 711.605H433.178Z" fill="#263238"/>
<path d="M404.254 686.962C404.254 686.962 404.975 686.759 406.304 686.624C407.633 686.466 409.571 686.421 411.958 686.557C414.346 686.669 417.184 687.075 420.27 687.796C423.334 688.561 426.668 689.688 429.979 691.242C433.268 692.841 436.241 694.711 438.764 696.626C441.265 698.586 443.36 700.523 444.959 702.325C446.558 704.104 447.752 705.636 448.451 706.763C449.171 707.889 449.554 708.52 449.487 708.565C449.307 708.7 447.662 706.244 444.351 702.888C442.706 701.199 440.589 699.351 438.111 697.504C435.588 695.68 432.682 693.878 429.461 692.323C426.217 690.791 422.996 689.688 420 688.877C416.982 688.111 414.233 687.638 411.891 687.435C407.205 686.985 404.277 687.232 404.254 687.007V686.962Z" fill="#263238"/>
<path d="M459.376 680.182C459.376 680.182 458.362 680.182 456.56 679.956C454.758 679.731 452.145 679.461 448.924 679.213C442.481 678.717 433.516 678.605 423.695 679.776C413.896 680.97 405.201 683.2 399.051 685.182C395.965 686.174 393.487 687.052 391.798 687.705C390.108 688.336 389.14 688.651 389.117 688.584C389.095 688.516 389.973 688.043 391.64 687.277C393.284 686.489 395.717 685.498 398.803 684.394C404.93 682.186 413.671 679.799 423.582 678.605C433.471 677.433 442.549 677.681 449.014 678.38C452.258 678.717 454.871 679.123 456.65 679.483C458.43 679.844 459.421 680.069 459.399 680.159L459.376 680.182Z" fill="#263238"/>
<path d="M633.006 559.779C633.006 559.779 632.781 559.554 632.376 559.036C631.948 558.45 631.385 557.707 630.709 556.806C629.222 554.734 627.15 551.873 624.582 548.314C619.311 540.88 611.99 530.541 603.34 518.354L604.286 518.219C600.997 527.86 597.37 538.515 593.563 549.71L593.316 550.409L592.707 550.003C592.302 549.755 591.874 549.463 591.446 549.192C586.4 545.994 581.94 542.142 578.178 537.974C574.416 533.784 571.285 529.324 568.694 524.864C563.513 515.921 560.382 507.113 558.265 499.657C556.147 492.179 555.044 485.961 554.323 481.704C553.962 479.654 553.692 478.032 553.467 476.793C553.354 476.23 553.242 475.825 553.174 475.532C553.061 475.284 553.016 475.126 553.039 475.126C553.287 475.014 553.94 477.379 554.773 481.636C555.652 485.871 556.868 492.044 559.076 499.455C561.283 506.843 564.46 515.561 569.641 524.346C572.231 528.738 575.317 533.109 579.034 537.231C582.773 541.308 587.143 545.092 592.077 548.224C592.505 548.494 592.933 548.764 593.316 549.012L592.46 549.327C596.311 538.132 599.961 527.5 603.272 517.881L603.61 516.867L604.218 517.746C612.71 530.022 619.919 540.452 625.1 547.953C627.578 551.58 629.537 554.508 630.979 556.626C631.61 557.572 632.105 558.338 632.511 558.946C632.849 559.487 633.006 559.757 632.984 559.779H633.006Z" fill="#263238"/>
<g opacity="0.3">
<path d="M703.649 663.828C701.126 689.034 706.69 714.984 719.327 736.925C731.942 758.888 750.458 778.44 773.502 788.96C774.246 766.592 773.164 740.236 773.908 717.868L703.649 663.828Z" fill="black"/>
</g>
<path d="M701.103 634.386C701.103 634.386 691.259 637.112 698.648 657.318C706.036 677.501 708.492 676.285 713.425 695.184C718.358 714.061 724.102 731.316 732.73 741.994C741.357 752.671 773.389 774.431 773.389 774.431L802.133 747.332C802.133 747.332 797.402 727.126 798.528 713.408C799.655 699.689 802.538 666.013 802.133 660.269C801.727 654.525 795.555 640.558 795.555 640.558V631.007L780.778 585.527C780.778 585.527 772.556 581.833 769.695 594.966L764.762 581.022C764.762 581.022 756.968 579.783 754.918 595.799C752.868 611.815 756.562 633.981 756.562 633.981L752.462 661.913L746.313 680.79L740.974 681.601C740.974 681.601 732.932 679.416 728.54 664.278C724.147 649.163 712.231 631.098 701.148 634.386H701.103Z" fill="#FFBE9D"/>
<path d="M792.469 705.794C792.469 705.794 792.401 705.434 792.334 704.758C792.289 703.969 792.221 702.978 792.131 701.739C791.973 698.991 791.771 695.184 791.523 690.431C791.072 680.632 790.464 666.982 789.743 651.056L789.878 651.393C788.549 649.817 786.207 649.344 784.067 649.884C781.882 650.402 779.944 651.754 778.728 653.781C776.228 657.813 776.07 663.085 775.304 668.175C773.75 679.686 772.263 690.634 770.912 700.635C770.236 705.614 769.515 710.367 768.524 714.759C767.578 719.152 766.249 723.162 764.965 726.743C763.703 730.325 762.577 733.569 761.879 736.497C761.18 739.425 760.887 741.993 760.955 744.111C761.045 748.346 762.284 750.508 762.081 750.553C762.036 750.553 761.811 750.035 761.383 748.977C761.045 747.895 760.572 746.273 760.482 744.133C760.347 741.993 760.572 739.335 761.225 736.362C761.879 733.388 762.96 730.1 764.176 726.495C765.415 722.891 766.677 718.949 767.578 714.579C768.501 710.232 769.177 705.501 769.83 700.523C771.159 690.521 772.601 679.574 774.133 668.063C774.493 665.495 774.763 662.972 775.214 660.426C775.665 657.904 776.363 655.381 777.759 653.218C779.066 651.01 781.364 649.389 783.796 648.825C786.207 648.217 789.068 648.758 790.712 650.74L790.825 650.898V651.078C791.388 667.004 791.838 680.655 792.176 690.476C792.289 695.229 792.401 699.036 792.469 701.807C792.469 703.046 792.491 704.037 792.491 704.825C792.491 705.501 792.492 705.862 792.446 705.862L792.469 705.794Z" fill="#EB996E"/>
<path d="M776.769 654.051C776.769 654.051 776.251 653.173 775.552 651.483C774.877 649.794 773.975 647.294 773.142 644.117C772.309 640.964 771.52 637.112 771.07 632.809C770.844 630.647 770.687 628.349 770.957 625.961C771.205 623.574 771.903 621.051 773.435 618.933C774.741 617.086 776.588 615.599 778.683 614.991L779.134 614.856L779.359 615.261C783.527 622.605 787.131 629.092 789.676 633.755C790.848 635.94 791.816 637.765 792.627 639.274C793.303 640.581 793.641 641.302 793.573 641.347C793.506 641.392 793.055 640.716 792.267 639.477C791.388 638.035 790.307 636.256 789.023 634.138C786.297 629.565 782.558 623.168 778.346 615.847L779.021 616.117C777.219 616.658 775.575 617.942 774.403 619.631C773.029 621.569 772.354 623.866 772.106 626.119C771.858 628.394 771.971 630.624 772.151 632.742C772.534 636.999 773.21 640.806 773.953 643.96C774.674 647.113 775.44 649.636 775.98 651.371C776.521 653.105 776.836 654.051 776.769 654.096V654.051Z" fill="#EB996E"/>
<path d="M769.898 657.746C769.898 657.746 769.718 656.822 769.628 655.133C769.56 653.196 769.448 650.808 769.335 647.992C769.132 641.955 768.952 633.62 768.817 624.407C768.749 615.194 768.389 606.837 769.177 600.777C769.56 597.759 770.169 595.349 770.709 593.749C771.25 592.127 771.7 591.294 771.768 591.339C771.971 591.406 770.506 594.898 769.988 600.89C769.425 606.859 769.898 615.194 769.988 624.407C770.124 633.62 770.169 641.955 770.169 647.992C770.146 650.808 770.101 653.196 770.079 655.155C770.033 656.845 769.966 657.768 769.898 657.791V657.746Z" fill="#EB996E"/>
<path d="M745.592 733.456C745.434 733.321 747.214 731.203 749.444 727.351C750.57 725.437 751.719 723.049 752.778 720.346C753.791 717.597 754.715 714.511 755.346 711.2C755.931 707.866 756.134 704.668 756.134 701.739C756.089 698.811 755.841 696.175 755.458 694.013C754.715 689.643 753.769 687.03 753.972 686.962C754.039 686.939 754.332 687.57 754.783 688.742C755.256 689.913 755.774 691.67 756.269 693.855C756.765 696.063 757.103 698.743 757.215 701.717C757.283 704.713 757.08 708.001 756.495 711.403C755.864 714.804 754.895 717.958 753.791 720.729C752.643 723.477 751.381 725.887 750.142 727.779C748.926 729.671 747.822 731.136 746.966 732.059C746.132 733.005 745.637 733.501 745.569 733.433L745.592 733.456Z" fill="#EB996E"/>
<path d="M796.051 719.332L820.987 727.982C820.987 727.982 844.797 715.661 861.219 727.982C877.64 740.304 891.899 772.764 887.394 785.897C887.394 785.897 876.063 799.886 867.436 801.936C858.808 803.985 825.289 795.876 811.346 792.925C797.357 789.974 773.344 774.364 773.344 774.364L796.028 719.31L796.051 719.332Z" fill="#FFBE9D"/>
<path d="M799.114 756.095C799.114 756.095 798.933 755.307 798.843 753.887C798.753 752.198 798.618 750.193 798.483 747.873C798.213 742.782 797.875 735.754 797.762 727.96C797.649 720.166 797.875 713.115 798.348 708.024C798.573 705.479 798.843 703.429 799.091 702.01C799.339 700.591 799.519 699.825 799.609 699.847C799.789 699.87 799.406 703.001 799.159 708.069C798.911 713.138 798.821 720.166 798.933 727.937C799.069 735.551 799.204 742.444 799.294 747.851C799.316 750.396 799.294 752.468 799.294 753.887C799.249 755.307 799.181 756.095 799.114 756.095Z" fill="#EB996E"/>
<path d="M881.356 727.014C881.176 727.194 878.608 723.635 873.067 719.535C867.593 715.435 858.717 711.065 848.22 710.48C837.701 709.917 828.397 713.273 822.518 716.742C816.549 720.211 813.62 723.455 813.462 723.252C813.417 723.207 814.116 722.373 815.512 721.022C816.909 719.67 819.117 717.868 822.09 716.021C827.969 712.304 837.475 708.723 848.288 709.308C859.1 709.917 868.156 714.534 873.585 718.859C876.333 721.022 878.338 723.072 879.577 724.559C880.838 726.045 881.424 726.969 881.379 726.991L881.356 727.014Z" fill="#263238"/>
<path d="M878.158 706.222C878 706.47 874.666 703.091 867.773 700.5C860.993 697.842 850.473 696.626 839.683 699.667C834.3 701.176 829.366 703.316 825.154 705.704C820.942 708.114 817.428 710.75 814.634 713.137C811.841 715.525 809.701 717.62 808.237 719.062C806.773 720.526 805.962 721.314 805.894 721.269C805.849 721.224 806.547 720.323 807.921 718.746C809.296 717.192 811.345 715.007 814.116 712.507C816.864 710.006 820.378 707.258 824.636 704.758C828.893 702.28 833.894 700.05 839.39 698.518C850.451 695.409 861.241 696.806 868.089 699.712C871.558 701.131 874.126 702.775 875.77 704.037C876.626 704.645 877.189 705.231 877.595 705.591C878 705.974 878.203 706.177 878.158 706.199V706.222Z" fill="#263238"/>
<path d="M878.361 688.201C878.293 688.426 873.946 687.097 866.692 686.129C863.066 685.611 858.718 685.318 853.897 685.318C849.077 685.385 843.783 685.791 838.287 686.714C832.813 687.706 827.7 689.147 823.127 690.724C818.599 692.368 814.612 694.125 811.391 695.86C804.926 699.261 801.276 701.987 801.141 701.807C801.096 701.739 801.975 701.041 803.642 699.802C804.453 699.171 805.489 698.45 806.728 697.685C807.967 696.919 809.363 695.973 810.985 695.139C814.184 693.314 818.194 691.467 822.744 689.733C827.339 688.088 832.52 686.602 838.062 685.588C843.626 684.642 848.987 684.259 853.875 684.259C858.763 684.327 863.156 684.71 866.782 685.34C868.607 685.566 870.229 685.994 871.671 686.286C873.112 686.579 874.329 686.917 875.297 687.21C877.28 687.796 878.338 688.156 878.316 688.224L878.361 688.201Z" fill="#263238"/>
<path d="M687.249 467.603C687.249 467.603 688.398 469.766 688.984 474.226C689.592 478.663 689.502 485.331 688.038 493.576C687.294 497.698 686.303 502.226 684.817 507.069C683.262 511.912 680.92 516.868 678.261 522.049C672.9 532.411 666.12 543.696 658.303 555.748L657.38 557.167V555.477C657.38 547.526 657.357 539.168 657.335 530.473L658.213 530.901C651.501 536.308 644.45 542.007 637.174 547.886L637.354 547.616C632.488 563.069 629.267 580.279 628.006 598.187C625.956 625.601 627.6 651.821 628.907 675.609C630.011 699.419 630.731 720.886 631.475 738.885C632.196 756.906 632.849 771.458 633.389 781.527C633.682 786.505 633.908 790.402 634.065 793.105C634.155 794.389 634.223 795.38 634.268 796.124C634.313 796.799 634.291 797.16 634.291 797.16C634.291 797.16 634.223 796.822 634.133 796.146C634.065 795.425 633.953 794.412 633.817 793.15C633.57 790.515 633.254 786.595 632.916 781.572C632.241 771.503 631.452 756.951 630.641 738.93C629.83 720.909 628.884 699.464 627.803 675.677C626.451 651.912 624.762 625.624 626.812 598.119C628.096 580.143 631.317 562.843 636.25 547.3L636.295 547.143L636.431 547.03C643.706 541.173 650.78 535.497 657.492 530.09L658.371 529.392V530.518C658.371 539.191 658.348 547.548 658.326 555.522L657.402 555.252C672.878 531.262 685.47 510.403 687.407 493.531C688.961 485.354 689.142 478.753 688.624 474.316C688.398 472.086 687.97 470.441 687.7 469.315C687.34 468.211 687.204 467.648 687.204 467.648L687.249 467.603Z" fill="#263238"/>
<path d="M646.86 758.19H646.049C642.783 758.257 639.877 761.231 639.877 764.497C639.877 767.763 642.76 770.759 646.004 770.872C649.27 770.985 652.356 768.191 652.559 764.948C652.784 761.704 650.081 758.528 646.838 758.212L646.86 758.19Z" fill="white"/>
<path d="M646.86 671.374H646.049C642.783 671.442 639.877 674.415 639.877 677.681C639.877 680.948 642.76 683.944 646.004 684.056C649.27 684.169 652.356 681.376 652.559 678.132C652.784 674.888 650.081 671.712 646.838 671.397L646.86 671.374Z" fill="white"/>
<path d="M646.005 593.704C649.271 593.816 652.357 591.023 652.56 587.779C652.785 584.536 650.082 581.36 646.838 581.044H646.027C642.761 581.112 639.855 584.085 639.855 587.351C639.855 590.618 642.738 593.614 645.982 593.726L646.005 593.704Z" fill="white"/>
<path d="M548.759 365.875C540.853 357.135 532.901 348.282 527.134 338.011C521.368 327.739 517.944 315.732 519.858 304.109C520.962 297.306 523.868 290.841 524.319 283.948C524.949 274.487 520.985 264.598 524.319 255.745C529.567 241.892 548.219 239.752 559.527 230.178C568.335 222.722 572.615 210.625 582.323 204.341C590.793 198.867 601.673 198.979 611.652 200.399C621.631 201.818 631.678 204.341 641.68 202.989C648.798 202.02 655.511 199.16 662.494 197.425C669.477 195.691 677.248 195.24 683.466 198.844C689.683 202.448 693.174 211.279 689.097 217.203C700.675 211.864 715.385 220.897 718.561 233.242C721.737 245.586 715.385 258.944 705.564 267.076C695.742 275.23 683.06 279.015 670.536 281.38C635.057 288.07 596.582 284.286 566.014 265.094" fill="#263238"/>
<path d="M673.465 485.151C671.73 471.725 670.311 460.53 670.221 459.133C670.221 459.133 715.093 449.042 712.615 403.674C711.421 381.756 705.272 336.771 699.257 296.157C692.792 252.546 653.844 221.235 609.851 224.163L605.481 224.456C558.492 230.358 537.272 273.586 544.48 320.372L569.822 477.312C569.822 477.312 580.635 512.024 603.791 518.039L632.985 559.757L637.806 541.804L659.566 522.86C659.566 522.86 664.567 517.453 670.289 506.889C674.974 498.238 673.983 489.363 673.42 485.151H673.465Z" fill="#FFBE9D"/>
<path d="M670.266 458.458C670.266 458.458 641.77 462.715 610.031 445.618C610.031 445.618 626.182 477.312 671.144 470.194L670.243 458.458H670.266Z" fill="#EB996E"/>
<path d="M684.705 335.15C685.066 338.551 682.452 341.66 678.893 342.11C675.334 342.538 672.181 340.128 671.82 336.727C671.482 333.325 674.073 330.194 677.609 329.766C681.168 329.338 684.322 331.748 684.683 335.172L684.705 335.15Z" fill="#263238"/>
<path d="M691.035 319.066C690.291 319.967 685.133 316.656 678.172 317.151C671.212 317.534 666.324 321.454 665.513 320.665C665.107 320.305 665.828 318.728 667.946 316.971C670.041 315.214 673.667 313.389 678.015 313.119C682.362 312.849 686.124 314.2 688.332 315.71C690.584 317.219 691.418 318.683 691.035 319.089V319.066Z" fill="#263238"/>
<path d="M618.883 339.858C619.244 343.259 616.631 346.368 613.072 346.818C609.512 347.246 606.359 344.836 605.998 341.434C605.66 338.033 608.251 334.902 611.788 334.474C615.347 334.046 618.5 336.456 618.861 339.88L618.883 339.858Z" fill="#263238"/>
<path d="M622.622 324.945C621.879 325.847 616.72 322.535 609.76 323.031C602.799 323.414 597.911 327.333 597.1 326.545C596.695 326.184 597.415 324.608 599.533 322.851C601.605 321.093 605.255 319.269 609.58 318.999C613.927 318.728 617.689 320.08 619.897 321.589C622.149 323.098 622.983 324.563 622.6 324.968L622.622 324.945Z" fill="#263238"/>
<path d="M651.366 374.908C651.299 374.525 655.579 373.467 662.539 372.115C664.296 371.822 665.963 371.349 666.188 370.11C666.526 368.804 665.648 366.934 664.657 364.907C662.697 360.717 660.647 356.324 658.484 351.706C649.879 332.897 643.527 317.399 644.293 317.061C645.059 316.723 652.628 331.681 661.233 350.49C663.305 355.13 665.287 359.545 667.18 363.78C667.99 365.763 669.297 367.97 668.576 370.696C668.193 372.047 666.954 373.106 665.828 373.489C664.702 373.917 663.711 374.007 662.832 374.12C655.804 374.976 651.411 375.291 651.366 374.908Z" fill="#263238"/>
<path d="M622.6 297.508C622.037 299.445 615.031 299.017 606.922 300.549C598.79 301.923 592.347 304.762 591.154 303.117C590.613 302.329 591.649 300.482 594.195 298.454C596.717 296.45 600.817 294.422 605.683 293.544C610.549 292.688 615.099 293.161 618.162 294.174C621.248 295.188 622.848 296.562 622.622 297.486L622.6 297.508Z" fill="#263238"/>
<path d="M687.115 299.063C685.989 300.729 681.078 299.4 675.311 299.716C669.522 299.828 664.724 301.495 663.485 299.919C662.944 299.153 663.598 297.508 665.648 295.864C667.652 294.242 671.099 292.778 675.063 292.62C679.028 292.485 682.565 293.679 684.682 295.166C686.822 296.652 687.61 298.229 687.115 299.04V299.063Z" fill="#263238"/>
<path d="M550.449 353.711C549.661 353.418 518.688 346.57 521.751 377.521C524.815 408.449 558.334 398.38 558.311 397.479C558.266 396.578 550.472 353.733 550.472 353.733L550.449 353.711Z" fill="#FFBE9D"/>
<path d="M544.592 387.32C544.457 387.23 544.096 387.748 543.218 388.266C542.362 388.762 540.875 389.19 539.208 388.739C535.829 387.861 532.563 382.95 531.865 377.386C531.504 374.57 531.842 371.845 532.608 369.524C533.329 367.159 534.636 365.447 536.257 364.997C537.857 364.456 539.118 365.335 539.591 366.168C540.087 367.002 539.952 367.632 540.132 367.655C540.222 367.722 540.74 367.069 540.38 365.808C540.199 365.199 539.749 364.524 538.961 363.983C538.15 363.442 537.046 363.262 535.897 363.487C533.532 363.893 531.595 366.303 530.739 368.849C529.747 371.417 529.319 374.503 529.725 377.656C530.536 383.874 534.298 389.392 538.916 390.226C541.146 390.586 542.903 389.753 543.759 388.919C544.637 388.063 544.727 387.343 544.615 387.297L544.592 387.32Z" fill="#EB996E"/>
<path d="M697.004 253.898C694.887 266.22 669.905 277.483 649.204 276.897C630.124 276.334 620.686 266.873 606.81 260.138C600.953 257.299 594.06 256.526 586.131 257.817C576.49 259.394 571.511 270.747 566.105 278.879C576.399 301.338 572.232 327.446 567.885 351.774C567.411 354.454 566.803 357.36 564.753 359.162C561.284 362.226 555.63 360.401 552.229 357.27C546.755 352.247 544.255 344.813 542.475 337.627C538.398 321.228 536.821 304.041 539.412 287.327C542.002 270.612 548.918 254.393 560.338 241.914C574.597 226.326 595.457 217.338 616.563 216.257C637.67 215.175 658.867 221.708 676.528 233.286C684.727 238.648 692.386 245.293 697.027 253.943" fill="#263238"/>
<path d="M655.916 390.586C650.667 388.131 645.396 385.676 640.148 383.243C639.247 382.815 638.278 382.387 637.287 382.522C636.161 382.68 635.282 383.513 634.561 384.369C630.912 388.807 629.988 395.474 632.804 400.475C635.643 405.476 642.288 408.112 647.604 405.904C653.19 403.584 655.916 397.096 656.344 391.059L655.916 390.564V390.586Z" fill="#EB996E"/>
<path d="M648.1 407.031C648.145 407.166 647.379 407.616 645.802 407.954C644.248 408.247 641.815 408.382 639.022 407.459C636.251 406.58 633.12 404.418 631.183 400.948C629.223 397.57 628.502 392.817 630.214 388.514C631.025 386.374 632.309 384.482 633.863 382.995C634.652 382.252 635.485 381.621 636.431 381.058C636.927 380.788 637.535 380.517 638.256 380.472C638.954 380.427 639.585 380.607 640.081 380.833C641.117 381.283 641.77 381.779 642.536 382.229C643.279 382.68 643.978 383.13 644.676 383.558C646.028 384.414 647.312 385.203 648.505 385.969C653.191 388.942 655.984 390.902 655.826 391.195C655.669 391.465 652.56 390.001 647.672 387.41C646.433 386.735 645.104 386.014 643.685 385.248C642.964 384.842 642.221 384.437 641.477 384.031C640.734 383.626 639.9 383.108 639.247 382.86C638.526 382.612 638.211 382.635 637.513 383.018C636.814 383.446 636.071 384.031 635.44 384.662C634.134 385.946 633.075 387.545 632.377 389.37C630.935 392.997 631.453 396.939 633.052 399.935C634.629 402.953 637.175 404.936 639.563 405.927C641.973 406.94 644.18 407.076 645.667 407.076C647.176 407.031 648.01 406.895 648.077 407.076L648.1 407.031Z" fill="#263238"/>
<path d="M643.144 335.916C642.963 335.916 643.166 333.032 641.905 328.076C640.666 323.233 637.422 316.093 630.124 310.551C626.497 307.848 621.947 305.573 616.698 304.649C611.495 303.771 605.593 303.928 600.006 306.068C597.19 307.06 594.465 308.524 591.987 310.393C589.464 312.218 587.166 314.493 585.274 317.129C581.377 322.332 579.17 329 579.102 335.87C579.17 342.741 581.355 349.431 585.274 354.635C587.166 357.27 589.464 359.545 591.987 361.393C594.487 363.262 597.19 364.749 600.006 365.718C605.593 367.858 611.495 368.015 616.698 367.137C621.947 366.213 626.497 363.938 630.124 361.235C637.422 355.716 640.666 348.575 641.905 343.71C643.166 338.754 642.963 335.87 643.144 335.87C643.144 335.87 643.166 336.051 643.166 336.389C643.166 336.817 643.166 337.312 643.166 337.92C643.166 338.596 643.144 339.43 642.963 340.421C642.828 341.412 642.716 342.538 642.355 343.8C641.837 346.323 640.688 349.319 638.864 352.517C637.017 355.693 634.336 359.027 630.642 361.866C626.97 364.681 622.307 367.069 616.901 368.06C611.54 369.006 605.458 368.871 599.668 366.709C596.74 365.718 593.924 364.186 591.334 362.249C588.721 360.356 586.333 358.014 584.373 355.288C580.318 349.904 578.021 342.989 577.953 335.848C578.021 328.707 580.318 321.792 584.373 316.408C586.333 313.682 588.721 311.34 591.334 309.447C593.924 307.533 596.74 306.001 599.668 305.01C605.458 302.825 611.54 302.69 616.901 303.658C622.307 304.649 626.97 307.06 630.642 309.853C634.336 312.691 637.017 316.025 638.864 319.201C640.688 322.4 641.837 325.396 642.355 327.919C642.716 329.158 642.828 330.307 642.963 331.298C643.121 332.289 643.166 333.122 643.166 333.798C643.166 334.406 643.166 334.924 643.166 335.33C643.166 335.668 643.166 335.848 643.144 335.848V335.916Z" fill="#263238"/>
<path d="M720.273 332.897C720.093 332.897 720.273 330.081 719.056 325.261C717.84 320.53 714.686 313.569 707.568 308.208C704.054 305.573 699.616 303.343 694.503 302.464C689.435 301.608 683.69 301.766 678.239 303.861C675.491 304.807 672.855 306.249 670.422 308.073C667.967 309.853 665.737 312.083 663.89 314.651C660.083 319.719 657.943 326.207 657.876 332.919C657.943 339.632 660.083 346.12 663.867 351.188C665.715 353.756 667.945 355.964 670.4 357.766C672.833 359.59 675.468 361.032 678.217 361.978C683.668 364.05 689.39 364.231 694.48 363.352C699.594 362.451 704.031 360.221 707.546 357.608C714.664 352.224 717.817 345.286 719.011 340.556C720.228 335.735 720.048 332.919 720.228 332.919C720.273 332.919 720.273 333.618 720.228 334.924C720.228 335.577 720.205 336.411 720.047 337.357C719.912 338.326 719.8 339.429 719.462 340.646C718.358 345.466 715.272 352.652 708.041 358.261C704.459 361.009 699.909 363.352 694.638 364.298C689.412 365.222 683.488 365.087 677.834 362.969C674.995 362.001 672.247 360.514 669.724 358.622C667.179 356.775 664.859 354.499 662.944 351.841C658.979 346.593 656.749 339.857 656.704 332.897C656.772 325.936 659.002 319.201 662.966 313.952C664.881 311.294 667.201 308.997 669.747 307.172C672.27 305.302 675.018 303.816 677.856 302.847C683.51 300.73 689.435 300.594 694.661 301.518C699.932 302.487 704.482 304.829 708.064 307.555C715.295 313.164 718.381 320.327 719.484 325.17C719.822 326.387 719.957 327.491 720.07 328.459C720.228 329.405 720.273 330.239 720.25 330.892C720.273 332.221 720.273 332.897 720.25 332.897H720.273Z" fill="#263238"/>
<path d="M657.335 325.756C657.2 325.891 656.457 325.261 655.105 324.607C653.754 323.954 651.726 323.323 649.429 323.368C647.154 323.391 645.126 324.112 643.797 324.81C642.446 325.508 641.747 326.162 641.612 326.049C641.499 325.959 642.018 325.058 643.369 324.112C644.698 323.166 646.861 322.242 649.406 322.197C651.929 322.152 654.137 322.985 655.511 323.887C656.885 324.788 657.448 325.666 657.335 325.756Z" fill="#263238"/>
<path d="M580.477 331.343C580.679 331.613 574.35 336.659 566.353 342.606C558.356 348.575 551.733 353.193 551.531 352.945C551.328 352.675 557.658 347.651 565.655 341.682C573.651 335.713 580.274 331.095 580.477 331.343Z" fill="#263238"/>
<g opacity="0.3">
<path d="M553.828 477.942C550.697 508.51 562.32 540.79 586.828 559.306C588.743 560.771 591.176 562.19 593.429 561.379C595.005 560.816 596.019 559.306 596.853 557.842C603.836 545.746 606.178 532.388 604.174 518.557C600.299 528.784 596.965 538.808 593.046 549.508C571.691 536.533 558.356 508.961 553.828 477.92V477.942Z" fill="black"/>
</g>
<path opacity="0.3" d="M636.836 547.458L654.835 540.88L657.808 571.313C657.808 571.313 677.226 535.924 685.268 519.773C693.309 503.622 689.165 475.126 689.165 475.126C689.165 475.126 692.048 499.95 672.585 531.599L657.898 555.477V530.473L636.836 547.435V547.458Z" fill="black"/>
<g opacity="0.3">
<path d="M427.523 702.122C419.504 698.338 410.268 697.82 401.46 698.856C392.157 699.937 382.809 702.798 375.51 708.677C368.212 714.557 363.279 723.837 364.18 733.163L365.081 733.298C371.366 716.314 383.845 703.947 399.951 702.438C416.057 700.951 431.758 708.114 442.818 719.918C441.737 711.11 435.542 705.929 427.523 702.122Z" fill="black"/>
</g>
<g opacity="0.3">
<path d="M882.529 719.49C876.492 712.98 868.022 709.038 859.282 707.506C843.941 704.826 827.475 709.601 815.919 720.053L819.343 717.26C828.06 712.147 838.107 709.128 848.221 709.421C858.313 709.714 868.427 713.453 875.748 720.414C882.484 726.811 886.516 735.484 890.368 743.931C891.877 735.191 888.543 725.978 882.506 719.468L882.529 719.49Z" fill="black"/>
</g>
<path d="M766.541 578.161C766.541 578.161 766.766 577.26 767.352 575.706C768.05 573.926 768.906 571.741 769.92 569.151C772.105 563.632 775.078 555.995 778.255 547.526C781.408 539.033 784.134 531.307 786.094 525.698C787.017 523.085 787.806 520.877 788.436 519.075C789 517.521 789.36 516.665 789.428 516.687C789.495 516.71 789.292 517.611 788.864 519.21C788.436 520.81 787.761 523.13 786.882 525.968C785.125 531.645 782.512 539.439 779.358 547.931C776.205 556.423 773.074 564.015 770.708 569.466C769.514 572.192 768.523 574.377 767.802 575.886C767.082 577.395 766.654 578.206 766.586 578.161H766.541Z" fill="#263238"/>
<path d="M482.555 580.369C482.24 580.436 479.784 569.714 477.081 556.423C474.378 543.133 472.441 532.32 472.756 532.253C473.072 532.185 475.527 542.908 478.23 556.198C480.933 569.488 482.871 580.301 482.555 580.369Z" fill="#263238"/>
<path d="M478.298 714.377C479.019 714.737 470.053 644.186 470.053 644.186C470.053 644.186 475.707 590.641 478.883 588.163L478.974 569.264C478.974 569.264 487.736 563.948 490.079 572.53C490.079 572.53 497.85 565.795 499.202 581.833C500.554 597.872 500.846 614.293 500.846 614.293L518.124 657.498L520.962 658.94C520.962 658.94 524.679 625.083 526.841 620.105C529.004 615.127 530.491 603.008 538.668 604.832C546.867 606.657 547.543 613.437 546.079 624.475C544.615 635.513 542.767 646.934 543.466 654.052C544.164 661.17 547.385 676.893 546.394 689.35C545.403 701.807 538.578 714.985 531.392 724.221C524.228 733.456 510.533 752.559 503.076 758.325C500.486 760.33 478.32 714.354 478.32 714.354L478.298 714.377Z" fill="#FFBE9D"/>
<path d="M487.015 656.958C487.015 656.958 486.948 655.877 487.06 653.939C487.218 651.777 487.398 649.029 487.623 645.74C488.141 638.824 488.952 629.273 489.921 618.731C490.417 613.483 490.89 608.459 491.318 603.886C491.543 601.611 491.678 599.471 491.385 597.512C491.115 595.552 490.349 593.862 489.223 592.646C486.948 590.168 483.997 589.537 482.172 589.56C480.257 589.56 479.266 590.055 479.221 589.943C479.221 589.898 479.446 589.785 479.919 589.582C480.415 589.402 481.158 589.177 482.15 589.109C484.087 588.974 487.24 589.47 489.831 592.105C491.115 593.412 492.016 595.304 492.331 597.376C492.692 599.471 492.557 601.701 492.376 603.999C491.971 608.594 491.52 613.595 491.07 618.866C490.101 629.408 489.155 638.937 488.434 645.83C488.051 649.096 487.736 651.844 487.488 653.984C487.24 655.899 487.06 656.98 486.993 656.958H487.015Z" fill="#EB996E"/>
<path d="M496.319 628.102C496.477 628.237 494.562 629.926 493.255 633.666C491.859 637.337 491.363 642.879 490.372 648.893C489.448 654.93 488.525 660.382 487.826 664.301C487.106 668.243 486.588 670.654 486.43 670.631C486.272 670.609 486.497 668.131 487.016 664.166C487.511 660.201 488.3 654.728 489.223 648.691C490.192 642.699 490.822 637.135 492.489 633.328C493.278 631.436 494.224 630.062 494.99 629.206C495.756 628.35 496.296 628.012 496.319 628.057V628.102Z" fill="#EB996E"/>
<path d="M489.966 571.584C489.966 571.584 490.259 572.35 490.574 573.814C490.889 575.256 491.272 577.351 491.7 579.964C492.556 585.167 493.502 592.398 494.111 600.44C494.696 608.482 494.832 615.78 494.741 621.051C494.696 623.687 494.629 625.827 494.516 627.291C494.426 628.755 494.336 629.566 494.246 629.566C494.066 629.566 494.043 626.3 493.908 621.051C493.773 615.78 493.525 608.527 492.939 600.53C492.354 592.533 491.543 585.302 490.889 580.076C490.236 574.85 489.808 571.629 489.966 571.584Z" fill="#EB996E"/>
<path d="M539.817 637.743C539.997 638.014 537.294 639.252 534.005 638.239C530.694 637.248 529.162 634.702 529.455 634.59C529.726 634.364 531.438 636.279 534.343 637.135C537.227 638.059 539.727 637.428 539.817 637.766V637.743Z" fill="#EB996E"/>
<path d="M479.267 705.592L433.606 724.784H406.395C406.395 724.784 379.498 733.186 375.354 758.393C371.209 783.622 370.623 796.597 382.449 799.706C394.276 802.814 427.682 803.175 444.238 797.678C460.795 792.182 504.158 757.176 504.158 757.176L508.348 731.857L479.244 705.569L479.267 705.592Z" fill="#FFBE9D"/>
<path d="M489.967 733.457C489.967 733.457 489.449 733.096 488.66 732.263C487.849 731.474 486.858 730.168 485.687 728.501C483.434 725.122 480.956 720.009 479.312 714.062C477.6 708.115 476.879 702.551 476.496 698.541C476.158 694.531 476.158 692.031 476.316 692.009C476.496 692.009 476.766 694.464 477.307 698.428C477.893 702.393 478.749 707.867 480.416 713.724C482.038 719.603 484.335 724.626 486.363 728.05C488.412 731.452 490.079 733.299 489.922 733.457H489.967Z" fill="#EB996E"/>
<path d="M509.834 741.475C509.586 741.385 511.636 737.916 512.424 731.699C512.807 728.613 512.762 724.851 511.883 720.819C511.005 716.787 509.09 712.642 506.297 708.768C503.526 704.871 500.395 701.492 497.782 698.225C495.124 694.959 493.007 691.783 491.61 688.9C490.213 686.016 489.56 683.471 489.312 681.691C489.087 679.912 489.177 678.921 489.245 678.921C489.47 678.875 489.402 682.953 492.353 688.517C493.795 691.287 495.957 694.351 498.616 697.527C501.274 700.726 504.427 704.105 507.266 708.069C510.126 712.011 512.131 716.381 512.965 720.549C513.821 724.716 513.753 728.613 513.257 731.767C512.762 734.943 511.883 737.398 511.163 739.02C510.825 739.831 510.487 740.439 510.239 740.845C510.014 741.25 509.856 741.453 509.834 741.43V741.475Z" fill="#EB996E"/>
<path d="M439.462 631.526C439.169 631.683 434.191 622.605 428.334 611.275C422.477 599.944 417.972 590.641 418.243 590.483C418.535 590.325 423.514 599.403 429.37 610.734C435.227 622.065 439.732 631.368 439.462 631.526Z" fill="white"/>
<path d="M513.303 549.327C513.01 549.192 516.096 541.646 520.173 532.455C524.273 523.265 527.832 515.921 528.125 516.056C528.418 516.191 525.332 523.738 521.255 532.928C517.155 542.119 513.596 549.462 513.303 549.327Z" fill="white"/>
<path d="M585.59 602.692C585.342 602.895 580.702 597.714 575.251 591.114C569.777 584.513 565.564 578.995 565.812 578.792C566.06 578.589 570.7 583.77 576.152 590.37C581.626 596.97 585.838 602.489 585.59 602.692Z" fill="white"/>
<path d="M568.965 676.059C568.695 675.879 572.186 670.608 576.759 664.301C581.332 657.993 585.251 653.038 585.499 653.24C585.769 653.421 582.278 658.692 577.705 664.999C573.132 671.306 569.213 676.262 568.965 676.059Z" fill="white"/>
<path d="M546.574 779.679C546.439 779.747 545.403 778.035 543.939 775.152C542.452 772.268 540.537 768.236 538.622 763.708C536.685 759.158 535.131 754.991 534.072 751.927C533.036 748.864 532.495 746.926 532.653 746.881C532.811 746.836 533.622 748.661 534.86 751.634C536.28 755.013 537.902 758.933 539.704 763.258C541.551 767.56 543.24 771.435 544.704 774.814C545.988 777.765 546.754 779.612 546.597 779.702L546.574 779.679Z" fill="white"/>
<path d="M610.187 735.641C610.12 735.956 603.993 735.033 596.514 733.591C589.013 732.149 582.998 730.708 583.066 730.392C583.134 730.077 589.261 731.001 596.739 732.442C604.241 733.884 610.255 735.326 610.187 735.641Z" fill="white"/>
<path d="M659.52 638.802C659.272 638.576 665.129 631.909 672.563 623.867C679.997 615.847 686.236 609.518 686.462 609.743C686.709 609.968 680.853 616.636 673.419 624.678C665.985 632.697 659.746 639.027 659.52 638.802Z" fill="white"/>
<path d="M709.167 767.944C708.92 768.146 701.644 759.722 692.903 749.112C684.163 738.502 677.293 729.739 677.541 729.537C677.788 729.334 685.064 737.759 693.805 748.368C702.545 758.978 709.415 767.741 709.167 767.944Z" fill="white"/>
<path d="M401.033 712.89C401.191 713.205 394.546 716.584 387.292 722.148C380.016 727.667 374.993 733.208 374.723 732.96C374.61 732.87 375.714 731.361 377.786 729.131C379.836 726.923 382.9 724.04 386.571 721.224C390.243 718.431 393.847 716.246 396.528 714.827C399.209 713.43 400.966 712.754 401.033 712.89Z" fill="white"/>
<path d="M419.594 663.13C419.864 663.31 417.499 667.342 414.3 672.14C411.102 676.938 408.308 680.677 408.038 680.497C407.768 680.317 410.133 676.285 413.332 671.487C416.53 666.689 419.324 662.949 419.594 663.13Z" fill="white"/>
<path d="M461.426 712.011C461.178 712.169 458.813 708.227 457.596 702.753C456.335 697.302 456.763 692.729 457.055 692.752C457.416 692.752 457.529 697.189 458.745 702.483C459.939 707.776 461.741 711.854 461.426 711.989V712.011Z" fill="white"/>
<path d="M467.62 556.761C467.665 557.077 463.791 557.91 458.947 558.586C454.104 559.284 450.14 559.577 450.095 559.262C450.05 558.946 453.924 558.113 458.767 557.437C463.61 556.739 467.575 556.446 467.62 556.761Z" fill="white"/>
<path d="M499.021 501.054C499.179 501.347 495.777 503.532 491.43 505.943C487.082 508.353 483.41 510.087 483.275 509.795C483.118 509.502 486.519 507.317 490.867 504.906C495.214 502.496 498.863 500.762 499.021 501.054Z" fill="white"/>
<path d="M587.347 524.572C587.099 524.775 583.202 520.089 578.651 514.12C574.101 508.15 570.632 503.172 570.902 502.969C571.15 502.767 575.047 507.452 579.598 513.422C584.148 519.391 587.617 524.369 587.347 524.572Z" fill="white"/>
<path d="M699.459 580.594C699.233 580.796 695.134 576.584 691.349 570.457C687.52 564.33 685.56 558.811 685.83 558.698C686.146 558.563 688.578 563.812 692.34 569.849C696.08 575.886 699.729 580.391 699.459 580.616V580.594Z" fill="white"/>
<path d="M742.258 594.695C742.551 594.83 740.479 600.056 737.618 606.341C734.757 612.648 732.212 617.649 731.896 617.514C731.603 617.379 733.676 612.153 736.537 605.868C739.397 599.561 741.943 594.56 742.258 594.695Z" fill="white"/>
<path d="M748.227 536.285C747.98 536.488 742.889 530.789 736.852 523.535C730.815 516.282 726.129 510.222 726.377 510.02C726.625 509.817 731.716 515.516 737.753 522.769C743.79 530.023 748.475 536.082 748.227 536.285Z" fill="white"/>
<path d="M682.879 488.845C682.563 488.845 682.09 483.98 681.865 477.92C681.617 471.883 681.707 466.972 682.023 466.95C682.338 466.95 682.811 471.816 683.036 477.875C683.284 483.912 683.194 488.823 682.879 488.845Z" fill="white"/>
<path d="M736.176 485.894C736.221 486.209 729.981 487.313 722.277 488.349C714.551 489.386 708.266 489.949 708.221 489.633C708.176 489.318 714.393 488.214 722.12 487.178C729.846 486.142 736.131 485.579 736.176 485.894Z" fill="white"/>
<path d="M820.108 547.548C819.816 547.683 816.076 540.543 811.729 531.6C807.404 522.657 804.115 515.268 804.408 515.133C804.701 514.998 808.44 522.139 812.787 531.082C817.113 540.025 820.401 547.413 820.108 547.548Z" fill="white"/>
<path d="M805.962 600.8C805.647 600.732 806.525 594.988 807.922 587.982C809.318 580.954 810.715 575.323 811.03 575.39C811.346 575.458 810.467 581.202 809.071 588.208C807.674 595.213 806.277 600.867 805.962 600.8Z" fill="white"/>
<path d="M844.887 642.811C844.572 642.924 841.598 635.175 838.197 625.511C834.818 615.848 832.317 607.918 832.633 607.806C832.948 607.693 835.922 615.442 839.323 625.106C842.702 634.769 845.202 642.699 844.887 642.811Z" fill="white"/>
<path d="M839.481 667.365C839.414 667.657 834.03 666.531 828.105 663.287C822.159 660.089 818.262 656.192 818.487 655.989C818.712 655.719 822.857 659.143 828.669 662.274C834.458 665.427 839.594 667.027 839.481 667.365Z" fill="white"/>
<path d="M889.354 723.387C889.061 723.522 887.259 720.099 885.322 715.751C883.384 711.403 882.055 707.777 882.348 707.642C882.641 707.506 884.443 710.93 886.38 715.278C888.317 719.625 889.646 723.252 889.354 723.387Z" fill="white"/>
<path d="M594.802 801.507C594.487 801.552 593.698 797.07 593.045 791.528C592.392 785.987 592.144 781.459 592.459 781.414C592.775 781.369 593.563 785.852 594.216 791.393C594.87 796.935 595.117 801.462 594.802 801.507Z" fill="white"/>
<path d="M747.821 797.633C747.506 797.566 748.159 793.196 749.286 787.879C750.412 782.563 751.583 778.306 751.899 778.373C752.214 778.441 751.561 782.811 750.435 788.127C749.308 793.443 748.137 797.701 747.821 797.633Z" fill="white"/>
<path d="M777.15 350.963L796.928 316.092C788.166 301.878 783.12 285.164 783.12 267.256C783.12 215.738 824.883 173.975 876.4 173.975C927.918 173.975 969.681 215.738 969.681 267.256C969.681 318.773 927.918 360.536 876.4 360.536C854.888 360.536 835.088 353.238 819.319 341.006V341.051L777.15 350.985V350.963Z" fill="#FAFAFA"/>
<path d="M777.151 350.963C779.156 350.512 792.514 347.449 819.41 341.299L819.838 341.209L819.568 340.848V340.803L819.14 341.209C824.456 345.331 830.831 349.386 838.332 352.787C845.833 356.121 854.438 358.824 863.922 360.086C868.652 360.694 873.608 361.077 878.699 360.829C881.245 360.694 883.835 360.626 886.448 360.401C889.039 360.018 891.674 359.613 894.332 359.207C904.897 357.112 915.687 353.103 925.779 346.863C935.848 340.623 945.174 332.176 952.652 321.791C960.108 311.407 965.762 299.108 968.42 285.75C971.034 272.392 970.831 258.088 967.317 244.234C963.78 230.426 957.18 216.955 947.314 205.872L943.507 201.682C942.245 200.263 940.758 199.114 939.407 197.808C937.988 196.591 936.704 195.195 935.172 194.113L930.689 190.757C929.248 189.586 927.648 188.64 926.049 187.693C924.472 186.725 922.895 185.779 921.318 184.81C919.651 183.999 918.007 183.211 916.363 182.4C914.696 181.634 913.096 180.733 911.362 180.17C897.801 174.786 883.362 172.736 869.531 173.75C855.7 174.741 842.477 178.706 831.146 185.103C819.771 191.433 810.175 199.903 802.764 209.341C795.33 218.802 790.104 229.209 786.86 239.594C783.639 250.023 782.76 260.363 782.805 269.936C783.076 279.532 784.833 288.385 787.378 296.134C789.924 303.906 793.28 310.596 796.727 316.205V315.935C784.247 338.303 778.143 349.228 777.174 350.94C778.165 349.228 784.405 338.393 797.2 316.205L797.29 316.07L797.2 315.935C793.798 310.326 790.509 303.658 788.009 295.931C785.531 288.205 783.819 279.442 783.594 269.914C783.594 260.408 784.495 250.181 787.716 239.864C790.96 229.592 796.163 219.298 803.529 209.949C810.873 200.623 820.379 192.266 831.642 186.027C842.86 179.719 855.948 175.822 869.599 174.854C883.249 173.885 897.531 175.912 910.911 181.229C912.623 181.769 914.2 182.67 915.845 183.436C917.466 184.224 919.111 185.013 920.733 185.824C922.287 186.77 923.841 187.716 925.396 188.662C926.972 189.608 928.549 190.532 929.968 191.703L934.384 195.014C935.893 196.073 937.154 197.447 938.551 198.664C939.88 199.948 941.367 201.097 942.606 202.493L946.367 206.638C956.121 217.586 962.631 230.899 966.123 244.527C969.592 258.2 969.817 272.347 967.249 285.547C964.636 298.747 959.072 310.934 951.706 321.183C944.34 331.478 935.127 339.857 925.17 346.029C915.214 352.247 904.536 356.234 894.084 358.329C891.449 358.734 888.836 359.14 886.29 359.523C883.7 359.748 881.154 359.815 878.631 359.973C873.586 360.243 868.675 359.86 863.99 359.275C854.574 358.058 846.036 355.4 838.58 352.134C831.124 348.8 824.772 344.813 819.455 340.758L817.721 339.429L819.05 341.164V341.209L819.253 340.758C792.447 347.268 779.111 350.49 777.129 350.985L777.151 350.963Z" fill="#263238"/>
<path d="M901.585 263.359C901.585 268.382 905.663 272.482 910.708 272.482C915.754 272.482 919.832 268.405 919.832 263.359C919.832 258.313 915.754 254.236 910.708 254.236C905.663 254.236 901.585 258.313 901.585 263.359Z" fill="#263238"/>
<path d="M865.116 263.359C865.116 268.382 869.193 272.482 874.239 272.482C879.285 272.482 883.362 268.405 883.362 263.359C883.362 258.313 879.285 254.236 874.239 254.236C869.193 254.236 865.116 258.313 865.116 263.359Z" fill="#263238"/>
<path d="M828.713 258.786C826.19 263.156 827.699 268.72 832.047 271.243C836.417 273.766 841.981 272.257 844.504 267.909C847.027 263.539 845.518 257.975 841.17 255.452C836.8 252.929 831.236 254.439 828.713 258.786Z" fill="#263238"/>
</g>
<defs>
<clipPath id="clip0_2024_1405">
<rect width="939" height="939" fill="white"/>
</clipPath>
</defs>
</svg>
