<svg width="1083" height="1186" viewBox="0 0 1083 1186" fill="none" xmlns="http://www.w3.org/2000/svg">
<path d="M460.722 0H334.757C313.317 0 295.954 17.3384 295.954 38.7486V148.208C295.954 169.618 313.317 186.957 334.757 186.957H371.542L340.719 247.816L397.63 186.957H460.722C482.162 186.957 499.524 169.618 499.524 148.208V38.7486C499.524 17.3384 482.162 0 460.722 0Z" fill="#407BFF"/>
<path opacity="0.7" d="M460.722 0H334.757C313.317 0 295.954 17.3384 295.954 38.7486V148.208C295.954 169.618 313.317 186.957 334.757 186.957H371.542L340.719 247.816L397.63 186.957H460.722C482.162 186.957 499.524 169.618 499.524 148.208V38.7486C499.524 17.3384 482.162 0 460.722 0Z" fill="white"/>
<path d="M441.937 137.127C466.354 112.744 466.354 73.2125 441.937 48.8299C417.521 24.4472 377.934 24.4472 353.517 48.8298C329.101 73.2125 329.101 112.745 353.517 137.127C377.934 161.51 417.521 161.51 441.937 137.127Z" fill="#407BFF"/>
<path d="M391.185 120.887C389.518 120.887 387.896 120.142 386.8 118.873L362.291 90.0191C360.23 87.611 360.537 83.9769 362.949 81.9191C365.36 79.8613 368.999 80.1678 371.06 82.5759L391.228 106.263L424.506 67.1202C426.567 64.7121 430.206 64.4056 432.618 66.4634C435.029 68.5213 435.336 72.1553 433.275 74.5634L395.613 118.873C394.517 120.142 392.938 120.887 391.228 120.887H391.185Z" fill="white"/>
<path d="M1049.86 1097.61C1053.41 1091.62 1048.41 1082.64 1041.4 1082.51C1044.47 1073.93 1041.4 1063.55 1034.25 1057.9C1033.33 1057.2 1032.32 1056.54 1031.14 1056.54C1029.91 1056.54 1028.82 1057.29 1027.81 1057.99C1021.23 1062.72 1014.65 1067.4 1008.08 1072.13C1006.59 1073.23 1005.01 1074.36 1004.18 1075.98C1000.14 1083.78 1014.65 1093.76 1008.69 1100.2C1006.98 1102.04 1004.22 1102.43 1002.07 1103.74C997.38 1106.68 996.81 1113.11 994.617 1118.19C992.425 1123.27 984.796 1127.21 981.902 1122.53C984.051 1117.67 977.518 1113.46 972.257 1112.85C967.039 1112.24 961.427 1111.93 958.489 1106.98C950.992 1113.55 934.156 1095.25 934.55 1087.85C928.368 1088.33 924.159 1094.11 922.8 1099.89C921.397 1105.89 922.274 1112.15 922.186 1118.28C922.011 1130.23 918.152 1141.92 918.328 1153.88C918.503 1163.16 922.099 1173.49 930.604 1177.21C934.726 1179.01 939.329 1179.01 943.802 1178.96C976.159 1178.75 1008.47 1178.57 1040.83 1178.35C1043.15 1178.35 1045.61 1178.31 1047.67 1177.21C1052.05 1174.94 1052.97 1169.2 1053.37 1164.3C1055.12 1143.24 1056.83 1122.22 1058.59 1101.16C1055.65 1099.98 1052.71 1098.8 1049.82 1097.57L1049.86 1097.61Z" fill="#407BFF"/>
<path opacity="0.3" d="M1049.86 1097.61C1053.41 1091.62 1048.41 1082.64 1041.4 1082.51C1044.47 1073.93 1041.4 1063.55 1034.25 1057.9C1033.33 1057.2 1032.32 1056.54 1031.14 1056.54C1029.91 1056.54 1028.82 1057.29 1027.81 1057.99C1021.23 1062.72 1014.65 1067.4 1008.08 1072.13C1006.59 1073.23 1005.01 1074.36 1004.18 1075.98C1000.14 1083.78 1014.65 1093.76 1008.69 1100.2C1006.98 1102.04 1004.22 1102.43 1002.07 1103.74C997.38 1106.68 996.81 1113.11 994.617 1118.19C992.425 1123.27 984.796 1127.21 981.902 1122.53C984.051 1117.67 977.518 1113.46 972.257 1112.85C967.039 1112.24 961.427 1111.93 958.489 1106.98C950.992 1113.55 934.156 1095.25 934.55 1087.85C928.368 1088.33 924.159 1094.11 922.8 1099.89C921.397 1105.89 922.274 1112.15 922.186 1118.28C922.011 1130.23 918.152 1141.92 918.328 1153.88C918.503 1163.16 922.099 1173.49 930.604 1177.21C934.726 1179.01 939.329 1179.01 943.802 1178.96C976.159 1178.75 1008.47 1178.57 1040.83 1178.35C1043.15 1178.35 1045.61 1178.31 1047.67 1177.21C1052.05 1174.94 1052.97 1169.2 1053.37 1164.3C1055.12 1143.24 1056.83 1122.22 1058.59 1101.16C1055.65 1099.98 1052.71 1098.8 1049.82 1097.57L1049.86 1097.61Z" fill="white"/>
<path d="M1055.56 995.204H905.043L906.27 1010.4L907.147 1021.26L909.427 1049.5L910.743 1065.7L912.496 1087.28L913.242 1096.52L913.505 1099.28L914.382 1110.14L915.566 1125.02L916.311 1134.26L917.1 1143.67L917.977 1154.53L918.635 1162.76L919.38 1172L919.687 1176.03H1057.84L1058.15 1172L1058.89 1162.76L1059.55 1154.45L1060.43 1143.59L1061.22 1134.22L1061.96 1124.98L1063.15 1110.05L1064.02 1099.19L1064.24 1096.43L1064.99 1087.19L1066.74 1065.61L1068.06 1049.45L1070.34 1021.21L1071.21 1010.35L1072.44 995.16H1055.52L1055.56 995.204ZM1064.64 1005.14L1061.74 1002.25H1064.9L1064.64 1005.14ZM1063.89 1014.38L1063.63 1018.06L1050.17 1031.5L1034.69 1016.04L1048.5 1002.25H1051.75L1063.89 1014.38ZM1059.99 1062.5L1050.12 1072.35L1034.65 1056.9L1050.12 1041.48L1060.82 1052.17L1059.99 1062.5ZM916.749 1052.17L927.447 1041.48L942.925 1056.9L927.447 1072.35L917.626 1062.5L916.793 1052.17H916.749ZM1045.13 1036.49L1029.65 1051.95L1014.17 1036.49L1029.65 1021.04L1045.13 1036.49ZM1020.84 1002.25H1038.51L1029.65 1011.1L1020.79 1002.25H1020.84ZM1024.65 1056.9L1009.22 1072.35L993.74 1056.9L1009.22 1041.48L1024.65 1056.9ZM973.309 1077.3L988.786 1061.89L1004.22 1077.3L988.786 1092.75L973.309 1077.3ZM983.744 1097.7L968.267 1113.16L952.833 1097.75L968.311 1082.29L983.744 1097.7ZM1009.22 1082.29L1024.65 1097.75L1009.22 1113.16L993.74 1097.7L1009.22 1082.29ZM988.786 1051.86L973.309 1036.4L988.786 1020.95L1004.22 1036.4L988.786 1051.86ZM983.744 1056.85L968.311 1072.31L952.833 1056.85L968.311 1041.44L983.744 1056.85ZM947.835 1051.86L932.402 1036.4L947.835 1020.95L963.312 1036.4L947.835 1051.86ZM947.835 1061.84L963.312 1077.25L947.835 1092.71L932.402 1077.25L947.835 1061.84ZM963.312 1118.1L947.835 1133.52L932.402 1118.1L947.835 1102.65L963.312 1118.1ZM968.311 1123.1L983.788 1138.55L968.354 1154.01L952.877 1138.55L968.311 1123.1ZM973.353 1118.1L988.83 1102.65L1004.26 1118.1L988.83 1133.52L973.353 1118.1ZM1009.26 1123.1L1024.69 1138.55L1009.26 1154.01L993.784 1138.55L1009.26 1123.1ZM1029.69 1143.5L1045.17 1158.96L1035.17 1168.94H1024.3L1014.3 1158.96L1029.78 1143.5H1029.69ZM1014.22 1118.1L1029.69 1102.65L1045.17 1118.1L1029.69 1133.52L1014.22 1118.1ZM1014.22 1077.25L1029.69 1061.84L1045.17 1077.25L1029.69 1092.71L1014.22 1077.25ZM1024.65 1016L1009.22 1031.46L993.74 1016L1007.55 1002.21H1010.8L1024.61 1016H1024.65ZM988.786 1011.01L979.929 1002.17H997.599L988.786 1011.01ZM983.744 1016L968.311 1031.46L952.833 1016L966.645 1002.21H969.889L983.7 1016H983.744ZM956.692 1002.21L947.835 1011.05L939.022 1002.21H956.692ZM929.026 1002.21L942.837 1016L927.36 1031.46L913.9 1018.02L913.636 1014.34L925.737 1002.21H928.982H929.026ZM915.785 1002.21L912.935 1005.06L912.672 1002.21H915.785ZM914.82 1028.87L922.405 1036.45L915.96 1042.88L914.82 1028.92V1028.87ZM919.029 1080.63L918.416 1073.31L922.362 1077.25L918.985 1080.63H919.029ZM919.775 1089.91L927.36 1082.29L942.837 1097.75L927.36 1113.16L921.134 1106.94L919.775 1089.95V1089.91ZM922.055 1118.46V1117.8L922.362 1118.15L922.055 1118.46ZM924.729 1151.34L922.8 1127.69L927.36 1123.14L942.837 1138.6L927.36 1154.01L924.729 1151.38V1151.34ZM926.132 1168.98L925.869 1165.44L927.36 1163.95L932.402 1168.98H926.176H926.132ZM932.358 1159L947.791 1143.54L963.268 1159L953.272 1168.98H942.399L932.402 1159H932.358ZM963.225 1168.98L968.267 1163.95L973.309 1168.98H963.268H963.225ZM983.262 1168.98L973.265 1159L988.742 1143.54L1004.18 1159L994.223 1168.98H983.349H983.262ZM1004.13 1168.98L1009.17 1163.95L1014.22 1168.98H1004.18H1004.13ZM1051.26 1168.98H1045.04L1050.08 1163.95L1051.57 1165.44L1051.31 1168.98H1051.26ZM1052.71 1151.34L1050.04 1153.96L1034.56 1138.55L1050.04 1123.1L1054.6 1127.65L1052.67 1151.29L1052.71 1151.34ZM1055.43 1117.75L1055.34 1118.46L1055.04 1118.15L1055.43 1117.75ZM1056.31 1106.9L1050.04 1113.11L1034.56 1097.7L1050.04 1082.25L1057.67 1089.86L1056.31 1106.85V1106.9ZM1058.41 1080.67L1055.04 1077.3L1059.02 1073.36L1058.41 1080.71V1080.67ZM1062.62 1028.87L1061.48 1042.93L1054.99 1036.45L1062.58 1028.87H1062.62Z" fill="#407BFF"/>
<g opacity="0.6">
<path d="M1055.56 995.204H905.043L906.27 1010.4L907.147 1021.26L909.427 1049.5L910.743 1065.7L912.496 1087.28L913.242 1096.52L913.505 1099.28L914.382 1110.14L915.566 1125.02L916.311 1134.26L917.1 1143.67L917.977 1154.53L918.635 1162.76L919.38 1172L919.687 1176.03H1057.84L1058.15 1172L1058.89 1162.76L1059.55 1154.45L1060.43 1143.59L1061.22 1134.22L1061.96 1124.98L1063.15 1110.05L1064.02 1099.19L1064.24 1096.43L1064.99 1087.19L1066.74 1065.61L1068.06 1049.45L1070.34 1021.21L1071.21 1010.35L1072.44 995.16H1055.52L1055.56 995.204ZM1064.64 1005.14L1061.74 1002.25H1064.9L1064.64 1005.14ZM1063.89 1014.38L1063.63 1018.06L1050.17 1031.5L1034.69 1016.04L1048.5 1002.25H1051.75L1063.89 1014.38ZM1059.99 1062.5L1050.12 1072.35L1034.65 1056.9L1050.12 1041.48L1060.82 1052.17L1059.99 1062.5ZM916.749 1052.17L927.447 1041.48L942.925 1056.9L927.447 1072.35L917.626 1062.5L916.793 1052.17H916.749ZM1045.13 1036.49L1029.65 1051.95L1014.17 1036.49L1029.65 1021.04L1045.13 1036.49ZM1020.84 1002.25H1038.51L1029.65 1011.1L1020.79 1002.25H1020.84ZM1024.65 1056.9L1009.22 1072.35L993.74 1056.9L1009.22 1041.48L1024.65 1056.9ZM973.309 1077.3L988.786 1061.89L1004.22 1077.3L988.786 1092.75L973.309 1077.3ZM983.744 1097.7L968.267 1113.16L952.833 1097.75L968.311 1082.29L983.744 1097.7ZM1009.22 1082.29L1024.65 1097.75L1009.22 1113.16L993.74 1097.7L1009.22 1082.29ZM988.786 1051.86L973.309 1036.4L988.786 1020.95L1004.22 1036.4L988.786 1051.86ZM983.744 1056.85L968.311 1072.31L952.833 1056.85L968.311 1041.44L983.744 1056.85ZM947.835 1051.86L932.402 1036.4L947.835 1020.95L963.312 1036.4L947.835 1051.86ZM947.835 1061.84L963.312 1077.25L947.835 1092.71L932.402 1077.25L947.835 1061.84ZM963.312 1118.1L947.835 1133.52L932.402 1118.1L947.835 1102.65L963.312 1118.1ZM968.311 1123.1L983.788 1138.55L968.354 1154.01L952.877 1138.55L968.311 1123.1ZM973.353 1118.1L988.83 1102.65L1004.26 1118.1L988.83 1133.52L973.353 1118.1ZM1009.26 1123.1L1024.69 1138.55L1009.26 1154.01L993.784 1138.55L1009.26 1123.1ZM1029.69 1143.5L1045.17 1158.96L1035.17 1168.94H1024.3L1014.3 1158.96L1029.78 1143.5H1029.69ZM1014.22 1118.1L1029.69 1102.65L1045.17 1118.1L1029.69 1133.52L1014.22 1118.1ZM1014.22 1077.25L1029.69 1061.84L1045.17 1077.25L1029.69 1092.71L1014.22 1077.25ZM1024.65 1016L1009.22 1031.46L993.74 1016L1007.55 1002.21H1010.8L1024.61 1016H1024.65ZM988.786 1011.01L979.929 1002.17H997.599L988.786 1011.01ZM983.744 1016L968.311 1031.46L952.833 1016L966.645 1002.21H969.889L983.7 1016H983.744ZM956.692 1002.21L947.835 1011.05L939.022 1002.21H956.692ZM929.026 1002.21L942.837 1016L927.36 1031.46L913.9 1018.02L913.636 1014.34L925.737 1002.21H928.982H929.026ZM915.785 1002.21L912.935 1005.06L912.672 1002.21H915.785ZM914.82 1028.87L922.405 1036.45L915.96 1042.88L914.82 1028.92V1028.87ZM919.029 1080.63L918.416 1073.31L922.362 1077.25L918.985 1080.63H919.029ZM919.775 1089.91L927.36 1082.29L942.837 1097.75L927.36 1113.16L921.134 1106.94L919.775 1089.95V1089.91ZM922.055 1118.46V1117.8L922.362 1118.15L922.055 1118.46ZM924.729 1151.34L922.8 1127.69L927.36 1123.14L942.837 1138.6L927.36 1154.01L924.729 1151.38V1151.34ZM926.132 1168.98L925.869 1165.44L927.36 1163.95L932.402 1168.98H926.176H926.132ZM932.358 1159L947.791 1143.54L963.268 1159L953.272 1168.98H942.399L932.402 1159H932.358ZM963.225 1168.98L968.267 1163.95L973.309 1168.98H963.268H963.225ZM983.262 1168.98L973.265 1159L988.742 1143.54L1004.18 1159L994.223 1168.98H983.349H983.262ZM1004.13 1168.98L1009.17 1163.95L1014.22 1168.98H1004.18H1004.13ZM1051.26 1168.98H1045.04L1050.08 1163.95L1051.57 1165.44L1051.31 1168.98H1051.26ZM1052.71 1151.34L1050.04 1153.96L1034.56 1138.55L1050.04 1123.1L1054.6 1127.65L1052.67 1151.29L1052.71 1151.34ZM1055.43 1117.75L1055.34 1118.46L1055.04 1118.15L1055.43 1117.75ZM1056.31 1106.9L1050.04 1113.11L1034.56 1097.7L1050.04 1082.25L1057.67 1089.86L1056.31 1106.85V1106.9ZM1058.41 1080.67L1055.04 1077.3L1059.02 1073.36L1058.41 1080.71V1080.67ZM1062.62 1028.87L1061.48 1042.93L1054.99 1036.45L1062.58 1028.87H1062.62Z" fill="white"/>
</g>
<path d="M902.544 1008.56H1074.94C1078.91 1008.56 1082.13 1005.34 1082.13 1001.38V996.08C1082.13 992.115 1078.91 988.9 1074.94 988.9H902.544C898.573 988.9 895.353 992.115 895.353 996.08V1001.38C895.353 1005.34 898.573 1008.56 902.544 1008.56Z" fill="#407BFF"/>
<path d="M1061.48 1165.52H916.048C912.077 1165.52 908.857 1168.74 908.857 1172.7V1178C908.857 1181.97 912.077 1185.18 916.048 1185.18H1061.48C1065.45 1185.18 1068.67 1181.97 1068.67 1178V1172.7C1068.67 1168.74 1065.45 1165.52 1061.48 1165.52Z" fill="#407BFF"/>
<path d="M564.678 1177.17H819.853C822.615 1177.17 824.851 1174.94 824.851 1172.18V1155.93C824.851 1153.18 822.615 1150.94 819.853 1150.94H577.831V630.705H815.732C820.774 630.705 824.895 626.633 824.895 621.555V604.435H564.721C557.443 604.435 551.568 610.302 551.568 617.57V1164.08C551.568 1171.35 557.443 1177.21 564.721 1177.21L564.678 1177.17Z" fill="#263238"/>
<g opacity="0.3">
<path d="M551.524 617.526V1163.99C551.524 1171.26 557.399 1177.13 564.678 1177.13H819.853C822.615 1177.13 824.851 1174.89 824.851 1172.13V1155.89C824.851 1153.13 822.615 1150.86 819.853 1150.86H577.831V630.661H815.732C820.774 630.661 824.851 626.546 824.851 621.511V604.391H564.678C557.399 604.391 551.524 610.258 551.524 617.526Z" fill="white"/>
</g>
<path opacity="0.2" d="M551.524 617.526V756.89C560.293 759.123 569.062 761.268 577.831 763.326V630.661H815.732C820.774 630.661 824.851 626.546 824.851 621.511V604.391H564.678C557.399 604.391 551.524 610.258 551.524 617.526Z" fill="black"/>
<path d="M90.104 1103.83L194.761 1094.73V957.508H231.547V1094.68L336.554 1103.83C345.806 1104.75 352.864 1112.5 352.864 1121.78V1135.71H73.8377V1121.78C73.8377 1112.5 80.8967 1104.75 90.1479 1103.83H90.104Z" fill="#263238"/>
<path opacity="0.1" d="M90.104 1103.83L194.761 1094.73V957.508H231.547V1094.68L336.554 1103.83C345.806 1104.75 352.864 1112.5 352.864 1121.78V1135.71H73.8377V1121.78C73.8377 1112.5 80.8967 1104.75 90.1479 1103.83H90.104Z" fill="white"/>
<path d="M318.929 1152.96C318.929 1166.23 329.715 1177 342.999 1177C356.284 1177 367.07 1166.23 367.07 1152.96C367.07 1139.69 356.284 1128.92 342.999 1128.92C329.715 1128.92 318.929 1139.69 318.929 1152.96Z" fill="#263238"/>
<path d="M107.642 1152.96C107.642 1166.23 96.8561 1177 83.5712 1177C70.2863 1177 59.5005 1166.23 59.5005 1152.96C59.5005 1139.69 70.2863 1128.92 83.5712 1128.92C96.8561 1128.92 107.642 1139.69 107.642 1152.96Z" fill="#263238"/>
<path d="M221.55 985.485H204.67C195.682 985.485 188.404 978.217 188.404 969.241V851.157H237.86L237.86 969.241C237.86 978.217 230.582 985.485 221.594 985.485H221.55Z" fill="#263238"/>
<path opacity="0.2" d="M221.55 985.485H204.67C195.682 985.485 188.404 978.217 188.404 969.241V851.157H237.86L237.86 969.241C237.86 978.217 230.582 985.485 221.594 985.485H221.55Z" fill="white"/>
<path d="M104.617 579.698C104.617 579.698 115.928 806.629 164.903 845.684H112.552C112.552 845.684 65.858 768.362 62.3943 579.698H104.617Z" fill="#263238"/>
<path opacity="0.1" d="M104.617 579.698C104.617 579.698 115.928 806.629 164.903 845.684H112.552C112.552 845.684 65.858 768.362 62.3943 579.698H104.617Z" fill="white"/>
<path d="M100.364 826.857H332.389C343.263 826.857 352.075 835.657 352.075 846.516V864.467H80.6336V846.516C80.6336 835.657 89.4464 826.857 100.32 826.857H100.364Z" fill="#407BFF"/>
<path d="M354.487 845.684H78.266C73.8831 845.684 70.3301 849.232 70.3301 853.609V856.542C70.3301 860.919 73.8831 864.467 78.266 864.467H354.487C358.87 864.467 362.423 860.919 362.423 856.542V853.609C362.423 849.232 358.87 845.684 354.487 845.684Z" fill="#263238"/>
<path opacity="0.6" d="M354.487 845.684H78.266C73.8831 845.684 70.3301 849.232 70.3301 853.609V856.542C70.3301 860.919 73.8831 864.467 78.266 864.467H354.487C358.87 864.467 362.423 860.919 362.423 856.542V853.609C362.423 849.232 358.87 845.684 354.487 845.684Z" fill="white"/>
<path d="M53.1869 629.349H137.018C161.571 629.349 179.328 607.325 176.653 580.136L173.058 543.839C170.383 516.649 148.286 494.626 123.733 494.626H39.902C15.3491 494.626 -2.40799 516.649 0.266528 543.839L3.86178 580.136C6.5363 607.325 28.634 629.349 53.1869 629.349Z" fill="#407BFF"/>
<path d="M329.978 433.591L334.011 445.938C335.414 450.141 336.905 454.344 338.44 458.548C341.465 466.91 344.709 475.142 348.085 483.066C351.505 490.991 355.232 498.653 359.178 505.528C363.124 512.314 367.596 518.531 371.148 521.727C373.384 524.179 380.048 527.2 387.633 529.214C395.306 531.141 403.856 532.761 412.625 533.768C430.162 535.957 448.884 536.833 467.08 537.577L470.324 562.052C450.945 567.263 431.741 570.284 411.441 571.378C401.313 571.772 390.922 571.816 379.96 570.371C374.436 569.627 368.78 568.576 362.773 566.781C359.792 565.905 356.679 564.723 353.478 563.234C350.409 561.877 346.682 559.688 343.92 557.674C332.389 549.355 325.33 540.204 319.017 531.141C312.747 522.078 307.705 512.927 303.189 503.689C298.629 494.494 294.727 485.168 291.219 475.798C289.509 471.113 287.843 466.385 286.265 461.612C284.642 456.796 283.283 452.243 281.88 446.857L330.022 433.459L329.978 433.591Z" fill="#FFB573"/>
<path d="M308.45 410.517C322.261 415.246 334.844 435.08 369.525 514.635C369.525 514.635 375.181 524.399 403.33 530.441L400.743 575.144C400.743 575.144 360.493 573.393 351.155 566.913C341.816 560.433 285.826 468.531 285.826 468.531L308.406 410.517H308.45Z" fill="#263238"/>
<path opacity="0.2" d="M403.373 530.441L400.787 575.1C400.787 575.1 368.517 573.699 355.057 568.751C353.478 568.182 352.163 567.569 351.198 566.913C345.806 563.147 324.76 530.791 308.012 504.17C295.779 484.818 285.87 468.487 285.87 468.487L308.45 410.517C322.261 415.246 334.844 435.08 369.569 514.591C369.569 514.591 375.181 524.355 403.373 530.441Z" fill="white"/>
<path opacity="0.2" d="M355.057 568.751C353.478 568.182 352.163 567.569 351.198 566.912C345.806 563.146 324.76 530.79 308.011 504.17C315.202 479.213 323.445 459.686 323.445 459.686C323.445 459.686 355.67 523.916 355.057 568.751Z" fill="black"/>
<path d="M457.478 539.811L488.914 528.471L485.056 570.503C485.056 570.503 456.206 574.181 452.655 559.032L457.478 539.811Z" fill="#FFB573"/>
<path d="M514.958 537.009L510.135 571.598L485.056 570.547L488.914 528.471L514.958 537.009Z" fill="#FFB573"/>
<path d="M403.593 528.471L419.64 533.287L413.765 576.764L397.717 579.523L403.593 528.471Z" fill="#263238"/>
<path d="M331.205 686.661C331.205 686.661 543.369 770.244 592.694 805.183C642.019 840.123 766.45 1075.68 766.45 1075.68L715.021 1115.26C715.021 1115.26 566.651 900.106 548.543 885.526C530.435 870.946 294.113 798.572 294.113 798.572L331.205 686.704V686.661Z" fill="#407BFF"/>
<path opacity="0.4" d="M766.494 1075.68L715.064 1115.26C715.064 1115.26 680.427 1065.04 642.589 1011.49C602.121 954.179 557.969 893.057 548.587 885.526C535.346 874.843 405.434 833.249 336.554 811.707C311.212 803.738 294.157 798.528 294.157 798.528L331.249 686.661C331.249 686.661 543.369 770.244 592.738 805.183C642.063 840.123 766.494 1075.68 766.494 1075.68Z" fill="white"/>
<path d="M775.833 1159.96L800.605 1135.09L760.093 1072.53L735.365 1097.4L775.833 1159.96Z" fill="#FFB573"/>
<path opacity="0.2" d="M735.365 1097.4L760.093 1072.57L783.243 1108.3L757.638 1131.9L735.365 1097.4Z" fill="black"/>
<path d="M804.902 1132.38C804.902 1132.38 805.077 1132.51 805.165 1132.47C805.253 1132.47 805.34 1132.34 805.384 1132.25C808.322 1131.2 811.128 1129.8 813.758 1128.13C815.863 1127.04 817.441 1125.24 818.274 1123.05C818.581 1121.39 817.924 1119.68 816.565 1118.72C815.819 1117.97 814.767 1117.62 813.715 1117.84C811.303 1118.41 808.936 1121.83 807.138 1125.11C807.226 1121.65 806.656 1118.11 805.121 1116.57C804.069 1115.57 802.534 1115.35 801.307 1116.14C800.167 1116.71 799.421 1117.67 799.158 1118.89C798.15 1123.62 804.551 1131.24 804.858 1131.68C804.858 1131.68 804.507 1132.16 804.551 1132.2C804.683 1132.29 804.77 1132.34 804.902 1132.34V1132.38ZM805.121 1129.14C804.99 1129.4 804.902 1129.66 804.77 1129.88C802.841 1127.17 799.991 1122.4 800.605 1119.59C800.693 1118.94 801.087 1118.37 801.657 1118.02L802.008 1117.8C803.06 1117.27 803.63 1117.58 803.937 1117.93C805.56 1119.68 805.91 1125.29 805.121 1129.14ZM806.568 1130.23C808.497 1125.81 811.742 1120.12 814.109 1119.59C814.635 1119.46 815.162 1119.64 815.512 1120.03C816.345 1120.69 816.784 1121.74 816.652 1122.79C816.17 1125.07 812.443 1127.78 806.568 1130.23Z" fill="#407BFF"/>
<path d="M800.123 1130.15L767.415 1152.04C766.231 1152.74 765.88 1154.27 766.582 1155.45L782.366 1182.38C784.251 1185.18 788.066 1185.97 790.915 1184.13C802.184 1176.29 807.182 1172 821.519 1162.24C830.332 1156.29 848.308 1145.38 859.094 1135.4C869.88 1125.37 859.664 1115.04 854.227 1118.32C841.293 1126.07 818.801 1129.4 806.261 1128.44C804.069 1128.31 801.92 1128.88 800.123 1130.1V1130.15Z" fill="#263238"/>
<path d="M717.388 1132.47L781.62 1089.73L766.801 1059.61L697.22 1107.82L717.388 1132.47Z" fill="#407BFF"/>
<path opacity="0.2" d="M717.388 1132.47L781.62 1089.73L766.801 1059.61L697.22 1107.82L717.388 1132.47Z" fill="white"/>
<path opacity="0.2" d="M642.589 1011.49C602.121 954.18 557.969 893.058 548.587 885.527C535.346 874.844 405.434 833.249 336.554 811.707L328.531 728.299L353.698 723.833L356.547 730.226C356.547 730.226 513.774 765.822 558.189 788.064C586.863 802.425 625.315 942.883 642.589 1011.49Z" fill="black"/>
<path d="M633.163 1140.65C633.163 1140.65 633.294 1140.83 633.382 1140.83C633.47 1140.83 633.557 1140.79 633.645 1140.7C636.758 1140.7 639.871 1140.3 642.896 1139.6C645.22 1139.3 647.368 1138.12 648.859 1136.28C649.692 1134.83 649.648 1132.99 648.684 1131.59C648.245 1130.63 647.325 1129.93 646.272 1129.8C643.817 1129.53 640.441 1131.99 637.635 1134.48C638.863 1131.24 639.52 1127.74 638.556 1125.77C637.898 1124.5 636.539 1123.75 635.136 1124.06C633.864 1124.24 632.856 1124.89 632.154 1125.94C629.655 1130.1 633.119 1139.39 633.294 1139.91L633.82 1139.6L633.294 1139.95C633.294 1139.95 632.812 1140.3 632.856 1140.35C632.944 1140.48 633.031 1140.57 633.163 1140.61V1140.65ZM634.434 1137.68C634.215 1137.9 634.04 1138.07 633.864 1138.29C632.944 1135.09 631.847 1129.62 633.338 1127.17C633.645 1126.6 634.215 1126.16 634.829 1126.03L635.224 1125.94C636.407 1125.77 636.846 1126.25 637.021 1126.69C637.942 1128.88 636.451 1134.31 634.39 1137.68H634.434ZM635.443 1139.17C638.731 1135.66 643.642 1131.33 646.097 1131.64C646.623 1131.68 647.062 1132.03 647.281 1132.51C647.851 1133.39 647.895 1134.53 647.456 1135.49C646.272 1137.46 641.844 1138.82 635.443 1139.17Z" fill="#407BFF"/>
<path d="M596.596 1157.07L628.208 1141.79L609.399 1066.53L577.831 1081.85L596.596 1157.07Z" fill="#FFB573"/>
<path opacity="0.2" d="M577.831 1081.85L609.399 1066.57L620.141 1109.61L588.134 1123.32L577.831 1081.85Z" fill="black"/>
<path d="M629.392 1136.98L591.247 1146.83C589.888 1147.09 589.055 1148.45 589.318 1149.76L595.281 1180.41C596.114 1183.69 599.446 1185.66 602.778 1184.88C616.019 1181.24 622.158 1178.83 638.906 1174.37C649.21 1171.7 669.773 1167.36 683.277 1161.45C696.781 1155.58 690.599 1142.41 684.373 1143.72C669.598 1146.74 647.281 1142.41 635.75 1137.37C633.733 1136.54 631.497 1136.36 629.392 1136.93V1136.98Z" fill="#263238"/>
<path d="M624.788 1080.85C624.788 1080.85 571.342 812.845 560.425 796.864C542.58 770.769 328.531 728.299 328.531 728.299L353.654 723.789L324.585 646.861L133.992 654.348C133.992 654.348 137.982 780.095 157.362 813.809C176.741 847.522 463.484 863.022 482.074 870.64C500.664 878.258 557.619 1088.55 557.619 1088.55L624.788 1080.8V1080.85Z" fill="#407BFF"/>
<path opacity="0.4" d="M624.788 1080.85C624.788 1080.85 571.342 812.845 560.425 796.864C542.58 770.769 328.531 728.299 328.531 728.299L353.654 723.789L324.585 646.861L133.992 654.348C133.992 654.348 137.982 780.095 157.362 813.809C176.741 847.522 463.484 863.022 482.074 870.64C500.664 878.258 557.619 1088.55 557.619 1088.55L624.788 1080.8V1080.85Z" fill="white"/>
<path d="M558.715 1112.37L633.514 1093.32L629.524 1060L547.885 1082.47L558.715 1112.37Z" fill="#407BFF"/>
<path opacity="0.2" d="M558.715 1112.37L633.514 1093.32L629.524 1060L547.885 1082.47L558.715 1112.37Z" fill="white"/>
<path d="M194.322 657.283L139.078 656.319L137.895 673.045L196.734 674.446L194.322 657.283Z" fill="#263238"/>
<path d="M202.828 656.976L205.24 674.314L328.531 672.563L324.541 656.757L202.828 656.976Z" fill="#263238"/>
<path d="M262.15 660.128L263.772 671.556C264.167 674.358 266.798 676.547 269.691 676.46L289.421 675.847C292.271 675.759 294.288 673.439 293.894 670.636L292.271 659.165C291.877 656.363 289.246 654.174 286.352 654.261L266.622 654.874C263.772 654.962 261.755 657.282 262.15 660.085V660.128Z" fill="white"/>
<path d="M138.815 653.91H319.893C324.409 653.91 328.224 650.539 328.794 646.117C351.155 471.157 308.45 410.516 308.45 410.516C292.184 405.875 275.61 402.504 258.818 400.446C234.309 398.52 209.712 397.95 185.115 398.87C168.323 399.308 151.574 400.971 135.045 403.817C126.057 407.583 117.156 446.638 126.057 568.182C128.38 600.012 128.775 627.508 128.512 643.621C128.424 649.313 133.072 653.954 138.771 653.954L138.815 653.91Z" fill="#263238"/>
<path d="M283.064 472.47H317.964L320.595 514.021L301.873 526.149L283.064 516.867V472.47Z" fill="#263238"/>
<path opacity="0.2" d="M328.793 646.117C328.223 650.583 324.409 653.911 319.893 653.911H138.814C133.115 653.911 128.467 649.269 128.555 643.578C128.774 627.465 128.423 599.969 126.1 568.138C124.828 550.669 123.907 534.863 123.337 520.677C121.847 486.306 122.285 461.131 123.776 443.092C125.968 416.734 130.484 405.744 135.044 403.774C151.617 400.928 168.366 399.264 185.158 398.826C209.711 397.951 234.308 398.476 258.817 400.403C275.609 402.504 292.183 405.876 308.449 410.517C308.449 410.517 351.154 471.157 328.793 646.117Z" fill="white"/>
<path d="M186.781 397.032L245.27 416.953L247.638 400.228C241.938 390.245 240.491 383.94 245.314 372.338L206.248 327.547C207.301 350.533 203.135 381.883 186.737 397.075L186.781 397.032Z" fill="#FFB573"/>
<path d="M223.786 425.622L235.273 430.35L245.314 436.655C245.314 436.655 258.642 513.102 254.916 577.595L266.14 586.79L277.978 577.289C277.978 577.289 263.246 458.81 257.941 435.692L260.221 430.175L265.614 418.704L255.617 413.494L239.833 416.953H228.784L223.742 425.622H223.786Z" fill="white"/>
<path opacity="0.2" d="M222.164 345.804L245.27 372.337C243.516 376.409 242.113 380.612 241.105 384.903C231.327 381.97 219.27 368.966 219.752 358.37C219.752 354.079 220.585 349.789 222.164 345.804Z" fill="black"/>
<path d="M190.42 386.436C190.42 386.436 213.132 402.241 243.121 413.8C243.121 413.8 246.673 400.534 243.121 388.975L268.946 401.847C268.946 401.847 271.094 421.857 265.131 432.277L246.191 418.441L224.882 435.78C224.882 435.78 184.545 420.237 178.232 399.133L190.42 386.479V386.436Z" fill="#263238"/>
<path opacity="0.2" d="M321.998 541.956L262.106 590.074C176.259 609.164 138.508 555.704 123.338 520.677C121.848 486.306 122.286 461.131 123.777 443.092C144.384 442.129 170.033 442.129 176.96 447.426C189.017 456.665 231.02 521.421 237.29 526.15C243.604 530.922 321.998 541.956 321.998 541.956Z" fill="black"/>
<path d="M356.021 539.46L387.458 528.12L383.599 570.153C383.599 570.153 354.75 573.83 351.198 558.681L356.021 539.46Z" fill="#FFB573"/>
<path d="M413.501 536.658L408.679 571.291L383.599 570.196L387.458 528.164L413.501 536.658Z" fill="#FFB573"/>
<path d="M173.146 454.65L180.248 468.136C182.704 472.733 185.247 477.243 187.877 481.753C192.963 490.772 198.312 499.573 203.837 507.935C209.405 516.21 215.193 524.179 221.155 530.396C224.049 533.549 226.987 536.176 229.354 537.883C230.1 538.453 230.231 538.452 230.45 538.628C230.626 538.847 231.459 539.065 231.941 539.328C232.599 539.591 233.476 539.81 234.221 540.073L237.027 540.773C245.138 542.568 255.398 543.137 265.614 543.312C275.917 543.488 286.528 543.137 297.182 542.656C318.49 541.561 340.325 539.897 361.809 537.971L367.026 562.139C345.455 569.101 323.883 574.705 301.523 578.909C290.386 581.098 279.03 582.674 267.368 583.9C255.617 584.951 243.779 585.608 230.1 584.119C228.302 583.856 226.636 583.637 224.795 583.287C222.909 582.849 221.112 582.543 219.095 581.974C216.99 581.317 215.149 580.879 212.825 579.872C210.545 578.909 208.177 577.858 206.599 576.938C199.452 573.042 193.884 568.707 188.798 564.285C178.889 555.265 170.91 545.983 163.763 536.351C156.572 526.762 150.171 516.955 144.252 507.016C141.358 501.981 138.552 496.945 135.834 491.867C133.072 486.7 130.573 481.796 127.942 476.017L173.102 454.694L173.146 454.65Z" fill="#FFB573"/>
<path d="M135.045 403.774C78.4852 424.134 151.837 564.855 182.66 580.617C213.483 596.379 265.658 589.68 265.658 589.68L269.341 540.774C269.341 540.774 242.332 537.49 234.265 535.563C221.462 532.498 195.462 475.842 178.012 445.018C160.562 414.195 135.089 403.73 135.089 403.73L135.045 403.774Z" fill="#263238"/>
<path opacity="0.2" d="M135.045 403.774C78.4852 424.134 151.837 564.855 182.66 580.617C213.483 596.379 265.658 589.68 265.658 589.68L269.341 540.774C269.341 540.774 242.332 537.49 234.265 535.563C221.462 532.498 195.462 475.842 178.012 445.018C160.562 414.195 135.089 403.73 135.089 403.73L135.045 403.774Z" fill="white"/>
<path d="M262.106 537.358L257.503 594.146L273.725 591.125L277.978 540.379L262.106 537.358Z" fill="#263238"/>
<path d="M306.828 281.399C309.064 294.49 303.408 320.016 286.966 309.245C270.524 298.474 302.969 258.894 306.828 281.399Z" fill="#263238"/>
<path d="M213.833 286.083C207.52 318.133 202.171 336.566 213.965 356.75C231.678 387.136 274.602 382.539 290.43 352.941C304.679 326.32 312.615 278.421 284.862 258.062C257.503 238.009 220.191 254.033 213.833 286.083Z" fill="#FFB573"/>
<path d="M198.532 250.75L234.879 249.086L235.843 269.927C235.142 269.533 234.396 269.139 233.739 268.745C233.739 268.745 231.415 299.175 214.053 309.551C190.464 291.6 183.581 262.265 198.532 250.706V250.75Z" fill="#263238"/>
<path d="M194.761 309.201C195.156 317.958 199.584 325.708 205.064 330.48C213.263 337.617 222.12 331.4 223.83 321.242C225.364 312.091 222.953 297.336 212.825 294.14C202.828 290.944 194.322 299.175 194.805 309.201H194.761Z" fill="#FFB573"/>
<path d="M259.651 306.968C258.993 309.551 259.782 311.96 261.492 312.397C263.202 312.835 265.088 311.084 265.789 308.501C266.447 305.917 265.658 303.509 263.948 303.071C262.238 302.634 260.352 304.385 259.651 306.968Z" fill="#263238"/>
<path d="M288.808 314.28C288.15 316.863 288.939 319.272 290.649 319.709C292.359 320.147 294.244 318.396 294.946 315.813C295.603 313.229 294.814 310.821 293.104 310.384C291.394 309.946 289.509 311.697 288.808 314.28Z" fill="#263238"/>
<path d="M279.206 313.229C279.206 313.229 281.486 328.991 286.177 337.573C280.609 340.462 273.374 336.566 273.374 336.566L279.206 313.229Z" fill="#FF5652"/>
<path d="M256.976 342.915C257.985 343.309 259.081 343.703 260.265 343.965C260.703 344.053 261.098 343.834 261.229 343.396C261.361 342.958 261.098 342.564 260.659 342.433C249.304 339.587 246.103 330.393 246.059 330.305C245.928 329.911 245.489 329.692 245.051 329.823C244.656 329.955 244.437 330.393 244.568 330.83C244.7 331.181 247.462 339.106 256.933 342.915H256.976Z" fill="#263238"/>
<path d="M253.118 295.322C253.644 295.54 254.214 295.453 254.696 295.103C260.177 290.768 265.658 292.476 265.745 292.519C266.578 292.782 267.455 292.344 267.718 291.512C267.981 290.681 267.543 289.805 266.754 289.542C266.447 289.455 259.563 287.265 252.767 292.651C252.066 293.176 251.978 294.183 252.504 294.84C252.68 295.059 252.899 295.234 253.162 295.322H253.118Z" fill="#263238"/>
<path d="M304.022 307.45C304.285 307.581 304.592 307.581 304.942 307.537C305.775 307.362 306.345 306.53 306.17 305.698C304.46 297.248 297.796 294.621 297.489 294.49C296.7 294.183 295.779 294.577 295.472 295.365C295.165 296.154 295.56 297.073 296.349 297.379C296.612 297.467 301.742 299.569 303.101 306.355C303.189 306.881 303.583 307.318 304.066 307.493L304.022 307.45Z" fill="#263238"/>
<path d="M222.471 276.539C222.471 276.539 223.26 277.283 224.663 278.071C227.469 279.691 232.687 281.617 238.693 278.64C247.725 274.218 250.575 248.561 276.312 261.608C276.312 261.608 285.125 258.937 291.745 267.037C298.366 275.137 293.806 304.691 307.924 300.62C322.042 296.548 319.586 292.169 319.586 292.169C319.586 292.169 315.64 294.665 313.273 292.695C313.273 292.695 320.683 286.565 317.131 277.94C317.131 277.94 313.711 281.968 311.388 281.18C311.388 281.18 315.684 266.074 307.485 245.671C299.33 225.268 249.128 229.821 249.128 229.821C249.128 229.821 242.815 219.269 220.147 226.625C197.479 233.981 187.132 261.258 190.727 273.123" fill="#263238"/>
<path d="M521.754 566.869L518.509 554.697H385.529L324.322 560.783L321.998 566.869H521.754Z" fill="#263238"/>
<path opacity="0.5" d="M521.754 566.869L518.509 554.697H385.529L324.322 560.783L321.998 566.869H521.754Z" fill="white"/>
<path opacity="0.2" d="M385.529 554.697V566.869H521.754L518.509 554.697H385.529Z" fill="black"/>
<path d="M430.513 496.202C429.943 502.638 434.635 507.892 441.08 507.892H644.782C651.227 507.892 656.927 502.638 657.54 496.202L669.641 365.989C669.773 364.632 669.641 363.362 669.378 362.18C668.238 357.583 664.205 354.299 659.075 354.299H455.373C448.928 354.299 443.228 359.553 442.614 365.989L430.513 496.202Z" fill="#263238"/>
<path opacity="0.5" d="M430.513 496.202C429.943 502.638 434.635 507.892 441.08 507.892H644.782C651.227 507.892 656.927 502.638 657.54 496.202L669.641 365.989C669.773 364.632 669.641 363.362 669.378 362.18C668.238 357.583 664.205 354.299 659.075 354.299H455.373C448.928 354.299 443.228 359.553 442.614 365.989L430.513 496.202Z" fill="white"/>
<path opacity="0.1" d="M441.825 507.891H644.782C651.227 507.891 656.927 502.637 657.54 496.201L669.641 365.988C669.773 364.631 669.641 363.361 669.378 362.179H466.422C459.977 362.179 454.277 367.433 453.663 373.869L441.562 504.082C441.431 505.44 441.562 506.709 441.825 507.891Z" fill="black"/>
<path d="M581.733 428.031H539.599L550.823 548.524L484.223 558.506V566.869H624.525V558.506L595.807 548.524L581.733 428.031Z" fill="#263238"/>
<path opacity="0.5" d="M581.733 428.031H539.599L550.823 548.524L484.223 558.506V566.869H624.525V558.506L595.807 548.524L581.733 428.031Z" fill="white"/>
<path opacity="0.2" d="M539.599 428.031L570.816 564.986L595.807 564.242L581.733 428.031H539.599Z" fill="white"/>
<path d="M191.78 1177.17H446.955C449.717 1177.17 451.953 1174.94 451.953 1172.18V1155.93C451.953 1153.18 449.717 1150.94 446.955 1150.94H204.933V630.705H442.834C447.876 630.705 451.997 626.633 451.997 621.555V604.435H191.823C184.545 604.435 178.67 610.302 178.67 617.57V1164.08C178.67 1171.35 184.545 1177.21 191.823 1177.21L191.78 1177.17Z" fill="#263238"/>
<g opacity="0.4">
<path d="M191.78 1177.17H446.955C449.717 1177.17 451.953 1174.94 451.953 1172.18V1155.93C451.953 1153.18 449.717 1150.94 446.955 1150.94H204.933V630.705H442.834C447.876 630.705 451.997 626.633 451.997 621.555V604.435H191.823C184.545 604.435 178.67 610.302 178.67 617.57V1164.08C178.67 1171.35 184.545 1177.21 191.823 1177.21L191.78 1177.17Z" fill="white"/>
</g>
<path d="M831.735 608.726L159.072 608.726C154.38 608.726 150.566 604.917 150.566 600.232V579.566L840.241 579.566V600.275C840.241 604.96 836.426 608.77 831.735 608.77V608.726Z" fill="#407BFF"/>
<path opacity="0.2" d="M150.566 594.146L840.241 594.146V579.566L150.566 579.566V594.146Z" fill="black"/>
<path d="M136.141 583.331H854.753C859.313 583.331 862.996 579.654 862.996 575.1C862.996 570.547 859.313 566.869 854.753 566.869H136.141C131.581 566.869 127.898 570.547 127.898 575.1C127.898 579.654 131.581 583.331 136.141 583.331Z" fill="#407BFF"/>
</svg>
