<svg width="220" height="84" viewBox="0 0 390 84" fill="none" xmlns="http://www.w3.org/2000/svg">
<path d="M159.532 69.6398C148.464 69.6398 141.434 63.1783 141.434 53.6657V29.884C141.434 26.8925 143.109 25.1575 145.951 25.1575C148.793 25.1575 150.468 26.8925 150.468 29.884V52.7682C150.468 58.3023 153.729 61.9219 159.532 61.9219C165.305 61.9219 168.566 58.3023 168.566 52.7682V29.884C168.566 26.8925 170.241 25.1575 173.083 25.1575C175.925 25.1575 177.6 26.8925 177.6 29.884V53.6657C177.6 63.1783 170.57 69.6398 159.532 69.6398Z" fill="#407BFF"/>
<path d="M188.429 69.55C185.886 69.55 184.061 67.9945 184.061 65.0031V40.5932C184.061 37.871 185.647 36.1958 188.279 36.1958C190.912 36.1958 192.647 37.871 192.647 40.6231V42.418H192.826C194.531 38.4394 197.762 36.2557 202.698 36.2557C209.817 36.2557 213.826 40.7428 213.826 48.2512V65.0031C213.826 67.9945 212.001 69.55 209.458 69.55C206.886 69.55 205.091 67.9945 205.091 65.0031V50.076C205.091 45.888 203.117 43.4949 199.198 43.4949C195.279 43.4949 192.796 46.3666 192.796 50.5247V65.0031C192.796 67.9945 191.001 69.55 188.429 69.55Z" fill="#407BFF"/>
<path d="M223.877 32.8754C221.245 32.8754 219.21 30.8711 219.21 28.3583C219.21 25.8156 221.245 23.8413 223.877 23.8413C226.51 23.8413 228.544 25.8156 228.544 28.3583C228.544 30.8711 226.51 32.8754 223.877 32.8754ZM223.877 69.55C221.155 69.55 219.51 67.8449 219.51 65.0031V40.7727C219.51 37.9308 221.155 36.1958 223.877 36.1958C226.569 36.1958 228.245 37.9308 228.245 40.7727V65.0031C228.245 67.8449 226.569 69.55 223.877 69.55Z" fill="#407BFF"/>
<path d="M253.053 69.4904C249.523 69.4904 247.429 67.9349 246.113 64.2554L234.088 31.9781C233.789 31.1405 233.639 30.3029 233.639 29.4354C233.639 26.8927 235.554 25.1577 238.395 25.1577C240.818 25.1577 242.254 26.2645 243.002 28.7175L253.113 59.6188H253.323L263.404 28.6277C264.151 26.2047 265.498 25.1577 267.861 25.1577C270.613 25.1577 272.497 26.8628 272.497 29.3158C272.497 30.1235 272.348 30.9311 272.049 31.7388L259.963 64.2853C258.647 67.9349 256.553 69.4904 253.053 69.4904Z" fill="white"/>
<path d="M287.275 69.6101C277.254 69.6101 271.361 63.4178 271.361 53.0376C271.361 42.7173 277.373 36.1661 286.856 36.1661C295.95 36.1661 302.053 42.3882 302.053 51.0932C302.053 53.5163 300.677 54.8923 298.253 54.8923H279.946V55.2812C279.946 60.0375 282.818 63.1486 287.245 63.1486C290.446 63.1486 292.54 62.0717 294.903 59.2897C295.83 58.3324 296.608 58.0034 297.745 58.0034C299.63 58.0034 301.155 59.2 301.155 61.2042C301.155 61.8922 300.946 62.6102 300.557 63.3281C298.433 67.2768 293.467 69.6101 287.275 69.6101ZM280.036 49.5377H293.647C293.467 45.3497 290.775 42.6275 286.946 42.6275C283.117 42.6275 280.335 45.4395 280.036 49.5377Z" fill="white"/>
<path d="M310.937 69.5502C308.305 69.5502 306.57 67.905 306.57 65.0033V40.5934C306.57 37.8114 308.275 36.196 310.787 36.196C313.24 36.196 314.916 37.8114 314.916 40.5934V42.6874H315.095C315.933 38.7088 318.565 36.3456 321.766 36.3456C322.933 36.3456 323.86 36.6148 324.488 37.1533C325.326 37.8114 325.745 38.8883 325.745 40.384C325.745 41.76 325.326 42.807 324.488 43.525C323.651 44.2429 322.394 44.6318 320.689 44.6617C316.71 44.7215 315.305 46.9651 315.305 50.7642V65.0033C315.305 67.905 313.599 69.5502 310.937 69.5502Z" fill="white"/>
<path d="M341.958 69.6101C334.599 69.6101 329.693 66.9776 328.168 63.2084C327.958 62.6401 327.839 62.0717 327.839 61.5931C327.839 59.5888 329.334 58.2427 331.368 58.2427C332.774 58.2427 333.971 58.8709 335.167 60.217C336.873 62.4606 338.847 63.4777 342.167 63.4777C345.338 63.4777 347.402 62.1614 347.402 60.0375C347.402 58.3025 346.296 57.3752 343.155 56.6872L337.77 55.5504C331.488 54.2043 328.317 51.0035 328.317 46.2472C328.317 40.1148 333.612 36.1661 341.928 36.1661C348.569 36.1661 353.445 39.1874 354.492 42.807C354.612 43.2557 354.701 43.6745 354.701 44.0933C354.701 45.8583 353.595 47.0847 351.351 47.0847C350.214 47.0847 348.958 46.6659 348.18 45.7386C346.654 43.7942 344.919 42.2985 341.778 42.2985C338.817 42.2985 336.753 43.7045 336.753 45.7685C336.753 47.4437 338.009 48.5505 341.21 49.2386L346.505 50.3753C353.325 51.8112 356.137 54.324 356.137 59.1102C356.137 65.4819 350.424 69.6101 341.958 69.6101Z" fill="white"/>
<path d="M375.222 69.6101C365.201 69.6101 359.308 63.4178 359.308 53.0376C359.308 42.7173 365.321 36.1661 374.804 36.1661C383.898 36.1661 390 42.3882 390 51.0932C390 53.5163 388.624 54.8923 386.201 54.8923H367.893V55.2812C367.893 60.0375 370.765 63.1486 375.193 63.1486C378.393 63.1486 380.487 62.0717 382.851 59.2897C383.778 58.3324 384.556 58.0034 385.692 58.0034C387.577 58.0034 389.103 59.2 389.103 61.2042C389.103 61.8922 388.893 62.6102 388.504 63.3281C386.38 67.2768 381.415 69.6101 375.222 69.6101ZM367.983 49.5377H381.594C381.415 45.3497 378.722 42.6275 374.893 42.6275C371.064 42.6275 368.282 45.4395 367.983 49.5377Z" fill="white"/>
<g clip-path="url(#clip0_1572_1056)">
<path d="M30.8481 67.5735C30.1025 65.8267 29.1454 64.2111 28.2802 62.5526C18.5428 62.8205 11.7628 60.921 10.1797 56.752C8.61897 52.634 12.4026 47.0585 19.842 41.2954C5.83686 50.1905 -1.97253 59.308 0.431213 65.6445C2.89338 72.1336 15.4908 74.2047 32.7733 72.0693C31.9915 70.6279 31.4601 69.0096 30.8481 67.5735Z" fill="white"/>
<path d="M122.569 19.7142C120.001 12.9491 106.416 10.9878 87.9955 13.5867C98.8569 12.9705 106.505 14.8406 108.199 19.3043C109.827 23.5991 105.64 29.4774 97.5576 35.503C99.11 38.5627 100.54 41.6814 102.079 44.7465C116.76 35.637 125.037 26.2141 122.572 19.7142H122.569Z" fill="white"/>
<path d="M34.4204 73.9798C34.4788 73.9718 34.5344 73.9637 34.5928 73.9584C34.1004 72.7554 33.4939 71.606 32.8429 70.4727C33.3019 71.6596 33.7805 72.8813 34.4204 73.9798Z" fill="url(#paint0_linear_1572_1056)"/>
<path d="M82.4562 6.56955L72.8523 6.03906C72.8523 6.03906 57.0166 29.3539 56.1819 32.486C53.1605 31.0767 22.8884 25.3886 22.8884 25.3886L16.3838 34.8437L54.1621 38.4822C54.1621 38.4822 58.16 38.9296 59.9044 36.4674C65.7969 28.151 82.4534 6.57223 82.4534 6.57223L82.4562 6.56955Z" fill="white"/>
<path d="M83.3243 8.01367L82.4563 8.40216L62.3833 36.0414C62.3833 36.0414 61.5765 37.8766 58.9891 39.1252C56.7968 40.1835 54.4487 39.9182 53.7782 39.8111L53.7699 39.803L53.6809 39.7923C53.6196 39.7816 53.5835 39.7736 53.5835 39.7736L53.5779 39.7816L15.6577 35.7681L16.7761 37.5417L35.3885 77.2724L72.079 83.7241L52.0088 40.8774L53.4945 41.0167C60.3691 55.2891 67.2409 69.5562 74.1155 83.8259C78.1273 84.5841 82.192 82.7676 84.1839 79.3274C77.2509 64.9291 70.3151 50.5334 63.3793 36.1351L83.3243 8.01367Z" fill="#407BFF"/>
<path d="M85.3831 8.18799L65.2767 35.9853L85.7753 78.0469L104.435 47.2435L85.3831 8.18799ZM88.8635 45.6386L86.2205 54.3864L84.1979 45.7994L83.8501 45.3385L74.7665 42.7932L83.8501 40.8079L84.1617 40.5078L86.2233 31.7601L88.78 40.2265L89.3893 40.8535L98.2615 42.7906L89.8845 45.1376L88.8663 45.6359L88.8635 45.6386Z" fill="#407BFF"/>
<path d="M47.2458 18.9264L41.0111 17.5626L40.5799 17.1232L38.7826 11.1699L37.3359 17.3188L37.1162 17.5305L30.7312 18.9264L37.1162 20.7134L37.361 21.0376L38.7826 27.074L40.6411 20.9251L41.3561 20.5741L47.2458 18.9264Z" fill="#407BFF"/>
<path d="M68.1117 11.0492L59.2256 9.10947L58.6135 8.47984L56.054 0L53.9897 8.76116L53.6781 9.06392L44.5806 11.0492L53.6781 13.5999L54.0258 14.0607L56.054 22.6638L58.7026 13.9L59.7208 13.4016L68.1117 11.0492Z" fill="#407BFF"/>
</g>
<defs>
<linearGradient id="paint0_linear_1572_1056" x1="6.774" y1="81.6857" x2="130.558" y2="34.7244" gradientUnits="userSpaceOnUse">
<stop stop-color="#BB28E1"/>
<stop offset="0.16" stop-color="#A230DF"/>
<stop offset="0.5" stop-color="#6546DA"/>
<stop offset="0.99" stop-color="#0269D3"/>
<stop offset="1" stop-color="#006AD3"/>
</linearGradient>
<clipPath id="clip0_1572_1056">
<rect width="123" height="84" fill="white"/>
</clipPath>
</defs>
</svg>
