<svg width="388" height="484" viewBox="0 0 388 484" fill="none" xmlns="http://www.w3.org/2000/svg">
<path d="M15.6719 435.325C14.0483 435.325 13.0913 434.333 13.0913 432.642V414.612H7.99854C6.59717 414.612 5.65723 413.809 5.65723 412.476C5.65723 411.143 6.58008 410.339 7.99854 410.339H23.3623C24.7637 410.339 25.6865 411.143 25.6865 412.476C25.6865 413.809 24.7466 414.612 23.3623 414.612H18.2524V432.642C18.2524 434.333 17.2954 435.325 15.6719 435.325ZM30.4375 435.359C28.9849 435.359 27.9424 434.47 27.9424 432.761V412.527C27.9424 410.92 28.8652 409.963 30.4033 409.963C31.9414 409.963 32.8472 410.92 32.8472 412.527V419.944H32.9497C33.9238 417.637 35.9233 416.338 38.709 416.338C42.7764 416.338 45.1006 418.97 45.1006 423.208V432.761C45.1006 434.47 44.0752 435.359 42.6055 435.359C41.1528 435.359 40.1104 434.47 40.1104 432.761V424.268C40.1104 421.909 38.9482 420.474 36.6753 420.474C34.3169 420.474 32.9326 422.131 32.9326 424.541V432.761C32.9326 434.47 31.9072 435.359 30.4375 435.359ZM50.877 414.407C49.373 414.407 48.2109 413.262 48.2109 411.826C48.2109 410.374 49.373 409.246 50.877 409.246C52.3809 409.246 53.543 410.374 53.543 411.826C53.543 413.262 52.3809 414.407 50.877 414.407ZM50.877 435.359C49.3218 435.359 48.3818 434.385 48.3818 432.761V418.918C48.3818 417.295 49.3218 416.304 50.877 416.304C52.415 416.304 53.3721 417.295 53.3721 418.918V432.761C53.3721 434.385 52.415 435.359 50.877 435.359ZM64.1729 435.393C59.9688 435.393 57.166 433.889 56.2944 431.736C56.1748 431.411 56.1064 431.086 56.1064 430.813C56.1064 429.668 56.9609 428.899 58.123 428.899C58.9263 428.899 59.6099 429.258 60.2935 430.027C61.2676 431.309 62.3955 431.89 64.2925 431.89C66.104 431.89 67.2832 431.138 67.2832 429.924C67.2832 428.933 66.6509 428.403 64.8564 428.01L61.7803 427.361C58.1914 426.592 56.3799 424.763 56.3799 422.046C56.3799 418.542 59.4048 416.287 64.1558 416.287C67.9497 416.287 70.7354 418.013 71.3335 420.081C71.4019 420.337 71.4531 420.576 71.4531 420.815C71.4531 421.824 70.8208 422.524 69.5391 422.524C68.8896 422.524 68.1719 422.285 67.7275 421.755C66.856 420.645 65.8647 419.79 64.0703 419.79C62.3784 419.79 61.1992 420.593 61.1992 421.772C61.1992 422.729 61.917 423.362 63.7456 423.755L66.7705 424.404C70.667 425.225 72.2734 426.66 72.2734 429.395C72.2734 433.035 69.0093 435.393 64.1729 435.393ZM91.1406 435.41C86.0479 435.41 82.7837 433.376 81.7925 430.676C81.6216 430.232 81.519 429.753 81.519 429.292C81.519 427.925 82.459 427.019 83.792 427.019C84.8516 427.019 85.5522 427.429 86.1675 428.523C86.9707 430.403 88.9019 431.257 91.2603 431.257C94.0288 431.257 95.9087 429.924 95.9087 428.113C95.9087 426.489 94.7466 425.566 91.6533 424.934L89.0386 424.421C84.1167 423.447 81.707 421.089 81.707 417.415C81.707 412.903 85.6377 409.912 91.1235 409.912C95.6353 409.912 99.0361 411.809 100.13 415.022C100.25 415.364 100.318 415.723 100.318 416.167C100.318 417.397 99.4292 418.235 98.1133 418.235C96.9512 418.235 96.2334 417.773 95.6523 416.714C94.832 414.851 93.2427 414.082 91.1235 414.082C88.5771 414.082 86.8853 415.278 86.8853 417.09C86.8853 418.611 88.0645 419.551 90.9868 420.132L93.5845 420.662C98.814 421.704 101.07 423.806 101.07 427.549C101.07 432.368 97.293 435.41 91.1406 435.41ZM105.137 430.317V420.439H104.18C103.001 420.439 102.249 419.722 102.249 418.56C102.249 417.397 103.001 416.68 104.18 416.68H105.137V414.646C105.137 413.04 106.077 412.048 107.632 412.048C109.188 412.048 110.127 413.04 110.127 414.646V416.68H111.888C113.067 416.68 113.802 417.415 113.802 418.56C113.802 419.705 113.067 420.439 111.888 420.439H110.127V429.207C110.127 430.505 110.572 431.052 111.648 431.138L111.973 431.172C113.204 431.309 113.87 431.821 113.87 432.983C113.87 434.453 112.435 435.205 110.333 435.205H110.162C106.829 435.205 105.137 433.547 105.137 430.317ZM121.492 435.291C118.006 435.291 115.357 433.035 115.357 429.736C115.357 426.404 117.92 424.473 122.5 424.199L127.115 423.926V422.712C127.115 421.003 125.918 420.012 124.039 420.012C122.518 420.012 121.595 420.508 120.484 421.943C119.937 422.559 119.305 422.866 118.501 422.866C117.288 422.866 116.417 422.08 116.417 420.952C116.417 420.559 116.502 420.2 116.673 419.824C117.527 417.637 120.467 416.287 124.261 416.287C128.96 416.287 132.02 418.713 132.02 422.405V432.847C132.02 434.504 131.011 435.359 129.593 435.359C128.243 435.359 127.303 434.607 127.2 433.137V432.197H127.098C126.072 434.146 123.782 435.291 121.492 435.291ZM123.133 431.685C125.32 431.685 127.115 430.266 127.115 428.284V426.951L123.252 427.19C121.39 427.327 120.33 428.164 120.33 429.463C120.33 430.83 121.458 431.685 123.133 431.685ZM139.078 435.359C137.591 435.359 136.583 434.487 136.583 432.761V420.439H135.625C134.583 420.439 133.797 419.773 133.797 418.594C133.797 417.432 134.583 416.765 135.625 416.765H136.583V415.381C136.583 411.758 138.36 410.151 141.812 410.117C144.461 410.117 145.572 410.955 145.572 412.134C145.572 412.834 145.23 413.245 144.563 413.45C144.29 413.518 143.982 413.569 143.606 413.586C142.068 413.638 141.453 414.253 141.453 415.603V416.765H143.555C144.598 416.765 145.384 417.432 145.384 418.594C145.384 419.773 144.598 420.439 143.555 420.439H141.573V432.761C141.573 434.487 140.547 435.359 139.078 435.359ZM151.553 435.359C150.066 435.359 149.058 434.487 149.058 432.761V420.439H148.101C147.059 420.439 146.272 419.773 146.272 418.594C146.272 417.432 147.059 416.765 148.101 416.765H149.058V415.381C149.058 411.758 150.835 410.151 154.288 410.117C156.937 410.117 158.047 410.955 158.047 412.134C158.047 412.834 157.706 413.245 157.039 413.45C156.766 413.518 156.458 413.569 156.082 413.586C154.544 413.638 153.929 414.253 153.929 415.603V416.765H156.031C157.073 416.765 157.859 417.432 157.859 418.594C157.859 419.773 157.073 420.439 156.031 420.439H154.048V432.761C154.048 434.487 153.023 435.359 151.553 435.359ZM169.874 435.325C168.421 435.325 167.566 434.436 167.566 432.915V413.33C167.566 411.245 168.797 409.998 170.899 409.998C172.693 409.998 173.685 410.75 174.437 412.664L180.555 427.822H180.691L186.792 412.664C187.544 410.767 188.553 409.998 190.364 409.998C192.449 409.998 193.68 411.228 193.68 413.33V432.915C193.68 434.436 192.825 435.325 191.373 435.325C189.92 435.325 189.083 434.436 189.083 432.915V418.354H188.946L182.845 433.274C182.4 434.368 181.717 434.846 180.64 434.846C179.546 434.846 178.829 434.351 178.401 433.291L172.3 418.354H172.164V432.915C172.164 434.436 171.326 435.325 169.874 435.325ZM205.779 435.393C200.054 435.393 196.688 431.855 196.688 425.925C196.688 420.029 200.123 416.287 205.54 416.287C210.735 416.287 214.222 419.841 214.222 424.814C214.222 426.199 213.436 426.985 212.051 426.985H201.592V427.207C201.592 429.924 203.233 431.702 205.762 431.702C207.591 431.702 208.787 431.086 210.137 429.497C210.667 428.95 211.111 428.762 211.761 428.762C212.837 428.762 213.709 429.446 213.709 430.591C213.709 430.984 213.589 431.394 213.367 431.804C212.154 434.06 209.317 435.393 205.779 435.393ZM201.644 423.926H209.419C209.317 421.533 207.779 419.978 205.591 419.978C203.404 419.978 201.814 421.584 201.644 423.926ZM219.297 435.359C217.811 435.359 216.802 434.453 216.802 432.761V418.85C216.802 417.175 217.793 416.304 219.212 416.304C220.63 416.304 221.622 417.175 221.622 418.85V419.995H221.724C222.493 417.791 224.458 416.338 226.954 416.338C229.603 416.338 231.448 417.705 232.063 420.098H232.166C232.986 417.791 235.174 416.338 237.857 416.338C241.446 416.338 243.855 418.799 243.855 422.49V432.761C243.855 434.453 242.83 435.359 241.343 435.359C239.874 435.359 238.865 434.453 238.865 432.761V423.738C238.865 421.619 237.806 420.457 235.875 420.457C233.978 420.457 232.73 421.841 232.73 423.875V432.761C232.73 434.453 231.807 435.359 230.32 435.359C228.851 435.359 227.928 434.453 227.928 432.761V423.584C227.928 421.619 226.817 420.457 224.971 420.457C223.074 420.457 221.792 421.892 221.792 423.943V432.761C221.792 434.453 220.767 435.359 219.297 435.359ZM249.581 435.359C248.145 435.359 247.137 434.504 247.137 432.83V412.578C247.137 410.869 248.179 409.963 249.632 409.963C251.102 409.963 252.127 410.869 252.127 412.578V419.858H252.229C253.238 417.688 255.289 416.389 257.886 416.389C262.518 416.389 265.337 419.927 265.337 425.84C265.337 431.736 262.535 435.291 257.903 435.291C255.22 435.291 253.187 433.992 252.161 431.855H252.059V432.83C252.059 434.487 251.033 435.359 249.581 435.359ZM256.194 431.274C258.672 431.274 260.228 429.189 260.228 425.84C260.228 422.507 258.672 420.388 256.194 420.388C253.768 420.388 252.11 422.559 252.11 425.84C252.11 429.155 253.768 431.274 256.194 431.274ZM276.36 435.393C270.635 435.393 267.269 431.855 267.269 425.925C267.269 420.029 270.704 416.287 276.121 416.287C281.316 416.287 284.803 419.841 284.803 424.814C284.803 426.199 284.017 426.985 282.632 426.985H272.173V427.207C272.173 429.924 273.814 431.702 276.343 431.702C278.172 431.702 279.368 431.086 280.718 429.497C281.248 428.95 281.692 428.762 282.342 428.762C283.418 428.762 284.29 429.446 284.29 430.591C284.29 430.984 284.17 431.394 283.948 431.804C282.735 434.06 279.898 435.393 276.36 435.393ZM272.225 423.926H280C279.898 421.533 278.36 419.978 276.172 419.978C273.985 419.978 272.396 421.584 272.225 423.926ZM289.878 435.359C288.375 435.359 287.383 434.419 287.383 432.761V418.816C287.383 417.227 288.357 416.304 289.793 416.304C291.194 416.304 292.151 417.227 292.151 418.816V420.012H292.254C292.732 417.739 294.236 416.389 296.065 416.389C296.731 416.389 297.261 416.543 297.62 416.851C298.099 417.227 298.338 417.842 298.338 418.696C298.338 419.482 298.099 420.081 297.62 420.491C297.142 420.901 296.424 421.123 295.45 421.14C293.177 421.174 292.374 422.456 292.374 424.626V432.761C292.374 434.419 291.399 435.359 289.878 435.359ZM313.873 435.291C309.292 435.291 306.404 431.667 306.404 425.806C306.404 419.995 309.31 416.389 313.907 416.389C316.556 416.389 318.606 417.791 319.495 419.824H319.598V412.578C319.598 410.869 320.64 409.963 322.093 409.963C323.562 409.963 324.588 410.869 324.588 412.578V432.83C324.588 434.487 323.562 435.359 322.11 435.359C320.674 435.359 319.598 434.504 319.598 432.83V431.77H319.512C318.709 433.821 316.692 435.291 313.873 435.291ZM315.564 431.274C318.042 431.274 319.632 429.189 319.632 425.84C319.632 422.507 318.042 420.388 315.564 420.388C313.052 420.388 311.514 422.49 311.514 425.84C311.514 429.207 313.052 431.274 315.564 431.274ZM336.329 435.393C330.792 435.393 327.254 431.838 327.254 425.823C327.254 419.893 330.843 416.287 336.329 416.287C341.814 416.287 345.403 419.875 345.403 425.823C345.403 431.855 341.866 435.393 336.329 435.393ZM336.329 431.582C338.772 431.582 340.328 429.514 340.328 425.84C340.328 422.2 338.755 420.098 336.329 420.098C333.902 420.098 332.312 422.2 332.312 425.84C332.312 429.514 333.868 431.582 336.329 431.582ZM356.409 435.393C350.684 435.393 347.317 431.855 347.317 425.925C347.317 420.029 350.752 416.287 356.17 416.287C361.365 416.287 364.852 419.841 364.852 424.814C364.852 426.199 364.065 426.985 362.681 426.985H352.222V427.207C352.222 429.924 353.863 431.702 356.392 431.702C358.221 431.702 359.417 431.086 360.767 429.497C361.297 428.95 361.741 428.762 362.391 428.762C363.467 428.762 364.339 429.446 364.339 430.591C364.339 430.984 364.219 431.394 363.997 431.804C362.784 434.06 359.947 435.393 356.409 435.393ZM352.273 423.926H360.049C359.947 421.533 358.409 419.978 356.221 419.978C354.034 419.978 352.444 421.584 352.273 423.926ZM374.9 435.393C370.696 435.393 367.894 433.889 367.022 431.736C366.902 431.411 366.834 431.086 366.834 430.813C366.834 429.668 367.688 428.899 368.851 428.899C369.654 428.899 370.337 429.258 371.021 430.027C371.995 431.309 373.123 431.89 375.02 431.89C376.832 431.89 378.011 431.138 378.011 429.924C378.011 428.933 377.378 428.403 375.584 428.01L372.508 427.361C368.919 426.592 367.107 424.763 367.107 422.046C367.107 418.542 370.132 416.287 374.883 416.287C378.677 416.287 381.463 418.013 382.061 420.081C382.129 420.337 382.181 420.576 382.181 420.815C382.181 421.824 381.548 422.524 380.267 422.524C379.617 422.524 378.899 422.285 378.455 421.755C377.583 420.645 376.592 419.79 374.798 419.79C373.106 419.79 371.927 420.593 371.927 421.772C371.927 422.729 372.645 423.362 374.473 423.755L377.498 424.404C381.395 425.225 383.001 426.66 383.001 429.395C383.001 433.035 379.737 435.393 374.9 435.393ZM25.9941 477.359C24.5415 477.359 23.499 476.47 23.499 474.761V460.816C23.499 459.261 24.4048 458.304 25.9087 458.304C27.4126 458.304 28.4038 459.261 28.4038 460.833V461.858H28.5063C29.4805 459.585 31.3262 458.338 34.146 458.338C38.2134 458.338 40.5034 460.901 40.5034 465.191V474.761C40.5034 476.47 39.4609 477.359 38.0083 477.359C36.5386 477.359 35.5132 476.47 35.5132 474.761V466.233C35.5132 463.841 34.3853 462.474 32.1465 462.474C29.9077 462.474 28.4893 464.114 28.4893 466.49V474.761C28.4893 476.47 27.4639 477.359 25.9941 477.359ZM52.0732 477.393C46.5361 477.393 42.9985 473.838 42.9985 467.823C42.9985 461.893 46.5874 458.287 52.0732 458.287C57.5591 458.287 61.1479 461.875 61.1479 467.823C61.1479 473.855 57.6104 477.393 52.0732 477.393ZM52.0732 473.582C54.5171 473.582 56.0723 471.514 56.0723 467.84C56.0723 464.2 54.5 462.098 52.0732 462.098C49.6465 462.098 48.0571 464.2 48.0571 467.84C48.0571 471.514 49.6123 473.582 52.0732 473.582ZM65.0615 472.317V462.439H64.1045C62.9253 462.439 62.1733 461.722 62.1733 460.56C62.1733 459.397 62.9253 458.68 64.1045 458.68H65.0615V456.646C65.0615 455.04 66.0015 454.048 67.5566 454.048C69.1118 454.048 70.0518 455.04 70.0518 456.646V458.68H71.812C72.9912 458.68 73.7261 459.415 73.7261 460.56C73.7261 461.705 72.9912 462.439 71.812 462.439H70.0518V471.207C70.0518 472.505 70.4961 473.052 71.5728 473.138L71.8975 473.172C73.1279 473.309 73.7944 473.821 73.7944 474.983C73.7944 476.453 72.3589 477.205 70.2568 477.205H70.0859C66.7534 477.205 65.0615 475.547 65.0615 472.317ZM85.7231 477.359C84.2705 477.359 83.228 476.47 83.228 474.761V454.527C83.228 452.92 84.1509 451.963 85.689 451.963C87.2271 451.963 88.1328 452.92 88.1328 454.527V461.944H88.2354C89.2095 459.637 91.209 458.338 93.9946 458.338C98.062 458.338 100.386 460.97 100.386 465.208V474.761C100.386 476.47 99.3608 477.359 97.8911 477.359C96.4385 477.359 95.396 476.47 95.396 474.761V466.268C95.396 463.909 94.2339 462.474 91.9609 462.474C89.6025 462.474 88.2183 464.131 88.2183 466.541V474.761C88.2183 476.47 87.1929 477.359 85.7231 477.359ZM109 477.291C105.513 477.291 102.864 475.035 102.864 471.736C102.864 468.404 105.428 466.473 110.008 466.199L114.622 465.926V464.712C114.622 463.003 113.426 462.012 111.546 462.012C110.025 462.012 109.102 462.508 107.991 463.943C107.444 464.559 106.812 464.866 106.009 464.866C104.795 464.866 103.924 464.08 103.924 462.952C103.924 462.559 104.009 462.2 104.18 461.824C105.035 459.637 107.974 458.287 111.768 458.287C116.468 458.287 119.527 460.713 119.527 464.405V474.847C119.527 476.504 118.519 477.359 117.1 477.359C115.75 477.359 114.81 476.607 114.708 475.137V474.197H114.605C113.58 476.146 111.29 477.291 109 477.291ZM110.64 473.685C112.828 473.685 114.622 472.266 114.622 470.284V468.951L110.76 469.19C108.897 469.327 107.837 470.164 107.837 471.463C107.837 472.83 108.965 473.685 110.64 473.685ZM130.345 477.359C128.431 477.359 127.405 476.59 126.739 474.812L121.971 462.029C121.817 461.585 121.697 461.055 121.697 460.542C121.697 459.192 122.774 458.304 124.192 458.304C125.406 458.304 126.209 458.953 126.585 460.303L130.293 472.591H130.396L134.104 460.252C134.446 458.936 135.284 458.304 136.446 458.304C137.83 458.304 138.873 459.261 138.873 460.525C138.873 460.987 138.753 461.5 138.599 461.927L133.831 474.812C133.199 476.573 132.156 477.359 130.345 477.359ZM149.058 477.393C143.333 477.393 139.966 473.855 139.966 467.925C139.966 462.029 143.401 458.287 148.819 458.287C154.014 458.287 157.5 461.841 157.5 466.814C157.5 468.199 156.714 468.985 155.33 468.985H144.871V469.207C144.871 471.924 146.512 473.702 149.041 473.702C150.87 473.702 152.066 473.086 153.416 471.497C153.946 470.95 154.39 470.762 155.04 470.762C156.116 470.762 156.988 471.446 156.988 472.591C156.988 472.984 156.868 473.394 156.646 473.804C155.433 476.06 152.596 477.393 149.058 477.393ZM144.922 465.926H152.698C152.596 463.533 151.058 461.978 148.87 461.978C146.683 461.978 145.093 463.584 144.922 465.926ZM172.437 477.291C168.951 477.291 166.302 475.035 166.302 471.736C166.302 468.404 168.865 466.473 173.445 466.199L178.06 465.926V464.712C178.06 463.003 176.863 462.012 174.983 462.012C173.462 462.012 172.54 462.508 171.429 463.943C170.882 464.559 170.25 464.866 169.446 464.866C168.233 464.866 167.361 464.08 167.361 462.952C167.361 462.559 167.447 462.2 167.618 461.824C168.472 459.637 171.412 458.287 175.206 458.287C179.905 458.287 182.964 460.713 182.964 464.405V474.847C182.964 476.504 181.956 477.359 180.538 477.359C179.188 477.359 178.248 476.607 178.145 475.137V474.197H178.042C177.017 476.146 174.727 477.291 172.437 477.291ZM174.078 473.685C176.265 473.685 178.06 472.266 178.06 470.284V468.951L174.197 469.19C172.334 469.327 171.275 470.164 171.275 471.463C171.275 472.83 172.403 473.685 174.078 473.685ZM188.689 477.359C187.237 477.359 186.194 476.47 186.194 474.761V460.816C186.194 459.261 187.1 458.304 188.604 458.304C190.108 458.304 191.099 459.261 191.099 460.833V461.858H191.202C192.176 459.585 194.021 458.338 196.841 458.338C200.909 458.338 203.199 460.901 203.199 465.191V474.761C203.199 476.47 202.156 477.359 200.704 477.359C199.234 477.359 198.208 476.47 198.208 474.761V466.233C198.208 463.841 197.081 462.474 194.842 462.474C192.603 462.474 191.185 464.114 191.185 466.49V474.761C191.185 476.47 190.159 477.359 188.689 477.359ZM209.368 483.785C207.181 483.785 206.001 482.947 206.001 481.443C206.001 480.435 206.702 479.803 207.83 479.803C208.172 479.803 208.36 479.82 208.702 479.82C209.573 479.82 210.513 479.444 211.111 478.162L211.368 477.513L205.523 462.098C205.335 461.585 205.232 461.038 205.232 460.628C205.232 459.278 206.343 458.304 207.813 458.304C209.129 458.304 209.812 458.868 210.223 460.32L214.205 473.001H214.29L218.272 460.286C218.682 458.902 219.4 458.304 220.682 458.304C222.117 458.304 223.108 459.244 223.108 460.56C223.108 460.97 223.006 461.551 222.835 462.029L217.212 477.308C215.503 482.042 213.384 483.785 209.368 483.785ZM239.668 477.393C235.464 477.393 232.662 475.889 231.79 473.736C231.67 473.411 231.602 473.086 231.602 472.813C231.602 471.668 232.457 470.899 233.619 470.899C234.422 470.899 235.105 471.258 235.789 472.027C236.763 473.309 237.891 473.89 239.788 473.89C241.6 473.89 242.779 473.138 242.779 471.924C242.779 470.933 242.146 470.403 240.352 470.01L237.276 469.361C233.687 468.592 231.875 466.763 231.875 464.046C231.875 460.542 234.9 458.287 239.651 458.287C243.445 458.287 246.231 460.013 246.829 462.081C246.897 462.337 246.949 462.576 246.949 462.815C246.949 463.824 246.316 464.524 245.035 464.524C244.385 464.524 243.667 464.285 243.223 463.755C242.352 462.645 241.36 461.79 239.566 461.79C237.874 461.79 236.695 462.593 236.695 463.772C236.695 464.729 237.413 465.362 239.241 465.755L242.266 466.404C246.163 467.225 247.769 468.66 247.769 471.395C247.769 475.035 244.505 477.393 239.668 477.393ZM256.758 477.342C252.793 477.342 250.162 474.761 250.162 470.489V460.918C250.162 459.209 251.204 458.304 252.657 458.304C254.126 458.304 255.152 459.209 255.152 460.918V469.446C255.152 471.89 256.365 473.189 258.57 473.189C260.792 473.189 262.176 471.6 262.176 469.173V460.918C262.176 459.209 263.218 458.304 264.671 458.304C266.141 458.304 267.166 459.209 267.166 460.918V474.83C267.166 476.487 266.192 477.359 264.756 477.359C263.321 477.359 262.347 476.487 262.347 474.83V473.702H262.244C261.338 476.009 259.527 477.342 256.758 477.342ZM272.977 477.359C271.541 477.359 270.533 476.504 270.533 474.83V454.578C270.533 452.869 271.575 451.963 273.028 451.963C274.498 451.963 275.523 452.869 275.523 454.578V461.858H275.625C276.634 459.688 278.685 458.389 281.282 458.389C285.914 458.389 288.733 461.927 288.733 467.84C288.733 473.736 285.931 477.291 281.299 477.291C278.616 477.291 276.583 475.992 275.557 473.855H275.455V474.83C275.455 476.487 274.429 477.359 272.977 477.359ZM279.59 473.274C282.068 473.274 283.624 471.189 283.624 467.84C283.624 464.507 282.068 462.388 279.59 462.388C277.164 462.388 275.506 464.559 275.506 467.84C275.506 471.155 277.164 473.274 279.59 473.274ZM293.877 456.407C292.374 456.407 291.211 455.262 291.211 453.826C291.211 452.374 292.374 451.246 293.877 451.246C295.381 451.246 296.543 452.374 296.543 453.826C296.543 455.262 295.381 456.407 293.877 456.407ZM293.877 458.304C295.33 458.304 296.355 459.209 296.355 460.918V478.06C296.355 481.478 294.373 483.494 291.126 483.494H291.041C289.126 483.494 287.999 482.742 287.999 481.409C287.999 480.469 288.528 479.922 289.639 479.717L289.861 479.683C290.938 479.495 291.365 478.897 291.365 477.752V460.918C291.365 459.209 292.408 458.304 293.877 458.304ZM308.165 477.393C302.439 477.393 299.073 473.855 299.073 467.925C299.073 462.029 302.508 458.287 307.925 458.287C313.121 458.287 316.607 461.841 316.607 466.814C316.607 468.199 315.821 468.985 314.437 468.985H303.978V469.207C303.978 471.924 305.618 473.702 308.147 473.702C309.976 473.702 311.172 473.086 312.522 471.497C313.052 470.95 313.497 470.762 314.146 470.762C315.223 470.762 316.094 471.446 316.094 472.591C316.094 472.984 315.975 473.394 315.752 473.804C314.539 476.06 311.702 477.393 308.165 477.393ZM304.029 465.926H311.805C311.702 463.533 310.164 461.978 307.977 461.978C305.789 461.978 304.2 463.584 304.029 465.926ZM327.544 477.393C322.024 477.393 318.521 473.77 318.521 467.84C318.521 461.978 322.007 458.287 327.51 458.287C331.185 458.287 334.244 460.064 335.235 462.662C335.406 463.089 335.508 463.533 335.508 463.892C335.508 465.123 334.551 465.84 333.372 465.84C332.381 465.84 331.783 465.447 331.27 464.542C330.364 462.935 329.253 462.2 327.664 462.2C325.135 462.2 323.58 464.285 323.58 467.823C323.58 471.429 325.135 473.479 327.63 473.479C329.373 473.479 330.45 472.625 331.219 471.326C331.885 470.284 332.432 469.856 333.492 469.856C334.654 469.856 335.594 470.625 335.594 471.856C335.594 472.249 335.491 472.659 335.269 473.155C334.175 475.65 331.048 477.393 327.544 477.393ZM339.593 472.317V462.439H338.636C337.457 462.439 336.705 461.722 336.705 460.56C336.705 459.397 337.457 458.68 338.636 458.68H339.593V456.646C339.593 455.04 340.533 454.048 342.088 454.048C343.643 454.048 344.583 455.04 344.583 456.646V458.68H346.343C347.522 458.68 348.257 459.415 348.257 460.56C348.257 461.705 347.522 462.439 346.343 462.439H344.583V471.207C344.583 472.505 345.027 473.052 346.104 473.138L346.429 473.172C347.659 473.309 348.326 473.821 348.326 474.983C348.326 476.453 346.89 477.205 344.788 477.205H344.617C341.285 477.205 339.593 475.547 339.593 472.317ZM358.169 477.393C353.965 477.393 351.163 475.889 350.291 473.736C350.171 473.411 350.103 473.086 350.103 472.813C350.103 471.668 350.958 470.899 352.12 470.899C352.923 470.899 353.606 471.258 354.29 472.027C355.264 473.309 356.392 473.89 358.289 473.89C360.101 473.89 361.28 473.138 361.28 471.924C361.28 470.933 360.647 470.403 358.853 470.01L355.777 469.361C352.188 468.592 350.376 466.763 350.376 464.046C350.376 460.542 353.401 458.287 358.152 458.287C361.946 458.287 364.732 460.013 365.33 462.081C365.398 462.337 365.45 462.576 365.45 462.815C365.45 463.824 364.817 464.524 363.536 464.524C362.886 464.524 362.168 464.285 361.724 463.755C360.853 462.645 359.861 461.79 358.067 461.79C356.375 461.79 355.196 462.593 355.196 463.772C355.196 464.729 355.914 465.362 357.742 465.755L360.767 466.404C364.664 467.225 366.27 468.66 366.27 471.395C366.27 475.035 363.006 477.393 358.169 477.393Z" fill="#2B2B2B"/>
<g clip-path="url(#clip0_1977_1495)">
<path d="M249.282 192.071C210.968 191.704 176.298 191.376 151.168 191.137C138.63 191.081 128.477 191.025 121.435 190.993C117.942 191.001 115.23 191.009 113.348 191.009C112.439 191.025 111.745 191.033 111.242 191.041C110.772 191.049 110.524 191.065 110.524 191.081C110.524 191.097 110.764 191.113 111.242 191.129C111.745 191.137 112.439 191.161 113.348 191.177C115.222 191.201 117.942 191.233 121.435 191.281C128.485 191.32 138.63 191.376 151.168 191.44C176.298 191.456 210.976 191.48 249.29 191.504C287.588 191.504 322.266 191.552 347.373 191.736C359.926 191.823 370.087 191.943 377.105 192.079C380.615 192.143 383.342 192.215 385.193 192.286C387.043 192.358 388.008 192.43 388.008 192.494C388.008 192.566 387.035 192.622 385.185 192.678C383.334 192.733 380.607 192.773 377.097 192.805C370.079 192.869 359.918 192.885 347.365 192.845C322.258 192.773 287.58 192.47 249.29 192.079L249.282 192.071Z" fill="#EBEBEB"/>
<path d="M248.524 200.604C210.737 194.362 176.538 188.718 151.75 184.623C139.372 182.643 129.355 181.038 122.4 179.921C118.947 179.394 116.267 178.987 114.409 178.699C113.515 178.571 112.821 178.476 112.327 178.404C111.856 178.34 111.617 178.316 111.609 178.332C111.609 178.348 111.84 178.396 112.311 178.492C112.805 178.579 113.491 178.707 114.377 178.867C116.227 179.178 118.907 179.625 122.344 180.208C129.299 181.326 139.316 182.938 151.694 184.926C176.522 188.798 210.768 194.13 248.612 200.03C286.448 205.897 320.695 211.262 345.467 215.293C357.853 217.305 367.87 218.981 374.785 220.195C378.238 220.801 380.926 221.288 382.736 221.64C384.547 221.991 385.496 222.214 385.488 222.286C385.48 222.358 384.507 222.27 382.672 222.039C380.838 221.807 378.134 221.432 374.665 220.929C367.718 219.915 357.677 218.375 345.283 216.411C320.495 212.491 286.288 206.871 248.517 200.604H248.524Z" fill="#EBEBEB"/>
<path d="M246.411 208.915C210.091 196.877 177.216 185.98 153.393 178.085C141.485 174.205 131.851 171.06 125.16 168.88C121.834 167.827 119.25 167.004 117.463 166.437C116.602 166.174 115.932 165.974 115.453 165.823C114.999 165.687 114.767 165.631 114.76 165.639C114.76 165.655 114.983 165.743 115.421 165.903C115.892 166.07 116.554 166.294 117.407 166.589C119.186 167.188 121.754 168.05 125.064 169.152C131.755 171.339 141.39 174.484 153.289 178.372C177.192 186.052 210.162 196.645 246.595 208.348C283.019 220.019 315.989 230.637 339.804 238.476C351.712 242.388 361.338 245.605 367.974 247.872C371.291 249.006 373.86 249.908 375.598 250.538C377.337 251.169 378.23 251.536 378.214 251.6C378.19 251.664 377.249 251.432 375.471 250.921C373.692 250.411 371.092 249.62 367.742 248.582C361.043 246.499 351.377 243.417 339.453 239.554C315.598 231.826 282.716 220.961 246.419 208.899L246.411 208.915Z" fill="#EBEBEB"/>
<path d="M243.005 216.786C209.054 199.256 178.324 183.401 156.057 171.898C144.915 166.214 135.902 161.616 129.642 158.423C126.531 156.866 124.107 155.653 122.432 154.814C121.618 154.415 120.996 154.112 120.542 153.896C120.111 153.697 119.896 153.601 119.888 153.609C119.888 153.625 120.087 153.745 120.502 153.976C120.94 154.208 121.555 154.543 122.352 154.966C124.011 155.828 126.412 157.081 129.506 158.686C135.767 161.887 144.779 166.493 155.913 172.177C178.292 183.473 209.157 199.056 243.269 216.283C277.38 233.471 308.237 249.085 330.513 260.517C341.654 266.233 350.643 270.895 356.832 274.168C359.926 275.805 362.319 277.09 363.938 277.984C365.549 278.878 366.378 279.381 366.347 279.437C366.315 279.501 365.421 279.117 363.747 278.335C362.08 277.553 359.631 276.363 356.489 274.815C350.204 271.717 341.152 267.175 329.986 261.499C307.663 250.163 276.917 234.325 242.997 216.778L243.005 216.786Z" fill="#EBEBEB"/>
<path d="M238.396 224.035C207.634 201.483 179.8 181.078 159.622 166.286C149.517 158.957 141.342 153.018 135.663 148.899C132.832 146.879 130.631 145.307 129.115 144.221C128.374 143.702 127.807 143.311 127.401 143.023C127.01 142.76 126.81 142.624 126.794 142.64C126.786 142.648 126.97 142.808 127.345 143.095C127.744 143.399 128.294 143.814 129.012 144.357C130.511 145.466 132.688 147.071 135.488 149.138C141.166 153.266 149.333 159.205 159.43 166.541C179.744 181.15 207.762 201.307 238.731 223.58C269.699 245.82 297.709 266.001 317.895 280.73C327.992 288.09 336.135 294.094 341.734 298.277C344.534 300.368 346.695 302.013 348.146 303.138C349.598 304.272 350.34 304.894 350.3 304.95C350.26 305.006 349.438 304.495 347.907 303.458C346.384 302.428 344.151 300.879 341.295 298.867C335.577 294.844 327.354 288.952 317.233 281.632C296.976 266.991 269.117 246.603 238.396 224.043V224.035Z" fill="#EBEBEB"/>
<path d="M232.693 230.485C205.864 203.486 181.578 179.059 163.976 161.344C155.155 152.555 148.009 145.434 143.049 140.493C140.576 138.066 138.646 136.174 137.314 134.865C136.668 134.242 136.166 133.763 135.807 133.42C135.464 133.1 135.28 132.941 135.273 132.949C135.265 132.957 135.424 133.14 135.743 133.484C136.086 133.843 136.573 134.338 137.195 134.984C138.503 136.31 140.401 138.234 142.841 140.7C147.794 145.642 154.932 152.771 163.753 161.568C181.514 179.122 206.023 203.335 233.1 230.086C260.185 256.805 284.677 281.041 302.295 298.7C311.108 307.521 318.206 314.698 323.08 319.695C325.512 322.194 327.394 324.141 328.646 325.483C329.899 326.824 330.537 327.55 330.489 327.598C330.441 327.646 329.707 327.015 328.359 325.762C327.011 324.509 325.057 322.641 322.553 320.206C317.545 315.352 310.343 308.271 301.498 299.482C283.792 281.911 259.491 257.491 232.693 230.485Z" fill="#EBEBEB"/>
<path d="M226.042 235.977C203.79 205.187 183.652 177.326 169.057 157.129C161.727 147.087 155.793 138.96 151.67 133.316C149.604 130.538 148.001 128.374 146.893 126.874C146.35 126.155 145.928 125.604 145.633 125.213C145.346 124.846 145.194 124.654 145.178 124.662C145.162 124.67 145.298 124.878 145.561 125.261C145.848 125.668 146.239 126.235 146.757 126.969C147.842 128.478 149.413 130.666 151.431 133.484C155.546 139.128 161.48 147.262 168.801 157.305C183.58 177.366 203.973 205.051 226.512 235.642C249.059 266.201 269.436 293.902 284.055 314.043C291.369 324.109 297.255 332.292 301.274 337.968C303.284 340.81 304.832 343.029 305.86 344.546C306.889 346.063 307.4 346.877 307.344 346.917C307.288 346.957 306.666 346.222 305.533 344.777C304.401 343.332 302.758 341.185 300.668 338.399C296.481 332.835 290.492 324.732 283.13 314.697C268.407 294.62 248.245 266.768 226.034 235.977H226.042Z" fill="#EBEBEB"/>
<path d="M218.608 240.384C201.509 206.536 186.036 175.913 174.815 153.712C169.16 142.664 164.59 133.723 161.416 127.512C159.821 124.447 158.577 122.06 157.715 120.415C157.293 119.625 156.966 119.018 156.734 118.579C156.511 118.172 156.383 117.965 156.375 117.965C156.36 117.965 156.455 118.188 156.655 118.619C156.87 119.066 157.173 119.681 157.564 120.487C158.393 122.148 159.598 124.551 161.145 127.64C164.319 133.851 168.881 142.8 174.528 153.848C185.949 175.945 201.708 206.432 219.119 240.12C236.553 273.777 252.289 304.288 263.542 326.432C269.173 337.505 273.687 346.494 276.758 352.72C278.297 355.834 279.469 358.269 280.243 359.921C281.017 361.582 281.391 362.468 281.336 362.492C281.272 362.524 280.777 361.701 279.884 360.097C278.999 358.492 277.715 356.121 276.088 353.048C272.834 346.901 268.2 337.984 262.521 326.927C251.164 304.83 235.66 274.208 218.6 240.36L218.608 240.384Z" fill="#EBEBEB"/>
<path d="M210.569 243.577C199.076 207.494 188.676 174.851 181.139 151.182C177.319 139.391 174.225 129.851 172.079 123.225C170.987 119.952 170.141 117.406 169.559 115.642C169.264 114.795 169.041 114.141 168.881 113.678C168.722 113.239 168.634 113.015 168.618 113.015C168.602 113.015 168.666 113.255 168.793 113.702C168.937 114.173 169.136 114.835 169.392 115.689C169.95 117.462 170.755 120.016 171.792 123.313C173.938 129.939 177.016 139.487 180.828 151.278C188.589 174.875 199.292 207.43 211.119 243.401C222.971 279.349 233.65 311.919 241.235 335.541C245.031 347.356 248.054 356.927 250.096 363.561C251.116 366.874 251.89 369.461 252.393 371.217C252.895 372.973 253.126 373.907 253.054 373.931C252.991 373.955 252.624 373.061 252.002 371.345C251.38 369.628 250.494 367.082 249.378 363.793C247.145 357.223 243.986 347.691 240.142 335.892C232.446 312.303 222.022 279.652 210.561 243.585L210.569 243.577Z" fill="#EBEBEB"/>
<path d="M202.115 245.485C196.516 208.069 191.452 174.213 187.775 149.673C185.885 137.443 184.346 127.536 183.285 120.655C182.735 117.254 182.304 114.604 182.009 112.776C181.857 111.898 181.738 111.219 181.65 110.732C181.562 110.269 181.514 110.038 181.498 110.038C181.482 110.038 181.498 110.277 181.562 110.74C181.626 111.227 181.722 111.914 181.841 112.8C182.113 114.636 182.495 117.286 182.998 120.695C184.059 127.576 185.582 137.475 187.464 149.713C191.364 174.221 196.74 208.029 202.689 245.397C208.663 282.734 214.015 316.558 217.739 341.065C219.605 353.319 221.065 363.242 222.022 370.107C222.5 373.54 222.851 376.206 223.067 378.019C223.282 379.831 223.362 380.789 223.29 380.797C223.218 380.805 223.011 379.871 222.668 378.075C222.325 376.278 221.862 373.628 221.28 370.211C220.124 363.378 218.529 353.471 216.607 341.225C212.77 316.733 207.674 282.877 202.107 245.477L202.115 245.485Z" fill="#EBEBEB"/>
<path d="M193.454 246.068C193.797 208.252 194.108 174.021 194.339 149.218C194.395 136.844 194.435 126.826 194.467 119.865C194.459 116.416 194.451 113.734 194.443 111.882C194.427 110.987 194.419 110.301 194.411 109.806C194.403 109.335 194.387 109.095 194.371 109.095C194.355 109.095 194.339 109.335 194.323 109.806C194.315 110.301 194.299 110.987 194.275 111.882C194.251 113.734 194.219 116.416 194.18 119.865C194.148 126.818 194.1 136.836 194.036 149.218C194.036 174.029 194.036 208.252 194.036 246.076C194.06 283.875 194.036 318.106 193.861 342.893C193.781 355.283 193.661 365.31 193.534 372.239C193.47 375.703 193.398 378.394 193.326 380.222C193.254 382.05 193.183 383.008 193.111 383C193.039 383 192.975 382.042 192.927 380.214C192.872 378.386 192.832 375.695 192.792 372.231C192.728 365.302 192.704 355.275 192.736 342.877C192.792 318.098 193.079 283.867 193.446 246.068H193.454Z" fill="#EBEBEB"/>
<path d="M184.808 245.317C191.109 208.013 196.803 174.253 200.935 149.777C202.937 137.563 204.556 127.672 205.68 120.799C206.215 117.39 206.621 114.739 206.908 112.911C207.036 112.025 207.132 111.347 207.204 110.86C207.267 110.397 207.291 110.157 207.275 110.157C207.259 110.157 207.204 110.389 207.116 110.852C207.028 111.339 206.9 112.017 206.741 112.895C206.43 114.723 205.975 117.366 205.385 120.767C204.253 127.632 202.634 137.523 200.624 149.737C196.724 174.245 191.332 208.053 185.383 245.413C179.465 282.758 174.049 316.573 169.982 341.025C167.948 353.255 166.257 363.138 165.037 369.964C164.423 373.38 163.936 376.023 163.578 377.811C163.219 379.599 162.995 380.533 162.924 380.525C162.852 380.517 162.94 379.559 163.171 377.747C163.402 375.935 163.785 373.269 164.295 369.844C165.316 362.987 166.871 353.08 168.857 340.842C172.813 316.366 178.484 282.598 184.808 245.317Z" fill="#EBEBEB"/>
<path d="M176.394 243.242C188.565 207.382 199.579 174.931 207.562 151.405C211.486 139.654 214.661 130.139 216.87 123.529C217.939 120.248 218.768 117.693 219.342 115.929C219.605 115.075 219.813 114.42 219.964 113.941C220.1 113.494 220.164 113.263 220.148 113.255C220.132 113.255 220.044 113.47 219.877 113.909C219.709 114.372 219.478 115.027 219.175 115.865C218.577 117.621 217.699 120.16 216.583 123.425C214.373 130.035 211.191 139.543 207.259 151.294C199.499 174.891 188.788 207.438 176.952 243.409C165.149 279.373 154.414 311.919 146.494 335.437C142.538 347.196 139.284 356.696 136.995 363.25C135.847 366.523 134.937 369.062 134.299 370.778C133.661 372.494 133.287 373.38 133.223 373.357C133.159 373.333 133.39 372.407 133.909 370.65C134.427 368.894 135.225 366.323 136.277 363.019C138.383 356.409 141.501 346.861 145.409 335.086C153.217 311.536 164.208 279.069 176.41 243.234L176.394 243.242Z" fill="#EBEBEB"/>
<path d="M168.418 239.889C186.156 206.36 202.203 176.025 213.839 154.032C219.589 143.031 224.239 134.13 227.469 127.951C229.048 124.878 230.276 122.483 231.122 120.831C231.521 120.024 231.832 119.41 232.047 118.971C232.254 118.547 232.35 118.332 232.334 118.324C232.318 118.324 232.199 118.524 231.967 118.931C231.728 119.362 231.401 119.968 230.97 120.759C230.093 122.395 228.833 124.774 227.206 127.824C223.968 134.003 219.31 142.904 213.552 153.896C202.123 175.993 186.355 206.472 168.929 240.152C151.542 273.833 135.743 304.304 124.17 326.297C118.388 337.297 113.667 346.175 110.357 352.289C108.698 355.347 107.398 357.71 106.497 359.307C105.595 360.895 105.085 361.717 105.021 361.685C104.957 361.654 105.34 360.775 106.138 359.123C106.927 357.47 108.132 355.06 109.695 351.954C112.829 345.751 117.431 336.81 123.166 325.786C134.634 303.745 150.665 273.386 168.411 239.889H168.418Z" fill="#EBEBEB"/>
<path d="M161.065 235.339C183.891 204.963 204.548 177.47 219.518 157.544C226.935 147.566 232.94 139.495 237.112 133.883C239.161 131.089 240.748 128.917 241.849 127.417C242.367 126.682 242.774 126.123 243.061 125.724C243.332 125.341 243.46 125.133 243.452 125.125C243.436 125.118 243.285 125.301 242.99 125.668C242.686 126.059 242.264 126.61 241.713 127.321C240.589 128.806 238.962 130.953 236.88 133.715C232.709 139.319 226.696 147.39 219.27 157.361C204.484 177.422 184.082 205.091 161.536 235.674C139.029 266.257 118.596 293.918 103.689 313.859C96.2324 323.83 90.163 331.869 85.928 337.401C83.8065 340.163 82.1476 342.303 81.0071 343.732C79.8587 345.169 79.2286 345.895 79.1728 345.855C79.1169 345.815 79.6354 345.001 80.6802 343.492C81.7249 341.983 83.2881 339.78 85.3299 336.962C89.4053 331.318 95.363 323.199 102.78 313.197C117.599 293.191 138.239 265.682 161.073 235.339H161.065Z" fill="#EBEBEB"/>
<path d="M154.533 229.71C181.865 203.207 206.605 179.226 224.534 161.839C233.435 153.122 240.645 146.073 245.645 141.171C248.11 138.728 250.024 136.82 251.34 135.511C251.97 134.873 252.456 134.378 252.807 134.018C253.134 133.683 253.294 133.499 253.286 133.491C253.278 133.484 253.094 133.643 252.743 133.962C252.385 134.306 251.874 134.777 251.22 135.391C249.88 136.685 247.934 138.561 245.438 140.964C240.429 145.857 233.219 152.906 224.311 161.616C206.541 179.162 182.025 203.367 154.94 230.11C127.887 256.861 103.346 281.049 85.4733 298.46C76.5408 307.161 69.2751 314.179 64.2186 318.984C61.6904 321.387 59.7125 323.239 58.3567 324.485C57.0008 325.722 56.2591 326.353 56.2112 326.305C56.1634 326.257 56.8014 325.53 58.0695 324.205C59.3376 322.88 61.2358 320.94 63.6923 318.465C68.6052 313.516 75.7751 306.411 84.6758 297.67C102.469 280.187 127.185 256.174 154.525 229.71H154.533Z" fill="#EBEBEB"/>
<path d="M148.958 223.157C180.135 201.171 208.352 181.278 228.801 166.861C238.97 159.62 247.201 153.752 252.911 149.681C255.726 147.645 257.92 146.057 259.435 144.963C260.161 144.428 260.719 144.013 261.118 143.718C261.493 143.43 261.684 143.279 261.676 143.271C261.668 143.255 261.461 143.391 261.07 143.646C260.655 143.925 260.089 144.317 259.339 144.827C257.808 145.897 255.591 147.454 252.744 149.442C247.025 153.513 238.794 159.365 228.618 166.605C208.304 181.206 180.27 201.355 149.293 223.62C118.348 245.892 90.2986 266.025 69.9053 280.474C59.7126 287.699 51.426 293.511 45.6757 297.486C42.7965 299.474 40.5554 300.999 39.0161 302.021C37.4769 303.034 36.6554 303.545 36.6155 303.489C36.5756 303.434 37.3253 302.819 38.7849 301.701C40.2444 300.584 42.4217 298.963 45.245 296.895C50.8837 292.76 59.0825 286.837 69.2513 279.572C89.5808 265.027 117.782 245.11 148.966 223.165L148.958 223.157Z" fill="#EBEBEB"/>
<path d="M144.492 215.82C178.771 198.92 209.788 183.625 232.271 172.536C243.46 166.948 252.512 162.43 258.805 159.293C261.907 157.712 264.324 156.483 265.991 155.636C266.789 155.221 267.411 154.894 267.849 154.662C268.264 154.439 268.471 154.319 268.471 154.303C268.471 154.287 268.24 154.383 267.809 154.583C267.363 154.798 266.733 155.094 265.911 155.485C264.228 156.307 261.796 157.496 258.669 159.029C252.377 162.166 243.317 166.677 232.127 172.257C209.748 183.545 178.875 199.12 144.755 216.331C110.668 233.558 79.771 249.109 57.336 260.238C46.1224 265.802 37.0224 270.264 30.7058 273.298C27.5475 274.814 25.091 275.98 23.4082 276.746C21.7333 277.513 20.8321 277.888 20.8002 277.824C20.7683 277.76 21.6057 277.273 23.2247 276.395C24.8438 275.517 27.2524 274.256 30.3628 272.643C36.5837 269.426 45.6199 264.844 56.8096 259.24C79.1888 248.016 110.206 232.696 144.476 215.828L144.492 215.82Z" fill="#EBEBEB"/>
<path d="M141.254 207.885C177.798 196.517 210.872 186.235 234.839 178.779C246.778 175.003 256.444 171.946 263.152 169.822C266.469 168.745 269.046 167.906 270.832 167.332C271.685 167.044 272.347 166.821 272.818 166.661C273.265 166.501 273.488 166.421 273.488 166.405C273.488 166.39 273.249 166.453 272.794 166.581C272.315 166.725 271.646 166.916 270.776 167.172C268.982 167.723 266.39 168.521 263.056 169.543C256.341 171.658 246.674 174.716 234.735 178.484C210.832 186.155 177.862 196.741 141.422 208.436C105.013 220.155 72.0268 230.716 48.1003 238.22C36.1371 241.972 26.4389 244.966 19.7235 246.986C16.3658 247.992 13.7499 248.758 11.9713 249.261C10.1928 249.756 9.24371 249.987 9.22776 249.916C9.20383 249.852 10.113 249.492 11.8517 248.878C13.5904 248.263 16.1744 247.385 19.5002 246.283C26.1597 244.072 35.8101 240.951 47.7574 237.151C71.652 229.543 104.718 219.229 141.254 207.893V207.885Z" fill="#EBEBEB"/>
<path d="M139.308 199.535C177.208 193.987 211.51 188.965 236.37 185.325C248.764 183.449 258.797 181.932 265.76 180.879C269.205 180.328 271.893 179.905 273.743 179.609C274.636 179.458 275.322 179.338 275.817 179.258C276.279 179.17 276.519 179.122 276.519 179.106C276.519 179.09 276.271 179.106 275.801 179.17C275.306 179.234 274.612 179.33 273.719 179.442C271.861 179.705 269.173 180.096 265.72 180.591C258.749 181.637 248.716 183.154 236.322 185.022C211.494 188.886 177.248 194.218 139.396 200.11C101.568 206.025 67.3133 211.334 42.4855 215.022C30.0757 216.874 20.0186 218.319 13.0639 219.269C9.58661 219.748 6.88292 220.091 5.04855 220.307C3.21419 220.522 2.24118 220.602 2.2332 220.53C2.22523 220.458 3.17431 220.251 4.99273 219.915C6.81114 219.58 9.49888 219.117 12.9602 218.542C19.883 217.393 29.9162 215.812 42.326 213.912C67.1378 210.112 101.432 205.059 139.324 199.543L139.308 199.535Z" fill="#EBEBEB"/>
<path d="M138.718 190.993C177.032 191.312 211.702 191.6 236.832 191.807C249.37 191.855 259.523 191.887 266.565 191.911C270.058 191.895 272.77 191.887 274.652 191.879C275.561 191.863 276.255 191.855 276.758 191.847C277.228 191.839 277.476 191.823 277.476 191.807C277.476 191.791 277.236 191.775 276.758 191.76C276.255 191.752 275.561 191.736 274.652 191.712C272.778 191.688 270.058 191.664 266.565 191.624C259.515 191.592 249.37 191.552 236.832 191.504C211.702 191.52 177.024 191.536 138.71 191.56C100.412 191.608 65.7341 191.6 40.6272 191.448C28.0738 191.376 17.913 191.273 10.8945 191.145C7.38531 191.081 4.65769 191.017 2.80738 190.945C0.973011 190.889 0 190.818 0 190.746C0 190.674 0.973011 190.618 2.82333 190.562C4.67364 190.506 7.40126 190.458 10.9105 190.426C17.9289 190.355 28.0897 190.331 40.6431 190.347C65.75 190.386 100.427 190.642 138.718 190.993Z" fill="#EBEBEB"/>
<path d="M139.468 182.459C177.263 188.654 211.47 194.258 236.266 198.314C248.644 200.277 258.661 201.874 265.624 202.976C269.077 203.495 271.757 203.902 273.615 204.181C274.509 204.309 275.203 204.405 275.697 204.468C276.168 204.532 276.407 204.556 276.415 204.54C276.415 204.524 276.184 204.476 275.713 204.381C275.218 204.293 274.533 204.173 273.647 204.013C271.797 203.702 269.117 203.255 265.68 202.68C258.725 201.571 248.7 199.974 236.33 197.994C211.502 194.154 177.247 188.862 139.388 183.01C101.552 177.191 67.2893 171.866 42.5174 167.866C30.1314 165.871 20.1062 164.202 13.1915 163.005C9.73008 162.406 7.05032 161.919 5.23988 161.568C3.42146 161.217 2.48036 160.993 2.48833 160.929C2.49631 160.857 3.46932 160.945 5.30368 161.177C7.13805 161.408 9.84174 161.775 13.3111 162.278C20.2577 163.284 30.2989 164.817 42.6928 166.765C67.4886 170.653 101.704 176.233 139.475 182.451L139.468 182.459Z" fill="#EBEBEB"/>
<path d="M141.565 174.149C177.902 186.14 210.785 196.996 234.623 204.86C246.531 208.723 256.173 211.853 262.873 214.024C266.198 215.078 268.782 215.892 270.569 216.459C271.438 216.722 272.1 216.922 272.579 217.066C273.033 217.201 273.265 217.257 273.273 217.241C273.273 217.225 273.049 217.137 272.603 216.978C272.132 216.81 271.47 216.587 270.617 216.291C268.838 215.701 266.262 214.838 262.96 213.737C256.269 211.557 246.626 208.42 234.719 204.548C210.808 196.901 177.83 186.347 141.374 174.692C104.934 163.069 71.955 152.483 48.1242 144.684C36.2089 140.788 26.5824 137.587 19.9468 135.32C16.629 134.186 14.0609 133.292 12.3222 132.661C10.5836 132.031 9.68235 131.664 9.70627 131.6C9.7302 131.536 10.6713 131.767 12.4498 132.278C14.2284 132.789 16.8364 133.572 20.1861 134.609C26.8855 136.685 36.5598 139.75 48.4911 143.606C72.3538 151.302 105.253 162.127 141.565 174.141V174.149Z" fill="#EBEBEB"/>
<path d="M144.963 166.27C178.938 183.752 209.684 199.575 231.967 211.046C243.117 216.714 252.137 221.304 258.398 224.49C261.516 226.046 263.941 227.26 265.616 228.09C266.429 228.481 267.051 228.784 267.506 229.008C267.937 229.208 268.16 229.303 268.16 229.295C268.16 229.279 267.961 229.16 267.546 228.936C267.107 228.705 266.493 228.377 265.696 227.946C264.037 227.084 261.628 225.839 258.542 224.234C252.281 221.041 243.261 216.451 232.119 210.775C209.732 199.503 178.834 183.96 144.707 166.781C110.58 149.633 79.6911 134.066 57.4075 122.659C46.2658 116.959 37.2614 112.305 31.0724 109.04C27.978 107.411 25.5773 106.126 23.9663 105.232C22.3552 104.338 21.5178 103.843 21.5497 103.779C21.5816 103.715 22.4749 104.098 24.1497 104.88C25.8246 105.663 28.2731 106.844 31.4154 108.385C37.7001 111.474 46.7603 116.009 57.9339 121.669C80.2733 132.973 111.035 148.779 144.979 166.278L144.963 166.27Z" fill="#EBEBEB"/>
<path d="M149.572 159.021C180.358 181.533 208.224 201.906 228.418 216.674C238.531 223.995 246.714 229.918 252.401 234.029C255.232 236.049 257.433 237.614 258.956 238.699C259.698 239.21 260.264 239.609 260.679 239.897C261.07 240.16 261.277 240.296 261.285 240.28C261.293 240.272 261.11 240.112 260.735 239.825C260.336 239.522 259.786 239.107 259.06 238.564C257.553 237.454 255.375 235.857 252.576 233.79C246.897 229.671 238.715 223.739 228.61 216.419C208.28 201.834 180.23 181.717 149.237 159.476C118.245 137.276 90.2028 117.126 69.9929 102.422C59.8879 95.0694 51.737 89.0822 46.1382 84.9071C43.3388 82.8155 41.1774 81.179 39.7179 80.0534C38.2664 78.9278 37.5246 78.3051 37.5645 78.2493C37.6044 78.1934 38.4259 78.7043 39.9572 79.7341C41.4885 80.7639 43.7136 82.3126 46.5768 84.3163C52.2953 88.3398 60.526 94.2152 70.6628 101.528C90.9365 116.145 118.819 136.493 149.58 159.021H149.572Z" fill="#EBEBEB"/>
<path d="M155.267 152.563C182.137 179.529 206.446 203.925 224.072 221.616C232.909 230.397 240.055 237.502 245.023 242.443C247.504 244.87 249.434 246.762 250.766 248.063C251.42 248.686 251.914 249.165 252.273 249.508C252.616 249.828 252.799 249.987 252.807 249.979C252.815 249.971 252.656 249.788 252.337 249.444C251.994 249.085 251.507 248.59 250.885 247.944C249.577 246.618 247.671 244.703 245.231 242.236C240.27 237.294 233.124 230.181 224.295 221.4C206.51 203.87 181.977 179.689 154.86 152.962C127.736 126.275 103.219 102.07 85.5772 84.436C76.7563 75.6228 69.6421 68.462 64.7691 63.4727C62.3286 60.982 60.4544 59.0261 59.1942 57.693C57.9341 56.3518 57.304 55.6254 57.3519 55.5775C57.3998 55.5296 58.1335 56.1602 59.4814 57.4136C60.8292 58.6669 62.7912 60.5349 65.2955 62.9618C70.3121 67.8074 77.514 74.8804 86.3747 83.6617C104.104 101.208 128.438 125.596 155.267 152.571V152.563Z" fill="#EBEBEB"/>
<path d="M161.903 147.063C184.194 177.821 204.364 205.666 218.983 225.839C226.329 235.865 232.271 243.992 236.402 249.628C238.467 252.406 240.079 254.57 241.187 256.062C241.729 256.781 242.152 257.324 242.447 257.723C242.734 258.09 242.894 258.282 242.902 258.274C242.918 258.266 242.782 258.066 242.519 257.675C242.232 257.268 241.833 256.701 241.323 255.967C240.238 254.458 238.659 252.271 236.641 249.46C232.518 243.817 226.576 235.698 219.239 225.663C204.428 205.618 184.003 177.965 161.432 147.398C138.846 116.871 118.436 89.194 103.785 69.0688C96.4558 59.0103 90.5619 50.8357 86.5342 45.1598C84.5164 42.3178 82.9692 40.1065 81.9404 38.5898C80.9115 37.073 80.3931 36.2587 80.4569 36.2188C80.5127 36.1789 81.1348 36.9133 82.2674 38.3583C83.3999 39.8032 85.0428 41.9506 87.1404 44.7287C91.3355 50.2928 97.3331 58.3796 104.702 68.4142C119.449 88.4755 139.643 116.296 161.903 147.063Z" fill="#EBEBEB"/>
<path d="M169.328 142.648C186.475 176.472 201.987 207.079 213.233 229.263C218.895 240.304 223.481 249.245 226.672 255.448C228.275 258.513 229.519 260.892 230.38 262.537C230.803 263.327 231.13 263.934 231.369 264.373C231.592 264.78 231.72 264.987 231.736 264.987C231.752 264.987 231.656 264.764 231.449 264.333C231.234 263.886 230.93 263.271 230.54 262.465C229.702 260.804 228.498 258.401 226.943 255.32C223.76 249.109 219.183 240.168 213.528 229.128C202.075 207.047 186.284 176.576 168.825 142.911C151.351 109.271 135.575 78.792 124.29 56.6552C118.643 45.5908 114.121 36.6099 111.043 30.3832C109.503 27.2698 108.323 24.843 107.542 23.1825C106.76 21.53 106.385 20.6439 106.449 20.612C106.513 20.58 107.007 21.4023 107.9 23.0069C108.794 24.6035 110.078 26.9824 111.705 30.0479C114.967 36.1868 119.616 45.1038 125.303 56.1523C136.692 78.2412 152.228 108.84 169.336 142.664L169.328 142.648Z" fill="#EBEBEB"/>
<path d="M177.367 139.439C188.908 175.506 199.348 208.14 206.916 231.794C210.752 243.577 213.855 253.117 216.008 259.735C217.101 263.008 217.954 265.554 218.537 267.31C218.832 268.157 219.055 268.811 219.214 269.274C219.374 269.713 219.462 269.937 219.478 269.937C219.494 269.937 219.43 269.697 219.302 269.25C219.159 268.779 218.959 268.117 218.696 267.262C218.138 265.498 217.324 262.936 216.287 259.647C214.134 253.021 211.04 243.481 207.211 231.698C199.419 208.109 188.676 175.57 176.809 139.614C164.909 103.683 154.19 71.1284 146.574 47.5147C142.761 35.7078 139.723 26.1362 137.673 19.5103C136.652 16.1974 135.871 13.6189 135.368 11.8626C134.866 10.1064 134.634 9.17237 134.698 9.14842C134.762 9.12447 135.129 10.0186 135.751 11.7349C136.373 13.4513 137.266 15.9978 138.383 19.2788C140.624 25.8488 143.79 35.3725 147.65 47.1634C155.379 70.7452 165.842 103.38 177.351 139.431L177.367 139.439Z" fill="#EBEBEB"/>
<path d="M185.821 137.523C191.468 174.931 196.58 208.779 200.281 233.319C202.187 245.549 203.734 255.456 204.811 262.329C205.369 265.73 205.8 268.38 206.103 270.208C206.254 271.086 206.374 271.765 206.462 272.252C206.55 272.715 206.597 272.946 206.613 272.946C206.629 272.946 206.613 272.707 206.55 272.244C206.486 271.757 206.39 271.07 206.27 270.184C205.999 268.348 205.608 265.698 205.106 262.289C204.037 255.416 202.498 245.509 200.6 233.279C196.668 208.779 191.245 174.971 185.255 137.619C179.233 100.29 173.842 66.4743 170.086 41.9665C168.203 29.7126 166.728 19.7898 165.763 12.9244C165.276 9.4917 164.925 6.82538 164.702 5.01324C164.487 3.2011 164.407 2.24314 164.471 2.23516C164.543 2.22718 164.758 3.16119 165.101 4.95736C165.444 6.75353 165.914 9.40388 166.497 12.8206C167.661 19.654 169.272 29.5609 171.202 41.7989C175.07 66.2827 180.206 100.139 185.821 137.531V137.523Z" fill="#EBEBEB"/>
<path d="M194.475 136.924C194.179 174.74 193.908 208.971 193.717 233.774C193.677 246.148 193.653 256.166 193.629 263.127C193.645 266.576 193.653 269.258 193.661 271.11C193.677 272.004 193.685 272.691 193.693 273.186C193.709 273.657 193.717 273.896 193.733 273.896C193.749 273.896 193.765 273.657 193.781 273.186C193.789 272.691 193.805 272.004 193.829 271.11C193.852 269.258 193.876 266.576 193.916 263.127C193.94 256.174 193.98 246.156 194.02 233.774C193.988 208.963 193.948 174.74 193.9 136.916C193.829 99.1168 193.813 64.8858 193.948 40.0986C194.012 27.709 194.116 17.6823 194.235 10.7531C194.299 7.28847 194.363 4.5982 194.435 2.7701C194.498 0.957959 194.57 0 194.634 0C194.706 0 194.77 0.957959 194.825 2.78606C194.881 4.61417 194.929 7.30444 194.969 10.7691C195.049 17.6983 195.081 27.7249 195.065 40.1225C195.041 64.9017 194.802 99.1328 194.475 136.932V136.924Z" fill="#EBEBEB"/>
<path d="M203.12 137.667C196.875 174.979 191.221 208.747 187.121 233.223C185.135 245.445 183.532 255.336 182.416 262.201C181.889 265.61 181.483 268.26 181.195 270.088C181.068 270.975 180.972 271.653 180.9 272.14C180.836 272.603 180.813 272.843 180.829 272.843C180.844 272.843 180.9 272.611 180.988 272.148C181.076 271.661 181.203 270.983 181.363 270.104C181.674 268.276 182.129 265.634 182.711 262.233C183.827 255.368 185.446 245.477 187.44 233.255C191.308 208.739 196.652 174.923 202.554 137.555C208.424 100.202 213.791 66.3785 217.827 41.9186C219.845 29.6887 221.52 19.7977 222.732 12.9723C223.338 9.55555 223.824 6.91318 224.183 5.117C224.542 3.32881 224.758 2.38682 224.829 2.40279C224.901 2.41077 224.813 3.36873 224.582 5.18087C224.351 6.99301 223.976 9.65933 223.474 13.084C222.461 19.9414 220.913 29.8563 218.951 42.0942C215.027 66.5701 209.397 100.346 203.12 137.643V137.667Z" fill="#EBEBEB"/>
<path d="M211.542 139.734C199.419 175.61 188.445 208.077 180.494 231.61C176.586 243.369 173.419 252.885 171.226 259.503C170.165 262.784 169.336 265.339 168.762 267.103C168.498 267.957 168.291 268.612 168.148 269.091C168.012 269.538 167.956 269.769 167.964 269.777C167.98 269.777 168.068 269.562 168.227 269.123C168.395 268.66 168.626 268.005 168.921 267.167C169.519 265.41 170.389 262.872 171.505 259.607C173.706 252.997 176.881 243.481 180.797 231.722C188.533 208.116 199.196 175.554 210.984 139.567C222.74 103.587 233.435 71.0246 241.323 47.4987C245.263 35.7318 248.501 26.232 250.79 19.678C251.93 16.405 252.839 13.8664 253.477 12.15C254.115 10.4337 254.482 9.54757 254.554 9.57152C254.618 9.59547 254.387 10.5215 253.868 12.2778C253.35 14.034 252.56 16.6045 251.507 19.9095C249.41 26.5274 246.307 36.0751 242.415 47.8579C234.631 71.4158 223.689 103.899 211.542 139.75V139.734Z" fill="#EBEBEB"/>
<path d="M219.526 143.079C201.836 176.624 185.821 206.983 174.225 228.992C168.49 240.001 163.849 248.91 160.627 255.097C159.055 258.17 157.827 260.565 156.982 262.217C156.583 263.024 156.272 263.638 156.057 264.077C155.849 264.501 155.754 264.716 155.77 264.724C155.785 264.724 155.905 264.524 156.136 264.117C156.376 263.686 156.703 263.08 157.133 262.289C158.003 260.653 159.271 258.274 160.89 255.224C164.12 249.037 168.77 240.136 174.512 229.136C185.917 207.031 201.645 176.528 219.023 142.824C236.37 109.12 252.13 78.6245 263.67 56.6234C269.436 45.6149 274.15 36.7298 277.452 30.6148C279.103 27.5573 280.403 25.1864 281.304 23.5978C282.205 22.0012 282.708 21.1789 282.771 21.2109C282.835 21.2428 282.452 22.1289 281.663 23.7734C280.873 25.4259 279.677 27.8447 278.114 30.9501C274.987 37.1609 270.401 46.1018 264.675 57.1343C253.238 79.1913 237.247 109.567 219.542 143.087L219.526 143.079Z" fill="#EBEBEB"/>
<path d="M226.879 147.621C204.093 178.029 183.468 205.538 168.522 225.487C161.113 235.474 155.123 243.553 150.952 249.165C148.911 251.959 147.323 254.138 146.223 255.639C145.704 256.374 145.298 256.932 145.011 257.34C144.739 257.723 144.612 257.93 144.62 257.938C144.628 257.946 144.787 257.763 145.082 257.395C145.385 257.004 145.808 256.453 146.358 255.743C147.483 254.258 149.102 252.111 151.184 249.341C155.355 243.729 161.352 235.65 168.77 225.671C183.532 205.594 203.902 177.893 226.4 147.286C248.867 116.679 269.261 88.9863 284.151 69.0288C291.592 59.0501 297.654 51.0032 301.881 45.471C303.994 42.7089 305.653 40.5695 306.794 39.1325C307.934 37.6956 308.564 36.9611 308.62 37.009C308.676 37.049 308.157 37.8632 307.113 39.372C306.068 40.8808 304.505 43.0841 302.471 45.9101C298.403 51.562 292.454 59.6887 285.052 69.6994C270.258 89.7207 249.657 117.262 226.855 147.629L226.879 147.621Z" fill="#EBEBEB"/>
<path d="M233.419 153.233C206.119 179.769 181.411 203.782 163.506 221.193C154.613 229.918 147.419 236.983 142.419 241.893C139.962 244.343 138.048 246.243 136.732 247.56C136.102 248.199 135.615 248.694 135.273 249.053C134.946 249.397 134.786 249.572 134.794 249.58C134.802 249.588 134.985 249.428 135.336 249.109C135.695 248.766 136.206 248.295 136.86 247.672C138.2 246.379 140.146 244.503 142.634 242.092C147.635 237.191 154.836 230.134 163.729 221.408C181.475 203.838 205.959 179.609 233.012 152.826C260.033 126.035 284.542 101.815 302.391 84.3881C311.316 75.6707 318.565 68.6537 323.622 63.8319C326.15 61.4211 328.12 59.569 329.476 58.3237C330.832 57.0783 331.565 56.4556 331.613 56.5035C331.661 56.5514 331.023 57.2779 329.755 58.6031C328.487 59.9362 326.597 61.8681 324.14 64.3508C319.227 69.3083 312.073 76.4211 303.189 85.1784C285.419 102.685 260.727 126.722 233.427 153.225L233.419 153.233Z" fill="#EBEBEB"/>
<path d="M239.002 159.788C207.849 181.813 179.664 201.738 159.231 216.187C149.078 223.444 140.855 229.319 135.145 233.399C132.329 235.442 130.144 237.031 128.629 238.125C127.903 238.659 127.345 239.075 126.946 239.37C126.571 239.657 126.38 239.809 126.388 239.817C126.396 239.833 126.603 239.697 126.994 239.442C127.401 239.162 127.975 238.771 128.725 238.26C130.256 237.191 132.465 235.634 135.312 233.63C141.023 229.559 149.253 223.691 159.414 216.443C179.712 201.818 207.714 181.629 238.659 159.332C269.572 137.02 297.598 116.855 317.975 102.382C328.16 95.1413 336.43 89.3217 342.181 85.3381C345.052 83.3504 347.301 81.8176 348.832 80.7958C350.364 79.774 351.193 79.2711 351.233 79.327C351.273 79.3828 350.531 79.9975 349.064 81.1151C347.604 82.2328 345.427 83.8613 342.611 85.9289C336.981 90.0721 328.79 96.0034 318.629 103.284C298.316 117.853 270.138 137.802 238.994 159.796L239.002 159.788Z" fill="#EBEBEB"/>
<path d="M243.476 167.116C209.221 184.056 178.22 199.391 155.753 210.503C144.572 216.099 135.52 220.634 129.235 223.779C126.132 225.36 123.716 226.589 122.049 227.443C121.251 227.866 120.629 228.186 120.191 228.417C119.776 228.641 119.569 228.761 119.569 228.776C119.569 228.792 119.8 228.697 120.231 228.497C120.677 228.282 121.307 227.986 122.121 227.595C123.804 226.773 126.236 225.575 129.363 224.043C135.647 220.897 144.707 216.371 155.889 210.783C178.252 199.463 209.11 183.856 243.205 166.605C277.268 149.338 308.141 133.747 330.56 122.587C341.766 117.007 350.858 112.536 357.167 109.487C360.317 107.962 362.781 106.796 364.456 106.03C366.131 105.264 367.032 104.888 367.064 104.952C367.096 105.016 366.259 105.511 364.64 106.389C363.021 107.267 360.612 108.537 357.502 110.149C351.281 113.374 342.252 117.965 331.071 123.593C308.7 134.849 277.715 150.208 243.46 167.116H243.476Z" fill="#EBEBEB"/>
<path d="M246.73 175.051C210.202 186.467 177.144 196.789 153.185 204.277C141.254 208.069 131.588 211.142 124.88 213.274C121.563 214.351 118.987 215.197 117.2 215.78C116.347 216.068 115.685 216.291 115.214 216.451C114.768 216.61 114.544 216.698 114.544 216.706C114.544 216.722 114.783 216.658 115.238 216.531C115.717 216.387 116.387 216.187 117.256 215.932C119.042 215.381 121.642 214.575 124.968 213.545C131.676 211.421 141.342 208.356 153.281 204.572C177.176 196.868 210.131 186.243 246.555 174.5C282.947 162.733 315.926 152.132 339.836 144.596C351.791 140.828 361.49 137.818 368.205 135.791C371.563 134.777 374.179 134.01 375.957 133.507C377.736 133.005 378.685 132.781 378.701 132.845C378.725 132.909 377.815 133.268 376.077 133.891C374.338 134.505 371.762 135.383 368.436 136.493C361.785 138.712 352.134 141.842 340.187 145.666C316.3 153.305 283.25 163.659 246.73 175.043V175.051Z" fill="#EBEBEB"/>
<path d="M248.684 183.393C210.792 188.989 176.498 194.059 151.646 197.731C139.252 199.623 129.227 201.155 122.264 202.217C118.819 202.768 116.139 203.199 114.281 203.494C113.388 203.646 112.702 203.766 112.207 203.854C111.745 203.942 111.505 203.989 111.505 204.005C111.505 204.021 111.753 204.005 112.223 203.942C112.718 203.878 113.412 203.782 114.305 203.662C116.163 203.391 118.851 203.008 122.304 202.505C129.267 201.443 139.3 199.918 151.694 198.042C176.514 194.146 210.76 188.774 248.596 182.835C286.416 176.871 320.663 171.523 345.483 167.795C357.892 165.927 367.942 164.466 374.896 163.508C378.374 163.029 381.077 162.677 382.912 162.462C384.746 162.246 385.719 162.167 385.727 162.238C385.735 162.31 384.786 162.518 382.975 162.861C381.157 163.204 378.477 163.667 375.008 164.242C368.085 165.4 358.052 166.996 345.65 168.912C320.846 172.744 286.552 177.837 248.676 183.409L248.684 183.393Z" fill="#EBEBEB"/>
<path d="M298.22 288.41C293.706 283.093 287.469 279.892 283.13 278.67C279.071 277.529 272.913 276.483 266.637 278.016C262.745 278.966 259.331 280.802 256.5 283.476C253.142 286.637 250.582 291.004 248.891 296.448C248.636 297.263 248.724 298.133 249.131 298.883C249.537 299.642 250.223 300.185 251.053 300.416L261.7 303.418C263.199 303.841 264.81 303.082 265.44 301.653C266.852 298.444 270.417 293.375 278.425 295.483C284.526 297.095 285.794 302.196 286.057 304.312C286.48 307.76 285.124 311.329 282.428 313.851C278.281 317.731 272.866 316.981 270.002 316.182C266.717 315.272 263.295 317.188 262.378 320.453L259.148 331.925C258.677 333.601 259.658 335.35 261.325 335.821L271.701 338.742C273.376 339.213 275.123 338.231 275.593 336.563L276.271 334.152C276.287 334.096 276.335 334.056 276.399 334.048C278.983 333.889 284.103 333.17 289.351 330.248C296.058 326.512 300.604 320.533 302.869 312.47C306.115 300.935 302.128 293.024 298.212 288.41H298.22Z" fill="#E0E0E0"/>
<path d="M266.23 340.315L265.321 340.059C260.982 338.838 256.46 341.377 255.232 345.719C254.003 350.062 256.548 354.588 260.886 355.818L261.795 356.073C266.134 357.295 270.656 354.756 271.884 350.413C273.113 346.071 270.569 341.544 266.23 340.315Z" fill="#E0E0E0"/>
<path d="M321.093 224.873C317.959 223.157 314.386 222.765 312.081 222.981C309.928 223.181 306.785 223.811 304.066 225.687C302.375 226.853 301.075 228.361 300.214 230.158C299.185 232.289 298.762 234.844 298.945 237.765C298.969 238.204 299.169 238.604 299.504 238.891C299.839 239.178 300.261 239.314 300.708 239.274L306.355 238.755C307.152 238.683 307.782 238.021 307.822 237.223C307.91 235.426 308.692 232.345 312.911 231.882C316.125 231.531 317.672 233.742 318.182 234.716C319.02 236.289 319.02 238.244 318.182 239.953C316.906 242.571 314.171 243.202 312.663 243.346C310.925 243.513 309.633 245.054 309.792 246.786L310.35 252.869C310.43 253.755 311.22 254.418 312.105 254.33L317.608 253.827C318.493 253.747 319.155 252.957 319.068 252.071L318.948 250.794C318.948 250.794 318.964 250.738 318.988 250.722C320.192 250.171 322.513 248.894 324.491 246.523C327.019 243.505 328.104 239.801 327.713 235.53C327.155 229.415 323.797 226.35 321.077 224.865L321.093 224.873Z" fill="#F5F5F5"/>
<path d="M315.271 255.599L314.793 255.647C312.488 255.855 310.789 257.907 310.996 260.206C311.204 262.513 313.253 264.213 315.55 264.006L316.029 263.958C318.334 263.75 320.033 261.698 319.825 259.399C319.618 257.092 317.568 255.392 315.271 255.599Z" fill="#F5F5F5"/>
<path d="M94.8446 94.9577C92.7232 92.8662 89.9397 91.7406 88.0495 91.3813C86.279 91.046 83.6151 90.8385 80.9992 91.7246C79.3802 92.2754 77.9924 93.1855 76.8838 94.4308C75.5758 95.9077 74.6507 97.8635 74.1323 100.242C74.0525 100.602 74.1243 100.961 74.3237 101.272C74.5231 101.576 74.8421 101.783 75.201 101.855L79.8507 102.733C80.5047 102.853 81.1667 102.47 81.374 101.839C81.8526 100.418 83.1845 98.119 86.6698 98.7177C89.3336 99.1727 90.0593 101.296 90.2508 102.19C90.5618 103.643 90.1231 105.216 89.0624 106.397C87.4434 108.209 85.1066 108.09 83.8544 107.858C82.4188 107.595 81.0311 108.537 80.7679 109.966L79.8268 114.979C79.6912 115.713 80.1697 116.416 80.9035 116.552L85.4336 117.406C86.1673 117.542 86.8691 117.063 87.0047 116.328L87.2041 115.274C87.2041 115.274 87.228 115.227 87.252 115.227C88.3446 115.059 90.498 114.564 92.6275 113.119C95.3391 111.275 97.0539 108.553 97.7158 105.032C98.6649 99.995 96.6631 96.7778 94.8207 94.9577H94.8446Z" fill="#F5F5F5"/>
<path d="M83.1764 118.284L82.7776 118.212C80.8795 117.853 79.0531 119.106 78.6942 121.006C78.3353 122.906 79.5874 124.734 81.4856 125.093L81.8844 125.165C83.7825 125.524 85.6089 124.271 85.9678 122.371C86.3267 120.471 85.0746 118.643 83.1764 118.284Z" fill="#F5F5F5"/>
<path d="M312.679 96.5623C309.553 94.83 305.98 94.4308 303.675 94.6304C301.522 94.822 298.379 95.4367 295.644 97.3047C293.945 98.4702 292.645 99.971 291.776 101.759C290.739 103.883 290.3 106.445 290.476 109.359C290.5 109.798 290.699 110.197 291.034 110.485C291.369 110.772 291.792 110.908 292.23 110.876L297.885 110.381C298.682 110.309 299.312 109.654 299.36 108.856C299.456 107.06 300.246 103.979 304.473 103.539C307.695 103.204 309.226 105.423 309.736 106.389C310.566 107.97 310.558 109.926 309.721 111.626C308.436 114.237 305.701 114.859 304.186 115.003C302.447 115.163 301.147 116.703 301.298 118.436L301.833 124.527C301.913 125.413 302.694 126.075 303.587 125.996L309.09 125.517C309.976 125.437 310.638 124.654 310.558 123.76L310.446 122.483C310.446 122.483 310.462 122.427 310.486 122.411C311.698 121.86 314.019 120.591 316.013 118.236C318.549 115.227 319.65 111.53 319.275 107.26C318.741 101.137 315.399 98.0631 312.679 96.5623Z" fill="#EBEBEB"/>
<path d="M306.738 127.265L306.259 127.305C303.954 127.504 302.247 129.548 302.447 131.847C302.646 134.154 304.688 135.862 306.985 135.663L307.463 135.623C309.768 135.423 311.475 133.38 311.276 131.081C311.076 128.782 309.035 127.065 306.738 127.265Z" fill="#EBEBEB"/>
<path d="M142.761 280.514C138.845 278.67 134.499 278.463 131.731 278.886C129.139 279.285 125.391 280.275 122.24 282.75C120.286 284.29 118.827 286.198 117.91 288.441C116.825 291.092 116.498 294.213 116.937 297.726C117.001 298.252 117.272 298.715 117.694 299.043C118.117 299.362 118.643 299.498 119.17 299.418L125.957 298.38C126.914 298.236 127.632 297.39 127.616 296.424C127.592 294.245 128.302 290.469 133.374 289.599C137.234 288.944 139.26 291.499 139.954 292.632C141.079 294.477 141.23 296.839 140.353 298.963C139.005 302.22 135.751 303.186 133.933 303.473C131.843 303.801 130.399 305.764 130.718 307.848L131.835 315.16C131.994 316.23 132.999 316.965 134.068 316.797L140.68 315.783C141.748 315.623 142.482 314.618 142.315 313.548L142.083 312.015C142.083 312.015 142.099 311.943 142.131 311.927C143.551 311.169 146.263 309.453 148.48 306.451C151.311 302.619 152.348 298.069 151.558 292.928C150.434 285.575 146.151 282.127 142.753 280.522L142.761 280.514Z" fill="#EBEBEB"/>
<path d="M137.984 318.074L137.402 318.162C134.634 318.585 132.728 321.188 133.151 323.95C133.574 326.72 136.174 328.628 138.933 328.205L139.515 328.117C142.283 327.694 144.189 325.091 143.766 322.329C143.344 319.567 140.744 317.651 137.984 318.074Z" fill="#EBEBEB"/>
<path d="M83.2243 142.137C77.7212 139.559 71.612 139.279 67.7279 139.878C64.0911 140.445 58.8273 141.85 54.4089 145.33C51.6653 147.494 49.6236 150.192 48.3395 153.337C46.8242 157.065 46.3695 161.456 46.9916 166.39C47.0873 167.132 47.4622 167.787 48.0604 168.234C48.6585 168.689 49.4002 168.872 50.142 168.752L59.6807 167.276C61.0285 167.068 62.0255 165.887 62.0095 164.521C61.9696 161.464 62.9666 156.147 70.0807 154.918C75.504 153.984 78.3593 157.576 79.3323 159.157C80.9194 161.743 81.1347 165.064 79.9065 168.042C78.0163 172.624 73.4464 173.989 70.8942 174.396C67.9592 174.859 65.9334 177.622 66.388 180.551L67.9752 190.825C68.2065 192.326 69.6181 193.356 71.1175 193.125L80.409 191.68C81.9084 191.448 82.9372 190.035 82.7059 188.534L82.3709 186.379C82.363 186.331 82.3869 186.275 82.4348 186.251C84.4286 185.189 88.225 182.763 91.3354 178.54C95.3072 173.143 96.7508 166.749 95.6342 159.532C94.0391 149.21 88.0096 144.372 83.2323 142.129L83.2243 142.137Z" fill="#EBEBEB"/>
<path d="M76.6127 194.913L75.7992 195.041C71.9152 195.647 69.2434 199.295 69.8415 203.191C70.4397 207.087 74.0925 209.753 77.9845 209.154L78.798 209.027C82.6821 208.42 85.3539 204.772 84.7557 200.876C84.1575 196.98 80.5048 194.314 76.6127 194.913Z" fill="#EBEBEB"/>
<path d="M217.54 77.0759L224.726 78.2734C228.259 82.5044 233.1 85.7375 238.898 87.2862C252.584 90.9344 267.06 83.4144 271.988 70.1228C277.683 54.7715 268.99 37.8156 253.055 33.5846C239.528 29.9923 225.22 37.2807 220.14 50.3409C217.619 56.8231 217.699 63.6007 219.805 69.6198V69.6039L217.532 77.0839L217.54 77.0759Z" fill="white"/>
<path d="M217.54 77.0759C217.54 77.0759 217.58 76.9162 217.667 76.5969C217.763 76.2616 217.899 75.7826 218.082 75.1679C218.457 73.8827 219.007 71.9987 219.725 69.5718L219.773 69.4042L219.877 69.5479V69.5639L219.733 69.6437C218.585 66.3946 217.604 61.7565 218.425 56.2961C218.824 53.5739 219.693 50.7 221.097 47.8421C222.524 45.0002 224.558 42.2221 227.19 39.8192C229.83 37.4243 233.076 35.4286 236.753 34.1274C240.413 32.8341 244.521 32.1875 248.684 32.6345C252.847 33.0417 257.042 34.4307 260.799 36.7538C264.579 39.0529 267.801 42.4217 270.114 46.3972C271.334 48.385 272.156 50.5643 272.85 52.7357C273.009 53.2865 273.113 53.8453 273.241 54.3962C273.352 54.955 273.528 55.4978 273.576 56.0646C273.647 56.6234 273.711 57.1822 273.775 57.741L273.871 58.5793L273.887 59.4175C274.046 63.888 273.097 68.2546 271.358 72.1024C269.636 75.9742 266.972 79.2233 263.981 81.7459C260.974 84.2765 257.569 86.0727 254.147 87.1344C250.71 88.1882 247.272 88.5235 244.082 88.3079C243.293 88.2121 242.511 88.1243 241.745 88.0365C240.98 87.9327 240.246 87.7252 239.52 87.5815C238.061 87.2621 236.705 86.7832 235.429 86.2723C230.308 84.1727 226.839 80.9636 224.662 78.3451L224.71 78.3771C222.397 77.9699 220.594 77.6506 219.358 77.4351C218.768 77.3313 218.313 77.2435 217.986 77.1876C217.683 77.1317 217.532 77.0998 217.532 77.0998C217.532 77.0998 217.707 77.1158 218.018 77.1637C218.345 77.2116 218.808 77.2834 219.414 77.3792C220.642 77.5708 222.429 77.8582 224.734 78.2174H224.766L224.789 78.2494C226.983 80.8279 230.452 83.9811 235.532 86.0328C236.801 86.5357 238.148 87.0067 239.584 87.31C240.31 87.4537 241.036 87.6453 241.793 87.7491C242.551 87.8369 243.325 87.9247 244.106 88.0125C247.256 88.2121 250.662 87.8689 254.052 86.8151C257.433 85.7534 260.783 83.9732 263.75 81.4665C266.701 78.9598 269.325 75.7587 271.007 71.9428C272.706 68.1429 273.647 63.8401 273.48 59.4414L273.464 58.6112L273.368 57.7889C273.304 57.2381 273.233 56.6873 273.169 56.1365C273.121 55.5777 272.945 55.0428 272.834 54.4999C272.706 53.9571 272.603 53.3983 272.443 52.8634C271.757 50.724 270.952 48.5766 269.747 46.6207C267.474 42.7011 264.292 39.3802 260.576 37.113C256.875 34.8219 252.736 33.4568 248.644 33.0417C244.537 32.5946 240.493 33.2253 236.872 34.4946C233.243 35.7719 230.037 37.7357 227.421 40.0907C224.813 42.4616 222.796 45.1918 221.368 47.9938C219.964 50.8118 219.087 53.6617 218.68 56.352C217.843 61.7645 218.776 66.3627 219.885 69.6038L220.084 70.1945L219.733 69.6756V69.6597L219.877 69.6357C219.127 72.0306 218.553 73.8827 218.154 75.152C217.954 75.7746 217.803 76.2536 217.699 76.5889C217.596 76.9162 217.532 77.0838 217.532 77.0838L217.54 77.0759Z" fill="#263238"/>
<path d="M251.866 47.6267C249.737 46.2137 247.217 45.7267 245.566 45.7347C244.018 45.7427 241.745 46.0061 239.696 47.1796C238.42 47.9061 237.407 48.904 236.681 50.1333C235.82 51.5862 235.365 53.3824 235.317 55.474C235.317 55.7853 235.429 56.0807 235.644 56.3042C235.867 56.5277 236.163 56.6475 236.474 56.6475L240.525 56.6235C241.099 56.6235 241.586 56.1924 241.658 55.6256C241.825 54.3563 242.567 52.2089 245.598 52.1371C247.91 52.0812 248.868 53.7496 249.179 54.4681C249.681 55.6416 249.561 57.0306 248.868 58.1962C247.799 59.9844 245.821 60.2717 244.736 60.2797C243.484 60.2957 242.479 61.3175 242.487 62.5549L242.519 66.9216C242.519 67.5602 243.045 68.0711 243.683 68.0711L247.631 68.0472C248.269 68.0472 248.78 67.5203 248.78 66.8817V65.9636C248.78 65.9636 248.78 65.9237 248.812 65.9157C249.705 65.5964 251.436 64.822 252.983 63.2574C254.961 61.2616 255.958 58.6911 255.934 55.6256C255.902 51.235 253.701 48.8561 251.85 47.6347L251.866 47.6267Z" fill="#407BFF"/>
<path d="M245.877 69.1409H245.534C243.883 69.1569 242.551 70.506 242.559 72.1585C242.567 73.811 243.923 75.1441 245.574 75.1361H245.917C247.567 75.1202 248.899 73.771 248.891 72.1186C248.883 70.4661 247.528 69.1329 245.877 69.1409Z" fill="#407BFF"/>
<path d="M256.883 113.063C238.053 100.386 215.665 95.8677 200.991 95.8677C187.249 95.8677 167.023 98.0391 148.719 108.369C137.354 114.787 128.278 123.561 121.762 134.434C114.042 147.318 109.855 163.26 109.336 181.813C109.256 184.599 110.285 187.233 112.231 189.229C114.185 191.24 116.801 192.35 119.609 192.35H155.642C160.73 192.35 165.101 188.55 165.811 183.521C167.406 172.209 174.113 153.17 201.078 152.699C221.623 152.347 230.093 167.228 232.789 173.646C237.167 184.088 236.059 196.469 229.814 206.775C220.227 222.598 202.586 225.025 192.927 225.056C181.817 225.096 172.781 234.125 172.781 245.182V283.995C172.781 289.663 177.391 294.277 183.054 294.277H218.162C223.824 294.277 228.434 289.663 228.434 283.995V275.844C228.434 275.645 228.554 275.477 228.745 275.413C236.697 272.619 252.113 265.873 265.999 252.055C283.728 234.413 292.709 211.645 292.709 184.383C292.709 145.37 273.233 124.064 256.899 113.071L256.883 113.063Z" fill="#407BFF"/>
<path d="M199.707 312.383H202.538C216.479 312.383 227.82 323.734 227.82 337.689C227.82 351.643 216.479 362.995 202.538 362.995H199.707C185.765 362.995 174.416 351.643 174.416 337.689C174.416 323.734 185.757 312.383 199.707 312.383Z" fill="#263238"/>
<path d="M182.902 301.781H217.994C223.657 301.781 228.259 297.319 228.259 291.826V275.956C228.259 275.765 228.378 275.605 228.57 275.541C232.717 274.128 238.523 271.542 245.087 267.502C222.668 267.343 181.794 267.119 172.638 267.446V291.826C172.638 297.319 177.24 301.781 182.902 301.781Z" fill="#263238"/>
<path d="M211.806 125.956L189.283 60.4951C184.529 44.106 171.035 33.2172 154.797 38.4221L153.321 38.9889C138.503 44.7207 130.559 60.8783 135.073 76.1178C139.276 90.3036 144.101 105.918 147.036 113.263C153.122 128.462 169.049 124.199 169.049 124.199C169.081 124.191 172.598 134.33 174.129 138.888L182.376 147.047L185.781 143.319L211.79 125.948L211.806 125.956Z" fill="#FFBF9D"/>
<path d="M169.057 124.207C169.057 124.207 178.899 121.054 186.659 110.644C186.659 110.644 186.308 123.976 170.548 128.494L169.057 124.215V124.207Z" fill="#FF9A6C"/>
<path d="M146.095 86.4638C146.502 87.6293 147.818 88.252 149.046 87.8528C150.267 87.4537 150.937 86.1844 150.53 85.0188C150.123 83.8533 148.807 83.2307 147.579 83.6298C146.351 84.029 145.689 85.2983 146.087 86.4718L146.095 86.4638Z" fill="#263238"/>
<path d="M140.68 80.8758C141.063 81.0594 142.235 79.1914 144.588 78.2893C146.917 77.3553 149.11 77.8982 149.254 77.515C149.334 77.3393 148.855 76.9322 147.898 76.6768C146.949 76.4213 145.489 76.3734 144.03 76.9482C142.57 77.523 141.549 78.5368 141.055 79.359C140.545 80.1893 140.505 80.804 140.688 80.8758H140.68Z" fill="#263238"/>
<path d="M165.707 78.6803C166.09 78.8639 167.27 76.9959 169.615 76.1018C171.944 75.1678 174.137 75.7107 174.281 75.3275C174.353 75.1519 173.882 74.7447 172.925 74.4893C171.976 74.2338 170.516 74.1859 169.057 74.7607C167.597 75.3355 166.577 76.3493 166.082 77.1715C165.58 78.0018 165.532 78.6165 165.707 78.6883V78.6803Z" fill="#263238"/>
<path d="M162.429 93.8242C162.389 93.6885 160.834 93.9998 158.354 94.6065C157.732 94.7742 157.118 94.878 156.862 94.5028C156.551 94.1276 156.551 93.3851 156.575 92.5709C156.575 90.9024 156.575 89.1542 156.583 87.3181C156.535 79.8699 156.256 73.8348 155.953 73.8428C155.65 73.8428 155.451 79.8939 155.499 87.342C155.522 89.1701 155.546 90.9184 155.578 92.5868C155.618 93.3532 155.522 94.2792 156.176 95.0616C156.511 95.4448 157.078 95.6044 157.5 95.5565C157.931 95.5246 158.266 95.4048 158.569 95.3011C160.994 94.5107 162.477 93.9519 162.429 93.8162V93.8242Z" fill="#263238"/>
<path d="M160.284 65.4846C160.834 65.9635 162.868 64.4468 165.611 63.3212C168.339 62.1317 170.835 61.7246 170.875 60.9981C170.883 60.6549 170.205 60.2956 169.049 60.1918C167.892 60.0801 166.257 60.2717 164.614 60.9662C162.971 61.6607 161.695 62.6985 160.97 63.6086C160.236 64.5186 160.021 65.2531 160.276 65.4846H160.284Z" fill="#263238"/>
<path d="M137.905 74.0184C138.59 74.3696 140.305 73.1083 142.61 72.2302C144.883 71.2802 147.005 71.0168 147.252 70.2903C147.347 69.9471 146.845 69.524 145.8 69.3324C144.771 69.1408 143.208 69.2446 141.637 69.8752C140.066 70.5059 138.87 71.4958 138.271 72.342C137.657 73.1961 137.593 73.8428 137.905 74.0264V74.0184Z" fill="#263238"/>
<path d="M192.154 71.5516C192.369 71.3361 201.445 64.3909 205.138 74.9683C208.839 85.5378 197.465 87.0785 197.346 86.7832C197.218 86.4878 192.154 71.5596 192.154 71.5596V71.5516Z" fill="#FFBF9D"/>
<path d="M199.172 81.642C199.204 81.5941 199.403 81.7058 199.762 81.7378C200.113 81.7697 200.672 81.6819 201.15 81.2828C202.123 80.4845 202.442 78.3769 201.828 76.453C201.517 75.4791 200.999 74.6329 200.392 73.9943C199.802 73.3317 199.108 72.9725 198.51 73.0683C197.904 73.1321 197.625 73.6111 197.601 73.9544C197.561 74.2976 197.705 74.4892 197.657 74.5212C197.633 74.5611 197.37 74.4254 197.298 73.9544C197.266 73.7308 197.298 73.4355 197.481 73.1481C197.665 72.8527 198 72.6132 198.407 72.5254C199.244 72.2939 200.233 72.7888 200.903 73.4913C201.613 74.1779 202.227 75.1199 202.57 76.2136C203.248 78.369 202.857 80.7399 201.485 81.7218C200.807 82.1768 200.113 82.1689 199.707 82.0332C199.292 81.8895 199.148 81.6739 199.18 81.634L199.172 81.642Z" fill="#FF9A6C"/>
<path d="M170.397 92.7623C170.022 92.866 170.835 95.3009 169.328 97.7357C167.829 100.17 165.133 100.769 165.229 101.112C165.245 101.28 165.962 101.392 167.071 101.057C168.156 100.737 169.615 99.8592 170.54 98.3743C171.457 96.8895 171.529 95.2849 171.282 94.2551C171.035 93.2013 170.556 92.6904 170.397 92.7623Z" fill="#263238"/>
<path d="M108.706 68.7017C108.658 68.0231 108.929 67.3525 109.368 66.8256C110.325 65.6841 111.753 65.2849 113.093 64.79C116.426 63.5526 119.441 61.5249 121.898 58.9544C120.669 58.7948 119.473 58.4914 118.356 57.9645C116.052 56.8629 114.153 54.6037 114.129 52.0412C114.129 51.5622 114.217 51.0273 114.6 50.7399C115.214 50.2849 116.052 50.7479 116.714 51.1151C118.907 52.3206 120.622 52.56 122.887 51.4983C124.29 50.8357 125.59 50.0135 126.484 48.8959C126.515 48.832 126.531 48.7681 126.563 48.7043C126.914 47.9459 127.257 47.2114 127.6 46.501C130.184 41.1603 132.641 37.2247 135.655 34.5664C140.082 30.6707 148.4 26.7909 154.27 26.304C160.14 25.817 166.505 28.4833 169.192 33.7282C171.306 30.1119 175.836 28.5392 180.031 28.7228L180.111 28.651C184.713 28.6669 188.557 32.1715 191.229 35.9155C191.372 36.1231 191.516 36.3306 191.659 36.5382C193.813 38.2465 196.357 39.46 199.053 39.9788C199.531 40.0667 200.081 40.1944 200.289 40.6335C200.496 41.0645 200.249 41.5754 199.97 41.9666C199.236 43.0124 198.255 43.8825 197.146 44.5052C197.872 45.3674 198.646 46.1737 199.515 46.9001C200.249 47.5228 201.126 48.2652 201.015 49.2152C200.927 49.9576 200.217 50.4924 199.483 50.6361C198.75 50.7798 198 50.6122 197.274 50.4445C198.111 51.3786 198.957 52.3046 199.794 53.2386C198.407 54.0209 196.835 54.436 195.24 54.5079C195.743 58.7149 197.633 66.171 197.561 69.1727C194.778 70.2104 193.988 70.1466 192.744 71.1125C191.133 72.3658 192.967 75.3595 190.264 75.2796C188.884 75.2397 185.414 71.2961 184.569 70.2104C178.994 62.9699 175.014 54.5079 172.973 45.5909C170.644 44.3855 168.084 43.6271 165.468 43.3796L165.707 43.4834C160.866 43.5073 155.458 43.7548 152.077 47.2194C149.453 49.9097 148.751 53.8693 147.3 57.3419C144.556 63.9198 140.401 68.3823 133.789 71.0327C134.826 75.9103 137.33 83.5979 138.638 88.0365L131.859 80.6362V80.6761C131.388 80.269 130.958 79.8459 130.543 79.4148L130.407 79.2871V79.2711C129.73 78.5766 129.076 77.8741 128.31 77.2275C128.302 77.2435 128.294 77.2594 128.278 77.2834C126.651 80.1972 122.065 78.2413 123.03 75.0481C123.222 74.4175 123.501 73.8108 123.876 73.2599C123.158 74.649 121.722 75.7027 120.159 75.7666C118.596 75.8305 116.993 74.7847 116.602 73.2679C116.331 72.2301 116.729 71.0806 117.503 70.3621C115.653 71.1764 113.563 71.4478 111.569 71.0886C110.261 70.8491 108.834 70.2025 108.722 68.7096L108.706 68.7017Z" fill="#263238"/>
<path d="M164.949 37.2168C164.934 37.2647 165.739 37.4004 166.999 38.0869C168.243 38.7735 169.862 40.1705 171.178 42.3818C171.84 43.4755 172.454 44.7448 172.957 46.1737C173.467 47.5947 173.89 49.1594 174.345 50.8038C174.807 52.4483 175.286 54.1886 176.011 55.913C176.37 56.7751 176.793 57.6373 177.303 58.4675C177.806 59.2818 178.372 60.1519 179.305 60.6788C180.055 61.1099 181.036 61.07 181.746 60.6469C182.472 60.2397 183.014 59.5851 183.317 58.8427C183.899 57.3339 183.628 55.7693 183.421 54.3882L183.11 54.5399C184.051 55.5218 185 56.4798 186.132 57.1184C187.249 57.765 188.565 57.9885 189.713 57.6932C190.288 57.5495 190.814 57.2621 191.205 56.855C191.612 56.4478 191.819 55.9209 191.915 55.41C191.994 54.8911 191.947 54.3722 191.763 53.9252C191.572 53.4782 191.245 53.103 190.846 52.8954L190.734 53.1029C192.401 54.037 193.916 54.3243 194.929 54.4281C195.44 54.476 195.831 54.476 196.102 54.468C196.365 54.4521 196.501 54.4361 196.501 54.4281C196.501 54.4201 196.365 54.4122 196.102 54.4042C195.839 54.3882 195.448 54.3722 194.945 54.3084C193.948 54.1727 192.465 53.8534 190.854 52.9114L190.742 53.1189C191.46 53.4861 191.827 54.4441 191.651 55.3781C191.564 55.8411 191.364 56.3121 191.005 56.6713C190.654 57.0306 190.168 57.286 189.642 57.4138C188.581 57.6692 187.353 57.4617 186.308 56.839C185.239 56.2243 184.314 55.2903 183.381 54.3084L182.982 53.8933L183.07 54.468C183.277 55.8491 183.516 57.3579 182.974 58.723C182.703 59.3856 182.2 59.9763 181.57 60.3355C180.94 60.7028 180.143 60.7347 179.497 60.3675C178.683 59.9204 178.133 59.0982 177.638 58.2919C177.144 57.4856 176.729 56.6394 176.37 55.7932C175.653 54.0928 175.166 52.3685 174.695 50.732C174.233 49.0875 173.794 47.5228 173.268 46.0859C172.749 44.649 172.103 43.3637 171.426 42.262C170.062 40.0348 168.379 38.6378 167.087 37.9752C165.787 37.3126 164.965 37.2328 164.965 37.2328L164.949 37.2168Z" fill="#455A64"/>
<path d="M122.456 69.1167C122.456 69.1167 122.512 69.1406 122.615 69.1806C122.743 69.2205 122.903 69.2684 123.102 69.3242C123.317 69.3881 123.581 69.46 123.908 69.5158C124.227 69.5717 124.601 69.6516 125.024 69.6835C126.699 69.8591 129.235 69.7234 132.058 68.5419C134.85 67.3764 137.912 65.1571 140.17 61.8043C142.474 58.4913 144.03 54.2683 144.923 49.742C145.386 47.4748 145.625 45.2316 146.016 43.1001C146.39 40.9687 146.925 38.941 147.81 37.1767C148.679 35.4045 149.876 33.9037 151.311 32.9058C152.021 32.3949 152.795 32.0596 153.56 31.8042C154.334 31.5727 155.116 31.4769 155.857 31.4609C157.349 31.437 158.681 31.7962 159.765 32.2672C160.85 32.7462 161.687 33.3529 162.31 33.9117C163.514 35.0852 163.873 35.9873 163.921 35.9474C163.921 35.9474 163.905 35.8915 163.849 35.7877C163.785 35.668 163.705 35.5163 163.61 35.3407C163.386 34.9495 162.995 34.4146 162.405 33.7999C161.791 33.2172 160.954 32.5706 159.853 32.0596C158.752 31.5567 157.397 31.1735 155.857 31.1815C155.092 31.1815 154.286 31.2853 153.481 31.5168C152.683 31.7643 151.862 32.1155 151.128 32.6344C149.636 33.6642 148.392 35.2049 147.491 37.0091C146.574 38.8133 146.032 40.8809 145.641 43.0283C145.25 45.1757 145.003 47.4109 144.54 49.6621C143.655 54.1566 142.124 58.3317 139.866 61.6047C137.665 64.9176 134.682 67.105 131.939 68.2865C129.179 69.4839 126.683 69.6595 125.024 69.5318C123.349 69.3961 122.464 69.0688 122.448 69.1167H122.456Z" fill="#455A64"/>
<path d="M118.652 62.8181C118.652 62.8181 118.891 62.9139 119.345 63.0097C119.792 63.1135 120.454 63.2093 121.283 63.2651C122.105 63.329 123.094 63.313 124.179 63.2013C125.263 63.0735 126.452 62.85 127.656 62.4748C128.86 62.0836 129.961 61.5887 130.918 61.0698C131.867 60.527 132.688 59.9761 133.326 59.4493C133.964 58.9304 134.459 58.4674 134.762 58.1241C135.073 57.7808 135.233 57.5892 135.217 57.5733C135.169 57.5254 134.467 58.2598 133.159 59.2337C132.513 59.7287 131.691 60.2476 130.75 60.7585C129.801 61.2534 128.717 61.7324 127.536 62.1076C126.356 62.4748 125.199 62.7063 124.131 62.85C123.07 62.9777 122.097 63.0177 121.283 62.9937C119.656 62.9458 118.66 62.7462 118.644 62.8181H118.652Z" fill="#455A64"/>
<path d="M147.579 173.478C147.443 173.518 149.246 182.579 151.016 191.983H151.575C149.804 182.579 147.714 173.438 147.571 173.478H147.579Z" fill="#263238"/>
<path d="M155.219 192.43C160.34 192.43 165.053 188.742 165.763 183.713C167.374 172.417 173.81 153.305 200.951 152.834C221.631 152.483 230.333 167.132 232.773 173.646C236.641 183.992 236.163 196.541 229.878 206.831C220.228 222.63 202.474 225.049 192.744 225.088C181.562 225.128 172.462 234.141 172.462 245.182V287.38L228.474 286.326V275.796C228.474 275.605 228.594 275.429 228.785 275.365C235.604 272.986 246.427 268.484 258.598 258.657L254.953 210.056C254.953 210.056 265.616 189.548 265.082 184.934C260.257 142.784 245.933 118.931 240.111 116.703C233.579 114.205 208.344 115.418 208.344 115.418C208.344 115.418 197.442 135.631 182.153 137.866C173.643 139.112 170.54 128.478 170.54 128.478L150.777 140.078C136.716 147.182 133.981 174.804 133.725 192.422H155.203L155.219 192.43Z" fill="#455A64"/>
<g opacity="0.3">
<path d="M220.132 217.265C231.425 220.139 242.551 223.779 253.844 226.661C254.682 226.877 255.575 227.124 256.141 227.779C256.971 228.745 256.787 230.206 256.412 231.419C255.224 235.307 252.664 238.66 249.617 241.342C247.161 243.505 244.218 245.325 240.956 245.581C237.327 245.868 233.834 244.176 230.763 242.22C222.915 237.207 216.216 229.878 212.005 221.568C212.005 221.568 214.653 220.474 216.679 219.397C218.561 218.391 220.132 217.273 220.132 217.273V217.265Z" fill="black"/>
</g>
<path d="M232.55 173.941C237.064 184.367 235.923 196.733 229.487 207.023C225.914 212.731 221.368 216.802 216.415 219.54C221.759 225.352 227.174 230.477 232.534 234.285C238.3 238.38 251.595 237.215 256.636 228.25C262.857 217.185 263.375 188.918 263.375 188.918L264.555 171.874L229.782 166.541L229.503 167.499C230.994 169.734 231.872 172.377 232.558 173.941H232.55Z" fill="#FFBF9D"/>
<path d="M172 166.781L170.022 169.902C168.514 170.94 167.087 170.373 166.154 168.441L144.747 135.831L149.963 132.51L173.603 163.779C173.603 163.779 173.938 165.44 172 166.773V166.781Z" fill="#455A64"/>
<path d="M122.552 135.28C118.364 132.909 114.847 129.261 112.67 124.567C109.99 118.787 109.719 112.313 111.912 106.325C114.098 100.346 118.484 95.5723 124.258 92.89C136.174 87.3578 150.37 92.5547 155.905 104.489C158.585 110.269 158.856 116.743 156.663 122.73C154.477 128.71 150.091 133.484 144.317 136.166C137.083 139.527 129.012 138.928 122.552 135.28ZM145.234 95.1732C139.204 91.7644 131.676 91.2136 124.928 94.3429C119.545 96.8416 115.453 101.296 113.412 106.876C111.37 112.456 111.625 118.499 114.121 123.896C116.618 129.284 121.068 133.38 126.643 135.423C132.218 137.467 138.255 137.212 143.647 134.713C149.03 132.214 153.122 127.76 155.163 122.18C157.205 116.6 156.95 110.556 154.454 105.16C152.428 100.785 149.142 97.3765 145.234 95.1652V95.1732Z" fill="#263238"/>
<path d="M123.565 134.274C119.377 131.903 115.86 128.255 113.683 123.561C111.003 117.781 110.732 111.307 112.925 105.32C115.11 99.3403 119.497 94.5664 125.271 91.8842C137.187 86.3519 151.383 91.5489 156.918 103.483C159.598 109.263 159.869 115.737 157.676 121.725C155.49 127.704 151.104 132.478 145.33 135.16C138.096 138.521 130.025 137.922 123.565 134.274ZM146.247 94.1673C140.217 90.7586 132.688 90.2077 125.941 93.3371C120.558 95.8357 116.466 100.29 114.425 105.87C112.383 111.45 112.638 117.494 115.134 122.89C117.631 128.279 122.081 132.374 127.656 134.418C133.231 136.461 139.268 136.206 144.66 133.707C150.043 131.208 154.135 126.754 156.176 121.174C158.218 115.594 157.963 109.551 155.467 104.154C153.441 99.7793 150.155 96.3706 146.247 94.1593V94.1673Z" fill="#455A64"/>
<path d="M155.115 113.861C155.115 113.861 155.1 113.726 155.092 113.47C155.076 113.215 155.1 112.831 155.044 112.352C154.988 111.387 154.773 109.981 154.254 108.329C153.999 107.499 153.64 106.621 153.209 105.695C152.747 104.785 152.236 103.819 151.582 102.877C150.936 101.927 150.203 100.969 149.341 100.067C148.488 99.1566 147.547 98.2704 146.478 97.4881C145.417 96.6978 144.301 96.0432 143.176 95.5083C142.044 94.9894 140.903 94.5983 139.802 94.2949C137.577 93.7361 135.496 93.5844 133.773 93.6802C132.042 93.776 130.655 94.0474 129.721 94.3109C129.243 94.4147 128.892 94.5584 128.645 94.6222C128.398 94.6941 128.27 94.734 128.262 94.726C128.262 94.718 128.382 94.6701 128.621 94.5743C128.868 94.4945 129.211 94.3348 129.69 94.2151C130.623 93.9197 132.01 93.6243 133.757 93.5046C135.504 93.3769 137.609 93.5126 139.858 94.0714C140.975 94.3668 142.131 94.7579 143.28 95.2848C144.42 95.8197 145.553 96.4902 146.63 97.2885C147.706 98.0789 148.663 98.9809 149.517 99.907C150.378 100.825 151.12 101.791 151.766 102.757C152.428 103.707 152.93 104.689 153.393 105.615C153.815 106.557 154.174 107.451 154.414 108.289C154.916 109.966 155.107 111.387 155.131 112.36C155.171 112.847 155.131 113.231 155.131 113.486C155.123 113.741 155.115 113.877 155.107 113.877L155.115 113.861Z" fill="white"/>
<path d="M130.256 133.276C130.272 133.22 131.364 133.619 133.199 133.875C133.43 133.899 133.669 133.93 133.917 133.962C134.164 133.994 134.427 133.994 134.698 134.01C135.241 134.058 135.823 134.026 136.429 134.01C137.649 133.938 138.981 133.755 140.345 133.396C141.709 133.02 142.953 132.51 144.045 131.959C144.58 131.663 145.098 131.392 145.545 131.081C145.768 130.929 145.999 130.793 146.199 130.649C146.398 130.498 146.59 130.354 146.781 130.21C148.241 129.069 148.982 128.175 149.022 128.215C149.038 128.223 148.847 128.446 148.504 128.837C148.336 129.037 148.113 129.268 147.842 129.516C147.571 129.763 147.276 130.075 146.893 130.346C146.709 130.49 146.518 130.641 146.319 130.801C146.119 130.961 145.888 131.097 145.665 131.256C145.218 131.576 144.699 131.855 144.157 132.166C143.057 132.733 141.796 133.26 140.417 133.643C139.037 134.01 137.681 134.186 136.445 134.25C135.823 134.25 135.241 134.274 134.69 134.226C134.419 134.202 134.148 134.202 133.901 134.162C133.645 134.122 133.406 134.09 133.175 134.058C132.712 134.002 132.298 133.891 131.939 133.811C131.572 133.739 131.269 133.643 131.022 133.555C130.527 133.396 130.256 133.292 130.264 133.276H130.256Z" fill="white"/>
<path d="M146.646 118.004C146.598 118.052 143.487 114.939 139.707 111.051C135.927 107.164 132.904 103.97 132.952 103.922C133 103.875 136.11 106.988 139.89 110.876C143.671 114.763 146.694 117.957 146.646 118.004Z" fill="white"/>
<path d="M142.977 124.247C142.977 124.247 142.889 124.175 142.754 124.024C142.594 123.848 142.395 123.633 142.139 123.361C141.597 122.754 140.839 121.916 139.922 120.886C138.048 118.795 135.456 115.913 132.553 112.768C129.65 109.614 126.994 106.796 125.064 104.753C124.115 103.747 123.341 102.933 122.783 102.334C122.528 102.062 122.328 101.839 122.169 101.671C122.033 101.52 121.961 101.432 121.969 101.424C121.969 101.424 122.057 101.488 122.209 101.631C122.376 101.791 122.591 102.007 122.855 102.262C123.413 102.813 124.218 103.619 125.199 104.625C127.161 106.629 129.841 109.439 132.744 112.592C135.647 115.745 138.223 118.643 140.058 120.767C140.975 121.828 141.717 122.691 142.219 123.297C142.458 123.585 142.642 123.816 142.793 123.992C142.921 124.151 142.985 124.239 142.977 124.247Z" fill="white"/>
<g opacity="0.3">
<path d="M123.549 95.0374L152.803 126.85C152.803 126.85 150.434 130.163 148.265 131.607L118.388 99.0528C118.388 99.0528 120.542 96.4583 123.541 95.0374H123.549Z" fill="white"/>
</g>
<g opacity="0.3">
<path d="M115.884 102.717L144.66 133.707C144.66 133.707 144.923 133.851 142.945 134.354L115.071 104.29C115.071 104.29 115.214 103.539 115.884 102.717Z" fill="white"/>
</g>
<path d="M191.627 153.856C185.478 148.915 170.421 136.836 169.735 136.509C168.865 136.102 155.61 131.392 153.074 132.901C150.538 134.418 143.727 142.967 143.727 142.967C143.727 142.967 144.373 148.284 150.314 144.476C154.844 141.57 155.546 141.123 155.626 141.067H155.618L161.935 142.544C161.935 142.544 154.238 145.761 152.603 147.454C150.976 149.146 148.4 155.628 150.003 157.121C151.606 158.614 153.473 158.742 153.473 158.742C153.473 158.742 150.29 163.26 155.929 165.99C155.929 165.99 156.751 169.79 159.534 171.275C162.317 172.76 167.494 172.241 167.494 172.241C167.494 172.241 169.894 170.82 168.108 168.457C166.321 166.102 163.027 165.775 163.027 165.775L167.111 163.388C167.111 163.388 169.232 164.042 172.383 166.469C172.383 166.469 176.107 161.695 179.832 158.997C184.011 155.972 191.627 153.84 191.627 153.84V153.856Z" fill="#FFBF9D"/>
<path d="M165.5 155.86C165.5 155.86 165.284 155.844 164.893 155.892C164.503 155.94 163.952 156.051 163.282 156.267C161.95 156.682 160.172 157.608 158.704 159.197C157.245 160.785 156.471 162.645 156.168 164.002C156.009 164.689 155.945 165.248 155.929 165.639C155.913 166.03 155.929 166.246 155.945 166.246C156.001 166.246 156.017 165.384 156.376 164.05C156.727 162.725 157.508 160.937 158.928 159.396C160.347 157.848 162.062 156.922 163.354 156.467C164.646 155.996 165.516 155.908 165.5 155.852V155.86Z" fill="#FF9A6C"/>
<path d="M165.771 148.987C165.771 148.987 165.54 148.987 165.125 149.034C164.918 149.058 164.662 149.09 164.375 149.154C164.088 149.218 163.753 149.274 163.394 149.386C162.668 149.577 161.831 149.889 160.93 150.312C160.045 150.751 159.095 151.31 158.186 152.004C157.285 152.707 156.503 153.481 155.849 154.223C155.211 154.982 154.693 155.716 154.326 156.371C154.127 156.69 153.983 156.994 153.848 157.265C153.712 157.528 153.608 157.768 153.537 157.959C153.385 158.351 153.305 158.566 153.329 158.574C153.385 158.598 153.72 157.736 154.51 156.483C154.9 155.852 155.427 155.149 156.065 154.407C156.719 153.681 157.484 152.93 158.378 152.244C159.271 151.565 160.3 150.791 161.169 150.352C162.046 149.921 162.748 149.809 163.458 149.593C164.87 149.154 165.787 149.042 165.779 148.987H165.771Z" fill="#FF9A6C"/>
<path d="M166.927 141.091C166.927 141.091 166.616 140.932 166.066 140.9C165.524 140.86 164.75 140.948 163.976 141.275C162.924 141.722 162.557 142.161 162.254 142.52C161.903 142.943 161.767 143.255 161.799 143.271C161.871 143.335 162.604 142.169 164.096 141.546C165.579 140.9 166.927 141.179 166.927 141.083V141.091Z" fill="#FF9A6C"/>
<path d="M237.678 116.073C237.678 116.073 257.13 117.941 263.303 134.857C268.208 148.284 270.864 188.51 269.636 189.325L235.293 188.223C234.839 178.412 232.199 170.852 228.506 165.958L237.678 116.065V116.073Z" fill="#455A64"/>
<path d="M235.82 188.231C235.82 188.231 236.075 188.343 236.498 188.606C236.92 188.87 237.51 189.277 238.22 189.804C239.648 190.849 241.538 192.422 243.444 194.346C245.358 196.262 246.921 198.154 247.998 199.559C248.533 200.261 248.955 200.844 249.226 201.259C249.506 201.674 249.641 201.906 249.625 201.922C249.577 201.962 248.899 201.1 247.775 199.742C246.65 198.385 245.055 196.541 243.157 194.633C241.259 192.725 239.417 191.137 238.045 190.035C236.673 188.933 235.788 188.287 235.828 188.231H235.82Z" fill="#FF9A6C"/>
<path d="M231.728 146.855C231.84 146.871 231.21 151.166 230.324 156.443C229.431 161.719 228.618 165.982 228.506 165.966C228.394 165.95 229.024 161.655 229.918 156.379C230.811 151.102 231.624 146.839 231.736 146.855H231.728Z" fill="#263238"/>
<path d="M188.509 267.478C188.509 267.478 188.708 267.438 189.083 267.39C189.498 267.35 190.048 267.295 190.726 267.223C192.202 267.087 194.251 266.887 196.764 266.648C201.86 266.161 208.902 265.419 216.655 264.445C224.407 263.463 231.409 262.417 236.474 261.627C238.97 261.227 241.004 260.908 242.463 260.677C243.141 260.573 243.684 260.493 244.098 260.429C244.473 260.373 244.672 260.357 244.672 260.373C244.672 260.389 244.481 260.437 244.114 260.517C243.707 260.597 243.165 260.709 242.495 260.844C241.091 261.124 239.05 261.491 236.522 261.93C231.473 262.8 224.471 263.886 216.71 264.876C208.95 265.858 201.9 266.544 196.796 266.959C194.243 267.167 192.17 267.318 190.742 267.398C190.056 267.438 189.514 267.462 189.091 267.486C188.716 267.502 188.517 267.502 188.517 267.486L188.509 267.478Z" fill="#263238"/>
<path d="M185.47 262.337C185.47 262.337 185.973 262.265 186.882 262.209C187.863 262.154 189.163 262.09 190.742 262.002C194.068 261.834 198.542 261.603 203.487 261.347C208.432 261.06 212.906 260.804 216.232 260.605C217.811 260.517 219.111 260.445 220.092 260.389C221.001 260.341 221.512 260.333 221.512 260.365C221.512 260.397 221.009 260.461 220.1 260.557C219.191 260.653 217.875 260.772 216.248 260.908C212.994 261.18 208.488 261.499 203.503 261.77C198.526 262.042 194.012 262.217 190.742 262.305C189.107 262.345 187.783 262.377 186.874 262.377C185.957 262.377 185.454 262.377 185.454 262.345L185.47 262.337Z" fill="#263238"/>
<path d="M130.774 189.556C130.902 189.069 131.109 188.606 131.396 188.191C131.971 187.369 132.84 186.738 133.829 186.515C135.464 186.139 137.298 186.906 138.183 188.335C138.128 187.249 138.981 186.227 140.034 185.94C141.087 185.652 141.9 186.06 142.737 186.754C143.575 187.449 143.79 188.007 144.133 189.037C144.971 187.153 149.269 187.385 149.796 188.798C149.796 188.798 153.496 184.742 155.387 186.738C156.176 187.568 155.833 188.838 155.315 190.107C154.621 191.807 154.158 192.518 153.249 194.386L149.748 194.577C149.453 195.671 148.831 200.142 148.703 201.267C148.576 202.393 148.344 203.542 147.746 204.508C147.148 205.474 146.103 206.233 144.971 206.217C143.838 206.201 142.714 205.227 142.785 204.093C142.546 205.027 142.147 205.953 141.453 206.632C140.76 207.31 139.739 207.701 138.806 207.454C137.872 207.207 137.131 206.233 137.314 205.283C136.062 206.145 134.22 205.378 133.422 204.085C132.633 202.784 132.609 201.171 132.656 199.655C132.696 198.306 132.824 196.797 132.29 195.519C132.21 195.32 132.058 195.144 132.01 194.929C131.939 194.609 131.987 194.25 131.963 193.931C131.915 193.22 131.779 192.518 131.54 191.855C131.484 191.712 131.428 191.568 131.364 191.424C131.197 191.049 130.942 190.73 130.75 190.362C130.71 190.283 130.671 190.203 130.663 190.115C130.639 189.931 130.718 189.724 130.766 189.556H130.774Z" fill="#FFBF9D"/>
<path d="M126.826 187.608C125.893 187.576 124.872 187.768 124.242 188.47C123.501 189.301 123.333 191.28 123.413 192.39C124.713 192.638 125.407 192.342 126.699 192.59C126.97 192.638 127.201 192.574 127.425 192.733C128.023 193.156 127.927 194.593 128.166 195.288C128.581 196.493 130.128 197.084 131.325 196.637C132.521 196.198 133.287 194.921 133.35 193.651C133.414 192.374 132.848 191.129 132.034 190.155C130.75 188.63 128.812 187.68 126.826 187.608Z" fill="#FFBF9D"/>
<path d="M148.942 199.415C148.807 199.383 149.341 197.012 149.684 194.051C149.844 192.574 149.884 191.225 149.828 190.251C149.78 189.277 149.66 188.686 149.724 188.67C149.772 188.654 149.987 189.237 150.115 190.227C150.25 191.209 150.258 192.598 150.091 194.098C149.931 195.599 149.652 196.94 149.421 197.898C149.19 198.856 148.998 199.439 148.942 199.423V199.415Z" fill="#FF9A6C"/>
<path d="M142.618 204.524C142.562 204.508 142.714 203.646 142.969 202.257C143.224 200.868 143.575 198.944 143.846 196.813C144.117 194.681 144.213 192.733 144.181 191.328C144.157 189.923 144.062 189.053 144.125 189.045C144.173 189.037 144.381 189.899 144.476 191.32C144.58 192.741 144.532 194.713 144.261 196.869C143.99 199.024 143.583 200.94 143.256 202.321C142.929 203.702 142.674 204.54 142.618 204.524Z" fill="#FF9A6C"/>
<path d="M137.266 205.434C137.203 205.418 137.426 204.46 137.705 202.912C137.984 201.363 138.295 199.2 138.431 196.805C138.558 194.402 138.487 192.222 138.375 190.65C138.263 189.077 138.152 188.103 138.215 188.095C138.247 188.095 138.303 188.327 138.391 188.766C138.479 189.205 138.574 189.836 138.67 190.626C138.853 192.206 138.973 194.402 138.845 196.829C138.71 199.255 138.351 201.427 137.992 202.976C137.817 203.75 137.649 204.373 137.514 204.796C137.378 205.219 137.29 205.45 137.266 205.442V205.434Z" fill="#FF9A6C"/>
<path d="M130.216 189.803C130.232 189.764 130.694 189.891 131.309 190.354C131.915 190.809 132.648 191.624 133.079 192.725C133.51 193.819 133.542 194.937 133.318 195.687C133.087 196.461 132.601 196.725 132.585 196.677C132.537 196.629 132.896 196.318 133.031 195.615C133.167 194.929 133.095 193.899 132.696 192.877C132.298 191.855 131.651 191.065 131.117 190.578C130.583 190.083 130.184 189.859 130.216 189.803Z" fill="#FF9A6C"/>
</g>
<defs>
<clipPath id="clip0_1977_1495">
<rect width="388" height="383" fill="white"/>
</clipPath>
</defs>
</svg>
