<svg width="30" height="30" viewBox="0 0 30 30" fill="none" xmlns="http://www.w3.org/2000/svg">
<path d="M12.5624 3.16261L5.0374 8.07511C2.6249 9.65011 2.6249 13.1751 5.0374 14.7501L12.5624 19.6626C13.9124 20.5501 16.1374 20.5501 17.4874 19.6626L24.9749 14.7501C27.3749 13.1751 27.3749 9.6626 24.9749 8.0876L17.4874 3.17511C16.1374 2.27511 13.9124 2.27511 12.5624 3.16261Z" stroke="#C5C5C5" stroke-width="2" stroke-linecap="round" stroke-linejoin="round"/>
<path d="M7.0374 16.3501L7.0249 22.2126C7.0249 23.8001 8.2499 25.5001 9.7499 26.0001L13.7374 27.3251C14.4249 27.5501 15.5624 27.5501 16.2624 27.3251L20.2499 26.0001C21.7499 25.5001 22.9749 23.8001 22.9749 22.2126V16.4126" stroke="#C5C5C5" stroke-width="2" stroke-linecap="round" stroke-linejoin="round"/>
<path d="M26.75 18.75V11.25" stroke="#C5C5C5" stroke-width="2" stroke-linecap="round" stroke-linejoin="round"/>
</svg>
