<svg width="939" height="939" viewBox="0 0 939 939" fill="none" xmlns="http://www.w3.org/2000/svg">
<g clip-path="url(#clip0_2024_1404)">
<rect width="939" height="939" fill="white"/>
<path d="M-143.114 743.237H25.0366L25.0366 431.148H-143.114L-143.114 743.237Z" fill="#E0E0E0"/>
<path d="M22.9754 743.237H307.591V515.377H22.9754V743.237Z" fill="#E0E0E0"/>
<path d="M24.9249 743.432C25.2314 743.432 25.4822 674.751 25.4822 590.049C25.4822 505.346 25.2314 436.665 24.9249 436.665C24.6184 436.665 24.3677 505.319 24.3677 590.049C24.3677 674.779 24.6184 743.432 24.9249 743.432Z" fill="#EBEBEB"/>
<path d="M-143.113 743.237H307.591V640.619H-143.113V743.237Z" fill="#EBEBEB"/>
<path d="M30.3304 417.44L-58.9691 371.467L-147.795 417.44H30.3304Z" fill="#EBEBEB"/>
<path d="M-147.795 427.693H30.3303V417.412H-147.795V427.693Z" fill="#E0E0E0"/>
<path d="M-145.621 431.121H27.6003V427.694H-145.621V431.121Z" fill="#E0E0E0"/>
<path d="M-147.962 427.722C-147.962 428.028 -108.035 428.279 -58.8294 428.279C-9.62412 428.279 30.3308 428.028 30.3308 427.722C30.3308 427.415 -9.5684 427.165 -58.8294 427.165C-108.09 427.165 -147.962 427.415 -147.962 427.722Z" fill="#EBEBEB"/>
<path d="M-145.76 431.149C-145.76 431.455 -106.948 431.706 -59.0801 431.706C-11.2123 431.706 27.6003 431.455 27.6003 431.149C27.6003 430.842 -11.2123 430.592 -59.0801 430.592C-106.948 430.592 -145.76 430.842 -145.76 431.149Z" fill="#EBEBEB"/>
<path d="M236.987 605.568H273.125V543.463H236.987V605.568Z" fill="#F5F5F5"/>
<path d="M241.027 602.058H269.335V548.032H241.027V602.058Z" fill="#FAFAFA"/>
<path d="M255.738 602.281C256.044 602.281 256.295 590.105 256.295 575.087C256.295 560.069 256.044 547.893 255.738 547.893C255.431 547.893 255.181 560.069 255.181 575.087C255.181 590.105 255.431 602.281 255.738 602.281Z" fill="#E0E0E0"/>
<path d="M240.999 564.304C240.999 564.611 247.352 564.861 255.153 564.861C262.955 564.861 269.307 564.611 269.307 564.304C269.307 563.998 262.983 563.747 255.153 563.747C247.324 563.747 240.999 563.998 240.999 564.304Z" fill="#E0E0E0"/>
<path d="M240.999 583.389C240.999 583.696 247.352 583.946 255.153 583.946C262.955 583.946 269.307 583.696 269.307 583.389C269.307 583.083 262.983 582.832 255.153 582.832C247.324 582.832 240.999 583.083 240.999 583.389Z" fill="#E0E0E0"/>
<path d="M171.51 605.568H207.647V543.463H171.51V605.568Z" fill="#F5F5F5"/>
<path d="M175.522 602.058H203.83V548.032H175.522V602.058Z" fill="#FAFAFA"/>
<path d="M190.233 602.281C190.54 602.281 190.79 590.105 190.79 575.087C190.79 560.069 190.54 547.893 190.233 547.893C189.927 547.893 189.676 560.069 189.676 575.087C189.676 590.105 189.927 602.281 190.233 602.281Z" fill="#E0E0E0"/>
<path d="M175.522 564.304C175.522 564.61 181.875 564.861 189.676 564.861C197.478 564.861 203.83 564.61 203.83 564.304C203.83 563.997 197.506 563.747 189.676 563.747C181.847 563.747 175.522 563.997 175.522 564.304Z" fill="#E0E0E0"/>
<path d="M175.522 583.389C175.522 583.696 181.875 583.946 189.676 583.946C197.478 583.946 203.83 583.696 203.83 583.389C203.83 583.083 197.506 582.832 189.676 582.832C181.847 582.832 175.522 583.083 175.522 583.389Z" fill="#E0E0E0"/>
<path d="M106.006 605.568H142.144V543.463H106.006V605.568Z" fill="#F5F5F5"/>
<path d="M110.045 602.058H138.353V548.032H110.045V602.058Z" fill="#FAFAFA"/>
<path d="M124.756 602.281C125.063 602.281 125.314 590.105 125.314 575.087C125.314 560.069 125.063 547.893 124.756 547.893C124.45 547.893 124.199 560.069 124.199 575.087C124.199 590.105 124.45 602.281 124.756 602.281Z" fill="#E0E0E0"/>
<path d="M110.018 564.304C110.018 564.61 116.37 564.861 124.172 564.861C131.973 564.861 138.326 564.61 138.326 564.304C138.326 563.997 132.001 563.747 124.172 563.747C116.342 563.747 110.018 563.997 110.018 564.304Z" fill="#E0E0E0"/>
<path d="M110.018 583.389C110.018 583.696 116.37 583.946 124.172 583.946C131.973 583.946 138.326 583.696 138.326 583.389C138.326 583.083 132.001 582.832 124.172 582.832C116.342 582.832 110.018 583.083 110.018 583.389Z" fill="#E0E0E0"/>
<path d="M40.528 605.568H76.6658L76.6658 543.463H40.528L40.528 605.568Z" fill="#F5F5F5"/>
<path d="M44.5405 602.058H72.8489V548.032H44.5405L44.5405 602.058Z" fill="#FAFAFA"/>
<path d="M59.2789 602.281C59.5854 602.281 59.8362 590.105 59.8362 575.087C59.8362 560.069 59.5854 547.893 59.2789 547.893C58.9724 547.893 58.7217 560.069 58.7217 575.087C58.7217 590.105 58.9724 602.281 59.2789 602.281Z" fill="#E0E0E0"/>
<path d="M44.54 564.304C44.54 564.61 50.8927 564.861 58.6942 564.861C66.4957 564.861 72.8484 564.61 72.8484 564.304C72.8484 563.997 66.5236 563.747 58.6942 563.747C50.8648 563.747 44.54 563.997 44.54 564.304Z" fill="#E0E0E0"/>
<path d="M44.54 583.389C44.54 583.696 50.8927 583.946 58.6942 583.946C66.4957 583.946 72.8484 583.696 72.8484 583.389C72.8484 583.083 66.5236 582.832 58.6942 582.832C50.8648 582.832 44.54 583.083 44.54 583.389Z" fill="#E0E0E0"/>
<path d="M-148.268 633.932H308.371V623.428H-148.268V633.932Z" fill="#E0E0E0"/>
<path d="M-145.565 640.62H308.343V633.571H-145.565V640.62Z" fill="#E0E0E0"/>
<path d="M308.371 634.406C308.371 634.099 206.589 633.848 81.0961 633.848C-44.3968 633.848 -146.207 634.099 -146.207 634.406C-146.207 634.712 -44.4525 634.963 81.0961 634.963C206.645 634.963 308.371 634.712 308.371 634.406Z" fill="#EBEBEB"/>
<path d="M308.371 640.619C308.371 640.312 206.589 640.062 81.0961 640.062C-44.3968 640.062 -146.207 640.312 -146.207 640.619C-146.207 640.925 -44.4525 641.176 81.0961 641.176C206.645 641.176 308.371 640.925 308.371 640.619Z" fill="#EBEBEB"/>
<path d="M308.371 623.4C308.371 623.094 206.589 622.843 81.0961 622.843C-44.3968 622.843 -146.207 623.094 -146.207 623.4C-146.207 623.707 -44.4525 623.957 81.0961 623.957C206.645 623.957 308.371 623.707 308.371 623.4Z" fill="#EBEBEB"/>
<path d="M255.989 732.37H218.012V669.067C218.012 659.343 225.897 651.457 235.621 651.457H238.38C248.104 651.457 255.989 659.343 255.989 669.067V732.37Z" fill="#E0E0E0"/>
<path d="M250.612 726.547H223.391V669.93C223.391 662.965 229.047 657.309 236.012 657.309H237.991C244.956 657.309 250.612 662.965 250.612 669.93V726.547Z" fill="#FAFAFA"/>
<path d="M236.987 726.547C237.294 726.547 237.545 711.056 237.545 691.942C237.545 672.828 237.294 657.337 236.987 657.337C236.681 657.337 236.43 672.828 236.43 691.942C236.43 711.056 236.681 726.547 236.987 726.547Z" fill="#E0E0E0"/>
<path d="M223.559 678.874C223.559 679.18 229.633 679.431 237.1 679.431C244.567 679.431 250.641 679.18 250.641 678.874C250.641 678.567 244.567 678.317 237.1 678.317C229.633 678.317 223.559 678.567 223.559 678.874Z" fill="#E0E0E0"/>
<path d="M223.559 701.555C223.559 701.861 229.633 702.112 237.1 702.112C244.567 702.112 250.641 701.861 250.641 701.555C250.641 701.248 244.567 700.997 237.1 700.997C229.633 700.997 223.559 701.248 223.559 701.555Z" fill="#E0E0E0"/>
<path d="M182.153 732.37H144.176V669.067C144.176 659.343 152.061 651.457 161.785 651.457H164.544C174.268 651.457 182.153 659.343 182.153 669.067V732.37Z" fill="#E0E0E0"/>
<path d="M176.776 726.547H149.555V669.93C149.555 662.965 155.211 657.309 162.176 657.309H164.155C171.12 657.309 176.776 662.965 176.776 669.93V726.547Z" fill="#FAFAFA"/>
<path d="M163.179 726.547C163.485 726.547 163.736 711.056 163.736 691.942C163.736 672.828 163.485 657.337 163.179 657.337C162.872 657.337 162.622 672.828 162.622 691.942C162.622 711.056 162.872 726.547 163.179 726.547Z" fill="#E0E0E0"/>
<path d="M149.749 678.874C149.749 679.18 155.823 679.431 163.29 679.431C170.757 679.431 176.831 679.18 176.831 678.874C176.831 678.567 170.757 678.317 163.29 678.317C155.823 678.317 149.749 678.567 149.749 678.874Z" fill="#E0E0E0"/>
<path d="M149.749 701.555C149.749 701.861 155.823 702.112 163.29 702.112C170.757 702.112 176.831 701.861 176.831 701.555C176.831 701.248 170.757 700.997 163.29 700.997C155.823 700.997 149.749 701.248 149.749 701.555Z" fill="#E0E0E0"/>
<path d="M108.345 732.37H70.3686V669.067C70.3686 659.343 78.2537 651.457 87.9777 651.457H90.7361C100.46 651.457 108.345 659.343 108.345 669.067L108.345 732.37Z" fill="#E0E0E0"/>
<path d="M102.969 726.547H75.7473V669.93C75.7473 662.964 81.4034 657.308 88.369 657.308H90.3473C97.3129 657.308 102.969 662.964 102.969 669.93V726.547Z" fill="#FAFAFA"/>
<path d="M89.3432 726.547C89.6496 726.547 89.9004 711.056 89.9004 691.942C89.9004 672.828 89.6496 657.337 89.3432 657.337C89.0367 657.337 88.7859 672.828 88.7859 691.942C88.7859 711.056 89.0367 726.547 89.3432 726.547Z" fill="#E0E0E0"/>
<path d="M75.9414 678.874C75.9414 679.181 82.0154 679.431 89.4826 679.431C96.9497 679.431 103.024 679.181 103.024 678.874C103.024 678.568 96.9497 678.317 89.4826 678.317C82.0154 678.317 75.9414 678.568 75.9414 678.874Z" fill="#E0E0E0"/>
<path d="M75.9414 701.555C75.9414 701.861 82.0154 702.112 89.4826 702.112C96.9497 702.112 103.024 701.861 103.024 701.555C103.024 701.248 96.9497 700.997 89.4826 700.997C82.0154 700.997 75.9414 701.248 75.9414 701.555Z" fill="#E0E0E0"/>
<path d="M34.5095 732.37H-3.46714L-3.46714 669.067C-3.46714 659.343 4.41796 651.457 14.142 651.457H16.9004C26.6244 651.457 34.5095 659.343 34.5095 669.067L34.5095 732.37Z" fill="#E0E0E0"/>
<path d="M29.1326 726.547H1.91084L1.91084 669.93C1.91084 662.964 7.56694 657.308 14.5326 657.308H16.5108C23.4765 657.308 29.1326 662.964 29.1326 669.93L29.1326 726.547Z" fill="#FAFAFA"/>
<path d="M15.5365 726.547C15.843 726.547 16.0938 711.056 16.0938 691.942C16.0938 672.828 15.843 657.337 15.5365 657.337C15.23 657.337 14.9792 672.828 14.9792 691.942C14.9792 711.056 15.23 726.547 15.5365 726.547Z" fill="#E0E0E0"/>
<path d="M2.10571 678.874C2.10571 679.181 8.17973 679.431 15.6469 679.431C23.1141 679.431 29.1881 679.181 29.1881 678.874C29.1881 678.568 23.1141 678.317 15.6469 678.317C8.17973 678.317 2.10571 678.568 2.10571 678.874Z" fill="#E0E0E0"/>
<path d="M2.10571 701.555C2.10571 701.861 8.17973 702.112 15.6469 702.112C23.1141 702.112 29.1881 701.861 29.1881 701.555C29.1881 701.248 23.1141 700.997 15.6469 700.997C8.17973 700.997 2.10571 701.248 2.10571 701.555Z" fill="#E0E0E0"/>
<path d="M20.6902 511.949L312.885 511.949V501.668L20.6902 501.668V511.949Z" fill="#E0E0E0"/>
<path d="M24.2562 515.404H308.426V511.977L24.2562 511.977V515.404Z" fill="#E0E0E0"/>
<path d="M20.7179 501.696C20.7179 501.696 21.2473 501.696 22.2504 501.724C23.2813 501.724 24.758 501.724 26.6805 501.752C30.6091 501.752 36.321 501.807 43.6767 501.835C58.4438 501.863 79.7308 501.947 106.117 502.002C158.833 502.058 231.805 502.142 312.912 502.225L312.355 501.668C312.355 504.9 312.355 508.411 312.355 511.922L312.912 511.364C171.622 511.364 52.9828 511.531 20.7179 511.782L20.8572 511.922C20.8294 508.439 20.8015 505.903 20.7737 504.176C20.7737 502.476 20.7179 501.64 20.7179 501.64C20.7179 501.64 20.6901 502.42 20.6622 504.092C20.6622 505.82 20.6065 508.383 20.5786 511.922V512.061H20.7179C52.9828 512.312 171.622 512.479 312.912 512.479H313.47V511.922V501.083H312.912C231.637 501.167 158.526 501.25 105.699 501.306C79.3686 501.39 58.1095 501.445 43.398 501.473C36.0981 501.501 30.442 501.529 26.5412 501.557C24.6465 501.557 23.1977 501.585 22.1946 501.585C21.2195 501.585 20.7458 501.612 20.7458 501.612L20.7179 501.696Z" fill="#EBEBEB"/>
<path d="M308.427 511.949C308.427 511.949 308.399 512.228 308.371 512.813C308.371 513.454 308.343 514.29 308.315 515.404L308.427 515.293C294.384 515.042 236.04 514.847 166.216 514.847C96.3929 514.847 38.0766 515.042 24.006 515.293L24.1174 515.432C24.1731 514.318 24.201 513.482 24.2289 512.841C24.2289 512.256 24.2289 511.977 24.2289 511.977C24.2289 511.977 24.1731 512.256 24.1174 512.841C24.0617 513.482 23.9781 514.318 23.8945 515.404V515.516H24.006C38.0487 515.766 96.3929 515.961 166.216 515.961C236.04 515.961 294.356 515.766 308.427 515.516H308.538V515.404C308.538 514.318 308.483 513.454 308.483 512.813C308.483 512.256 308.455 511.949 308.427 511.949Z" fill="#EBEBEB"/>
<path d="M20.7183 501.696H312.913L307.229 475.617H25.4549L20.7183 501.696Z" fill="#EBEBEB"/>
<path d="M1077.88 431.148H909.729V743.237H1077.88V431.148Z" fill="#E0E0E0"/>
<path d="M911.79 515.405H627.174V743.265H911.79V515.405Z" fill="#E0E0E0"/>
<path d="M909.839 743.432C909.533 743.432 909.282 674.751 909.282 590.049C909.282 505.346 909.533 436.665 909.839 436.665C910.146 436.665 910.397 505.319 910.397 590.049C910.397 674.779 910.146 743.432 909.839 743.432Z" fill="#EBEBEB"/>
<path d="M1077.88 640.619H627.174V743.237H1077.88V640.619Z" fill="#EBEBEB"/>
<path d="M348.521 565.752C348.521 565.752 348.521 565.53 348.493 565.112C348.493 564.638 348.493 564.053 348.465 563.301C348.465 561.629 348.41 559.344 348.382 556.418C348.326 550.4 348.27 541.818 348.187 531.286C348.131 520.699 348.075 508.133 347.992 494.201C347.852 490.802 346.487 487.403 344.258 484.645C341.973 481.914 338.741 479.908 335.119 479.128C333.308 478.738 331.441 478.766 329.491 478.766C327.568 478.766 325.674 478.849 323.863 479.462C320.213 480.549 316.925 483.001 314.807 486.288C313.777 487.877 313.024 489.632 312.634 491.443C312.216 493.254 312.188 495.093 312.216 497.016C312.216 500.805 312.216 504.566 312.216 508.244C312.216 515.6 312.216 522.733 312.188 529.503C312.133 543.072 312.105 555.36 312.077 565.78L311.659 565.362C322.943 565.446 332.11 565.53 338.546 565.585C341.695 565.641 344.175 565.669 345.93 565.697C346.738 565.697 347.379 565.725 347.88 565.752C348.326 565.752 348.549 565.78 348.577 565.808C348.605 565.836 348.382 565.836 347.964 565.864C347.49 565.864 346.849 565.864 346.097 565.92C344.342 565.92 341.89 565.975 338.797 566.031C332.305 566.087 323.055 566.17 311.659 566.254H311.241V565.836C311.213 555.415 311.157 543.128 311.13 529.559C311.13 522.761 311.13 515.656 311.102 508.3C311.102 504.622 311.102 500.861 311.102 497.071C310.935 493.31 311.575 489.075 313.888 485.731C316.145 482.221 319.683 479.601 323.584 478.431C325.507 477.79 327.596 477.707 329.547 477.707C331.469 477.707 333.475 477.707 335.398 478.097C339.271 478.933 342.698 481.106 345.122 484.004C347.518 486.929 348.939 490.551 349.078 494.174C349.134 508.328 349.023 520.977 348.967 531.621C348.883 542.153 348.828 550.707 348.772 556.725C348.744 559.595 348.716 561.88 348.688 563.496C348.688 564.22 348.66 564.777 348.66 565.223C348.66 565.613 348.66 565.808 348.633 565.78L348.521 565.752Z" fill="#455A64"/>
<path d="M625.28 431.065H261.033V684.419H625.28V431.065Z" fill="#EBEBEB"/>
<path d="M636.842 433.99H251.058V445.553H636.842V433.99Z" fill="#E0E0E0"/>
<path d="M636.007 422.4H252.562V426.301H636.007V422.4Z" fill="#E0E0E0"/>
<path d="M639.768 413.344H251.058V422.4H639.768V413.344Z" fill="#E0E0E0"/>
<path d="M631.828 422.4H255.684V434.046H631.828V422.4Z" fill="#E0E0E0"/>
<path d="M251.393 413.344H639.992L444.118 321.287L251.393 413.344Z" fill="#E0E0E0"/>
<path d="M631.41 445.554H255.684V451.461H631.41V445.554Z" fill="#E0E0E0"/>
<path d="M283.741 451.461H261.033V684.419H283.741V451.461Z" fill="#E0E0E0"/>
<path d="M283.74 684.419C283.74 684.419 283.74 684.001 283.712 683.193C283.712 682.357 283.712 681.187 283.685 679.683C283.685 676.59 283.629 672.048 283.601 666.253C283.573 654.579 283.517 637.694 283.434 616.741C283.378 574.864 283.295 516.715 283.183 451.433L283.74 451.99C276.496 451.99 268.806 451.99 261.032 451.99L261.59 451.433C261.45 555.304 261.311 644.659 261.255 684.391L261.032 684.169C268.332 684.224 273.988 684.28 277.861 684.308C279.756 684.308 281.205 684.336 282.236 684.364C283.239 684.364 283.74 684.419 283.74 684.419C283.74 684.419 283.267 684.447 282.291 684.475C281.288 684.475 279.84 684.503 277.973 684.531C274.072 684.559 268.388 684.614 261.032 684.67H260.809V684.447C260.754 644.715 260.614 555.388 260.475 451.488V450.931H261.032C268.806 450.931 276.496 450.931 283.74 450.931H284.298V451.488C284.214 516.91 284.13 575.226 284.047 617.187C283.963 638.084 283.907 654.913 283.88 666.559C283.852 672.299 283.824 676.785 283.796 679.85C283.796 681.327 283.768 682.469 283.768 683.277C283.768 684.057 283.74 684.419 283.74 684.419Z" fill="#EBEBEB"/>
<path d="M352.506 451.461H329.798V684.419H352.506V451.461Z" fill="#E0E0E0"/>
<path d="M352.505 684.419C352.505 684.419 352.505 684.001 352.477 683.193C352.477 682.357 352.477 681.187 352.449 679.683C352.449 676.59 352.394 672.048 352.366 666.253C352.338 654.579 352.282 637.694 352.199 616.741C352.143 574.864 352.059 516.715 351.948 451.433L352.505 451.99C345.261 451.99 337.571 451.99 329.797 451.99L330.354 451.433C330.215 555.304 330.076 644.659 330.02 684.391L329.797 684.169C337.097 684.224 342.753 684.28 346.626 684.308C348.521 684.308 349.969 684.336 351 684.364C352.003 684.364 352.505 684.419 352.505 684.419C352.505 684.419 352.031 684.447 351.056 684.475C350.053 684.475 348.604 684.503 346.737 684.531C342.837 684.559 337.153 684.614 329.797 684.67H329.574V684.447C329.518 644.715 329.379 555.388 329.24 451.488V450.931H329.797C337.571 450.931 345.261 450.931 352.505 450.931H353.062V451.488C352.979 516.91 352.895 575.226 352.811 617.187C352.728 638.084 352.672 654.913 352.644 666.559C352.616 672.299 352.589 676.785 352.561 679.85C352.561 681.327 352.533 682.469 352.533 683.277C352.533 684.057 352.505 684.419 352.505 684.419Z" fill="#EBEBEB"/>
<path d="M565.402 451.461H542.694V684.419H565.402V451.461Z" fill="#E0E0E0"/>
<path d="M565.431 684.419C565.431 684.419 565.431 684.001 565.403 683.193C565.403 682.357 565.403 681.187 565.376 679.683C565.376 676.59 565.32 672.048 565.292 666.253C565.264 654.579 565.208 637.694 565.125 616.741C565.069 574.864 564.985 516.715 564.874 451.433L565.431 451.99C558.187 451.99 550.497 451.99 542.723 451.99L543.281 451.433C543.141 555.304 543.002 644.659 542.946 684.391L542.723 684.169C550.023 684.224 555.679 684.28 559.552 684.308C561.447 684.308 562.896 684.336 563.927 684.364C564.93 684.364 565.431 684.419 565.431 684.419C565.431 684.419 564.958 684.447 563.982 684.475C562.979 684.475 561.53 684.503 559.664 684.531C555.763 684.559 550.079 684.614 542.723 684.67H542.5V684.447C542.445 644.715 542.305 555.388 542.166 451.488V450.931H542.723C550.497 450.931 558.187 450.931 565.431 450.931H565.988V451.488C565.905 516.91 565.821 575.226 565.738 617.187C565.654 638.084 565.598 654.913 565.571 666.559C565.543 672.299 565.515 676.785 565.487 679.85C565.487 681.327 565.459 682.469 565.459 683.277C565.459 684.057 565.431 684.419 565.431 684.419Z" fill="#EBEBEB"/>
<path d="M627.593 451.461H604.885V684.419H627.593V451.461Z" fill="#E0E0E0"/>
<path d="M627.593 684.419C627.593 684.419 627.593 684.001 627.565 683.193C627.565 682.357 627.565 681.187 627.537 679.683C627.537 676.59 627.481 672.048 627.454 666.253C627.426 654.579 627.37 637.694 627.286 616.741C627.231 574.864 627.147 516.715 627.036 451.433L627.593 451.99C620.349 451.99 612.659 451.99 604.885 451.99L605.442 451.433C605.303 555.304 605.164 644.659 605.108 684.391L604.885 684.169C612.185 684.224 617.841 684.28 621.714 684.308C623.608 684.308 625.057 684.336 626.088 684.364C627.091 684.364 627.593 684.419 627.593 684.419C627.593 684.419 627.119 684.447 626.144 684.475C625.141 684.475 623.692 684.503 621.825 684.531C617.925 684.559 612.241 684.614 604.885 684.67H604.662V684.447C604.606 644.715 604.467 555.388 604.328 451.488V450.931H604.885C612.659 450.931 620.349 450.931 627.593 450.931H628.15V451.488C628.067 516.91 627.983 575.226 627.899 617.187C627.816 638.084 627.76 654.913 627.732 666.559C627.704 672.299 627.676 676.785 627.649 679.85C627.649 681.327 627.621 682.469 627.621 683.277C627.621 684.057 627.593 684.419 627.593 684.419Z" fill="#EBEBEB"/>
<path d="M404.858 573.888H367.913V503.201C367.913 493.867 375.463 486.316 384.797 486.316H387.974C397.308 486.316 404.858 493.867 404.858 503.201V573.888Z" fill="#FAFAFA"/>
<path d="M404.859 573.888C404.859 573.888 404.859 573.666 404.831 573.248C404.831 572.774 404.831 572.189 404.803 571.437C404.803 569.765 404.747 567.48 404.719 564.554C404.663 558.536 404.608 549.955 404.524 539.395C404.468 528.807 404.413 516.241 404.329 502.31C404.19 498.91 402.825 495.511 400.596 492.753C398.311 490.022 395.079 488.016 391.457 487.236C389.646 486.846 387.779 486.874 385.828 486.874C383.906 486.874 382.011 486.957 380.2 487.57C376.55 488.657 373.262 491.109 371.145 494.397C370.114 495.985 369.362 497.74 368.972 499.551C368.554 501.362 368.526 503.201 368.554 505.124C368.554 508.913 368.554 512.674 368.554 516.352C368.554 523.708 368.554 530.841 368.526 537.611C368.47 551.18 368.442 563.468 368.414 573.888L367.996 573.47C379.281 573.554 388.447 573.638 394.884 573.693C398.032 573.749 400.512 573.777 402.267 573.805C403.075 573.805 403.716 573.833 404.218 573.861C404.663 573.861 404.886 573.888 404.914 573.916C404.942 573.944 404.719 573.944 404.301 573.972C403.828 573.972 403.187 573.972 402.434 574.028C400.679 574.028 398.227 574.083 395.134 574.139C388.642 574.195 379.392 574.279 367.996 574.362H367.578V573.944C367.551 563.524 367.495 551.236 367.467 537.667C367.467 530.869 367.467 523.764 367.439 516.408C367.439 512.73 367.439 508.969 367.439 505.179C367.272 501.418 367.913 497.183 370.225 493.839C372.482 490.329 376.021 487.71 379.922 486.539C381.844 485.899 383.934 485.815 385.884 485.815C387.807 485.815 389.813 485.815 391.735 486.205C395.608 487.041 399.035 489.214 401.459 492.112C403.855 495.037 405.276 498.66 405.416 502.282C405.471 516.436 405.36 529.085 405.304 539.729C405.221 550.261 405.165 558.815 405.109 564.833C405.081 567.703 405.054 569.988 405.026 571.604C405.026 572.328 404.998 572.885 404.998 573.331C404.998 573.721 404.998 573.916 404.97 573.888H404.859Z" fill="#E0E0E0"/>
<path d="M386.385 573.248C386.078 573.248 385.828 553.911 385.828 530.089C385.828 506.266 386.078 486.929 386.385 486.929C386.691 486.929 386.942 506.238 386.942 530.089C386.942 553.939 386.691 573.248 386.385 573.248Z" fill="#E0E0E0"/>
<path d="M404.858 506.238C404.858 506.545 396.583 506.795 386.385 506.795C376.188 506.795 367.913 506.545 367.913 506.238C367.913 505.932 376.188 505.681 386.385 505.681C396.583 505.681 404.858 505.932 404.858 506.238Z" fill="#E0E0E0"/>
<path d="M404.858 527.915C404.858 528.222 396.583 528.472 386.385 528.472C376.188 528.472 367.913 528.222 367.913 527.915C367.913 527.609 376.188 527.358 386.385 527.358C396.583 527.358 404.858 527.609 404.858 527.915Z" fill="#E0E0E0"/>
<path d="M404.858 549.592C404.858 549.899 396.583 550.15 386.385 550.15C376.188 550.15 367.913 549.899 367.913 549.592C367.913 549.286 376.188 549.035 386.385 549.035C396.583 549.035 404.858 549.286 404.858 549.592Z" fill="#E0E0E0"/>
<path d="M467.884 573.888H430.938V503.201C430.938 493.867 438.489 486.316 447.823 486.316H451C460.333 486.316 467.884 493.867 467.884 503.201V573.888Z" fill="#FAFAFA"/>
<path d="M467.884 573.888C467.884 573.888 467.884 573.666 467.857 573.248C467.857 572.774 467.857 572.189 467.829 571.437C467.829 569.765 467.773 567.48 467.745 564.554C467.689 558.536 467.634 549.955 467.55 539.395C467.494 528.807 467.439 516.241 467.355 502.31C467.216 498.91 465.85 495.511 463.621 492.753C461.337 490.022 458.105 488.016 454.483 487.236C452.671 486.846 450.805 486.874 448.854 486.874C446.932 486.874 445.037 486.957 443.226 487.57C439.576 488.657 436.288 491.109 434.171 494.397C433.14 495.985 432.388 497.74 431.997 499.551C431.58 501.362 431.552 503.201 431.579 505.124C431.579 508.913 431.579 512.674 431.579 516.352C431.579 523.708 431.579 530.841 431.552 537.611C431.496 551.18 431.468 563.468 431.44 573.888L431.022 573.47C442.307 573.554 451.473 573.638 457.91 573.693C461.058 573.749 463.538 573.777 465.293 573.805C466.101 573.805 466.742 573.833 467.244 573.861C467.689 573.861 467.912 573.888 467.94 573.916C467.968 573.944 467.745 573.944 467.327 573.972C466.853 573.972 466.213 573.972 465.46 574.028C463.705 574.028 461.253 574.083 458.16 574.139C451.668 574.195 442.418 574.279 431.022 574.362H430.604V573.944C430.576 563.524 430.521 551.236 430.493 537.667C430.493 530.869 430.493 523.764 430.465 516.408C430.465 512.73 430.465 508.969 430.465 505.179C430.298 501.418 430.939 497.183 433.251 493.839C435.508 490.329 439.047 487.71 442.947 486.539C444.87 485.899 446.96 485.815 448.91 485.815C450.833 485.815 452.839 485.815 454.761 486.205C458.634 487.041 462.061 489.214 464.485 492.112C466.881 495.037 468.302 498.66 468.442 502.282C468.497 516.436 468.386 529.085 468.33 539.729C468.247 550.261 468.191 558.815 468.135 564.833C468.107 567.703 468.079 569.988 468.052 571.604C468.052 572.328 468.024 572.885 468.024 573.331C468.024 573.721 468.024 573.916 467.996 573.888H467.884Z" fill="#E0E0E0"/>
<path d="M449.411 573.248C449.104 573.248 448.854 553.911 448.854 530.089C448.854 506.266 449.104 486.929 449.411 486.929C449.717 486.929 449.968 506.238 449.968 530.089C449.968 553.939 449.717 573.248 449.411 573.248Z" fill="#E0E0E0"/>
<path d="M467.884 506.238C467.884 506.545 459.609 506.795 449.411 506.795C439.214 506.795 430.938 506.545 430.938 506.238C430.938 505.932 439.214 505.681 449.411 505.681C459.609 505.681 467.884 505.932 467.884 506.238Z" fill="#E0E0E0"/>
<path d="M467.884 527.915C467.884 528.222 459.609 528.472 449.411 528.472C439.214 528.472 430.938 528.222 430.938 527.915C430.938 527.609 439.214 527.358 449.411 527.358C459.609 527.358 467.884 527.609 467.884 527.915Z" fill="#E0E0E0"/>
<path d="M467.884 549.592C467.884 549.899 459.609 550.15 449.411 550.15C439.214 550.15 430.938 549.899 430.938 549.592C430.938 549.286 439.214 549.035 449.411 549.035C459.609 549.035 467.884 549.286 467.884 549.592Z" fill="#E0E0E0"/>
<path d="M530.91 573.888H493.964V503.201C493.964 493.867 501.515 486.316 510.849 486.316H514.025C523.359 486.316 530.91 493.867 530.91 503.201V573.888Z" fill="#FAFAFA"/>
<path d="M530.909 573.888C530.909 573.888 530.909 573.666 530.881 573.248C530.881 572.774 530.881 572.189 530.854 571.437C530.854 569.765 530.798 567.48 530.77 564.554C530.714 558.536 530.659 549.955 530.575 539.395C530.519 528.807 530.464 516.241 530.38 502.31C530.241 498.91 528.875 495.511 526.646 492.753C524.362 490.022 521.13 488.016 517.507 487.236C515.696 486.846 513.83 486.874 511.879 486.874C509.957 486.874 508.062 486.957 506.251 487.57C502.601 488.657 499.313 491.109 497.196 494.397C496.165 495.985 495.412 497.74 495.022 499.551C494.604 501.362 494.577 503.201 494.604 505.124C494.604 508.913 494.604 512.674 494.604 516.352C494.604 523.708 494.604 530.841 494.577 537.611C494.549 551.18 494.493 563.468 494.465 573.888L494.047 573.47C505.331 573.554 514.498 573.638 520.935 573.693C524.083 573.749 526.563 573.777 528.318 573.805C529.126 573.805 529.767 573.833 530.268 573.861C530.714 573.861 530.937 573.888 530.965 573.916C530.965 573.916 530.77 573.944 530.352 573.972C529.878 573.972 529.238 573.972 528.485 574.028C526.73 574.028 524.278 574.083 521.185 574.139C514.693 574.195 505.443 574.279 494.047 574.362H493.629V573.944C493.601 563.524 493.546 551.236 493.518 537.667C493.518 530.869 493.518 523.764 493.49 516.408C493.49 512.73 493.49 508.969 493.49 505.179C493.323 501.418 493.964 497.183 496.276 493.839C498.533 490.329 502.072 487.71 505.972 486.539C507.895 485.899 509.985 485.815 511.935 485.815C513.857 485.815 515.864 485.815 517.786 486.205C521.659 487.041 525.086 489.214 527.51 492.112C529.906 495.037 531.327 498.66 531.467 502.282C531.522 516.436 531.411 529.085 531.355 539.729C531.272 550.261 531.216 558.815 531.16 564.833C531.132 567.703 531.104 569.988 531.076 571.604C531.076 572.328 531.049 572.885 531.049 573.331C531.049 573.721 531.049 573.916 531.021 573.888H530.909Z" fill="#E0E0E0"/>
<path d="M512.436 573.248C512.13 573.248 511.879 553.911 511.879 530.089C511.879 506.266 512.13 486.929 512.436 486.929C512.743 486.929 512.993 506.238 512.993 530.089C512.993 553.939 512.743 573.248 512.436 573.248Z" fill="#E0E0E0"/>
<path d="M530.91 506.238C530.91 506.545 522.634 506.795 512.437 506.795C502.239 506.795 493.964 506.545 493.964 506.238C493.964 505.932 502.239 505.681 512.437 505.681C522.634 505.681 530.91 505.932 530.91 506.238Z" fill="#E0E0E0"/>
<path d="M530.91 527.915C530.91 528.222 522.634 528.472 512.437 528.472C502.239 528.472 493.964 528.222 493.964 527.915C493.964 527.609 502.239 527.358 512.437 527.358C522.634 527.358 530.91 527.609 530.91 527.915Z" fill="#E0E0E0"/>
<path d="M530.91 549.592C530.91 549.899 522.634 550.15 512.437 550.15C502.239 550.15 493.964 549.899 493.964 549.592C493.964 549.286 502.239 549.035 512.437 549.035C522.634 549.035 530.91 549.286 530.91 549.592Z" fill="#E0E0E0"/>
<path d="M404.859 623.066H375.938V680.435H404.859V623.066Z" fill="#E0E0E0"/>
<path d="M461.503 623.066H432.582V680.435H461.503V623.066Z" fill="#E0E0E0"/>
<path d="M518.148 623.066H489.227V680.435H518.148V623.066Z" fill="#E0E0E0"/>
<path d="M635.032 680.435H253.565V692.527H635.032V680.435Z" fill="#E0E0E0"/>
<path d="M638.013 692.332H245.207V704.424H638.013V692.332Z" fill="#F5F5F5"/>
<path d="M652.976 716.517H227.542V728.609H652.976V716.517Z" fill="#F5F5F5"/>
<path d="M666.628 740.562H211.827V752.655H666.628V740.562Z" fill="#F5F5F5"/>
<path d="M644.951 704.425H235.789V716.517H644.951V704.425Z" fill="#E0E0E0"/>
<path d="M659.133 728.581H219.991V740.674H659.133V728.581Z" fill="#E0E0E0"/>
<path d="M631.771 451.461C631.771 451.767 548.211 452.018 445.147 452.018C342.084 452.018 258.524 451.767 258.524 451.461C258.524 451.154 342.056 450.903 445.147 450.903C548.239 450.903 631.771 451.154 631.771 451.461Z" fill="#E0E0E0"/>
<path d="M636.842 445.442C636.842 445.749 550.802 446 444.702 446C338.601 446 252.534 445.749 252.534 445.442C252.534 445.136 338.545 444.885 444.702 444.885C550.858 444.885 636.842 445.136 636.842 445.442Z" fill="#EBEBEB"/>
<path d="M637.316 433.823C637.316 434.13 551.276 434.38 445.176 434.38C339.075 434.38 253.008 434.13 253.008 433.823C253.008 433.517 339.02 433.266 445.176 433.266C551.332 433.266 637.316 433.517 637.316 433.823Z" fill="#EBEBEB"/>
<path d="M637.316 426.356C637.316 426.663 551.276 426.913 445.176 426.913C339.075 426.913 253.008 426.663 253.008 426.356C253.008 426.05 339.02 425.799 445.176 425.799C551.332 425.799 637.316 426.05 637.316 426.356Z" fill="#EBEBEB"/>
<path d="M635.309 422.539C635.003 422.595 549.27 423.096 443.169 423.096C337.988 423.096 255.487 422.873 251.001 422.539C250.695 422.539 337.013 422.093 443.169 421.982C553.087 421.842 637.037 422.177 635.309 422.539Z" fill="#EBEBEB"/>
<path d="M629.069 679.961C629.069 680.268 545.286 680.519 441.972 680.519C338.657 680.519 254.847 680.268 254.847 679.961C254.847 679.655 338.602 679.404 441.972 679.404C545.342 679.404 629.069 679.655 629.069 679.961Z" fill="#E0E0E0"/>
<path d="M629.069 691.914C629.069 692.221 545.286 692.471 441.972 692.471C338.657 692.471 254.847 692.221 254.847 691.914C254.847 691.608 338.602 691.357 441.972 691.357C545.342 691.357 629.069 691.608 629.069 691.914Z" fill="#E0E0E0"/>
<path d="M629.068 703.895C629.068 704.202 541.218 704.564 432.888 704.731C324.503 704.87 236.68 704.731 236.68 704.425C236.68 704.118 324.503 703.756 432.888 703.589C541.218 703.449 629.068 703.589 629.068 703.895Z" fill="#E0E0E0"/>
<path d="M627.814 716.516C627.814 716.823 538.208 717.074 427.678 717.074C317.147 717.074 227.513 716.823 227.513 716.516C227.513 716.21 317.119 715.959 427.678 715.959C538.236 715.959 627.814 716.21 627.814 716.516Z" fill="#E0E0E0"/>
<path d="M629.069 728.581C629.069 728.887 537.763 729.138 425.198 729.138C312.634 729.138 221.3 728.887 221.3 728.581C221.3 728.274 312.578 728.024 425.198 728.024C537.819 728.024 629.069 728.274 629.069 728.581Z" fill="#E0E0E0"/>
<path d="M629.069 740.674C629.069 740.98 535.646 741.231 420.462 741.231C305.278 741.231 211.827 740.98 211.827 740.674C211.827 740.367 305.222 740.116 420.462 740.116C535.701 740.116 629.069 740.367 629.069 740.674Z" fill="#E0E0E0"/>
<path d="M629.069 752.654C629.069 752.961 545.286 753.211 441.972 753.211C338.657 753.211 254.847 752.961 254.847 752.654C254.847 752.348 338.602 752.097 441.972 752.097C545.342 752.097 629.069 752.348 629.069 752.654Z" fill="#E0E0E0"/>
<path d="M904.435 417.44L993.734 371.467L1082.56 417.44H904.435Z" fill="#EBEBEB"/>
<path d="M1082.56 417.44H904.435V427.721H1082.56V417.44Z" fill="#E0E0E0"/>
<path d="M1080.39 427.721H907.166V431.148H1080.39V427.721Z" fill="#E0E0E0"/>
<path d="M1082.73 427.722C1082.73 428.028 1042.8 428.279 993.595 428.279C944.389 428.279 904.435 428.028 904.435 427.722C904.435 427.415 944.334 427.164 993.595 427.164C1042.86 427.164 1082.73 427.415 1082.73 427.722Z" fill="#EBEBEB"/>
<path d="M1080.53 431.148C1080.53 431.455 1041.71 431.706 993.846 431.706C945.978 431.706 907.166 431.455 907.166 431.148C907.166 430.842 945.978 430.591 993.846 430.591C1041.71 430.591 1080.53 430.842 1080.53 431.148Z" fill="#EBEBEB"/>
<path d="M1115.86 743.432C1115.86 743.822 826.447 744.156 469.528 744.156C112.609 744.156 -176.855 743.822 -176.855 743.432C-176.855 743.042 112.497 742.708 469.528 742.708C826.559 742.708 1115.86 743.042 1115.86 743.432Z" fill="#E0E0E0"/>
<path d="M697.777 543.462H661.64V605.568H697.777V543.462Z" fill="#F5F5F5"/>
<path d="M693.765 548.004H665.457V602.029H693.765V548.004Z" fill="#FAFAFA"/>
<path d="M679.027 602.28C678.72 602.28 678.47 590.104 678.47 575.086C678.47 560.068 678.72 547.893 679.027 547.893C679.333 547.893 679.584 560.068 679.584 575.086C679.584 590.104 679.333 602.28 679.027 602.28Z" fill="#E0E0E0"/>
<path d="M693.765 564.304C693.765 564.61 687.413 564.861 679.611 564.861C671.81 564.861 665.457 564.61 665.457 564.304C665.457 563.997 671.782 563.746 679.611 563.746C687.441 563.746 693.765 563.997 693.765 564.304Z" fill="#E0E0E0"/>
<path d="M693.765 583.389C693.765 583.696 687.413 583.946 679.611 583.946C671.81 583.946 665.457 583.696 665.457 583.389C665.457 583.083 671.782 582.832 679.611 582.832C687.441 582.832 693.765 583.083 693.765 583.389Z" fill="#E0E0E0"/>
<path d="M763.255 543.462H727.118V605.568H763.255V543.462Z" fill="#F5F5F5"/>
<path d="M759.243 548.004H730.935V602.029H759.243V548.004Z" fill="#FAFAFA"/>
<path d="M744.531 602.281C744.225 602.281 743.974 590.105 743.974 575.087C743.974 560.069 744.225 547.893 744.531 547.893C744.838 547.893 745.089 560.069 745.089 575.087C745.089 590.105 744.838 602.281 744.531 602.281Z" fill="#E0E0E0"/>
<path d="M759.243 564.304C759.243 564.61 752.891 564.861 745.089 564.861C737.288 564.861 730.935 564.61 730.935 564.304C730.935 563.997 737.26 563.746 745.089 563.746C752.919 563.746 759.243 563.997 759.243 564.304Z" fill="#E0E0E0"/>
<path d="M759.243 583.389C759.243 583.696 752.891 583.946 745.089 583.946C737.288 583.946 730.935 583.696 730.935 583.389C730.935 583.083 737.26 582.832 745.089 582.832C752.919 582.832 759.243 583.083 759.243 583.389Z" fill="#E0E0E0"/>
<path d="M828.76 543.462H792.623V605.568H828.76V543.462Z" fill="#F5F5F5"/>
<path d="M824.72 548.004H796.412V602.029H824.72V548.004Z" fill="#FAFAFA"/>
<path d="M810.009 602.28C809.703 602.28 809.452 590.104 809.452 575.086C809.452 560.068 809.703 547.893 810.009 547.893C810.316 547.893 810.567 560.068 810.567 575.086C810.567 590.104 810.316 602.28 810.009 602.28Z" fill="#E0E0E0"/>
<path d="M824.748 564.304C824.748 564.61 818.396 564.861 810.594 564.861C802.793 564.861 796.44 564.61 796.44 564.304C796.44 563.997 802.765 563.746 810.594 563.746C818.423 563.746 824.748 563.997 824.748 564.304Z" fill="#E0E0E0"/>
<path d="M824.748 583.389C824.748 583.696 818.396 583.946 810.594 583.946C802.793 583.946 796.44 583.696 796.44 583.389C796.44 583.083 802.765 582.832 810.594 582.832C818.423 582.832 824.748 583.083 824.748 583.389Z" fill="#E0E0E0"/>
<path d="M894.237 543.462H858.099V605.568H894.237V543.462Z" fill="#F5F5F5"/>
<path d="M890.225 548.004H861.917V602.029H890.225V548.004Z" fill="#FAFAFA"/>
<path d="M875.513 602.281C875.206 602.281 874.956 590.105 874.956 575.087C874.956 560.069 875.206 547.893 875.513 547.893C875.819 547.893 876.07 560.069 876.07 575.087C876.07 590.105 875.819 602.281 875.513 602.281Z" fill="#E0E0E0"/>
<path d="M890.225 564.304C890.225 564.61 883.873 564.861 876.071 564.861C868.27 564.861 861.917 564.61 861.917 564.304C861.917 563.997 868.242 563.746 876.071 563.746C883.901 563.746 890.225 563.997 890.225 564.304Z" fill="#E0E0E0"/>
<path d="M890.225 583.389C890.225 583.696 883.873 583.946 876.071 583.946C868.27 583.946 861.917 583.696 861.917 583.389C861.917 583.083 868.242 582.832 876.071 582.832C883.901 582.832 890.225 583.083 890.225 583.389Z" fill="#E0E0E0"/>
<path d="M1083.06 623.4H626.422V633.904H1083.06V623.4Z" fill="#E0E0E0"/>
<path d="M1080.33 633.57H626.422V640.62H1080.33V633.57Z" fill="#E0E0E0"/>
<path d="M626.422 634.406C626.422 634.099 728.204 633.848 853.697 633.848C979.19 633.848 1081 634.099 1081 634.406C1081 634.712 979.245 634.963 853.697 634.963C728.148 634.963 626.422 634.712 626.422 634.406Z" fill="#EBEBEB"/>
<path d="M626.422 640.619C626.422 640.312 728.204 640.062 853.697 640.062C979.19 640.062 1081 640.312 1081 640.619C1081 640.925 979.245 641.176 853.697 641.176C728.148 641.176 626.422 640.925 626.422 640.619Z" fill="#EBEBEB"/>
<path d="M626.422 623.4C626.422 623.094 728.204 622.843 853.697 622.843C979.19 622.843 1081 623.094 1081 623.4C1081 623.707 979.245 623.957 853.697 623.957C728.148 623.957 626.422 623.707 626.422 623.4Z" fill="#EBEBEB"/>
<path d="M696.384 651.485H699.142C708.866 651.485 716.752 659.37 716.752 669.095V732.398H678.775V669.095C678.775 659.37 686.66 651.485 696.384 651.485Z" fill="#E0E0E0"/>
<path d="M696.774 657.309H698.752C705.718 657.309 711.374 662.965 711.374 669.931V726.547H684.152V669.931C684.152 662.965 689.808 657.309 696.774 657.309Z" fill="#FAFAFA"/>
<path d="M697.777 726.548C697.471 726.548 697.22 711.056 697.22 691.942C697.22 672.829 697.471 657.337 697.777 657.337C698.084 657.337 698.335 672.829 698.335 691.942C698.335 711.056 698.084 726.548 697.777 726.548Z" fill="#E0E0E0"/>
<path d="M711.207 678.874C711.207 679.181 705.133 679.432 697.666 679.432C690.199 679.432 684.125 679.181 684.125 678.874C684.125 678.568 690.199 678.317 697.666 678.317C705.133 678.317 711.207 678.568 711.207 678.874Z" fill="#E0E0E0"/>
<path d="M711.207 701.555C711.207 701.861 705.133 702.112 697.666 702.112C690.199 702.112 684.125 701.861 684.125 701.555C684.125 701.248 690.199 700.998 697.666 700.998C705.133 700.998 711.207 701.248 711.207 701.555Z" fill="#E0E0E0"/>
<path d="M770.22 651.485H772.978C782.702 651.485 790.587 659.37 790.587 669.095V732.398H752.61V669.095C752.61 659.37 760.495 651.485 770.22 651.485Z" fill="#E0E0E0"/>
<path d="M770.61 657.309H772.588C779.554 657.309 785.21 662.965 785.21 669.931V726.547H757.988V669.931C757.988 662.965 763.644 657.309 770.61 657.309Z" fill="#FAFAFA"/>
<path d="M771.584 726.548C771.278 726.548 771.027 711.056 771.027 691.942C771.027 672.829 771.278 657.337 771.584 657.337C771.891 657.337 772.141 672.829 772.141 691.942C772.141 711.056 771.891 726.548 771.584 726.548Z" fill="#E0E0E0"/>
<path d="M785.016 678.874C785.016 679.181 778.941 679.432 771.474 679.432C764.007 679.432 757.933 679.181 757.933 678.874C757.933 678.568 764.007 678.317 771.474 678.317C778.941 678.317 785.016 678.568 785.016 678.874Z" fill="#E0E0E0"/>
<path d="M785.016 701.555C785.016 701.861 778.941 702.112 771.474 702.112C764.007 702.112 757.933 701.861 757.933 701.555C757.933 701.248 764.007 700.998 771.474 700.998C778.941 700.998 785.016 701.248 785.016 701.555Z" fill="#E0E0E0"/>
<path d="M844.029 651.485H846.788C856.512 651.485 864.397 659.37 864.397 669.095V732.398H826.42V669.095C826.42 659.37 834.305 651.485 844.029 651.485Z" fill="#E0E0E0"/>
<path d="M844.42 657.309H846.398C853.363 657.309 859.02 662.965 859.02 669.931V726.547H831.798V669.931C831.798 662.965 837.454 657.309 844.42 657.309Z" fill="#FAFAFA"/>
<path d="M845.422 726.548C845.115 726.548 844.865 711.056 844.865 691.942C844.865 672.829 845.115 657.337 845.422 657.337C845.728 657.337 845.979 672.829 845.979 691.942C845.979 711.056 845.728 726.548 845.422 726.548Z" fill="#E0E0E0"/>
<path d="M858.851 678.874C858.851 679.181 852.777 679.432 845.31 679.432C837.843 679.432 831.769 679.181 831.769 678.874C831.769 678.568 837.843 678.317 845.31 678.317C852.777 678.317 858.851 678.568 858.851 678.874Z" fill="#E0E0E0"/>
<path d="M858.851 701.555C858.851 701.861 852.777 702.112 845.31 702.112C837.843 702.112 831.769 701.861 831.769 701.555C831.769 701.248 837.843 700.998 845.31 700.998C852.777 700.998 858.851 701.248 858.851 701.555Z" fill="#E0E0E0"/>
<path d="M917.865 651.485H920.623C930.347 651.485 938.233 659.37 938.233 669.095V732.398H900.256V669.095C900.256 659.37 908.141 651.485 917.865 651.485Z" fill="#E0E0E0"/>
<path d="M918.255 657.309H920.233C927.199 657.309 932.855 662.965 932.855 669.931V726.547H905.633V669.931C905.633 662.965 911.289 657.309 918.255 657.309Z" fill="#FAFAFA"/>
<path d="M919.23 726.548C918.923 726.548 918.672 711.056 918.672 691.942C918.672 672.829 918.923 657.337 919.23 657.337C919.536 657.337 919.787 672.829 919.787 691.942C919.787 711.056 919.536 726.548 919.23 726.548Z" fill="#E0E0E0"/>
<path d="M932.659 678.874C932.659 679.181 926.585 679.432 919.118 679.432C911.651 679.432 905.577 679.181 905.577 678.874C905.577 678.568 911.651 678.317 919.118 678.317C926.585 678.317 932.659 678.568 932.659 678.874Z" fill="#E0E0E0"/>
<path d="M932.659 701.555C932.659 701.861 926.585 702.112 919.118 702.112C911.651 702.112 905.577 701.861 905.577 701.555C905.577 701.248 911.651 700.998 919.118 700.998C926.585 700.998 932.659 701.248 932.659 701.555Z" fill="#E0E0E0"/>
<path d="M914.047 501.696H621.853V511.977H914.047V501.696Z" fill="#E0E0E0"/>
<path d="M910.509 511.949H626.338V515.376H910.509V511.949Z" fill="#E0E0E0"/>
<path d="M914.076 501.696C914.076 501.696 913.546 501.696 912.543 501.724C911.512 501.724 910.035 501.724 908.113 501.752C904.184 501.752 898.472 501.807 891.117 501.835C876.35 501.863 855.063 501.947 828.677 502.002C775.961 502.058 702.989 502.142 621.881 502.225L622.438 501.668C622.438 504.9 622.438 508.411 622.438 511.922L621.881 511.364C763.172 511.364 881.811 511.531 914.076 511.782L913.936 511.922C913.964 508.439 913.992 505.903 914.02 504.176C914.02 502.476 914.076 501.64 914.076 501.64C914.076 501.64 914.103 502.42 914.131 504.092C914.131 505.82 914.187 508.383 914.215 511.922V512.061H914.076C881.811 512.312 763.172 512.479 621.881 512.479H621.324V511.922C621.324 508.383 621.324 504.9 621.324 501.64V501.083H621.881C703.156 501.167 776.267 501.25 829.095 501.306C855.425 501.39 876.684 501.445 891.395 501.473C898.695 501.501 904.379 501.529 908.252 501.557C910.147 501.557 911.596 501.585 912.599 501.585C913.574 501.585 914.048 501.612 914.048 501.612L914.076 501.696Z" fill="#EBEBEB"/>
<path d="M626.339 511.949C626.339 511.949 626.367 512.228 626.395 512.813C626.395 513.454 626.423 514.29 626.451 515.404L626.339 515.293C640.382 515.042 698.726 514.847 768.55 514.847C838.373 514.847 896.718 515.042 910.76 515.293L910.649 515.432C910.593 514.318 910.565 513.482 910.537 512.841C910.537 512.256 910.537 511.977 910.537 511.977C910.537 511.977 910.593 512.256 910.649 512.841C910.705 513.482 910.788 514.318 910.872 515.404V515.516H910.76C896.718 515.766 838.373 515.961 768.55 515.961C698.726 515.961 640.41 515.766 626.339 515.516H626.228V515.404C626.228 514.318 626.284 513.454 626.284 512.813C626.284 512.256 626.312 511.949 626.339 511.949Z" fill="#EBEBEB"/>
<path d="M914.075 501.696H621.853L627.537 475.617H909.31L914.075 501.696Z" fill="#EBEBEB"/>
<path d="M251.058 413.344L241.474 403.62L444.285 303.761L649.855 404.651L639.769 413.344L444.118 321.287L251.058 413.344Z" fill="#EBEBEB"/>
<path d="M443.142 400.388C458.746 400.388 471.395 387.739 471.395 372.135C471.395 356.532 458.746 343.883 443.142 343.883C427.539 343.883 414.89 356.532 414.89 372.135C414.89 387.739 427.539 400.388 443.142 400.388Z" fill="#E0E0E0"/>
<path d="M103.443 804.702C103.109 804.925 99.1799 799.547 94.6661 792.721C90.1524 785.867 86.781 780.155 87.1154 779.932C87.4497 779.709 91.3784 785.087 95.8921 791.913C100.406 798.739 103.777 804.479 103.443 804.702Z" fill="#E0E0E0"/>
<path d="M103.302 769.066C103.72 769.01 105.169 776.7 107.732 786.006C110.268 795.313 112.97 802.668 112.58 802.835C112.246 802.975 108.903 795.786 106.339 786.396C103.748 777.007 102.94 769.122 103.302 769.066Z" fill="#E0E0E0"/>
<path d="M128.63 774.471C129.02 774.555 128.24 780.545 126.874 787.873C125.509 795.201 124.088 801.108 123.67 801.024C123.28 800.941 124.06 794.95 125.426 787.594C126.791 780.267 128.212 774.36 128.63 774.443V774.471Z" fill="#E0E0E0"/>
<path d="M675.963 885.81C675.628 886.033 671.7 880.655 667.186 873.829C662.672 866.975 659.301 861.263 659.635 861.04C659.97 860.817 663.898 866.194 668.412 873.021C672.926 879.847 676.297 885.587 675.963 885.81Z" fill="#EBEBEB"/>
<path d="M675.822 850.201C676.24 850.146 677.689 857.836 680.252 867.142C682.788 876.448 685.49 883.803 685.1 883.971C684.766 884.11 681.423 876.921 678.859 867.532C676.268 858.142 675.46 850.257 675.822 850.201Z" fill="#EBEBEB"/>
<path d="M701.15 855.579C701.54 855.663 700.76 861.653 699.395 868.981C698.03 876.309 696.609 882.216 696.191 882.132C695.801 882.048 696.581 876.058 697.946 868.702C699.311 861.374 700.732 855.468 701.15 855.551V855.579Z" fill="#EBEBEB"/>
<path d="M75.0776 937.383C74.7433 937.606 70.8146 932.228 66.3009 925.402C61.7872 918.548 58.4158 912.836 58.7502 912.613C59.0845 912.39 63.0131 917.768 67.5269 924.594C72.0406 931.42 75.412 937.16 75.0776 937.383Z" fill="#EBEBEB"/>
<path d="M74.9384 901.774C75.3563 901.719 76.8052 909.409 79.3685 918.715C81.904 928.021 84.6067 935.377 84.2166 935.544C83.8822 935.683 80.5387 928.495 77.9754 919.105C75.3842 909.715 74.5762 901.83 74.9384 901.774Z" fill="#EBEBEB"/>
<path d="M100.237 907.152C100.627 907.235 99.8471 913.226 98.4819 920.554C97.1166 927.882 95.6956 933.788 95.2777 933.705C94.8876 933.621 95.6677 927.631 97.033 920.275C98.3983 912.947 99.8192 907.04 100.237 907.124V907.152Z" fill="#EBEBEB"/>
<path d="M789.111 963.156C788.777 963.379 784.848 958.002 780.334 951.175C775.821 944.321 772.449 938.609 772.784 938.387C773.118 938.164 777.047 943.541 781.56 950.368C786.074 957.194 789.445 962.934 789.111 963.156Z" fill="#E0E0E0"/>
<path d="M788.972 927.548C789.39 927.492 790.838 935.182 793.402 944.488C795.937 953.794 798.64 961.15 798.25 961.317C797.915 961.457 794.572 954.268 792.009 944.878C789.417 935.489 788.609 927.604 788.972 927.548Z" fill="#E0E0E0"/>
<path d="M814.271 932.925C814.661 933.009 813.881 938.999 812.516 946.327C811.15 953.655 809.729 959.562 809.311 959.478C808.921 959.394 809.701 953.404 811.067 946.048C812.432 938.72 813.853 932.814 814.271 932.897V932.925Z" fill="#E0E0E0"/>
<path d="M154.319 281.5C151.951 275.175 149.527 268.738 145.543 263.305C141.558 257.844 135.735 253.386 129.02 252.55C122.305 251.742 114.866 255.364 112.693 261.745C111.718 247.34 109.684 232.545 102.467 220.035C95.2508 207.524 81.7932 197.689 67.3604 198.581C53.7635 199.416 42.1169 209.503 35.6528 221.484C29.1887 233.464 26.9597 247.229 24.8422 260.686C19.6876 254.361 8.82119 256.34 3.41586 262.497C-1.96161 268.627 -3.32687 277.209 -4.46924 285.289H157.746L154.292 281.527L154.319 281.5Z" fill="#EBEBEB"/>
<path d="M840.909 303.956C838.54 297.631 836.116 291.195 832.132 285.762C828.148 280.301 822.324 275.843 815.61 275.007C808.895 274.199 801.455 277.821 799.282 284.202C798.307 269.797 796.273 255.002 789.057 242.491C781.84 229.981 768.383 220.146 753.95 221.037C740.353 221.873 728.706 231.959 722.242 243.94C715.778 255.921 713.549 269.685 711.431 283.143C706.277 276.818 695.411 278.796 690.005 284.954C684.628 291.084 683.262 299.665 682.12 307.745H844.336L840.881 303.984L840.909 303.956Z" fill="#F5F5F5"/>
<path d="M286.221 149.43C284.688 145.335 283.1 141.155 280.509 137.617C277.918 134.078 274.128 131.18 269.782 130.651C265.435 130.122 260.587 132.462 259.194 136.614C258.581 127.252 257.244 117.667 252.563 109.531C247.882 101.395 239.133 95.0149 229.771 95.6C220.939 96.1294 213.388 102.705 209.181 110.479C204.974 118.252 203.553 127.196 202.16 135.917C198.816 131.821 191.739 133.103 188.256 137.087C184.773 141.072 183.882 146.644 183.129 151.882H288.45L286.193 149.458L286.221 149.43Z" fill="#F5F5F5"/>
<path d="M654.73 137.868C653.197 133.772 651.609 129.593 649.018 126.054C646.427 122.515 642.637 119.618 638.291 119.088C633.944 118.559 629.096 120.899 627.703 125.051C627.09 115.689 625.753 106.104 621.072 97.9685C616.391 89.8327 607.642 83.4521 598.28 84.0373C589.448 84.5666 581.897 91.1422 577.69 98.9159C573.482 106.69 572.061 115.633 570.668 124.354C567.325 120.259 560.248 121.54 556.765 125.525C553.282 129.509 552.39 135.081 551.638 140.32H656.959L654.702 137.896L654.73 137.868Z" fill="#EBEBEB"/>
<path d="M394.858 226.61C385.078 252.801 372.596 284.787 379.143 311.953C381.01 319.671 384.186 327.556 382.347 335.274C379.784 345.974 368.221 353.218 367.051 364.168C366.048 373.752 373.32 381.944 377.499 390.609C383.155 402.339 383.211 415.936 382.375 428.948C381.539 441.96 379.923 455.139 382.598 467.9C385.245 480.661 393.214 493.227 405.613 497.239L456.88 470.352L434.283 247.563L394.802 226.61H394.858Z" fill="#263238"/>
<path d="M649.605 517.049C643.587 502.171 641.107 485.537 631.523 472.637C623.498 461.826 610.737 454.052 606.753 441.208C601.793 425.298 612.353 408.246 609.873 391.779C607.087 373.167 589.172 361.159 578.918 345.36C557.102 311.675 556.6 264.866 544.201 234.495L457.521 390.136C469.084 457.953 472.818 520.867 489.925 587.486C524.948 598.492 574.07 602.56 608.898 590.941C606.641 583.307 604.357 575.644 602.1 568.01C606.084 574.279 613.635 578.654 621.241 579.378C632.359 580.437 643.141 575.589 652.754 569.905C664.205 563.134 674.821 554.97 684.35 545.692C668.329 546.751 655.624 531.956 649.578 517.077L649.605 517.049Z" fill="#263238"/>
<path d="M537.069 218.53C523.611 195.933 503.216 181.027 477.248 176.68C462.592 174.228 456.072 176.374 445.067 177.628C434.061 178.882 423.668 183.117 416.006 191.141C406.923 200.642 398.843 211.592 395.471 224.325C392.016 237.393 388.561 250.516 387.558 264.002C386.555 277.459 388.171 291.418 394.385 303.399L427.402 314.377C446.042 317.832 464.933 321.287 483.823 319.755C502.714 318.222 521.911 311.061 534.087 296.573C551 276.4 550.526 241.154 537.069 218.558V218.53Z" fill="#263238"/>
<path d="M506.921 213.765L464.402 189.023L452.394 188.633C425.813 184.732 403.077 211.285 399.678 232.767C395.888 256.618 392.21 285.901 393.381 304.096C395.693 340.651 425.506 348.146 425.506 348.146L423.974 382.835L413.915 392.531L399.288 468.011L453.982 482.416L512.382 357.508L495.553 358.232L517.063 227.696C517.815 221.121 513.413 215.075 506.948 213.765H506.921Z" fill="#FFBF9D"/>
<path d="M447.769 303.761C447.797 301.867 447.017 300.056 445.847 298.718C443.534 296.043 439.689 295.263 436.568 296.796C433.448 298.328 431.219 302.089 431.191 305.907C432.445 308.331 434.674 310.17 437.321 310.81C437.739 310.922 438.157 310.978 438.575 311.033C440.636 311.284 442.81 310.922 444.593 309.64C446.376 308.359 447.713 306.13 447.741 303.789L447.769 303.761Z" fill="#FF9A6C"/>
<path d="M410.544 264.753C410.237 267.177 412.02 269.462 414.556 269.824C417.091 270.214 419.404 268.543 419.71 266.119C420.017 263.695 418.234 261.41 415.698 261.048C413.163 260.658 410.85 262.329 410.544 264.753Z" fill="#263238"/>
<path d="M405.975 245.919C406.504 246.587 410.238 244.303 415.225 244.804C420.213 245.222 423.612 248.12 424.197 247.562C424.476 247.312 424.002 246.169 422.525 244.86C421.077 243.55 418.513 242.185 415.393 241.906C412.3 241.628 409.569 242.519 407.981 243.55C406.337 244.581 405.724 245.612 405.975 245.919Z" fill="#263238"/>
<path d="M431.888 289.329C431.943 289.05 428.906 288.214 423.947 287.1C422.693 286.849 421.523 286.487 421.383 285.595C421.161 284.648 421.829 283.338 422.582 281.917C424.058 278.964 425.619 275.843 427.262 272.611C433.782 259.349 438.63 248.399 438.101 248.12C437.572 247.869 431.832 258.401 425.34 271.664C423.752 274.952 422.247 278.072 420.826 281.054C420.213 282.447 419.238 284.007 419.684 285.985C419.935 286.96 420.798 287.741 421.606 288.047C422.386 288.381 423.111 288.465 423.724 288.549C428.739 289.301 431.86 289.607 431.916 289.329H431.888Z" fill="#263238"/>
<path d="M425.423 348.091C425.423 348.091 449.524 351.936 474.907 339.788C474.907 339.788 460.808 364.39 425.061 357.62L425.423 348.119V348.091Z" fill="#FF9A6C"/>
<path d="M446.18 294.148C445.372 294.037 444.842 299.414 439.883 302.814C434.895 306.213 429.211 305.071 429.1 305.823C428.989 306.157 430.27 306.993 432.694 307.3C435.063 307.606 438.629 307.16 441.666 305.098C444.703 303.009 446.208 300 446.598 297.798C447.016 295.569 446.542 294.176 446.18 294.176V294.148Z" fill="#263238"/>
<path d="M410.266 228.922C410.99 230.204 414.863 229.758 419.293 230.566C423.724 231.207 427.29 232.879 428.377 231.876C428.85 231.374 428.488 230.148 427.067 228.783C425.674 227.418 423.138 226.053 420.101 225.551C417.064 225.05 414.25 225.551 412.495 226.415C410.712 227.251 409.987 228.309 410.294 228.922H410.266Z" fill="#263238"/>
<path d="M465.546 269.129C465.323 271.581 463.038 273.392 460.503 273.169C457.967 272.974 456.073 270.828 456.296 268.404C456.519 265.952 458.803 264.141 461.339 264.336C463.902 264.531 465.769 266.677 465.546 269.101V269.129Z" fill="#263238"/>
<path d="M473.04 254.026C472.399 254.556 469.251 251.519 464.291 250.878C459.36 250.154 455.375 252.243 454.929 251.547C454.706 251.24 455.431 250.237 457.158 249.29C458.858 248.342 461.672 247.59 464.765 248.008C467.858 248.426 470.282 249.903 471.619 251.268C472.984 252.633 473.347 253.804 473.04 254.026Z" fill="#263238"/>
<path d="M472.456 237.783C471.341 238.786 467.663 237.115 463.066 236.446C458.496 235.638 454.484 236.084 453.732 234.774C453.425 234.161 454.178 233.102 456.017 232.266C457.828 231.431 460.753 230.929 463.902 231.431C467.05 231.932 469.641 233.325 471.09 234.69C472.567 236.056 472.929 237.282 472.428 237.783H472.456Z" fill="#263238"/>
<path d="M501.878 286.793C502.128 284.118 505.834 278.072 508.537 277.905C515.725 277.459 528.431 279.242 526.842 297.213C524.669 321.788 500.429 314.544 500.457 313.847C500.457 313.29 500.986 296.043 501.878 286.793Z" fill="#FFBF9D"/>
<path d="M508.035 305.489C508.035 305.489 508.425 305.823 509.122 306.213C509.79 306.603 510.989 306.938 512.326 306.548C515.001 305.823 517.564 301.895 518.066 297.465C518.316 295.236 518.066 293.062 517.397 291.223C516.812 289.357 515.753 287.991 514.471 287.657C513.19 287.239 512.215 287.936 511.852 288.604C511.462 289.273 511.574 289.774 511.434 289.802C511.351 289.858 510.933 289.357 511.239 288.353C511.379 287.88 511.713 287.323 512.354 286.905C512.995 286.487 513.886 286.319 514.778 286.487C516.673 286.793 518.205 288.688 518.929 290.694C519.737 292.728 520.1 295.18 519.821 297.66C519.236 302.591 516.282 306.994 512.633 307.718C510.877 308.024 509.456 307.356 508.76 306.715C508.063 306.046 507.979 305.489 508.063 305.433L508.035 305.489Z" fill="#FF9A6C"/>
<path d="M509.512 278.155L502.352 283.644C479.449 254.054 436.847 182.225 439.187 186.46C439.187 186.46 458.635 181.667 478 188.048C497.364 194.401 533.586 210.004 529.49 233.352C525.394 256.701 509.512 278.155 509.512 278.155Z" fill="#263238"/>
<path d="M587.889 543.017C569.472 521.312 550.219 497.657 547.544 469.32C546.012 453.132 550.135 436.554 546.597 420.7C543.058 404.847 532.415 391.723 524.028 377.82C515.67 363.889 506.336 286.236 512.41 271.19L494.271 265.422C483.906 290.387 485.884 393.395 499.453 416.772C505.36 426.942 513.413 436.275 515.781 447.755C519.375 465.197 508.983 483.112 511.741 500.694C515.502 524.767 542.808 542.85 539.241 566.979C556.739 562.047 573.317 553.883 587.889 543.017Z" fill="#263238"/>
<path d="M331.943 147.341C332.946 147.648 409.958 163.418 409.958 163.418L528.569 178.742L608.201 179.913L608.535 175.12L457.018 147.091L332.166 143.97L331.943 147.369V147.341Z" fill="#263238"/>
<path d="M400.68 211.174L409.931 163.446C409.931 163.446 459.498 145.391 534.03 178.826L545.343 237.421C545.343 237.421 504.607 205.156 441.387 210.171C441.387 210.171 415.615 199.556 400.68 211.174Z" fill="#455A64"/>
<path d="M541.859 219.199C541.859 219.199 513.774 204.125 487.694 198.609C461.587 193.092 442.39 197.271 442.39 197.271C420.713 188.857 403.577 197.271 403.577 197.271L400.735 211.175C415.698 199.556 441.443 210.172 441.443 210.172C504.663 205.129 545.398 237.421 545.398 237.421L541.887 219.199H541.859Z" fill="#407BFF"/>
<path d="M441.415 210.172C441.22 210.172 441.248 207.079 441.471 202.091C441.722 197.132 442.195 190.25 442.864 182.699C443.561 175.399 444.174 168.768 444.675 163.363C445.177 158.403 445.567 155.366 445.762 155.366C445.957 155.366 445.929 158.459 445.706 163.446C445.455 168.406 444.982 175.288 444.313 182.838C443.616 190.138 443.003 196.77 442.502 202.175C442 207.135 441.61 210.172 441.415 210.172Z" fill="#263238"/>
<path d="M608.201 179.885L456.071 152.106L331.943 147.341L332.166 143.942L457.715 146.756L608.535 175.092L608.201 179.885Z" fill="#455A64"/>
<path d="M456.183 152.579C455.793 152.579 455.543 151.214 455.654 149.626C455.765 148.01 456.183 146.728 456.574 146.756C456.964 146.756 457.214 148.121 457.103 149.709C456.991 151.326 456.574 152.607 456.183 152.579Z" fill="#263238"/>
<path d="M345.373 178.659L341.11 178.547C336.262 180.358 334.952 184.37 334.2 187.909C331.275 201.45 329.352 215.103 328.405 228.755C332.807 229.062 337.237 229.341 341.639 229.647C342.698 229.731 342.559 195.71 344.788 229.48C344.872 230.622 352.367 230.371 352.06 229.09C348.327 213.32 348.466 199.054 348.299 185.541C348.271 183.089 348.048 180.386 345.373 178.659Z" fill="#407BFF"/>
<path d="M345.401 172.752C345.652 168.6 346.153 164.477 346.906 160.381C347.546 157.038 348.187 153.583 349.831 150.573C351.391 147.731 353.76 145.28 356.992 144.555C361.032 143.636 365.156 145.447 368.638 147.313C370.617 148.372 372.372 145.363 370.394 144.304C366.326 142.131 361.784 140.292 357.075 140.989C353.119 141.574 349.887 144.081 347.686 147.341C345.429 150.657 344.482 154.586 343.701 158.458C342.754 163.167 342.141 167.932 341.862 172.724C341.723 174.953 345.206 174.953 345.345 172.724L345.401 172.752Z" fill="#407BFF"/>
<path d="M348.968 175.371C348.745 178.659 345.792 181.139 342.365 180.916C338.938 180.693 336.347 177.823 336.57 174.535C336.792 171.248 339.746 168.768 343.173 168.991C346.6 169.214 349.191 172.083 348.968 175.371Z" fill="#407BFF"/>
<path d="M348.969 175.371C348.969 175.371 348.83 174.814 348.579 173.923C348.328 173.031 347.743 171.777 346.461 170.802C345.235 169.827 343.229 169.242 341.223 169.827C339.245 170.356 337.406 172.223 337.267 174.563C337.1 176.904 338.66 179.021 340.554 179.802C342.449 180.637 344.511 180.331 345.876 179.523C347.269 178.743 348.049 177.573 348.384 176.737C348.746 175.901 348.83 175.344 348.941 175.344C349.025 175.344 349.136 175.901 348.913 176.904C348.69 177.879 347.966 179.328 346.406 180.387C344.873 181.446 342.421 181.975 340.025 181.028C337.657 180.164 335.595 177.517 335.818 174.452C336.013 171.415 338.409 169.075 340.861 168.517C343.341 167.876 345.709 168.74 347.102 169.994C348.523 171.248 349.025 172.78 349.136 173.783C349.22 174.814 349.025 175.344 348.969 175.344V175.371Z" fill="#263238"/>
<path d="M333.559 219.143C333.364 219.143 333.169 216.886 333.336 213.264C333.503 209.642 334.032 204.654 334.98 199.221C335.955 193.788 337.153 188.912 338.323 185.457C338.936 183.73 339.493 182.364 340.051 181.473C340.552 180.553 341.109 180.219 341.137 180.275C341.249 180.386 340.887 180.776 340.552 181.724C340.162 182.615 339.772 184.008 339.298 185.736C338.379 189.191 337.348 194.039 336.401 199.444C335.453 204.849 334.757 209.753 334.339 213.32C333.921 216.886 333.782 219.115 333.559 219.115V219.143Z" fill="#263238"/>
<path d="M340.331 210.032C339.941 210.032 339.467 203.401 340.08 195.209C340.665 187.017 342.086 180.498 342.476 180.553C342.894 180.609 342.114 187.185 341.529 195.293C340.944 203.401 340.749 210.004 340.331 210.032Z" fill="#263238"/>
<path d="M344.9 188.94C344.51 188.94 344.148 187.157 344.092 184.928C344.064 182.699 344.343 180.888 344.761 180.888C345.151 180.888 345.513 182.671 345.569 184.9C345.597 187.129 345.318 188.94 344.928 188.94H344.9Z" fill="#263238"/>
<path d="M363.345 144.778L373.264 144.945V148.261L362.537 147.37L363.345 144.778Z" fill="#455A64"/>
<path d="M348.382 667.87C347.156 669.709 318.792 766.503 323.111 797.932C327.429 829.361 348.382 922.45 348.382 922.45C348.382 922.45 361.338 975.472 358.858 996.425C356.406 1017.38 357.409 1087.54 364.403 1129.58C372.483 1178.12 381.148 1265.1 381.148 1265.1L443.672 1260.28L440.858 957.612L456.266 838.639L464.903 722.146L348.41 667.898L348.382 667.87Z" fill="#263238"/>
<path d="M563.118 673.219C564.344 675.058 592.708 771.852 588.389 803.281C584.07 834.71 563.118 927.799 563.118 927.799C563.118 927.799 550.162 980.822 552.642 1001.77C555.121 1022.73 550.803 1092.47 547.097 1134.93C542.945 1182.66 532.441 1265.66 532.441 1265.66L467.494 1261.43L470.67 962.962L455.262 843.989L446.625 727.495L563.118 673.247V673.219Z" fill="#263238"/>
<path d="M329.826 679.042C328.433 684.002 278.865 1034.29 287.531 1055.05C296.196 1075.8 333.95 1080.4 333.95 1080.4C333.95 1080.4 336.847 1159.59 402.631 1149.19C468.387 1138.8 541.86 1068.89 541.86 1068.89C541.86 1068.89 547.126 1098.32 559.218 1093.14C571.339 1087.95 609.65 1039.25 614.414 1039.25C619.179 1039.25 576.605 595.845 581.369 590.411C586.134 584.95 551.027 376.845 551.027 376.845L496.973 368.821L440.803 430.508L415.448 376.873L368.666 395.875L341.083 406.073L329.826 679.098V679.042Z" fill="#455A64"/>
<path opacity="0.3" d="M407.45 594.062C409.178 598.325 487.527 746.693 502.963 749.284C518.371 751.848 582.037 704.955 584.433 690.856L583.263 648.45L455.652 560.71" fill="black"/>
<path d="M555.959 376.79C555.959 376.79 585.41 382.891 590.369 407.773C595.357 432.682 625.086 535.216 619.012 567.453C612.938 599.662 570.308 698.825 542.641 716.211C514.973 733.597 514.388 730.811 514.388 730.811C514.388 730.811 425.869 612.395 423.11 595.232L420.352 578.069L530.353 535.69L536.818 418.138L555.959 376.762V376.79Z" fill="#455A64"/>
<path d="M418.066 376.789L424.781 364.251L444.09 387.517L489.784 353.023L492.626 365.672L496.973 368.765L444.09 434.521L432.359 430.453L418.066 376.789Z" fill="white"/>
<path d="M348.827 400.556L422.551 597.907L561.056 376.79L494.102 365.672L441.888 420.06L417.202 372.694L348.827 400.556Z" fill="#407BFF"/>
<path opacity="0.3" d="M326.927 697.905C326.927 697.905 336.902 719.025 352.366 707.546C384.157 683.918 395.831 613.008 395.831 613.008L422.579 597.906H440.829L447.823 573.833L470.614 563.635C470.614 563.635 493.267 569.152 502.963 560.71C512.659 552.24 529.377 526.188 529.377 526.188L471.339 527.247L335.286 644.855L326.955 697.905H326.927Z" fill="black"/>
<path d="M276.97 548.924C276.886 547.475 292.489 479.073 292.489 479.073C292.489 479.073 313.358 436.861 322.553 421.342C331.775 405.822 344.397 405.293 344.397 405.293L368.638 456.281L358.941 538.253L402.602 536.302C402.602 536.302 384.659 641.567 368.638 668.232C352.644 694.896 339.772 697.822 339.772 697.822C339.772 697.822 305.947 634.852 291.988 601.779C278.892 570.741 278.419 577.037 276.942 548.896L276.97 548.924Z" fill="#455A64"/>
<path d="M305.836 539.73C305.752 539.563 307.703 538.448 311.046 537.055C314.39 535.662 319.154 533.99 324.643 533.071C330.132 532.123 335.231 532.207 338.825 532.736C342.42 533.266 344.565 534.018 344.509 534.185C344.454 534.631 335.649 532.513 324.866 534.492C314.139 536.386 306.003 540.231 305.836 539.73Z" fill="#263238"/>
<path d="M318.653 517.105C318.709 516.743 325.758 518.47 333.086 523.346C340.47 528.166 344.788 533.962 344.51 534.157C344.175 534.463 339.467 529.225 332.306 524.544C325.173 519.808 318.514 517.523 318.681 517.105H318.653Z" fill="#263238"/>
<path d="M542.528 609.553C542.528 609.553 541.274 609.275 539.073 608.55C536.872 607.826 533.723 606.684 529.85 605.151C522.132 602.114 511.628 597.461 500.483 591.443C489.338 585.424 479.67 579.211 472.899 574.419C469.5 572.023 466.825 570.016 464.986 568.595C463.175 567.147 462.2 566.339 462.256 566.255C462.311 566.171 463.398 566.84 465.321 568.15C467.494 569.599 470.224 571.41 473.456 573.583C480.366 578.124 490.062 584.171 501.152 590.161C512.241 596.152 522.634 600.944 530.212 604.204C533.807 605.736 536.844 607.018 539.24 608.021C541.385 608.913 542.556 609.442 542.5 609.553H542.528Z" fill="#263238"/>
<path d="M565.181 576.257C565.181 576.257 563.788 576.369 561.252 576.313C558.717 576.257 555.094 576.118 550.581 575.812C541.581 575.227 529.154 574.001 515.558 571.855C501.961 569.682 489.757 567.007 481.008 564.778C476.634 563.664 473.123 562.688 470.699 561.936C468.275 561.212 466.965 560.766 466.993 560.654C466.993 560.571 468.386 560.822 470.838 561.379C473.569 561.992 477.051 562.8 481.231 563.747C490.008 565.725 502.184 568.233 515.753 570.406C529.322 572.552 541.665 573.945 550.636 574.781C554.899 575.171 558.466 575.477 561.252 575.728C563.76 575.951 565.153 576.118 565.153 576.23L565.181 576.257Z" fill="#263238"/>
<path d="M571.449 523.43C571.477 523.848 564.121 524.823 555.177 526.634C546.233 528.417 539.045 530.368 538.933 529.95C538.822 529.587 545.843 526.996 554.899 525.213C563.926 523.374 571.421 523.068 571.449 523.43Z" fill="#263238"/>
<path d="M403.383 1126.88C403.383 1126.88 403.327 1126.4 403.327 1125.51C403.327 1124.54 403.327 1123.23 403.299 1121.5C403.299 1117.91 403.299 1112.75 403.299 1106.12C403.299 1092.75 403.466 1073.41 403.773 1049.53C404.386 1001.75 405.807 935.74 408.537 862.88C411.296 789.991 414.862 724.041 417.844 676.368C419.348 652.517 420.63 633.236 421.633 619.89C422.134 613.287 422.524 608.132 422.803 604.538C422.942 602.838 423.054 601.501 423.137 600.554C423.221 599.662 423.305 599.188 423.305 599.188C423.305 599.188 423.305 599.662 423.305 600.554C423.249 601.529 423.193 602.838 423.11 604.538C422.915 608.104 422.608 613.287 422.218 619.89C421.438 633.292 420.295 652.573 418.902 676.368C416.172 724.068 412.773 790.019 410.014 862.88C407.284 935.74 405.695 1001.72 404.804 1049.5C404.414 1073.35 404.079 1092.66 403.857 1106.09C403.745 1112.72 403.662 1117.91 403.578 1121.47C403.522 1123.17 403.494 1124.51 403.466 1125.48C403.439 1126.38 403.383 1126.85 403.383 1126.85V1126.88Z" fill="#263238"/>
<path d="M362.481 746.721C362.871 746.749 356.797 822.368 348.884 915.596C340.971 1008.85 334.256 1084.39 333.866 1084.36C333.476 1084.33 339.55 1008.71 347.463 915.484C355.376 822.256 362.091 746.693 362.481 746.749V746.721Z" fill="#263238"/>
<path d="M581.145 879.736C581.535 879.736 581.87 917.824 581.87 964.773C581.87 1011.72 581.535 1049.81 581.145 1049.81C580.755 1049.81 580.421 1011.75 580.421 964.773C580.421 917.797 580.755 879.736 581.145 879.736Z" fill="#263238"/>
<path d="M473.457 1010.08C473.067 1010.08 472.148 963.324 471.451 905.676C470.755 848.001 470.504 801.247 470.894 801.247C471.284 801.247 472.204 847.973 472.9 905.648C473.597 963.296 473.847 1010.08 473.457 1010.08Z" fill="#263238"/>
<g opacity="0.3">
<path d="M335.176 1074.38L358.971 788.124C331.582 886.757 332.473 976.698 335.176 1074.38Z" fill="black"/>
</g>
<path d="M383.042 628.082C384.575 620.559 390.259 592.891 398.339 553.466C399.565 547.42 400.763 541.569 401.905 535.94L402.63 536.776C394.382 537.222 386.692 537.612 379.754 537.974H379.727C369.055 537.612 360.223 536.665 354.093 535.801C351.028 535.383 348.632 534.993 347.016 534.687C345.4 534.38 344.536 534.185 344.536 534.129C344.536 534.074 345.428 534.129 347.072 534.324C348.883 534.519 351.279 534.798 354.204 535.105C360.334 535.745 369.167 536.498 379.782 536.748H379.727C386.664 536.331 394.354 535.857 402.602 535.355L403.521 535.3L403.326 536.191C402.184 541.792 401.014 547.671 399.788 553.717C395.58 574.335 391.624 592.947 388.587 606.405C387.054 613.12 385.773 618.553 384.798 622.286C384.324 624.153 383.906 625.602 383.599 626.577C383.293 627.553 383.126 628.054 383.07 628.026L383.042 628.082Z" fill="#263238"/>
<path d="M347.935 469.795C348.799 470.073 364.096 486.233 366.074 492.196C368.052 498.159 379.727 537.417 379.727 537.417C379.727 537.417 354.177 536.693 347.935 533.878C341.694 531.036 337.738 527.637 337.738 527.637L323.556 515.74C323.556 515.74 314.472 512.341 314.472 505.542L315.893 503.62L330.354 507.799C330.354 507.799 316.479 502.143 314.472 497.016C312.494 491.917 314.472 491.054 314.472 491.054L342.809 500.137L331.469 491.36C331.469 491.36 317.287 486.819 317.872 481.441L319.014 479.463L336.01 482.305L349.607 489.103C349.607 489.103 343.087 477.206 343.087 472.386C343.087 467.566 347.908 469.822 347.908 469.822L347.935 469.795Z" fill="#FFBF9D"/>
<path d="M352.227 524.099C352.032 524.21 351.196 522.873 349.469 521.034C347.769 519.195 345.15 516.882 342.002 514.709C335.677 510.279 329.742 508.078 329.909 507.66C329.993 507.297 336.318 508.969 342.837 513.511C346.097 515.768 348.689 518.303 350.277 520.365C351.865 522.455 352.394 524.015 352.255 524.071L352.227 524.099Z" fill="#FF9A6C"/>
<path d="M358.692 514.681C358.385 514.96 354.902 511.393 350.417 507.242C345.931 503.062 342.141 499.858 342.392 499.524C342.615 499.217 346.878 501.948 351.42 506.183C355.961 510.39 359.026 514.43 358.72 514.681H358.692Z" fill="#FF9A6C"/>
<path d="M366.798 511.895C366.491 512.118 362.228 506.768 357.993 499.496C355.764 495.93 354.399 492.252 352.56 490.497C350.665 488.658 348.826 488.881 348.826 488.658C348.687 488.491 350.805 487.822 353.229 489.717C354.399 490.636 355.402 492.057 356.294 493.645C357.241 495.289 358.216 496.989 359.247 498.744C363.454 505.933 367.132 511.644 366.798 511.867V511.895Z" fill="#FF9A6C"/>
<path d="M507.086 368.765C507.086 368.765 506.752 369.266 506 370.13C505.136 371.105 504.049 372.331 502.712 373.864C499.675 377.207 495.496 381.805 490.369 387.405C479.725 398.856 465.265 414.459 449.244 431.706C446.151 435.022 443.086 438.282 440.188 441.403L439.52 442.127L439.046 441.263C429.127 423.459 420.378 407.745 413.998 396.293C410.961 390.748 408.509 386.235 406.726 382.919C405.945 381.442 405.332 380.244 404.831 379.297C404.413 378.461 404.218 378.015 404.246 377.987C404.274 377.987 404.552 378.377 405.054 379.158C405.611 380.077 406.308 381.247 407.171 382.668C409.066 385.9 411.657 390.358 414.834 395.819C421.326 407.215 430.214 422.846 440.328 440.539L439.185 440.399C442.083 437.279 445.148 434.019 448.241 430.703C464.373 413.568 478.945 398.076 489.672 386.68C494.938 381.192 499.229 376.706 502.35 373.446C503.771 371.997 504.941 370.827 505.86 369.907C506.669 369.099 507.114 368.709 507.142 368.737L507.086 368.765Z" fill="#263238"/>
<path d="M440.69 528.473C439.715 528.724 402.518 536.553 402.518 536.553L388.058 607.854L414.388 589.297C414.388 589.297 438.043 586.399 438.795 586.399C439.548 586.399 440.718 528.473 440.718 528.473H440.69Z" fill="white"/>
<path d="M575.768 344.58L502.935 504.038L529.767 518.443L601.123 354.973C601.123 354.973 595.244 336.277 575.74 344.608L575.768 344.58Z" fill="#E0E0E0"/>
<path d="M581.758 343.466C582.12 343.633 568.83 375.09 552.084 413.736C535.339 452.381 521.463 483.587 521.073 483.42C520.711 483.253 533.974 451.796 550.747 413.15C567.492 374.505 581.368 343.299 581.73 343.466H581.758Z" fill="#263238"/>
<path d="M496.387 485.927L473.902 515.907L440.69 529.727L439.631 569.236L472.899 552.407C472.899 552.407 482.316 554.58 487.387 551.683C492.458 548.785 508.897 533.544 508.897 533.544L520.265 535.244C520.265 535.244 517.367 537.891 518.343 541.541C519.318 545.163 523.414 544.689 523.414 544.689C523.414 544.689 531.159 540.816 531.382 538.392C531.605 535.968 531.382 534.519 531.382 534.519C531.382 534.519 534.531 534.519 535.729 530.897C536.927 527.275 537.428 524.851 537.428 524.851C537.428 524.851 542.026 521.702 542.249 517.356L542.499 513.009C542.499 513.009 546.372 512.759 547.097 509.861C547.821 506.963 548.072 498.019 547.097 496.097C546.121 494.174 536.453 482.082 532.357 482.082C528.262 482.082 499.898 481.218 496.359 485.955L496.387 485.927Z" fill="#FFBF9D"/>
<path d="M531.884 535.745C531.633 535.745 531.661 533.934 531.159 531.176C530.881 529.839 530.379 528.223 529.181 526.969C528.039 525.715 526.061 525.046 524.027 524.127C515.974 520.56 509.594 517.384 509.761 517.022C509.928 516.66 516.587 519.251 524.64 522.789C526.59 523.681 528.735 524.405 530.184 526.049C531.605 527.637 532.023 529.532 532.19 531.009C532.441 533.99 532.051 535.745 531.912 535.745H531.884Z" fill="#FF9A6C"/>
<path d="M535.7 526.941C535.505 527.024 534.836 524.823 534.781 521.285C534.697 519.557 534.669 517.44 533.806 515.489C532.97 513.511 530.936 512.174 528.484 511.226C518.593 507.27 510.29 504.818 510.401 504.4C510.457 504.205 512.602 504.595 516.001 505.515C519.401 506.434 524.026 507.883 529.041 509.889C531.521 510.836 534.112 512.508 535.031 514.96C535.979 517.328 535.812 519.529 535.784 521.285C535.561 524.795 535.839 526.885 535.672 526.941H535.7Z" fill="#FF9A6C"/>
<path d="M509.481 493.143C509.537 492.948 511.961 493.394 515.862 494.258C519.763 495.122 525.14 496.403 531.019 497.936C533.861 498.688 537.093 499.273 539.072 501.614C540.938 503.926 541.189 506.545 541.356 508.524C541.468 512.564 541.941 514.876 541.802 514.96C541.718 514.988 541.384 514.43 541.105 513.344C540.799 512.257 540.604 510.613 540.353 508.635C540.075 506.713 539.684 504.316 538.068 502.505C536.48 500.694 533.61 500.109 530.657 499.357C524.75 497.852 519.428 496.403 515.583 495.289C511.738 494.174 509.398 493.394 509.454 493.199L509.481 493.143Z" fill="#FF9A6C"/>
<path d="M533.082 438.059C533.082 438.059 549.52 434.632 559.328 450.765L565.653 436.276C565.653 436.276 559.049 420.088 538.933 425.27L533.082 438.059Z" fill="#407BFF"/>
<path d="M564.845 433.963C564.009 434.381 560.749 430.285 557.935 422.372C556.57 418.36 555.288 413.651 554.842 407.856C554.675 404.958 554.787 401.671 556.013 398.271C557.238 395.095 559.467 391.055 564.65 389.801C565.959 389.55 567.408 389.606 568.718 390.024C570.027 390.442 571.142 391.194 572.006 392.03C573.733 393.674 574.68 395.847 575.043 397.742C575.433 399.664 575.377 401.364 575.293 402.841C575.21 404.318 575.07 405.711 574.903 407.104C574.235 412.621 572.981 417.469 571.616 421.397C568.801 429.282 565.625 433.406 564.789 433.016C563.814 432.57 565.263 427.778 566.656 420.088C567.353 416.243 567.993 411.645 568.244 406.547C568.328 404.039 568.523 401.058 568.077 399.247C567.854 398.299 567.492 397.714 567.018 397.268C566.545 396.878 566.405 396.878 566.015 396.934C565.597 396.99 564.817 397.435 564.204 398.132C563.591 398.773 563.062 399.748 562.644 400.779C561.808 402.841 561.529 405.265 561.501 407.661C561.501 412.509 562.226 417.274 562.867 421.063C564.26 428.753 565.764 433.517 564.817 433.963H564.845Z" fill="#407BFF"/>
<path d="M563.562 434.019C563.34 433.629 564.064 432.57 565.931 431.372C567.77 430.174 570.751 428.864 574.735 428.307C578.664 427.722 583.624 428.001 588.695 429.895C591.23 430.843 593.793 432.208 596.162 434.075C597.332 434.966 598.53 435.969 599.672 437.474C600.23 438.226 600.759 439.09 601.149 440.121C601.567 441.18 601.79 442.322 601.762 443.52C601.762 444.69 601.483 445.972 600.843 447.17C600.202 448.396 599.171 449.399 598.028 450.04C595.716 451.294 593.654 451.21 592.038 451.099C590.338 450.931 589.112 450.597 587.775 450.291C586.465 449.956 585.184 449.594 583.958 449.176C579.054 447.532 575.014 445.22 571.893 442.935C565.68 438.282 563.284 434.047 563.98 433.434C564.733 432.681 568.327 435.468 574.596 438.56C577.717 440.065 581.534 441.653 585.908 442.768C586.995 443.046 588.137 443.297 589.28 443.52C590.422 443.715 591.704 443.966 592.623 444.021C593.598 444.105 594.351 443.91 594.434 443.799L594.462 443.771C594.713 443.994 594.351 443.715 594.462 443.771C594.462 443.771 594.518 443.631 594.518 443.409C594.685 442.74 593.57 441.068 591.704 439.619C589.976 438.17 588.082 437 586.159 436.109C582.286 434.325 578.357 433.601 575.042 433.489C568.327 433.239 564.12 435.078 563.59 434.075L563.562 434.019Z" fill="#407BFF"/>
</g>
<defs>
<clipPath id="clip0_2024_1404">
<rect width="939" height="939" fill="white"/>
</clipPath>
</defs>
</svg>
